999
dxfrw 0.6.3
  0
SECTION
  2
HEADER
  9
$ACADVER
  1
AC1009
  9
$DWGCODEPAGE
  3
ANSI_1252
  9
$INSBASE
 10
0
 20
0
 30
0
  9
$EXTMIN
 10
1e+20
 20
1e+20
 30
1e+20
  9
$EXTMAX
 10
-1e+20
 20
-1e+20
 30
-1e+20
  9
$LIMMIN
 10
0
 20
0
  9
$LIMMAX
 10
420
 20
297
  9
$ORTHOMODE
 70
    0
  9
$REGENMODE
 70
    1
  9
$FILLMODE
 70
    1
  9
$QTEXTMODE
 70
    0
  9
$MIRRTEXT
 70
    0
  9
$DRAGMODE
 70
    2
  9
$LTSCALE
 40
1
  9
$OSMODE
 70
    0
  9
$ATTMODE
 70
    0
  9
$TEXTSIZE
 40
2.5
  9
$TRACEWID
 40
15.68
  9
$TEXTSTYLE
  7
STANDARD
  9
$CLAYER
  8
1
  9
$CELTYPE
  6
BYLAYER
  9
$CECOLOR
 62
  256
  9
$DIMSCALE
 40
1
  9
$DIMASZ
 40
2.5
  9
$DIMEXO
 40
0.625
  9
$DIMDLI
 40
3.75
  9
$DIMRND
 40
0
  9
$DIMDLE
 40
0
  9
$DIMEXE
 40
1.25
  9
$DIMTP
 40
0
  9
$DIMTM
 40
0
  9
$DIMTXT
 40
2.5
  9
$DIMCEN
 40
2.5
  9
$DIMTSZ
 40
0
  9
$DIMTOL
 70
    0
  9
$DIMLIM
 70
    0
  9
$DIMTIH
 70
    0
  9
$DIMTOH
 70
    0
  9
$DIMSE1
 70
    0
  9
$DIMSE2
 70
    0
  9
$DIMTAD
 70
    1
  9
$DIMZIN
 70
    8
  9
$DIMBLK
  1

  9
$DIMASO
 70
    1
  9
$DIMSHO
 70
    1
  9
$DIMPOST
  1

  9
$DIMAPOST
  1

  9
$DIMALT
 70
    0
  9
$DIMALTD
 70
    3
  9
$DIMALTF
 40
0.03937
  9
$DIMLFAC
 40
1
  9
$DIMTOFL
 70
    1
  9
$DIMTVP
 40
0
  9
$DIMTIX
 70
    0
  9
$DIMSOXD
 70
    0
  9
$DIMSAH
 70
    0
  9
$DIMBLK1
  1

  9
$DIMBLK2
  1

  9
$DIMSTYLE
  2
STANDARD
  9
$DIMCLRD
 70
    0
  9
$DIMCLRE
 70
    0
  9
$DIMCLRT
 70
    0
  9
$DIMTFAC
 40
1
  9
$DIMGAP
 40
0.625
  9
$LUNITS
 70
    2
  9
$LUPREC
 70
    4
  9
$SKETCHINC
 40
1
  9
$FILLETRAD
 40
0
  9
$AUNITS
 70
    0
  9
$AUPREC
 70
    2
  9
$MENU
  1
.
  9
$ELEVATION
 40
0
  9
$PELEVATION
 40
0
  9
$THICKNESS
 40
0
  9
$LIMCHECK
 70
    0
  9
$BLIPMODE
 70
    0
  9
$CHAMFERA
 40
0
  9
$CHAMFERB
 40
0
  9
$SKPOLY
 70
    0
  9
$USRTIMER
 70
    1
  9
$ANGBASE
 50
0
  9
$ANGDIR
 70
    0
  9
$PDMODE
 70
   34
  9
$PDSIZE
 40
0
  9
$PLINEWID
 40
0
  9
$COORDS
 70
    2
  9
$SPLFRAME
 70
    0
  9
$SPLINETYPE
 70
    2
  9
$SPLINESEGS
 70
    8
  9
$ATTDIA
 70
    1
  9
$ATTREQ
 70
    1
  9
$HANDSEED
  5
20000
  9
$SURFTAB1
 70
    6
  9
$SURFTAB2
 70
    6
  9
$SURFTYPE
 70
    6
  9
$SURFU
 70
    6
  9
$SURFV
 70
    6
  9
$TDCREATE
 40
20260711.21143459
  9
$UCSNAME
  2

  9
$UCSORG
 10
0
 20
0
 30
0
  9
$UCSXDIR
 10
1
 20
0
 30
0
  9
$UCSYDIR
 10
0
 20
1
 30
0
  9
$PUCSNAME
  2

  9
$PUCSORG
 10
0
 20
0
 30
0
  9
$PUCSXDIR
 10
1
 20
0
 30
0
  9
$PUCSYDIR
 10
0
 20
1
 30
0
  9
$USERI1
 70
    0
  9
$USERI2
 70
    0
  9
$USERI3
 70
    0
  9
$USERI4
 70
    0
  9
$USERI5
 70
    0
  9
$USERR1
 40
0
  9
$USERR2
 40
0
  9
$USERR3
 40
0
  9
$USERR4
 40
0
  9
$USERR5
 40
0
  9
$WORLDVIEW
 70
    1
  9
$SHADEDGE
 70
    3
  9
$SHADEDIF
 70
   70
  9
$TILEMODE
 70
    1
  9
$MAXACTVP
 70
   64
  9
$PLIMCHECK
 70
    0
  9
$PEXTMIN
 10
0
 20
0
 30
0
  9
$PEXTMAX
 10
0
 20
0
 30
0
  9
$PLIMMIN
 10
0
 20
0
  9
$PLIMMAX
 10
297
 20
210
  9
$UNITMODE
 70
    0
  9
$VISRETAIN
 70
    1
  9
$PLINEGEN
 70
    0
  9
$PSLTSCALE
 70
    1
  0
ENDSEC
  0
SECTION
  2
TABLES
  0
TABLE
  2
VPORT
 70
    1
  0
VPORT
  2
*ACTIVE
 70
    0
 10
0
 20
0
 11
1
 21
1
 12
0.651828
 22
-0.16
 13
0
 23
0
 14
10
 24
10
 15
10
 25
10
 16
0
 26
0
 36
1
 17
0
 27
0
 37
0
 40
297
 41
2.4426877
 42
50
 43
0
 44
0
 50
0
 51
0
 71
    0
 72
  100
 73
    1
 74
    3
 75
    0
 76
    0
 77
    0
 78
    0
  0
ENDTAB
  0
TABLE
  2
LTYPE
 70
    4
  0
LTYPE
  2
BYBLOCK
 70
    0
  3

 72
   65
 73
    0
 40
0
  0
LTYPE
  2
BYLAYER
 70
    0
  3

 72
   65
 73
    0
 40
0
  0
LTYPE
  2
CONTINUOUS
 70
    0
  3
Solid line
 72
   65
 73
    0
 40
0
  0
ENDTAB
  0
TABLE
  2
LAYER
 70
    1
  0
LAYER
  2
1
 70
    0
 62
  250
  6
CONTINUOUS
  0
LAYER
  2
2
 70
    0
 62
  250
  6
CONTINUOUS
  0
LAYER
  2
3
 70
    0
 62
  250
  6
CONTINUOUS
  0
LAYER
  2
4
 70
    0
 62
  250
  6
CONTINUOUS
  0
LAYER
  2
6
 70
    0
 62
  250
  6
CONTINUOUS
  0
LAYER
  2
7
 70
    0
 62
  250
  6
CONTINUOUS
  0
LAYER
  2
8
 70
    0
 62
  250
  6
CONTINUOUS
  0
LAYER
  2
11
 70
    0
 62
  250
  6
CONTINUOUS
  0
LAYER
  2
13
 70
    0
 62
  250
  6
CONTINUOUS
  0
LAYER
  2
14
 70
    0
 62
  250
  6
CONTINUOUS
  0
LAYER
  2
15
 70
    0
 62
  250
  6
CONTINUOUS
  0
LAYER
  2
80
 70
    0
 62
  250
  6
CONTINUOUS
  0
LAYER
  2
81
 70
    0
 62
  250
  6
CONTINUOUS
  0
LAYER
  2
82
 70
    0
 62
  250
  6
CONTINUOUS
  0
LAYER
  2
83
 70
    0
 62
  250
  6
CONTINUOUS
  0
LAYER
  2
84
 70
    0
 62
  250
  6
CONTINUOUS
  0
LAYER
  2
85
 70
    0
 62
  250
  6
CONTINUOUS
  0
LAYER
  2
86
 70
    0
 62
  250
  6
CONTINUOUS
  0
LAYER
  2
87
 70
    0
 62
  250
  6
CONTINUOUS
  0
ENDTAB
  0
TABLE
  2
STYLE
 70
    3
  0
STYLE
  2
STANDARD
 70
    0
 40
0
 41
1
 50
0
 71
    0
 42
2.5
  3
TXT
  4

  0
STYLE
  2
YU GOTHIC UI_BOLD
 70
    0
 40
0
 41
1
 50
0
 71
    0
 42
1
  3
YU GOTHIC UI
  4

  0
STYLE
  2
YU GOTHIC UI
 70
    0
 40
0
 41
1
 50
0
 71
    0
 42
1
  3
YU GOTHIC UI
  4

  0
ENDTAB
  0
TABLE
  2
VIEW
 70
    0
  0
ENDTAB
  0
TABLE
  2
UCS
 70
    0
  0
ENDTAB
  0
TABLE
  2
APPID
 70
    1
  0
APPID
  2
ACAD
 70
    0
  0
APPID
  2
VALENTINA
 70
    0
  0
ENDTAB
  0
TABLE
  2
DIMSTYLE
 70
    1
  0
DIMSTYLE
  2
STANDARD
 70
    0
  3

  4

  5

  6

  7

 40
1
 41
2.5
 42
0.625
 43
3.75
 44
1.25
 45
0
 46
0
 47
0
 48
0
 49
1
140
2.5
141
2.5
142
0
143
0.03937007874015748
144
1
145
0
146
1
147
0.625
 71
    0
 72
    0
 73
    0
 74
    0
 75
    0
 76
    0
 77
    1
 78
    8
170
    0
171
    3
172
    1
173
    0
174
    0
175
    0
176
    0
177
    0
178
    0
  0
ENDTAB
  0
ENDSEC
  0
SECTION
  2
BLOCKS
  0
BLOCK
  8
1
  2
BACK
 70
    0
 10
0
 20
0
  3
BACK
  1

  0
POLYLINE
  8
1
  6
BYLAYER
 62
  256
 66
    1
 10
0
 20
0
 30
0
 70
    1
  0
VERTEX
  8
1
  6
BYLAYER
 62
  256
 10
799.2526365048877
 20
1035.419934248872
 30
0
  0
VERTEX
  8
1
  6
BYLAYER
 62
  256
 10
911.8171005008396
 20
993.1766910588037
 30
0
  0
VERTEX
  8
1
  6
BYLAYER
 62
  256
 10
911.811050817274
 20
968.5699876826346
 30
0
  0
VERTEX
  8
1
  6
BYLAYER
 62
  256
 10
927.995358963195
 20
987.1053068727464
 30
0
  0
VERTEX
  8
1
  6
BYLAYER
 62
  256
 10
979.1095534603194
 20
967.9231487390382
 30
0
  0
VERTEX
  8
1
  6
BYLAYER
 62
  256
 10
979.1035037767539
 20
943.316445362869
 30
0
  0
VERTEX
  8
1
  6
BYLAYER
 62
  256
 10
995.2878119226747
 20
961.8517645529809
 30
0
  0
VERTEX
  8
1
  6
BYLAYER
 62
  256
 10
1073.028708216062
 20
932.6771256718016
 30
0
  0
VERTEX
  8
1
  6
BYLAYER
 62
  256
 10
1065.590113443369
 20
912.2333048052943
 30
0
  0
VERTEX
  8
1
  6
BYLAYER
 62
  256
 10
1064.287978161998
 20
908.1033207743645
 30
0
  0
VERTEX
  8
1
  6
BYLAYER
 62
  256
 10
1062.302830035341
 20
900.5876590444166
 30
0
  0
VERTEX
  8
1
  6
BYLAYER
 62
  256
 10
1059.747369123276
 20
888.3234951071667
 30
0
  0
VERTEX
  8
1
  6
BYLAYER
 62
  256
 10
1057.364537807682
 20
874.0901879281639
 30
0
  0
VERTEX
  8
1
  6
BYLAYER
 62
  256
 10
1055.169249272085
 20
858.2503573218406
 30
0
  0
VERTEX
  8
1
  6
BYLAYER
 62
  256
 10
1053.164371149874
 20
841.1740564865472
 30
0
  0
VERTEX
  8
1
  6
BYLAYER
 62
  256
 10
1051.342752051766
 20
823.2058006742366
 30
0
  0
VERTEX
  8
1
  6
BYLAYER
 62
  256
 10
1049.693844508665
 20
804.6899077569462
 30
0
  0
VERTEX
  8
1
  6
BYLAYER
 62
  256
 10
1047.490736768061
 20
776.4979989535203
 30
0
  0
VERTEX
  8
1
  6
BYLAYER
 62
  256
 10
1045.036787831952
 20
739.8335926276098
 30
0
  0
VERTEX
  8
1
  6
BYLAYER
 62
  256
 10
1042.995239778428
 20
706.7255864581408
 30
0
  0
VERTEX
  8
1
  6
BYLAYER
 62
  256
 10
1041.204870037801
 20
679.2698811150765
 30
0
  0
VERTEX
  8
1
  6
BYLAYER
 62
  256
 10
1039.856908598921
 20
663.5752707058929
 30
0
  0
VERTEX
  8
1
  6
BYLAYER
 62
  256
 10
1038.210554718891
 20
650.3527017461877
 30
0
  0
VERTEX
  8
1
  6
BYLAYER
 62
  256
 10
1034.62442609993
 20
625.9509286374821
 30
0
  0
VERTEX
  8
1
  6
BYLAYER
 62
  256
 10
1027.870422056844
 20
585.0604838582136
 30
0
  0
VERTEX
  8
1
  6
BYLAYER
 62
  256
 10
1019.570881074949
 20
537.720098997362
 30
0
  0
VERTEX
  8
1
  6
BYLAYER
 62
  256
 10
1005.577511810865
 20
460.5746138571737
 30
0
  0
VERTEX
  8
1
  6
BYLAYER
 62
  256
 10
987.2732302466167
 20
361.0397212520953
 30
0
  0
VERTEX
  8
1
  6
BYLAYER
 62
  256
 10
978.5519562056111
 20
311.7776389716511
 30
0
  0
VERTEX
  8
1
  6
BYLAYER
 62
  256
 10
975.2628744033367
 20
289.2626749287442
 30
0
  0
VERTEX
  8
1
  6
BYLAYER
 62
  256
 10
969.9186089026379
 20
249.5434080637504
 30
0
  0
VERTEX
  8
1
  6
BYLAYER
 62
  256
 10
963.7596039346309
 20
206.5212795957155
 30
0
  0
VERTEX
  8
1
  6
BYLAYER
 62
  256
 10
960.29454492019
 20
185.2879198332274
 30
0
  0
VERTEX
  8
1
  6
BYLAYER
 62
  256
 10
957.8159905222169
 20
171.5200703597127
 30
0
  0
VERTEX
  8
1
  6
BYLAYER
 62
  256
 10
955.1805607091914
 20
158.2788523049083
 30
0
  0
VERTEX
  8
1
  6
BYLAYER
 62
  256
 10
952.3608439276946
 20
145.677277634476
 30
0
  0
VERTEX
  8
1
  6
BYLAYER
 62
  256
 10
949.3231427871299
 20
133.832585453116
 30
0
  0
VERTEX
  8
1
  6
BYLAYER
 62
  256
 10
946.0451793715184
 20
122.9396089507441
 30
0
  0
VERTEX
  8
1
  6
BYLAYER
 62
  256
 10
939.6056956755311
 20
104.6258499999999
 30
0
  0
VERTEX
  8
1
  6
BYLAYER
 62
  256
 10
907.3569642888908
 20
104.6258499999999
 30
0
  0
VERTEX
  8
1
  6
BYLAYER
 62
  256
 10
905.8591655807427
 20
104.3357186693633
 30
0
  0
VERTEX
  8
1
  6
BYLAYER
 62
  256
 10
897.1244085044295
 20
102.1714333140824
 30
0
  0
VERTEX
  8
1
  6
BYLAYER
 62
  256
 10
880.2285978931428
 20
97.50033592068341
 30
0
  0
VERTEX
  8
1
  6
BYLAYER
 62
  256
 10
860.3952940003496
 20
92.21656420402425
 30
0
  0
VERTEX
  8
1
  6
BYLAYER
 62
  256
 10
846.3910962390095
 20
88.96155399550578
 30
0
  0
VERTEX
  8
1
  6
BYLAYER
 62
  256
 10
835.789094746663
 20
86.95852211051924
 30
0
  0
VERTEX
  8
1
  6
BYLAYER
 62
  256
 10
828.6403851802589
 20
85.87759255693511
 30
0
  0
VERTEX
  8
1
  6
BYLAYER
 62
  256
 10
821.5629363136244
 20
85.09178066703213
 30
0
  0
VERTEX
  8
1
  6
BYLAYER
 62
  256
 10
814.518972748889
 20
84.65812936805973
 30
0
  0
VERTEX
  8
1
  6
BYLAYER
 62
  256
 10
807.6065272511108
 20
84.65812936805973
 30
0
  0
VERTEX
  8
1
  6
BYLAYER
 62
  256
 10
800.5625636863756
 20
85.09178066703213
 30
0
  0
VERTEX
  8
1
  6
BYLAYER
 62
  256
 10
793.4851148197409
 20
85.877592556935
 30
0
  0
VERTEX
  8
1
  6
BYLAYER
 62
  256
 10
786.3364052533369
 20
86.95852211051924
 30
0
  0
VERTEX
  8
1
  6
BYLAYER
 62
  256
 10
775.7344037609905
 20
88.96155399550565
 30
0
  0
VERTEX
  8
1
  6
BYLAYER
 62
  256
 10
761.7302059996501
 20
92.21656420402425
 30
0
  0
VERTEX
  8
1
  6
BYLAYER
 62
  256
 10
741.8969021068573
 20
97.50033592068341
 30
0
  0
VERTEX
  8
1
  6
BYLAYER
 62
  256
 10
725.0010914955702
 20
102.1714333140824
 30
0
  0
VERTEX
  8
1
  6
BYLAYER
 62
  256
 10
716.2663344192572
 20
104.3357186693633
 30
0
  0
VERTEX
  8
1
  6
BYLAYER
 62
  256
 10
701.6746542716801
 20
107.1622023312939
 30
0
  0
VERTEX
  8
1
  6
BYLAYER
 62
  256
 10
696.1386551221583
 20
122.7151580886375
 30
0
  0
VERTEX
  8
1
  6
BYLAYER
 62
  256
 10
692.7177282837114
 20
133.3138742130844
 30
0
  0
VERTEX
  8
1
  6
BYLAYER
 62
  256
 10
689.3155621961608
 20
144.9150258472741
 30
0
  0
VERTEX
  8
1
  6
BYLAYER
 62
  256
 10
685.9415609161481
 20
157.3608575761521
 30
0
  0
VERTEX
  8
1
  6
BYLAYER
 62
  256
 10
680.9657328924895
 20
177.1608476713337
 30
0
  0
VERTEX
  8
1
  6
BYLAYER
 62
  256
 10
674.5404634547314
 20
205.2509740611657
 30
0
  0
VERTEX
  8
1
  6
BYLAYER
 62
  256
 10
668.460849736566
 20
234.0104382057486
 30
0
  0
VERTEX
  8
1
  6
BYLAYER
 62
  256
 10
662.8650323969746
 20
262.165448117168
 30
0
  0
VERTEX
  8
1
  6
BYLAYER
 62
  256
 10
655.594660081322
 20
300.8811802365425
 30
0
  0
VERTEX
  8
1
  6
BYLAYER
 62
  256
 10
648.6306022170128
 20
340.5390722793055
 30
0
  0
VERTEX
  8
1
  6
BYLAYER
 62
  256
 10
641.2270463196807
 20
385.6493577204705
 30
0
  0
VERTEX
  8
1
  6
BYLAYER
 62
  256
 10
629.080555137264
 20
461.7420708960587
 30
0
  0
VERTEX
  8
1
  6
BYLAYER
 62
  256
 10
616.3780164611054
 20
539.0064664243081
 30
0
  0
VERTEX
  8
1
  6
BYLAYER
 62
  256
 10
610.1343854684103
 20
574.6425142962339
 30
0
  0
VERTEX
  8
1
  6
BYLAYER
 62
  256
 10
606.0803210704426
 20
596.5603058332952
 30
0
  0
VERTEX
  8
1
  6
BYLAYER
 62
  256
 10
602.1557366053444
 20
616.497160681224
 30
0
  0
VERTEX
  8
1
  6
BYLAYER
 62
  256
 10
598.408257080848
 20
634.0195370944716
 30
0
  0
VERTEX
  8
1
  6
BYLAYER
 62
  256
 10
594.8923416850305
 20
648.6947583534874
 30
0
  0
VERTEX
  8
1
  6
BYLAYER
 62
  256
 10
592.4811713357639
 20
657.3846075619139
 30
0
  0
VERTEX
  8
1
  6
BYLAYER
 62
  256
 10
591.026005955146
 20
661.9993200256436
 30
0
  0
VERTEX
  8
1
  6
BYLAYER
 62
  256
 10
580.937522203653
 20
690.4711766060659
 30
0
  0
VERTEX
  8
1
  6
BYLAYER
 62
  256
 10
612.5031014041211
 20
690.6443381990144
 30
0
  0
VERTEX
  8
1
  6
BYLAYER
 62
  256
 10
618.8909139928227
 20
690.8624546282595
 30
0
  0
VERTEX
  8
1
  6
BYLAYER
 62
  256
 10
624.7246703537691
 20
691.2804707372539
 30
0
  0
VERTEX
  8
1
  6
BYLAYER
 62
  256
 10
630.0759080810712
 20
691.8845796600662
 30
0
  0
VERTEX
  8
1
  6
BYLAYER
 62
  256
 10
634.963306139329
 20
692.6580324346703
 30
0
  0
VERTEX
  8
1
  6
BYLAYER
 62
  256
 10
639.4082967962343
 20
693.5833724410345
 30
0
  0
VERTEX
  8
1
  6
BYLAYER
 62
  256
 10
643.4358528821441
 20
694.6430953627888
 30
0
  0
VERTEX
  8
1
  6
BYLAYER
 62
  256
 10
647.0751385802109
 20
695.8206507623892
 30
0
  0
VERTEX
  8
1
  6
BYLAYER
 62
  256
 10
650.3598148704233
 20
697.1017559190341
 30
0
  0
VERTEX
  8
1
  6
BYLAYER
 62
  256
 10
653.3277733620849
 20
698.4758770059063
 30
0
  0
VERTEX
  8
1
  6
BYLAYER
 62
  256
 10
656.0201359097501
 20
699.9376015718769
 30
0
  0
VERTEX
  8
1
  6
BYLAYER
 62
  256
 10
658.4795214710866
 20
701.4875389503912
 30
0
  0
VERTEX
  8
1
  6
BYLAYER
 62
  256
 10
660.7478132568368
 20
703.1324122447671
 30
0
  0
VERTEX
  8
1
  6
BYLAYER
 62
  256
 10
662.8638657030853
 20
704.8841809640896
 30
0
  0
VERTEX
  8
1
  6
BYLAYER
 62
  256
 10
664.8616613155198
 20
706.7583107274239
 30
0
  0
VERTEX
  8
1
  6
BYLAYER
 62
  256
 10
666.7089099010586
 20
708.7078244278246
 30
0
  0
VERTEX
  8
1
  6
BYLAYER
 62
  256
 10
669.4865140585591
 20
712.0403184306417
 30
0
  0
VERTEX
  8
1
  6
BYLAYER
 62
  256
 10
673.0412954200299
 20
717.1439667243741
 30
0
  0
VERTEX
  8
1
  6
BYLAYER
 62
  256
 10
676.4560300450152
 20
722.9076278893705
 30
0
  0
VERTEX
  8
1
  6
BYLAYER
 62
  256
 10
679.8476651456697
 20
729.3632736768307
 30
0
  0
VERTEX
  8
1
  6
BYLAYER
 62
  256
 10
691.0692383833083
 20
752.5131340860877
 30
0
  0
VERTEX
  8
1
  6
BYLAYER
 62
  256
 10
695.5560132484887
 20
761.1028547296596
 30
0
  0
VERTEX
  8
1
  6
BYLAYER
 62
  256
 10
700.1332709492692
 20
769.243210876092
 30
0
  0
VERTEX
  8
1
  6
BYLAYER
 62
  256
 10
705.0182896022759
 20
779.1737043424389
 30
0
  0
VERTEX
  8
1
  6
BYLAYER
 62
  256
 10
710.576300205107
 20
791.667761627654
 30
0
  0
VERTEX
  8
1
  6
BYLAYER
 62
  256
 10
716.6553489196102
 20
806.3078334282923
 30
0
  0
VERTEX
  8
1
  6
BYLAYER
 62
  256
 10
723.118633454192
 20
822.668434190031
 30
0
  0
VERTEX
  8
1
  6
BYLAYER
 62
  256
 10
729.8476436014821
 20
840.3490730763747
 30
0
  0
VERTEX
  8
1
  6
BYLAYER
 62
  256
 10
740.2279013254609
 20
868.5289753921328
 30
0
  0
VERTEX
  8
1
  6
BYLAYER
 62
  256
 10
761.0070609959683
 20
927.2162531738376
 30
0
  0
VERTEX
  8
1
  6
BYLAYER
 62
  256
 10
779.0491698640728
 20
979.338499780451
 30
0
  0
VERTEX
  8
1
  6
BYLAYER
 62
  256
 10
788.6734736677195
 20
1006.709058558918
 30
0
  0
VERTEX
  8
1
  6
BYLAYER
 62
  256
 10
799.2526365048877
 20
1035.419934248872
 30
0
  0
SEQEND
  8
1
  6
BYLAYER
 62
  256
  0
POINT
  8
2
  6
BYLAYER
 62
  256
 10
799.2526365048877
 20
1035.419934248872
  0
POINT
  8
2
  6
BYLAYER
 62
  256
 10
911.8171005008396
 20
993.1766910588037
  0
POINT
  8
2
  6
BYLAYER
 62
  256
 10
911.811050817274
 20
968.5699876826346
  0
POINT
  8
2
  6
BYLAYER
 62
  256
 10
927.995358963195
 20
987.1053068727464
  0
POINT
  8
2
  6
BYLAYER
 62
  256
 10
979.1095534603194
 20
967.9231487390382
  0
POINT
  8
2
  6
BYLAYER
 62
  256
 10
979.1035037767539
 20
943.316445362869
  0
POINT
  8
2
  6
BYLAYER
 62
  256
 10
995.2878119226747
 20
961.8517645529809
  0
POINT
  8
2
  6
BYLAYER
 62
  256
 10
1073.028708216062
 20
932.6771256718016
  0
POINT
  8
2
  6
BYLAYER
 62
  256
 10
1057.364537807682
 20
874.0901879281639
  0
POINT
  8
2
  6
BYLAYER
 62
  256
 10
1049.693844508665
 20
804.6899077569462
  0
POINT
  8
2
  6
BYLAYER
 62
  256
 10
1045.036787831952
 20
739.8335926276098
  0
POINT
  8
2
  6
BYLAYER
 62
  256
 10
1041.204870037801
 20
679.2698811150765
  0
POINT
  8
2
  6
BYLAYER
 62
  256
 10
987.2732302466167
 20
361.0397212520953
  0
POINT
  8
2
  6
BYLAYER
 62
  256
 10
969.9186089026379
 20
249.5434080637504
  0
POINT
  8
2
  6
BYLAYER
 62
  256
 10
939.6056956755311
 20
104.6258499999999
  0
POINT
  8
2
  6
BYLAYER
 62
  256
 10
907.3569642888908
 20
104.6258499999999
  0
POINT
  8
2
  6
BYLAYER
 62
  256
 10
814.518972748889
 20
84.65812936805973
  0
POINT
  8
2
  6
BYLAYER
 62
  256
 10
701.6746542716801
 20
107.1622023312939
  0
POINT
  8
2
  6
BYLAYER
 62
  256
 10
655.594660081322
 20
300.8811802365425
  0
POINT
  8
2
  6
BYLAYER
 62
  256
 10
580.937522203653
 20
690.4711766060659
  0
POINT
  8
2
  6
BYLAYER
 62
  256
 10
695.5560132484887
 20
761.1028547296596
  0
POINT
  8
2
  6
BYLAYER
 62
  256
 10
788.6734736677195
 20
1006.709058558918
  0
POINT
  8
2
  6
BYLAYER
 62
  256
 10
799.2526365048877
 20
1035.419934248872
  0
POINT
  8
3
  6
BYLAYER
 62
  256
 10
1065.590113443369
 20
912.2333048052943
  0
POINT
  8
3
  6
BYLAYER
 62
  256
 10
1064.287978161998
 20
908.1033207743645
  0
POINT
  8
3
  6
BYLAYER
 62
  256
 10
1062.302830035341
 20
900.5876590444166
  0
POINT
  8
3
  6
BYLAYER
 62
  256
 10
1059.747369123276
 20
888.3234951071667
  0
POINT
  8
3
  6
BYLAYER
 62
  256
 10
1055.169249272085
 20
858.2503573218406
  0
POINT
  8
3
  6
BYLAYER
 62
  256
 10
1053.164371149874
 20
841.1740564865472
  0
POINT
  8
3
  6
BYLAYER
 62
  256
 10
1051.342752051766
 20
823.2058006742366
  0
POINT
  8
3
  6
BYLAYER
 62
  256
 10
1047.490736768061
 20
776.4979989535203
  0
POINT
  8
3
  6
BYLAYER
 62
  256
 10
1042.995239778428
 20
706.7255864581408
  0
POINT
  8
3
  6
BYLAYER
 62
  256
 10
1039.856908598921
 20
663.5752707058929
  0
POINT
  8
3
  6
BYLAYER
 62
  256
 10
1038.210554718891
 20
650.3527017461877
  0
POINT
  8
3
  6
BYLAYER
 62
  256
 10
1034.62442609993
 20
625.9509286374821
  0
POINT
  8
3
  6
BYLAYER
 62
  256
 10
1027.870422056844
 20
585.0604838582136
  0
POINT
  8
3
  6
BYLAYER
 62
  256
 10
1019.570881074949
 20
537.720098997362
  0
POINT
  8
3
  6
BYLAYER
 62
  256
 10
1005.577511810865
 20
460.5746138571737
  0
POINT
  8
3
  6
BYLAYER
 62
  256
 10
978.5519562056111
 20
311.7776389716511
  0
POINT
  8
3
  6
BYLAYER
 62
  256
 10
975.2628744033367
 20
289.2626749287442
  0
POINT
  8
3
  6
BYLAYER
 62
  256
 10
963.7596039346309
 20
206.5212795957155
  0
POINT
  8
3
  6
BYLAYER
 62
  256
 10
960.29454492019
 20
185.2879198332274
  0
POINT
  8
3
  6
BYLAYER
 62
  256
 10
957.8159905222169
 20
171.5200703597127
  0
POINT
  8
3
  6
BYLAYER
 62
  256
 10
955.1805607091914
 20
158.2788523049083
  0
POINT
  8
3
  6
BYLAYER
 62
  256
 10
952.3608439276946
 20
145.677277634476
  0
POINT
  8
3
  6
BYLAYER
 62
  256
 10
949.3231427871299
 20
133.832585453116
  0
POINT
  8
3
  6
BYLAYER
 62
  256
 10
946.0451793715184
 20
122.9396089507441
  0
POINT
  8
3
  6
BYLAYER
 62
  256
 10
905.8591655807427
 20
104.3357186693633
  0
POINT
  8
3
  6
BYLAYER
 62
  256
 10
897.1244085044295
 20
102.1714333140824
  0
POINT
  8
3
  6
BYLAYER
 62
  256
 10
880.2285978931428
 20
97.50033592068341
  0
POINT
  8
3
  6
BYLAYER
 62
  256
 10
860.3952940003496
 20
92.21656420402425
  0
POINT
  8
3
  6
BYLAYER
 62
  256
 10
846.3910962390095
 20
88.96155399550578
  0
POINT
  8
3
  6
BYLAYER
 62
  256
 10
835.789094746663
 20
86.95852211051924
  0
POINT
  8
3
  6
BYLAYER
 62
  256
 10
828.6403851802589
 20
85.87759255693511
  0
POINT
  8
3
  6
BYLAYER
 62
  256
 10
821.5629363136244
 20
85.09178066703213
  0
POINT
  8
3
  6
BYLAYER
 62
  256
 10
807.6065272511108
 20
84.65812936805973
  0
POINT
  8
3
  6
BYLAYER
 62
  256
 10
800.5625636863756
 20
85.09178066703213
  0
POINT
  8
3
  6
BYLAYER
 62
  256
 10
793.4851148197409
 20
85.877592556935
  0
POINT
  8
3
  6
BYLAYER
 62
  256
 10
786.3364052533369
 20
86.95852211051924
  0
POINT
  8
3
  6
BYLAYER
 62
  256
 10
775.7344037609905
 20
88.96155399550565
  0
POINT
  8
3
  6
BYLAYER
 62
  256
 10
761.7302059996501
 20
92.21656420402425
  0
POINT
  8
3
  6
BYLAYER
 62
  256
 10
741.8969021068573
 20
97.50033592068341
  0
POINT
  8
3
  6
BYLAYER
 62
  256
 10
725.0010914955702
 20
102.1714333140824
  0
POINT
  8
3
  6
BYLAYER
 62
  256
 10
716.2663344192572
 20
104.3357186693633
  0
POINT
  8
3
  6
BYLAYER
 62
  256
 10
696.1386551221583
 20
122.7151580886375
  0
POINT
  8
3
  6
BYLAYER
 62
  256
 10
692.7177282837114
 20
133.3138742130844
  0
POINT
  8
3
  6
BYLAYER
 62
  256
 10
689.3155621961608
 20
144.9150258472741
  0
POINT
  8
3
  6
BYLAYER
 62
  256
 10
685.9415609161481
 20
157.3608575761521
  0
POINT
  8
3
  6
BYLAYER
 62
  256
 10
680.9657328924895
 20
177.1608476713337
  0
POINT
  8
3
  6
BYLAYER
 62
  256
 10
674.5404634547314
 20
205.2509740611657
  0
POINT
  8
3
  6
BYLAYER
 62
  256
 10
668.460849736566
 20
234.0104382057486
  0
POINT
  8
3
  6
BYLAYER
 62
  256
 10
662.8650323969746
 20
262.165448117168
  0
POINT
  8
3
  6
BYLAYER
 62
  256
 10
648.6306022170128
 20
340.5390722793055
  0
POINT
  8
3
  6
BYLAYER
 62
  256
 10
641.2270463196807
 20
385.6493577204705
  0
POINT
  8
3
  6
BYLAYER
 62
  256
 10
629.080555137264
 20
461.7420708960587
  0
POINT
  8
3
  6
BYLAYER
 62
  256
 10
616.3780164611054
 20
539.0064664243081
  0
POINT
  8
3
  6
BYLAYER
 62
  256
 10
610.1343854684103
 20
574.6425142962339
  0
POINT
  8
3
  6
BYLAYER
 62
  256
 10
606.0803210704426
 20
596.5603058332952
  0
POINT
  8
3
  6
BYLAYER
 62
  256
 10
602.1557366053444
 20
616.497160681224
  0
POINT
  8
3
  6
BYLAYER
 62
  256
 10
598.408257080848
 20
634.0195370944716
  0
POINT
  8
3
  6
BYLAYER
 62
  256
 10
594.8923416850305
 20
648.6947583534874
  0
POINT
  8
3
  6
BYLAYER
 62
  256
 10
592.4811713357639
 20
657.3846075619139
  0
POINT
  8
3
  6
BYLAYER
 62
  256
 10
591.026005955146
 20
661.9993200256436
  0
POINT
  8
3
  6
BYLAYER
 62
  256
 10
612.5031014041211
 20
690.6443381990144
  0
POINT
  8
3
  6
BYLAYER
 62
  256
 10
618.8909139928227
 20
690.8624546282595
  0
POINT
  8
3
  6
BYLAYER
 62
  256
 10
624.7246703537691
 20
691.2804707372539
  0
POINT
  8
3
  6
BYLAYER
 62
  256
 10
630.0759080810712
 20
691.8845796600662
  0
POINT
  8
3
  6
BYLAYER
 62
  256
 10
634.963306139329
 20
692.6580324346703
  0
POINT
  8
3
  6
BYLAYER
 62
  256
 10
639.4082967962343
 20
693.5833724410345
  0
POINT
  8
3
  6
BYLAYER
 62
  256
 10
643.4358528821441
 20
694.6430953627888
  0
POINT
  8
3
  6
BYLAYER
 62
  256
 10
647.0751385802109
 20
695.8206507623892
  0
POINT
  8
3
  6
BYLAYER
 62
  256
 10
650.3598148704233
 20
697.1017559190341
  0
POINT
  8
3
  6
BYLAYER
 62
  256
 10
653.3277733620849
 20
698.4758770059063
  0
POINT
  8
3
  6
BYLAYER
 62
  256
 10
656.0201359097501
 20
699.9376015718769
  0
POINT
  8
3
  6
BYLAYER
 62
  256
 10
658.4795214710866
 20
701.4875389503912
  0
POINT
  8
3
  6
BYLAYER
 62
  256
 10
660.7478132568368
 20
703.1324122447671
  0
POINT
  8
3
  6
BYLAYER
 62
  256
 10
662.8638657030853
 20
704.8841809640896
  0
POINT
  8
3
  6
BYLAYER
 62
  256
 10
664.8616613155198
 20
706.7583107274239
  0
POINT
  8
3
  6
BYLAYER
 62
  256
 10
666.7089099010586
 20
708.7078244278246
  0
POINT
  8
3
  6
BYLAYER
 62
  256
 10
669.4865140585591
 20
712.0403184306417
  0
POINT
  8
3
  6
BYLAYER
 62
  256
 10
673.0412954200299
 20
717.1439667243741
  0
POINT
  8
3
  6
BYLAYER
 62
  256
 10
676.4560300450152
 20
722.9076278893705
  0
POINT
  8
3
  6
BYLAYER
 62
  256
 10
679.8476651456697
 20
729.3632736768307
  0
POINT
  8
3
  6
BYLAYER
 62
  256
 10
691.0692383833083
 20
752.5131340860877
  0
POINT
  8
3
  6
BYLAYER
 62
  256
 10
700.1332709492692
 20
769.243210876092
  0
POINT
  8
3
  6
BYLAYER
 62
  256
 10
705.0182896022759
 20
779.1737043424389
  0
POINT
  8
3
  6
BYLAYER
 62
  256
 10
710.576300205107
 20
791.667761627654
  0
POINT
  8
3
  6
BYLAYER
 62
  256
 10
716.6553489196102
 20
806.3078334282923
  0
POINT
  8
3
  6
BYLAYER
 62
  256
 10
723.118633454192
 20
822.668434190031
  0
POINT
  8
3
  6
BYLAYER
 62
  256
 10
729.8476436014821
 20
840.3490730763747
  0
POINT
  8
3
  6
BYLAYER
 62
  256
 10
740.2279013254609
 20
868.5289753921328
  0
POINT
  8
3
  6
BYLAYER
 62
  256
 10
761.0070609959683
 20
927.2162531738376
  0
POINT
  8
3
  6
BYLAYER
 62
  256
 10
779.0491698640728
 20
979.338499780451
  0
POLYLINE
  8
84
  6
BYLAYER
 62
  256
 66
    1
 10
0
 20
0
 30
0
 70
    1
  0
VERTEX
  8
84
  6
BYLAYER
 62
  256
 10
799.2526365048877
 20
1035.419934248872
 30
0
  0
VERTEX
  8
84
  6
BYLAYER
 62
  256
 10
911.8171005008396
 20
993.1766910588037
 30
0
  0
VERTEX
  8
84
  6
BYLAYER
 62
  256
 10
911.811050817274
 20
968.5699876826346
 30
0
  0
VERTEX
  8
84
  6
BYLAYER
 62
  256
 10
927.995358963195
 20
987.1053068727464
 30
0
  0
VERTEX
  8
84
  6
BYLAYER
 62
  256
 10
979.1095534603194
 20
967.9231487390382
 30
0
  0
VERTEX
  8
84
  6
BYLAYER
 62
  256
 10
979.1035037767539
 20
943.316445362869
 30
0
  0
VERTEX
  8
84
  6
BYLAYER
 62
  256
 10
995.2878119226747
 20
961.8517645529809
 30
0
  0
VERTEX
  8
84
  6
BYLAYER
 62
  256
 10
1073.028708216062
 20
932.6771256718016
 30
0
  0
VERTEX
  8
84
  6
BYLAYER
 62
  256
 10
1065.590113443369
 20
912.2333048052943
 30
0
  0
VERTEX
  8
84
  6
BYLAYER
 62
  256
 10
1064.287978161998
 20
908.1033207743645
 30
0
  0
VERTEX
  8
84
  6
BYLAYER
 62
  256
 10
1062.302830035341
 20
900.5876590444166
 30
0
  0
VERTEX
  8
84
  6
BYLAYER
 62
  256
 10
1059.747369123276
 20
888.3234951071667
 30
0
  0
VERTEX
  8
84
  6
BYLAYER
 62
  256
 10
1057.364537807682
 20
874.0901879281639
 30
0
  0
VERTEX
  8
84
  6
BYLAYER
 62
  256
 10
1055.169249272085
 20
858.2503573218406
 30
0
  0
VERTEX
  8
84
  6
BYLAYER
 62
  256
 10
1053.164371149874
 20
841.1740564865472
 30
0
  0
VERTEX
  8
84
  6
BYLAYER
 62
  256
 10
1051.342752051766
 20
823.2058006742366
 30
0
  0
VERTEX
  8
84
  6
BYLAYER
 62
  256
 10
1049.693844508665
 20
804.6899077569462
 30
0
  0
VERTEX
  8
84
  6
BYLAYER
 62
  256
 10
1047.490736768061
 20
776.4979989535203
 30
0
  0
VERTEX
  8
84
  6
BYLAYER
 62
  256
 10
1045.036787831952
 20
739.8335926276098
 30
0
  0
VERTEX
  8
84
  6
BYLAYER
 62
  256
 10
1042.995239778428
 20
706.7255864581408
 30
0
  0
VERTEX
  8
84
  6
BYLAYER
 62
  256
 10
1041.204870037801
 20
679.2698811150765
 30
0
  0
VERTEX
  8
84
  6
BYLAYER
 62
  256
 10
1039.856908598921
 20
663.5752707058929
 30
0
  0
VERTEX
  8
84
  6
BYLAYER
 62
  256
 10
1038.210554718891
 20
650.3527017461877
 30
0
  0
VERTEX
  8
84
  6
BYLAYER
 62
  256
 10
1034.62442609993
 20
625.9509286374821
 30
0
  0
VERTEX
  8
84
  6
BYLAYER
 62
  256
 10
1027.870422056844
 20
585.0604838582136
 30
0
  0
VERTEX
  8
84
  6
BYLAYER
 62
  256
 10
1019.570881074949
 20
537.720098997362
 30
0
  0
VERTEX
  8
84
  6
BYLAYER
 62
  256
 10
1005.577511810865
 20
460.5746138571737
 30
0
  0
VERTEX
  8
84
  6
BYLAYER
 62
  256
 10
987.2732302466167
 20
361.0397212520953
 30
0
  0
VERTEX
  8
84
  6
BYLAYER
 62
  256
 10
978.5519562056111
 20
311.7776389716511
 30
0
  0
VERTEX
  8
84
  6
BYLAYER
 62
  256
 10
975.2628744033367
 20
289.2626749287442
 30
0
  0
VERTEX
  8
84
  6
BYLAYER
 62
  256
 10
969.9186089026379
 20
249.5434080637504
 30
0
  0
VERTEX
  8
84
  6
BYLAYER
 62
  256
 10
963.7596039346309
 20
206.5212795957155
 30
0
  0
VERTEX
  8
84
  6
BYLAYER
 62
  256
 10
960.29454492019
 20
185.2879198332274
 30
0
  0
VERTEX
  8
84
  6
BYLAYER
 62
  256
 10
957.8159905222169
 20
171.5200703597127
 30
0
  0
VERTEX
  8
84
  6
BYLAYER
 62
  256
 10
955.1805607091914
 20
158.2788523049083
 30
0
  0
VERTEX
  8
84
  6
BYLAYER
 62
  256
 10
952.3608439276946
 20
145.677277634476
 30
0
  0
VERTEX
  8
84
  6
BYLAYER
 62
  256
 10
949.3231427871299
 20
133.832585453116
 30
0
  0
VERTEX
  8
84
  6
BYLAYER
 62
  256
 10
946.0451793715184
 20
122.9396089507441
 30
0
  0
VERTEX
  8
84
  6
BYLAYER
 62
  256
 10
939.6056956755311
 20
104.6258499999999
 30
0
  0
VERTEX
  8
84
  6
BYLAYER
 62
  256
 10
907.3569642888908
 20
104.6258499999999
 30
0
  0
VERTEX
  8
84
  6
BYLAYER
 62
  256
 10
905.8591655807427
 20
104.3357186693633
 30
0
  0
VERTEX
  8
84
  6
BYLAYER
 62
  256
 10
897.1244085044295
 20
102.1714333140824
 30
0
  0
VERTEX
  8
84
  6
BYLAYER
 62
  256
 10
880.2285978931428
 20
97.50033592068341
 30
0
  0
VERTEX
  8
84
  6
BYLAYER
 62
  256
 10
860.3952940003496
 20
92.21656420402425
 30
0
  0
VERTEX
  8
84
  6
BYLAYER
 62
  256
 10
846.3910962390095
 20
88.96155399550578
 30
0
  0
VERTEX
  8
84
  6
BYLAYER
 62
  256
 10
835.789094746663
 20
86.95852211051924
 30
0
  0
VERTEX
  8
84
  6
BYLAYER
 62
  256
 10
828.6403851802589
 20
85.87759255693511
 30
0
  0
VERTEX
  8
84
  6
BYLAYER
 62
  256
 10
821.5629363136244
 20
85.09178066703213
 30
0
  0
VERTEX
  8
84
  6
BYLAYER
 62
  256
 10
814.518972748889
 20
84.65812936805973
 30
0
  0
VERTEX
  8
84
  6
BYLAYER
 62
  256
 10
807.6065272511108
 20
84.65812936805973
 30
0
  0
VERTEX
  8
84
  6
BYLAYER
 62
  256
 10
800.5625636863756
 20
85.09178066703213
 30
0
  0
VERTEX
  8
84
  6
BYLAYER
 62
  256
 10
793.4851148197409
 20
85.877592556935
 30
0
  0
VERTEX
  8
84
  6
BYLAYER
 62
  256
 10
786.3364052533369
 20
86.95852211051924
 30
0
  0
VERTEX
  8
84
  6
BYLAYER
 62
  256
 10
775.7344037609905
 20
88.96155399550565
 30
0
  0
VERTEX
  8
84
  6
BYLAYER
 62
  256
 10
761.7302059996501
 20
92.21656420402425
 30
0
  0
VERTEX
  8
84
  6
BYLAYER
 62
  256
 10
741.8969021068573
 20
97.50033592068341
 30
0
  0
VERTEX
  8
84
  6
BYLAYER
 62
  256
 10
725.0010914955702
 20
102.1714333140824
 30
0
  0
VERTEX
  8
84
  6
BYLAYER
 62
  256
 10
716.2663344192572
 20
104.3357186693633
 30
0
  0
VERTEX
  8
84
  6
BYLAYER
 62
  256
 10
701.6746542716801
 20
107.1622023312939
 30
0
  0
VERTEX
  8
84
  6
BYLAYER
 62
  256
 10
696.1386551221583
 20
122.7151580886375
 30
0
  0
VERTEX
  8
84
  6
BYLAYER
 62
  256
 10
692.7177282837114
 20
133.3138742130844
 30
0
  0
VERTEX
  8
84
  6
BYLAYER
 62
  256
 10
689.3155621961608
 20
144.9150258472741
 30
0
  0
VERTEX
  8
84
  6
BYLAYER
 62
  256
 10
685.9415609161481
 20
157.3608575761521
 30
0
  0
VERTEX
  8
84
  6
BYLAYER
 62
  256
 10
680.9657328924895
 20
177.1608476713337
 30
0
  0
VERTEX
  8
84
  6
BYLAYER
 62
  256
 10
674.5404634547314
 20
205.2509740611657
 30
0
  0
VERTEX
  8
84
  6
BYLAYER
 62
  256
 10
668.460849736566
 20
234.0104382057486
 30
0
  0
VERTEX
  8
84
  6
BYLAYER
 62
  256
 10
662.8650323969746
 20
262.165448117168
 30
0
  0
VERTEX
  8
84
  6
BYLAYER
 62
  256
 10
655.594660081322
 20
300.8811802365425
 30
0
  0
VERTEX
  8
84
  6
BYLAYER
 62
  256
 10
648.6306022170128
 20
340.5390722793055
 30
0
  0
VERTEX
  8
84
  6
BYLAYER
 62
  256
 10
641.2270463196807
 20
385.6493577204705
 30
0
  0
VERTEX
  8
84
  6
BYLAYER
 62
  256
 10
629.080555137264
 20
461.7420708960587
 30
0
  0
VERTEX
  8
84
  6
BYLAYER
 62
  256
 10
616.3780164611054
 20
539.0064664243081
 30
0
  0
VERTEX
  8
84
  6
BYLAYER
 62
  256
 10
610.1343854684103
 20
574.6425142962339
 30
0
  0
VERTEX
  8
84
  6
BYLAYER
 62
  256
 10
606.0803210704426
 20
596.5603058332952
 30
0
  0
VERTEX
  8
84
  6
BYLAYER
 62
  256
 10
602.1557366053444
 20
616.497160681224
 30
0
  0
VERTEX
  8
84
  6
BYLAYER
 62
  256
 10
598.408257080848
 20
634.0195370944716
 30
0
  0
VERTEX
  8
84
  6
BYLAYER
 62
  256
 10
594.8923416850305
 20
648.6947583534874
 30
0
  0
VERTEX
  8
84
  6
BYLAYER
 62
  256
 10
592.4811713357639
 20
657.3846075619139
 30
0
  0
VERTEX
  8
84
  6
BYLAYER
 62
  256
 10
591.026005955146
 20
661.9993200256436
 30
0
  0
VERTEX
  8
84
  6
BYLAYER
 62
  256
 10
580.937522203653
 20
690.4711766060659
 30
0
  0
VERTEX
  8
84
  6
BYLAYER
 62
  256
 10
612.5031014041211
 20
690.6443381990144
 30
0
  0
VERTEX
  8
84
  6
BYLAYER
 62
  256
 10
618.8909139928227
 20
690.8624546282595
 30
0
  0
VERTEX
  8
84
  6
BYLAYER
 62
  256
 10
624.7246703537691
 20
691.2804707372539
 30
0
  0
VERTEX
  8
84
  6
BYLAYER
 62
  256
 10
630.0759080810712
 20
691.8845796600662
 30
0
  0
VERTEX
  8
84
  6
BYLAYER
 62
  256
 10
634.963306139329
 20
692.6580324346703
 30
0
  0
VERTEX
  8
84
  6
BYLAYER
 62
  256
 10
639.4082967962343
 20
693.5833724410345
 30
0
  0
VERTEX
  8
84
  6
BYLAYER
 62
  256
 10
643.4358528821441
 20
694.6430953627888
 30
0
  0
VERTEX
  8
84
  6
BYLAYER
 62
  256
 10
647.0751385802109
 20
695.8206507623892
 30
0
  0
VERTEX
  8
84
  6
BYLAYER
 62
  256
 10
650.3598148704233
 20
697.1017559190341
 30
0
  0
VERTEX
  8
84
  6
BYLAYER
 62
  256
 10
653.3277733620849
 20
698.4758770059063
 30
0
  0
VERTEX
  8
84
  6
BYLAYER
 62
  256
 10
656.0201359097501
 20
699.9376015718769
 30
0
  0
VERTEX
  8
84
  6
BYLAYER
 62
  256
 10
658.4795214710866
 20
701.4875389503912
 30
0
  0
VERTEX
  8
84
  6
BYLAYER
 62
  256
 10
660.7478132568368
 20
703.1324122447671
 30
0
  0
VERTEX
  8
84
  6
BYLAYER
 62
  256
 10
662.8638657030853
 20
704.8841809640896
 30
0
  0
VERTEX
  8
84
  6
BYLAYER
 62
  256
 10
664.8616613155198
 20
706.7583107274239
 30
0
  0
VERTEX
  8
84
  6
BYLAYER
 62
  256
 10
666.7089099010586
 20
708.7078244278246
 30
0
  0
VERTEX
  8
84
  6
BYLAYER
 62
  256
 10
669.4865140585591
 20
712.0403184306417
 30
0
  0
VERTEX
  8
84
  6
BYLAYER
 62
  256
 10
673.0412954200299
 20
717.1439667243741
 30
0
  0
VERTEX
  8
84
  6
BYLAYER
 62
  256
 10
676.4560300450152
 20
722.9076278893705
 30
0
  0
VERTEX
  8
84
  6
BYLAYER
 62
  256
 10
679.8476651456697
 20
729.3632736768307
 30
0
  0
VERTEX
  8
84
  6
BYLAYER
 62
  256
 10
691.0692383833083
 20
752.5131340860877
 30
0
  0
VERTEX
  8
84
  6
BYLAYER
 62
  256
 10
695.5560132484887
 20
761.1028547296596
 30
0
  0
VERTEX
  8
84
  6
BYLAYER
 62
  256
 10
700.1332709492692
 20
769.243210876092
 30
0
  0
VERTEX
  8
84
  6
BYLAYER
 62
  256
 10
705.0182896022759
 20
779.1737043424389
 30
0
  0
VERTEX
  8
84
  6
BYLAYER
 62
  256
 10
710.576300205107
 20
791.667761627654
 30
0
  0
VERTEX
  8
84
  6
BYLAYER
 62
  256
 10
716.6553489196102
 20
806.3078334282923
 30
0
  0
VERTEX
  8
84
  6
BYLAYER
 62
  256
 10
723.118633454192
 20
822.668434190031
 30
0
  0
VERTEX
  8
84
  6
BYLAYER
 62
  256
 10
729.8476436014821
 20
840.3490730763747
 30
0
  0
VERTEX
  8
84
  6
BYLAYER
 62
  256
 10
740.2279013254609
 20
868.5289753921328
 30
0
  0
VERTEX
  8
84
  6
BYLAYER
 62
  256
 10
761.0070609959683
 20
927.2162531738376
 30
0
  0
VERTEX
  8
84
  6
BYLAYER
 62
  256
 10
779.0491698640728
 20
979.338499780451
 30
0
  0
VERTEX
  8
84
  6
BYLAYER
 62
  256
 10
788.6734736677195
 20
1006.709058558918
 30
0
  0
VERTEX
  8
84
  6
BYLAYER
 62
  256
 10
799.2526365048877
 20
1035.419934248872
 30
0
  0
SEQEND
  8
84
  6
BYLAYER
 62
  256
  0
POLYLINE
  8
14
  6
BYLAYER
 62
  256
 66
    1
 10
0
 20
0
 30
0
 70
    1
  0
VERTEX
  8
14
  6
BYLAYER
 62
  256
 10
811.0627499999999
 20
1009.62585
 30
0
  0
VERTEX
  8
14
  6
BYLAYER
 62
  256
 10
891.8136935513756
 20
979.3215992162812
 30
0
  0
VERTEX
  8
14
  6
BYLAYER
 62
  256
 10
891.7979391500172
 20
915.2415730630497
 30
0
  0
VERTEX
  8
14
  6
BYLAYER
 62
  256
 10
933.9446206216588
 20
963.5106857639062
 30
0
  0
VERTEX
  8
14
  6
BYLAYER
 62
  256
 10
959.1061465108556
 20
954.0680568965155
 30
0
  0
VERTEX
  8
14
  6
BYLAYER
 62
  256
 10
959.0903921094971
 20
889.9880307432841
 30
0
  0
VERTEX
  8
14
  6
BYLAYER
 62
  256
 10
1001.237073581139
 20
938.2571434441408
 30
0
  0
VERTEX
  8
14
  6
BYLAYER
 62
  256
 10
1047.464063005477
 20
920.9090578505626
 30
0
  0
VERTEX
  8
14
  6
BYLAYER
 62
  256
 10
1046.646664940723
 20
918.6625663930889
 30
0
  0
VERTEX
  8
14
  6
BYLAYER
 62
  256
 10
1045.071668760894
 20
913.6671491238324
 30
0
  0
VERTEX
  8
14
  6
BYLAYER
 62
  256
 10
1042.831105009059
 20
905.1844978712386
 30
0
  0
VERTEX
  8
14
  6
BYLAYER
 62
  256
 10
1040.087199998166
 20
892.0159533151631
 30
0
  0
VERTEX
  8
14
  6
BYLAYER
 62
  256
 10
1037.592552966335
 20
877.1147400925263
 30
0
  0
VERTEX
  8
14
  6
BYLAYER
 62
  256
 10
1035.329990377477
 20
860.7895019461114
 30
0
  0
VERTEX
  8
14
  6
BYLAYER
 62
  256
 10
1033.2823386955
 20
843.3488826187029
 30
0
  0
VERTEX
  8
14
  6
BYLAYER
 62
  256
 10
1031.432424384314
 20
825.1015258530841
 30
0
  0
VERTEX
  8
14
  6
BYLAYER
 62
  256
 10
1029.763073907828
 20
806.3560753920392
 30
0
  0
VERTEX
  8
14
  6
BYLAYER
 62
  256
 10
1027.542834523655
 20
777.9449427511953
 30
0
  0
VERTEX
  8
14
  6
BYLAYER
 62
  256
 10
1025.081434145798
 20
741.1692045699533
 30
0
  0
VERTEX
  8
14
  6
BYLAYER
 62
  256
 10
1023.033165457113
 20
707.9566789771147
 30
0
  0
VERTEX
  8
14
  6
BYLAYER
 62
  256
 10
1021.260640168873
 20
680.7765159149501
 30
0
  0
VERTEX
  8
14
  6
BYLAYER
 62
  256
 10
1020.43775
 20
670.62585
 30
0
  0
VERTEX
  8
14
  6
BYLAYER
 62
  256
 10
1019.962958221576
 20
665.6673206439261
 30
0
  0
VERTEX
  8
14
  6
BYLAYER
 62
  256
 10
1018.391042613748
 20
653.042597141002
 30
0
  0
VERTEX
  8
14
  6
BYLAYER
 62
  256
 10
1014.862816887603
 20
629.0348236354828
 30
0
  0
VERTEX
  8
14
  6
BYLAYER
 62
  256
 10
1008.15384956154
 20
588.4170425056157
 30
0
  0
VERTEX
  8
14
  6
BYLAYER
 62
  256
 10
999.871330667717
 20
541.1737512312909
 30
0
  0
VERTEX
  8
14
  6
BYLAYER
 62
  256
 10
985.8986458421653
 20
464.1442404743346
 30
0
  0
VERTEX
  8
14
  6
BYLAYER
 62
  256
 10
967.6030747040483
 20
364.6570380658632
 30
0
  0
VERTEX
  8
14
  6
BYLAYER
 62
  256
 10
960.4377499999998
 20
324.62585
 30
0
  0
VERTEX
  8
14
  6
BYLAYER
 62
  256
 10
958.8056250916613
 20
314.9672258025458
 30
0
  0
VERTEX
  8
14
  6
BYLAYER
 62
  256
 10
955.4565749876255
 20
292.0417568713318
 30
0
  0
VERTEX
  8
14
  6
BYLAYER
 62
  256
 10
950.1084885032776
 20
252.2940919656299
 30
0
  0
VERTEX
  8
14
  6
BYLAYER
 62
  256
 10
945.8884875540318
 20
222.3665699436119
 30
0
  0
VERTEX
  8
14
  6
BYLAYER
 62
  256
 10
943.989186833885
 20
209.5493005711091
 30
0
  0
VERTEX
  8
14
  6
BYLAYER
 62
  256
 10
940.5819883784924
 20
188.6705016000008
 30
0
  0
VERTEX
  8
14
  6
BYLAYER
 62
  256
 10
938.1649183171561
 20
175.2441847119661
 30
0
  0
VERTEX
  8
14
  6
BYLAYER
 62
  256
 10
935.6115084294748
 20
162.4150602408938
 30
0
  0
VERTEX
  8
14
  6
BYLAYER
 62
  256
 10
932.9109917503873
 20
150.3462018351194
 30
0
  0
VERTEX
  8
14
  6
BYLAYER
 62
  256
 10
930.0526013148315
 20
139.2006831429785
 30
0
  0
VERTEX
  8
14
  6
BYLAYER
 62
  256
 10
927.0255701577454
 20
129.1415778128065
 30
0
  0
VERTEX
  8
14
  6
BYLAYER
 62
  256
 10
925.4377499999998
 20
124.62585
 30
0
  0
VERTEX
  8
14
  6
BYLAYER
 62
  256
 10
905.4377499999999
 20
124.62585
 30
0
  0
VERTEX
  8
14
  6
BYLAYER
 62
  256
 10
901.5495436615205
 20
123.8726843892699
 30
0
  0
VERTEX
  8
14
  6
BYLAYER
 62
  256
 10
892.0537501433062
 20
121.5198305355579
 30
0
  0
VERTEX
  8
14
  6
BYLAYER
 62
  256
 10
874.9894922383268
 20
116.8021633898934
 30
0
  0
VERTEX
  8
14
  6
BYLAYER
 62
  256
 10
855.5557934765613
 20
111.6248500979409
 30
0
  0
VERTEX
  8
14
  6
BYLAYER
 62
  256
 10
842.2688945874899
 20
108.5365624101682
 30
0
  0
VERTEX
  8
14
  6
BYLAYER
 62
  256
 10
832.4364465289083
 20
106.6789219464284
 30
0
  0
VERTEX
  8
14
  6
BYLAYER
 62
  256
 10
826.0407810253608
 20
105.7118573603788
 30
0
  0
VERTEX
  8
14
  6
BYLAYER
 62
  256
 10
819.8439060716006
 20
105.0238159332111
 30
0
  0
VERTEX
  8
14
  6
BYLAYER
 62
  256
 10
813.9039196190229
 20
104.6581293680598
 30
0
  0
VERTEX
  8
14
  6
BYLAYER
 62
  256
 10
808.221580380977
 20
104.6581293680598
 30
0
  0
VERTEX
  8
14
  6
BYLAYER
 62
  256
 10
802.2815939283993
 20
105.0238159332111
 30
0
  0
VERTEX
  8
14
  6
BYLAYER
 62
  256
 10
796.0847189746389
 20
105.7118573603788
 30
0
  0
VERTEX
  8
14
  6
BYLAYER
 62
  256
 10
789.6890534710916
 20
106.6789219464284
 30
0
  0
VERTEX
  8
14
  6
BYLAYER
 62
  256
 10
779.8566054125101
 20
108.5365624101682
 30
0
  0
VERTEX
  8
14
  6
BYLAYER
 62
  256
 10
766.5697065234385
 20
111.6248500979409
 30
0
  0
VERTEX
  8
14
  6
BYLAYER
 62
  256
 10
747.1360077616731
 20
116.8021633898934
 30
0
  0
VERTEX
  8
14
  6
BYLAYER
 62
  256
 10
730.0717498566935
 20
121.5198305355579
 30
0
  0
VERTEX
  8
14
  6
BYLAYER
 62
  256
 10
720.5759563384796
 20
123.8726843892699
 30
0
  0
VERTEX
  8
14
  6
BYLAYER
 62
  256
 10
716.6877499999999
 20
124.62585
 30
0
  0
VERTEX
  8
14
  6
BYLAYER
 62
  256
 10
715.0803985922545
 20
129.1415778128065
 30
0
  0
VERTEX
  8
14
  6
BYLAYER
 62
  256
 10
711.8336408726683
 20
139.2006831429785
 30
0
  0
VERTEX
  8
14
  6
BYLAYER
 62
  256
 10
708.5650941871125
 20
150.3462018351194
 30
0
  0
VERTEX
  8
14
  6
BYLAYER
 62
  256
 10
705.2932884455249
 20
162.4150602408938
 30
0
  0
VERTEX
  8
14
  6
BYLAYER
 62
  256
 10
700.4146200662223
 20
181.8284292577847
 30
0
  0
VERTEX
  8
14
  6
BYLAYER
 62
  256
 10
694.073813166115
 20
209.5493005711091
 30
0
  0
VERTEX
  8
14
  6
BYLAYER
 62
  256
 10
688.0535084207678
 20
238.0282050689303
 30
0
  0
VERTEX
  8
14
  6
BYLAYER
 62
  256
 10
682.5019451096857
 20
265.9605535645657
 30
0
  0
VERTEX
  8
14
  6
BYLAYER
 62
  256
 10
675.2728463020995
 20
304.4564985791622
 30
0
  0
VERTEX
  8
14
  6
BYLAYER
 62
  256
 10
671.6877500000001
 20
324.62585
 30
0
  0
VERTEX
  8
14
  6
BYLAYER
 62
  256
 10
668.3484923148362
 20
343.8882908249028
 30
0
  0
VERTEX
  8
14
  6
BYLAYER
 62
  256
 10
660.9630107015204
 20
388.8884486297772
 30
0
  0
VERTEX
  8
14
  6
BYLAYER
 62
  256
 10
648.8305219780113
 20
464.8946586885529
 30
0
  0
VERTEX
  8
14
  6
BYLAYER
 62
  256
 10
636.0960620787376
 20
542.3545563624871
 30
0
  0
VERTEX
  8
14
  6
BYLAYER
 62
  256
 10
629.8179904132021
 20
578.1871772649971
 30
0
  0
VERTEX
  8
14
  6
BYLAYER
 62
  256
 10
625.7258750064686
 20
600.3106868163851
 30
0
  0
VERTEX
  8
14
  6
BYLAYER
 62
  256
 10
621.7476062642961
 20
620.5202573235545
 30
0
  0
VERTEX
  8
14
  6
BYLAYER
 62
  256
 10
617.9148285107098
 20
638.4414691854623
 30
0
  0
VERTEX
  8
14
  6
BYLAYER
 62
  256
 10
614.2591860697344
 20
653.6999028010662
 30
0
  0
VERTEX
  8
14
  6
BYLAYER
 62
  256
 10
611.6600013540644
 20
663.0673551052508
 30
0
  0
VERTEX
  8
14
  6
BYLAYER
 62
  256
 10
609.9946981718085
 20
668.3484698523474
 30
0
  0
VERTEX
  8
14
  6
BYLAYER
 62
  256
 10
609.1877500000001
 20
670.62585
 30
0
  0
VERTEX
  8
14
  6
BYLAYER
 62
  256
 10
612.8992978515624
 20
670.6462107079154
 30
0
  0
VERTEX
  8
14
  6
BYLAYER
 62
  256
 10
619.9472562255859
 20
670.8868682871199
 30
0
  0
VERTEX
  8
14
  6
BYLAYER
 62
  256
 10
626.5619412841796
 20
671.3608416139678
 30
0
  0
VERTEX
  8
14
  6
BYLAYER
 62
  256
 10
632.7621213378907
 20
672.0607888568979
 30
0
  0
VERTEX
  8
14
  6
BYLAYER
 62
  256
 10
638.5665646972656
 20
672.9793681843491
 30
0
  0
VERTEX
  8
14
  6
BYLAYER
 62
  256
 10
643.9940396728515
 20
674.1092377647606
 30
0
  0
VERTEX
  8
14
  6
BYLAYER
 62
  256
 10
649.0633145751954
 20
675.4430557665711
 30
0
  0
VERTEX
  8
14
  6
BYLAYER
 62
  256
 10
653.7931577148438
 20
676.9734803582195
 30
0
  0
VERTEX
  8
14
  6
BYLAYER
 62
  256
 10
658.2023374023437
 20
678.6931697081446
 30
0
  0
VERTEX
  8
14
  6
BYLAYER
 62
  256
 10
662.3096219482421
 20
680.5947819847855
 30
0
  0
VERTEX
  8
14
  6
BYLAYER
 62
  256
 10
666.1337796630859
 20
682.6709753565809
 30
0
  0
VERTEX
  8
14
  6
BYLAYER
 62
  256
 10
669.6935788574218
 20
684.9144079919698
 30
0
  0
VERTEX
  8
14
  6
BYLAYER
 62
  256
 10
673.0077878417969
 20
687.3177380593912
 30
0
  0
VERTEX
  8
14
  6
BYLAYER
 62
  256
 10
676.0951749267577
 20
689.8736237272839
 30
0
  0
VERTEX
  8
14
  6
BYLAYER
 62
  256
 10
678.9745084228516
 20
692.574723164087
 30
0
  0
VERTEX
  8
14
  6
BYLAYER
 62
  256
 10
681.6645566406251
 20
695.413694538239
 30
0
  0
VERTEX
  8
14
  6
BYLAYER
 62
  256
 10
685.4035703124999
 20
699.8996615556511
 30
0
  0
VERTEX
  8
14
  6
BYLAYER
 62
  256
 10
689.8731748046874
 20
706.3167339493167
 30
0
  0
VERTEX
  8
14
  6
BYLAYER
 62
  256
 10
693.9234677734376
 20
713.1531411242794
 30
0
  0
VERTEX
  8
14
  6
BYLAYER
 62
  256
 10
697.7045957031249
 20
720.35014842805
 30
0
  0
VERTEX
  8
14
  6
BYLAYER
 62
  256
 10
708.9344541015624
 20
743.5174245873221
 30
0
  0
VERTEX
  8
14
  6
BYLAYER
 62
  256
 10
713.1403867187499
 20
751.5694858814371
 30
0
  0
VERTEX
  8
14
  6
BYLAYER
 62
  256
 10
717.8362994366948
 20
759.9208622852858
 30
0
  0
VERTEX
  8
14
  6
BYLAYER
 62
  256
 10
723.1348495119238
 20
770.6920016893873
 30
0
  0
VERTEX
  8
14
  6
BYLAYER
 62
  256
 10
728.9513633321616
 20
783.767157903246
 30
0
  0
VERTEX
  8
14
  6
BYLAYER
 62
  256
 10
735.1927545671887
 20
798.7981964929966
 30
0
  0
VERTEX
  8
14
  6
BYLAYER
 62
  256
 10
741.7659368867855
 20
815.4369830247736
 30
0
  0
VERTEX
  8
14
  6
BYLAYER
 62
  256
 10
748.577823960732
 20
833.335383064712
 30
0
  0
VERTEX
  8
14
  6
BYLAYER
 62
  256
 10
759.038851022602
 20
861.7345547004038
 30
0
  0
VERTEX
  8
14
  6
BYLAYER
 62
  256
 10
779.8602036882147
 20
920.5409995737265
 30
0
  0
VERTEX
  8
14
  6
BYLAYER
 62
  256
 10
797.948855735239
 20
972.7961856660689
 30
0
  0
VERTEX
  8
14
  6
BYLAYER
 62
  256
 10
807.4915457416505
 20
999.933929844969
 30
0
  0
VERTEX
  8
14
  6
BYLAYER
 62
  256
 10
811.0627499999999
 20
1009.62585
 30
0
  0
SEQEND
  8
14
  6
BYLAYER
 62
  256
  0
POINT
  8
2
  6
BYLAYER
 62
  256
 10
811.0627499999999
 20
1009.62585
  0
POINT
  8
2
  6
BYLAYER
 62
  256
 10
891.8136935513756
 20
979.3215992162812
  0
POINT
  8
2
  6
BYLAYER
 62
  256
 10
891.7979391500172
 20
915.2415730630497
  0
POINT
  8
2
  6
BYLAYER
 62
  256
 10
933.9446206216588
 20
963.5106857639062
  0
POINT
  8
2
  6
BYLAYER
 62
  256
 10
959.1061465108556
 20
954.0680568965155
  0
POINT
  8
2
  6
BYLAYER
 62
  256
 10
959.0903921094971
 20
889.9880307432841
  0
POINT
  8
2
  6
BYLAYER
 62
  256
 10
1001.237073581139
 20
938.2571434441408
  0
POINT
  8
2
  6
BYLAYER
 62
  256
 10
1047.464063005477
 20
920.9090578505626
  0
POINT
  8
2
  6
BYLAYER
 62
  256
 10
1037.592552966335
 20
877.1147400925263
  0
POINT
  8
2
  6
BYLAYER
 62
  256
 10
1029.763073907828
 20
806.3560753920392
  0
POINT
  8
2
  6
BYLAYER
 62
  256
 10
1025.081434145798
 20
741.1692045699533
  0
POINT
  8
2
  6
BYLAYER
 62
  256
 10
1020.43775
 20
670.62585
  0
POINT
  8
2
  6
BYLAYER
 62
  256
 10
960.4377499999998
 20
324.62585
  0
POINT
  8
2
  6
BYLAYER
 62
  256
 10
945.8884875540318
 20
222.3665699436119
  0
POINT
  8
2
  6
BYLAYER
 62
  256
 10
925.4377499999998
 20
124.62585
  0
POINT
  8
2
  6
BYLAYER
 62
  256
 10
905.4377499999999
 20
124.62585
  0
POINT
  8
2
  6
BYLAYER
 62
  256
 10
813.9039196190229
 20
104.6581293680598
  0
POINT
  8
2
  6
BYLAYER
 62
  256
 10
716.6877499999999
 20
124.62585
  0
POINT
  8
2
  6
BYLAYER
 62
  256
 10
671.6877500000001
 20
324.62585
  0
POINT
  8
2
  6
BYLAYER
 62
  256
 10
609.1877500000001
 20
670.62585
  0
POINT
  8
2
  6
BYLAYER
 62
  256
 10
713.1403867187499
 20
751.5694858814371
  0
POINT
  8
2
  6
BYLAYER
 62
  256
 10
807.4915457416505
 20
999.933929844969
  0
POINT
  8
2
  6
BYLAYER
 62
  256
 10
811.0627499999999
 20
1009.62585
  0
POINT
  8
3
  6
BYLAYER
 62
  256
 10
1046.646664940723
 20
918.6625663930889
  0
POINT
  8
3
  6
BYLAYER
 62
  256
 10
1045.071668760894
 20
913.6671491238324
  0
POINT
  8
3
  6
BYLAYER
 62
  256
 10
1042.831105009059
 20
905.1844978712386
  0
POINT
  8
3
  6
BYLAYER
 62
  256
 10
1040.087199998166
 20
892.0159533151631
  0
POINT
  8
3
  6
BYLAYER
 62
  256
 10
1035.329990377477
 20
860.7895019461114
  0
POINT
  8
3
  6
BYLAYER
 62
  256
 10
1033.2823386955
 20
843.3488826187029
  0
POINT
  8
3
  6
BYLAYER
 62
  256
 10
1031.432424384314
 20
825.1015258530841
  0
POINT
  8
3
  6
BYLAYER
 62
  256
 10
1027.542834523655
 20
777.9449427511953
  0
POINT
  8
3
  6
BYLAYER
 62
  256
 10
1023.033165457113
 20
707.9566789771147
  0
POINT
  8
3
  6
BYLAYER
 62
  256
 10
1021.260640168873
 20
680.7765159149501
  0
POINT
  8
3
  6
BYLAYER
 62
  256
 10
1019.962958221576
 20
665.6673206439261
  0
POINT
  8
3
  6
BYLAYER
 62
  256
 10
1018.391042613748
 20
653.042597141002
  0
POINT
  8
3
  6
BYLAYER
 62
  256
 10
1014.862816887603
 20
629.0348236354828
  0
POINT
  8
3
  6
BYLAYER
 62
  256
 10
1008.15384956154
 20
588.4170425056157
  0
POINT
  8
3
  6
BYLAYER
 62
  256
 10
999.871330667717
 20
541.1737512312909
  0
POINT
  8
3
  6
BYLAYER
 62
  256
 10
985.8986458421653
 20
464.1442404743346
  0
POINT
  8
3
  6
BYLAYER
 62
  256
 10
967.6030747040483
 20
364.6570380658632
  0
POINT
  8
3
  6
BYLAYER
 62
  256
 10
958.8056250916613
 20
314.9672258025458
  0
POINT
  8
3
  6
BYLAYER
 62
  256
 10
955.4565749876255
 20
292.0417568713318
  0
POINT
  8
3
  6
BYLAYER
 62
  256
 10
950.1084885032776
 20
252.2940919656299
  0
POINT
  8
3
  6
BYLAYER
 62
  256
 10
943.989186833885
 20
209.5493005711091
  0
POINT
  8
3
  6
BYLAYER
 62
  256
 10
940.5819883784924
 20
188.6705016000008
  0
POINT
  8
3
  6
BYLAYER
 62
  256
 10
938.1649183171561
 20
175.2441847119661
  0
POINT
  8
3
  6
BYLAYER
 62
  256
 10
935.6115084294748
 20
162.4150602408938
  0
POINT
  8
3
  6
BYLAYER
 62
  256
 10
932.9109917503873
 20
150.3462018351194
  0
POINT
  8
3
  6
BYLAYER
 62
  256
 10
930.0526013148315
 20
139.2006831429785
  0
POINT
  8
3
  6
BYLAYER
 62
  256
 10
927.0255701577454
 20
129.1415778128065
  0
POINT
  8
3
  6
BYLAYER
 62
  256
 10
901.5495436615205
 20
123.8726843892699
  0
POINT
  8
3
  6
BYLAYER
 62
  256
 10
892.0537501433062
 20
121.5198305355579
  0
POINT
  8
3
  6
BYLAYER
 62
  256
 10
874.9894922383268
 20
116.8021633898934
  0
POINT
  8
3
  6
BYLAYER
 62
  256
 10
855.5557934765613
 20
111.6248500979409
  0
POINT
  8
3
  6
BYLAYER
 62
  256
 10
842.2688945874899
 20
108.5365624101682
  0
POINT
  8
3
  6
BYLAYER
 62
  256
 10
832.4364465289083
 20
106.6789219464284
  0
POINT
  8
3
  6
BYLAYER
 62
  256
 10
826.0407810253608
 20
105.7118573603788
  0
POINT
  8
3
  6
BYLAYER
 62
  256
 10
819.8439060716006
 20
105.0238159332111
  0
POINT
  8
3
  6
BYLAYER
 62
  256
 10
808.221580380977
 20
104.6581293680598
  0
POINT
  8
3
  6
BYLAYER
 62
  256
 10
802.2815939283993
 20
105.0238159332111
  0
POINT
  8
3
  6
BYLAYER
 62
  256
 10
796.0847189746389
 20
105.7118573603788
  0
POINT
  8
3
  6
BYLAYER
 62
  256
 10
789.6890534710916
 20
106.6789219464284
  0
POINT
  8
3
  6
BYLAYER
 62
  256
 10
779.8566054125101
 20
108.5365624101682
  0
POINT
  8
3
  6
BYLAYER
 62
  256
 10
766.5697065234385
 20
111.6248500979409
  0
POINT
  8
3
  6
BYLAYER
 62
  256
 10
747.1360077616731
 20
116.8021633898934
  0
POINT
  8
3
  6
BYLAYER
 62
  256
 10
730.0717498566935
 20
121.5198305355579
  0
POINT
  8
3
  6
BYLAYER
 62
  256
 10
720.5759563384796
 20
123.8726843892699
  0
POINT
  8
3
  6
BYLAYER
 62
  256
 10
715.0803985922545
 20
129.1415778128065
  0
POINT
  8
3
  6
BYLAYER
 62
  256
 10
711.8336408726683
 20
139.2006831429785
  0
POINT
  8
3
  6
BYLAYER
 62
  256
 10
708.5650941871125
 20
150.3462018351194
  0
POINT
  8
3
  6
BYLAYER
 62
  256
 10
705.2932884455249
 20
162.4150602408938
  0
POINT
  8
3
  6
BYLAYER
 62
  256
 10
700.4146200662223
 20
181.8284292577847
  0
POINT
  8
3
  6
BYLAYER
 62
  256
 10
694.073813166115
 20
209.5493005711091
  0
POINT
  8
3
  6
BYLAYER
 62
  256
 10
688.0535084207678
 20
238.0282050689303
  0
POINT
  8
3
  6
BYLAYER
 62
  256
 10
682.5019451096857
 20
265.9605535645657
  0
POINT
  8
3
  6
BYLAYER
 62
  256
 10
675.2728463020995
 20
304.4564985791622
  0
POINT
  8
3
  6
BYLAYER
 62
  256
 10
668.3484923148362
 20
343.8882908249028
  0
POINT
  8
3
  6
BYLAYER
 62
  256
 10
660.9630107015204
 20
388.8884486297772
  0
POINT
  8
3
  6
BYLAYER
 62
  256
 10
648.8305219780113
 20
464.8946586885529
  0
POINT
  8
3
  6
BYLAYER
 62
  256
 10
636.0960620787376
 20
542.3545563624871
  0
POINT
  8
3
  6
BYLAYER
 62
  256
 10
629.8179904132021
 20
578.1871772649971
  0
POINT
  8
3
  6
BYLAYER
 62
  256
 10
625.7258750064686
 20
600.3106868163851
  0
POINT
  8
3
  6
BYLAYER
 62
  256
 10
621.7476062642961
 20
620.5202573235545
  0
POINT
  8
3
  6
BYLAYER
 62
  256
 10
617.9148285107098
 20
638.4414691854623
  0
POINT
  8
3
  6
BYLAYER
 62
  256
 10
614.2591860697344
 20
653.6999028010662
  0
POINT
  8
3
  6
BYLAYER
 62
  256
 10
611.6600013540644
 20
663.0673551052508
  0
POINT
  8
3
  6
BYLAYER
 62
  256
 10
609.9946981718085
 20
668.3484698523474
  0
POINT
  8
3
  6
BYLAYER
 62
  256
 10
612.8992978515624
 20
670.6462107079154
  0
POINT
  8
3
  6
BYLAYER
 62
  256
 10
619.9472562255859
 20
670.8868682871199
  0
POINT
  8
3
  6
BYLAYER
 62
  256
 10
626.5619412841796
 20
671.3608416139678
  0
POINT
  8
3
  6
BYLAYER
 62
  256
 10
632.7621213378907
 20
672.0607888568979
  0
POINT
  8
3
  6
BYLAYER
 62
  256
 10
638.5665646972656
 20
672.9793681843491
  0
POINT
  8
3
  6
BYLAYER
 62
  256
 10
643.9940396728515
 20
674.1092377647606
  0
POINT
  8
3
  6
BYLAYER
 62
  256
 10
649.0633145751954
 20
675.4430557665711
  0
POINT
  8
3
  6
BYLAYER
 62
  256
 10
653.7931577148438
 20
676.9734803582195
  0
POINT
  8
3
  6
BYLAYER
 62
  256
 10
658.2023374023437
 20
678.6931697081446
  0
POINT
  8
3
  6
BYLAYER
 62
  256
 10
662.3096219482421
 20
680.5947819847855
  0
POINT
  8
3
  6
BYLAYER
 62
  256
 10
666.1337796630859
 20
682.6709753565809
  0
POINT
  8
3
  6
BYLAYER
 62
  256
 10
669.6935788574218
 20
684.9144079919698
  0
POINT
  8
3
  6
BYLAYER
 62
  256
 10
673.0077878417969
 20
687.3177380593912
  0
POINT
  8
3
  6
BYLAYER
 62
  256
 10
676.0951749267577
 20
689.8736237272839
  0
POINT
  8
3
  6
BYLAYER
 62
  256
 10
678.9745084228516
 20
692.574723164087
  0
POINT
  8
3
  6
BYLAYER
 62
  256
 10
681.6645566406251
 20
695.413694538239
  0
POINT
  8
3
  6
BYLAYER
 62
  256
 10
685.4035703124999
 20
699.8996615556511
  0
POINT
  8
3
  6
BYLAYER
 62
  256
 10
689.8731748046874
 20
706.3167339493167
  0
POINT
  8
3
  6
BYLAYER
 62
  256
 10
693.9234677734376
 20
713.1531411242794
  0
POINT
  8
3
  6
BYLAYER
 62
  256
 10
697.7045957031249
 20
720.35014842805
  0
POINT
  8
3
  6
BYLAYER
 62
  256
 10
708.9344541015624
 20
743.5174245873221
  0
POINT
  8
3
  6
BYLAYER
 62
  256
 10
717.8362994366948
 20
759.9208622852858
  0
POINT
  8
3
  6
BYLAYER
 62
  256
 10
723.1348495119238
 20
770.6920016893873
  0
POINT
  8
3
  6
BYLAYER
 62
  256
 10
728.9513633321616
 20
783.767157903246
  0
POINT
  8
3
  6
BYLAYER
 62
  256
 10
735.1927545671887
 20
798.7981964929966
  0
POINT
  8
3
  6
BYLAYER
 62
  256
 10
741.7659368867855
 20
815.4369830247736
  0
POINT
  8
3
  6
BYLAYER
 62
  256
 10
748.577823960732
 20
833.335383064712
  0
POINT
  8
3
  6
BYLAYER
 62
  256
 10
759.038851022602
 20
861.7345547004038
  0
POINT
  8
3
  6
BYLAYER
 62
  256
 10
779.8602036882147
 20
920.5409995737265
  0
POINT
  8
3
  6
BYLAYER
 62
  256
 10
797.948855735239
 20
972.7961856660689
  0
POLYLINE
  8
87
  6
BYLAYER
 62
  256
 66
    1
 10
0
 20
0
 30
0
 70
    1
  0
VERTEX
  8
87
  6
BYLAYER
 62
  256
 10
811.0627499999999
 20
1009.62585
 30
0
  0
VERTEX
  8
87
  6
BYLAYER
 62
  256
 10
891.8136935513756
 20
979.3215992162812
 30
0
  0
VERTEX
  8
87
  6
BYLAYER
 62
  256
 10
891.7979391500172
 20
915.2415730630497
 30
0
  0
VERTEX
  8
87
  6
BYLAYER
 62
  256
 10
933.9446206216588
 20
963.5106857639062
 30
0
  0
VERTEX
  8
87
  6
BYLAYER
 62
  256
 10
959.1061465108556
 20
954.0680568965155
 30
0
  0
VERTEX
  8
87
  6
BYLAYER
 62
  256
 10
959.0903921094971
 20
889.9880307432841
 30
0
  0
VERTEX
  8
87
  6
BYLAYER
 62
  256
 10
1001.237073581139
 20
938.2571434441408
 30
0
  0
VERTEX
  8
87
  6
BYLAYER
 62
  256
 10
1047.464063005477
 20
920.9090578505626
 30
0
  0
VERTEX
  8
87
  6
BYLAYER
 62
  256
 10
1046.646664940723
 20
918.6625663930889
 30
0
  0
VERTEX
  8
87
  6
BYLAYER
 62
  256
 10
1045.071668760894
 20
913.6671491238324
 30
0
  0
VERTEX
  8
87
  6
BYLAYER
 62
  256
 10
1042.831105009059
 20
905.1844978712386
 30
0
  0
VERTEX
  8
87
  6
BYLAYER
 62
  256
 10
1040.087199998166
 20
892.0159533151631
 30
0
  0
VERTEX
  8
87
  6
BYLAYER
 62
  256
 10
1037.592552966335
 20
877.1147400925263
 30
0
  0
VERTEX
  8
87
  6
BYLAYER
 62
  256
 10
1035.329990377477
 20
860.7895019461114
 30
0
  0
VERTEX
  8
87
  6
BYLAYER
 62
  256
 10
1033.2823386955
 20
843.3488826187029
 30
0
  0
VERTEX
  8
87
  6
BYLAYER
 62
  256
 10
1031.432424384314
 20
825.1015258530841
 30
0
  0
VERTEX
  8
87
  6
BYLAYER
 62
  256
 10
1029.763073907828
 20
806.3560753920392
 30
0
  0
VERTEX
  8
87
  6
BYLAYER
 62
  256
 10
1027.542834523655
 20
777.9449427511953
 30
0
  0
VERTEX
  8
87
  6
BYLAYER
 62
  256
 10
1025.081434145798
 20
741.1692045699533
 30
0
  0
VERTEX
  8
87
  6
BYLAYER
 62
  256
 10
1023.033165457113
 20
707.9566789771147
 30
0
  0
VERTEX
  8
87
  6
BYLAYER
 62
  256
 10
1021.260640168873
 20
680.7765159149501
 30
0
  0
VERTEX
  8
87
  6
BYLAYER
 62
  256
 10
1020.43775
 20
670.62585
 30
0
  0
VERTEX
  8
87
  6
BYLAYER
 62
  256
 10
1019.962958221576
 20
665.6673206439261
 30
0
  0
VERTEX
  8
87
  6
BYLAYER
 62
  256
 10
1018.391042613748
 20
653.042597141002
 30
0
  0
VERTEX
  8
87
  6
BYLAYER
 62
  256
 10
1014.862816887603
 20
629.0348236354828
 30
0
  0
VERTEX
  8
87
  6
BYLAYER
 62
  256
 10
1008.15384956154
 20
588.4170425056157
 30
0
  0
VERTEX
  8
87
  6
BYLAYER
 62
  256
 10
999.871330667717
 20
541.1737512312909
 30
0
  0
VERTEX
  8
87
  6
BYLAYER
 62
  256
 10
985.8986458421653
 20
464.1442404743346
 30
0
  0
VERTEX
  8
87
  6
BYLAYER
 62
  256
 10
967.6030747040483
 20
364.6570380658632
 30
0
  0
VERTEX
  8
87
  6
BYLAYER
 62
  256
 10
960.4377499999998
 20
324.62585
 30
0
  0
VERTEX
  8
87
  6
BYLAYER
 62
  256
 10
958.8056250916613
 20
314.9672258025458
 30
0
  0
VERTEX
  8
87
  6
BYLAYER
 62
  256
 10
955.4565749876255
 20
292.0417568713318
 30
0
  0
VERTEX
  8
87
  6
BYLAYER
 62
  256
 10
950.1084885032776
 20
252.2940919656299
 30
0
  0
VERTEX
  8
87
  6
BYLAYER
 62
  256
 10
945.8884875540318
 20
222.3665699436119
 30
0
  0
VERTEX
  8
87
  6
BYLAYER
 62
  256
 10
943.989186833885
 20
209.5493005711091
 30
0
  0
VERTEX
  8
87
  6
BYLAYER
 62
  256
 10
940.5819883784924
 20
188.6705016000008
 30
0
  0
VERTEX
  8
87
  6
BYLAYER
 62
  256
 10
938.1649183171561
 20
175.2441847119661
 30
0
  0
VERTEX
  8
87
  6
BYLAYER
 62
  256
 10
935.6115084294748
 20
162.4150602408938
 30
0
  0
VERTEX
  8
87
  6
BYLAYER
 62
  256
 10
932.9109917503873
 20
150.3462018351194
 30
0
  0
VERTEX
  8
87
  6
BYLAYER
 62
  256
 10
930.0526013148315
 20
139.2006831429785
 30
0
  0
VERTEX
  8
87
  6
BYLAYER
 62
  256
 10
927.0255701577454
 20
129.1415778128065
 30
0
  0
VERTEX
  8
87
  6
BYLAYER
 62
  256
 10
925.4377499999998
 20
124.62585
 30
0
  0
VERTEX
  8
87
  6
BYLAYER
 62
  256
 10
905.4377499999999
 20
124.62585
 30
0
  0
VERTEX
  8
87
  6
BYLAYER
 62
  256
 10
901.5495436615205
 20
123.8726843892699
 30
0
  0
VERTEX
  8
87
  6
BYLAYER
 62
  256
 10
892.0537501433062
 20
121.5198305355579
 30
0
  0
VERTEX
  8
87
  6
BYLAYER
 62
  256
 10
874.9894922383268
 20
116.8021633898934
 30
0
  0
VERTEX
  8
87
  6
BYLAYER
 62
  256
 10
855.5557934765613
 20
111.6248500979409
 30
0
  0
VERTEX
  8
87
  6
BYLAYER
 62
  256
 10
842.2688945874899
 20
108.5365624101682
 30
0
  0
VERTEX
  8
87
  6
BYLAYER
 62
  256
 10
832.4364465289083
 20
106.6789219464284
 30
0
  0
VERTEX
  8
87
  6
BYLAYER
 62
  256
 10
826.0407810253608
 20
105.7118573603788
 30
0
  0
VERTEX
  8
87
  6
BYLAYER
 62
  256
 10
819.8439060716006
 20
105.0238159332111
 30
0
  0
VERTEX
  8
87
  6
BYLAYER
 62
  256
 10
813.9039196190229
 20
104.6581293680598
 30
0
  0
VERTEX
  8
87
  6
BYLAYER
 62
  256
 10
808.221580380977
 20
104.6581293680598
 30
0
  0
VERTEX
  8
87
  6
BYLAYER
 62
  256
 10
802.2815939283993
 20
105.0238159332111
 30
0
  0
VERTEX
  8
87
  6
BYLAYER
 62
  256
 10
796.0847189746389
 20
105.7118573603788
 30
0
  0
VERTEX
  8
87
  6
BYLAYER
 62
  256
 10
789.6890534710916
 20
106.6789219464284
 30
0
  0
VERTEX
  8
87
  6
BYLAYER
 62
  256
 10
779.8566054125101
 20
108.5365624101682
 30
0
  0
VERTEX
  8
87
  6
BYLAYER
 62
  256
 10
766.5697065234385
 20
111.6248500979409
 30
0
  0
VERTEX
  8
87
  6
BYLAYER
 62
  256
 10
747.1360077616731
 20
116.8021633898934
 30
0
  0
VERTEX
  8
87
  6
BYLAYER
 62
  256
 10
730.0717498566935
 20
121.5198305355579
 30
0
  0
VERTEX
  8
87
  6
BYLAYER
 62
  256
 10
720.5759563384796
 20
123.8726843892699
 30
0
  0
VERTEX
  8
87
  6
BYLAYER
 62
  256
 10
716.6877499999999
 20
124.62585
 30
0
  0
VERTEX
  8
87
  6
BYLAYER
 62
  256
 10
715.0803985922545
 20
129.1415778128065
 30
0
  0
VERTEX
  8
87
  6
BYLAYER
 62
  256
 10
711.8336408726683
 20
139.2006831429785
 30
0
  0
VERTEX
  8
87
  6
BYLAYER
 62
  256
 10
708.5650941871125
 20
150.3462018351194
 30
0
  0
VERTEX
  8
87
  6
BYLAYER
 62
  256
 10
705.2932884455249
 20
162.4150602408938
 30
0
  0
VERTEX
  8
87
  6
BYLAYER
 62
  256
 10
700.4146200662223
 20
181.8284292577847
 30
0
  0
VERTEX
  8
87
  6
BYLAYER
 62
  256
 10
694.073813166115
 20
209.5493005711091
 30
0
  0
VERTEX
  8
87
  6
BYLAYER
 62
  256
 10
688.0535084207678
 20
238.0282050689303
 30
0
  0
VERTEX
  8
87
  6
BYLAYER
 62
  256
 10
682.5019451096857
 20
265.9605535645657
 30
0
  0
VERTEX
  8
87
  6
BYLAYER
 62
  256
 10
675.2728463020995
 20
304.4564985791622
 30
0
  0
VERTEX
  8
87
  6
BYLAYER
 62
  256
 10
671.6877500000001
 20
324.62585
 30
0
  0
VERTEX
  8
87
  6
BYLAYER
 62
  256
 10
668.3484923148362
 20
343.8882908249028
 30
0
  0
VERTEX
  8
87
  6
BYLAYER
 62
  256
 10
660.9630107015204
 20
388.8884486297772
 30
0
  0
VERTEX
  8
87
  6
BYLAYER
 62
  256
 10
648.8305219780113
 20
464.8946586885529
 30
0
  0
VERTEX
  8
87
  6
BYLAYER
 62
  256
 10
636.0960620787376
 20
542.3545563624871
 30
0
  0
VERTEX
  8
87
  6
BYLAYER
 62
  256
 10
629.8179904132021
 20
578.1871772649971
 30
0
  0
VERTEX
  8
87
  6
BYLAYER
 62
  256
 10
625.7258750064686
 20
600.3106868163851
 30
0
  0
VERTEX
  8
87
  6
BYLAYER
 62
  256
 10
621.7476062642961
 20
620.5202573235545
 30
0
  0
VERTEX
  8
87
  6
BYLAYER
 62
  256
 10
617.9148285107098
 20
638.4414691854623
 30
0
  0
VERTEX
  8
87
  6
BYLAYER
 62
  256
 10
614.2591860697344
 20
653.6999028010662
 30
0
  0
VERTEX
  8
87
  6
BYLAYER
 62
  256
 10
611.6600013540644
 20
663.0673551052508
 30
0
  0
VERTEX
  8
87
  6
BYLAYER
 62
  256
 10
609.9946981718085
 20
668.3484698523474
 30
0
  0
VERTEX
  8
87
  6
BYLAYER
 62
  256
 10
609.1877500000001
 20
670.62585
 30
0
  0
VERTEX
  8
87
  6
BYLAYER
 62
  256
 10
612.8992978515624
 20
670.6462107079154
 30
0
  0
VERTEX
  8
87
  6
BYLAYER
 62
  256
 10
619.9472562255859
 20
670.8868682871199
 30
0
  0
VERTEX
  8
87
  6
BYLAYER
 62
  256
 10
626.5619412841796
 20
671.3608416139678
 30
0
  0
VERTEX
  8
87
  6
BYLAYER
 62
  256
 10
632.7621213378907
 20
672.0607888568979
 30
0
  0
VERTEX
  8
87
  6
BYLAYER
 62
  256
 10
638.5665646972656
 20
672.9793681843491
 30
0
  0
VERTEX
  8
87
  6
BYLAYER
 62
  256
 10
643.9940396728515
 20
674.1092377647606
 30
0
  0
VERTEX
  8
87
  6
BYLAYER
 62
  256
 10
649.0633145751954
 20
675.4430557665711
 30
0
  0
VERTEX
  8
87
  6
BYLAYER
 62
  256
 10
653.7931577148438
 20
676.9734803582195
 30
0
  0
VERTEX
  8
87
  6
BYLAYER
 62
  256
 10
658.2023374023437
 20
678.6931697081446
 30
0
  0
VERTEX
  8
87
  6
BYLAYER
 62
  256
 10
662.3096219482421
 20
680.5947819847855
 30
0
  0
VERTEX
  8
87
  6
BYLAYER
 62
  256
 10
666.1337796630859
 20
682.6709753565809
 30
0
  0
VERTEX
  8
87
  6
BYLAYER
 62
  256
 10
669.6935788574218
 20
684.9144079919698
 30
0
  0
VERTEX
  8
87
  6
BYLAYER
 62
  256
 10
673.0077878417969
 20
687.3177380593912
 30
0
  0
VERTEX
  8
87
  6
BYLAYER
 62
  256
 10
676.0951749267577
 20
689.8736237272839
 30
0
  0
VERTEX
  8
87
  6
BYLAYER
 62
  256
 10
678.9745084228516
 20
692.574723164087
 30
0
  0
VERTEX
  8
87
  6
BYLAYER
 62
  256
 10
681.6645566406251
 20
695.413694538239
 30
0
  0
VERTEX
  8
87
  6
BYLAYER
 62
  256
 10
685.4035703124999
 20
699.8996615556511
 30
0
  0
VERTEX
  8
87
  6
BYLAYER
 62
  256
 10
689.8731748046874
 20
706.3167339493167
 30
0
  0
VERTEX
  8
87
  6
BYLAYER
 62
  256
 10
693.9234677734376
 20
713.1531411242794
 30
0
  0
VERTEX
  8
87
  6
BYLAYER
 62
  256
 10
697.7045957031249
 20
720.35014842805
 30
0
  0
VERTEX
  8
87
  6
BYLAYER
 62
  256
 10
708.9344541015624
 20
743.5174245873221
 30
0
  0
VERTEX
  8
87
  6
BYLAYER
 62
  256
 10
713.1403867187499
 20
751.5694858814371
 30
0
  0
VERTEX
  8
87
  6
BYLAYER
 62
  256
 10
717.8362994366948
 20
759.9208622852858
 30
0
  0
VERTEX
  8
87
  6
BYLAYER
 62
  256
 10
723.1348495119238
 20
770.6920016893873
 30
0
  0
VERTEX
  8
87
  6
BYLAYER
 62
  256
 10
728.9513633321616
 20
783.767157903246
 30
0
  0
VERTEX
  8
87
  6
BYLAYER
 62
  256
 10
735.1927545671887
 20
798.7981964929966
 30
0
  0
VERTEX
  8
87
  6
BYLAYER
 62
  256
 10
741.7659368867855
 20
815.4369830247736
 30
0
  0
VERTEX
  8
87
  6
BYLAYER
 62
  256
 10
748.577823960732
 20
833.335383064712
 30
0
  0
VERTEX
  8
87
  6
BYLAYER
 62
  256
 10
759.038851022602
 20
861.7345547004038
 30
0
  0
VERTEX
  8
87
  6
BYLAYER
 62
  256
 10
779.8602036882147
 20
920.5409995737265
 30
0
  0
VERTEX
  8
87
  6
BYLAYER
 62
  256
 10
797.948855735239
 20
972.7961856660689
 30
0
  0
VERTEX
  8
87
  6
BYLAYER
 62
  256
 10
807.4915457416505
 20
999.933929844969
 30
0
  0
VERTEX
  8
87
  6
BYLAYER
 62
  256
 10
811.0627499999999
 20
1009.62585
 30
0
  0
SEQEND
  8
87
  6
BYLAYER
 62
  256
  0
POINT
  8
4
  6
BYLAYER
 62
  256
 10
1056.751140727734
 20
869.3730682470331
 30
9.999999999999963
 50
172.109474242731
 39
11.47152872702096
  0
ATTDEF
  8
1
  6
BYLAYER
 62
  256
 10
1057.364537807682
 20
874.0901879281639
 11
1056.751140727734
 21
869.3730682470331
 40
3
  1
Link:4
  2
Dependency
  3

 70
    2
 73
    3
  0
POINT
  8
80
  6
BYLAYER
 62
  256
 10
1047.880754294033
 20
781.0315740912449
 30
10.00000000000004
 50
175.5315989009671
 39
7.500000000000024
  0
ATTDEF
  8
1
  6
BYLAYER
 62
  256
 10
1049.693844508665
 20
804.6899077569462
 11
1047.880754294033
 21
781.0315740912449
 40
3
  1
Link:80
  2
Dependency
  3

 70
    2
 73
    3
  0
POINT
  8
4
  6
BYLAYER
 62
  256
 10
1043.885712332755
 20
721.4941412305874
 30
10
 50
176.4709487471059
 39
11.47152872702089
  0
ATTDEF
  8
1
  6
BYLAYER
 62
  256
 10
1045.036787831952
 20
739.8335926276098
 11
1043.885712332755
 21
721.4941412305874
 40
3
  1
Link:4
  2
Dependency
  3

 70
    2
 73
    3
  0
POINT
  8
80
  6
BYLAYER
 62
  256
 10
965.5420482013675
 20
219.55298581897
 30
9.999999999999977
 50
171.8529490224448
 39
7.500000000000071
  0
ATTDEF
  8
1
  6
BYLAYER
 62
  256
 10
969.9186089026379
 20
249.5434080637504
 11
965.5420482013675
 21
219.55298581897
 40
3
  1
Link:80
  2
Dependency
  3

 70
    2
 73
    3
  0
LINE
  8
7
  6
BYLAYER
 62
  256
 10
811.0627499999999
 20
124.62585
 11
811.0627500000001
 21
1009.62585
  0
TEXT
  8
1
  6
BYLAYER
 62
  256
 10
837.3761958333333
 20
813.24231875
 40
2.116666666666666
  1
B
 50
-0
 41
1
 51
0
  7
YU GOTHIC UI_BOLD
 71
    0
210
0
220
0
230
1
  0
TEXT
  8
1
  6
BYLAYER
 62
  256
 10
836.0532791666667
 20
810.1548187499999
 40
1.322916666666667
  1
back
 50
-0
 41
1
 51
0
  7
YU GOTHIC UI_BOLD
 71
    0
210
0
220
0
230
1
  0
TEXT
  8
1
  6
BYLAYER
 62
  256
 10
833.5397374999999
 20
807.3319020833334
 40
1.058333333333333
  1
Fabric, Cut 2
 50
-0
 41
1
 51
0
  7
YU GOTHIC UI
 71
    0
210
0
220
0
230
1
  0
TEXT
  8
15
  6
BYLAYER
 62
  256
 10
826.9831152098574
 20
562.5390318084656
 40
2.5
  1
back
 50
0
 41
1
 51
0
  7
STANDARD
 71
    0
210
0
220
0
230
1
  0
ENDBLK
  8
1
  0
BLOCK
  8
1
  2
POCKET
 70
    0
 10
0
 20
0
  3
POCKET
  1

  0
POLYLINE
  8
1
  6
BYLAYER
 62
  256
 66
    1
 10
0
 20
0
 30
0
 70
    1
  0
VERTEX
  8
1
  6
BYLAYER
 62
  256
 10
0.263749999999946
 20
1083.58745
 30
0
  0
VERTEX
  8
1
  6
BYLAYER
 62
  256
 10
126.1939692170071
 20
1083.58745
 30
0
  0
VERTEX
  8
1
  6
BYLAYER
 62
  256
 10
133.4787301281129
 20
1076.119372378218
 30
0
  0
VERTEX
  8
1
  6
BYLAYER
 62
  256
 10
136.343487189333
 20
1072.825652472727
 30
0
  0
VERTEX
  8
1
  6
BYLAYER
 62
  256
 10
140.4236817979172
 20
1067.435472654626
 30
0
  0
VERTEX
  8
1
  6
BYLAYER
 62
  256
 10
145.6123809122253
 20
1059.18790870268
 30
0
  0
VERTEX
  8
1
  6
BYLAYER
 62
  256
 10
150.6663568654134
 20
1049.63220968857
 30
0
  0
VERTEX
  8
1
  6
BYLAYER
 62
  256
 10
155.5842533541225
 20
1038.75266939168
 30
0
  0
VERTEX
  8
1
  6
BYLAYER
 62
  256
 10
160.2376118540246
 20
1026.749009927129
 30
0
  0
VERTEX
  8
1
  6
BYLAYER
 62
  256
 10
164.9218138652889
 20
1012.933738951205
 30
0
  0
VERTEX
  8
1
  6
BYLAYER
 62
  256
 10
169.2992128028136
 20
997.8541349861644
 30
0
  0
VERTEX
  8
1
  6
BYLAYER
 62
  256
 10
173.4070042432598
 20
981.3425845162864
 30
0
  0
VERTEX
  8
1
  6
BYLAYER
 62
  256
 10
177.1996735057417
 20
963.3593341427318
 30
0
  0
VERTEX
  8
1
  6
BYLAYER
 62
  256
 10
180.6229007504364
 20
943.8886314345544
 30
0
  0
VERTEX
  8
1
  6
BYLAYER
 62
  256
 10
183.620643268141
 20
922.9167106293861
 30
0
  0
VERTEX
  8
1
  6
BYLAYER
 62
  256
 10
186.1357130241376
 20
900.4312144791686
 30
0
  0
VERTEX
  8
1
  6
BYLAYER
 62
  256
 10
188.1101416023613
 20
876.4208009242803
 30
0
  0
VERTEX
  8
1
  6
BYLAYER
 62
  256
 10
189.4854173171925
 20
850.8748698799208
 30
0
  0
VERTEX
  8
1
  6
BYLAYER
 62
  256
 10
190.2023452148802
 20
823.794616991262
 30
0
  0
VERTEX
  8
1
  6
BYLAYER
 62
  256
 10
190.2391677603788
 20
791.0613070475662
 30
0
  0
VERTEX
  8
1
  6
BYLAYER
 62
  256
 10
189.9471583566898
 20
756.7909560726116
 30
0
  0
VERTEX
  8
1
  6
BYLAYER
 62
  256
 10
189.374145029755
 20
725.6303904924215
 30
0
  0
VERTEX
  8
1
  6
BYLAYER
 62
  256
 10
188.5306341487886
 20
697.2681686981723
 30
0
  0
VERTEX
  8
1
  6
BYLAYER
 62
  256
 10
187.4270459810876
 20
671.4053591505574
 30
0
  0
VERTEX
  8
1
  6
BYLAYER
 62
  256
 10
185.8359208793696
 20
643.5874499999999
 30
0
  0
VERTEX
  8
1
  6
BYLAYER
 62
  256
 10
0.2637499999999159
 20
643.5874499999999
 30
0
  0
VERTEX
  8
1
  6
BYLAYER
 62
  256
 10
0.263749999999946
 20
1083.58745
 30
0
  0
SEQEND
  8
1
  6
BYLAYER
 62
  256
  0
POINT
  8
2
  6
BYLAYER
 62
  256
 10
0.263749999999946
 20
1083.58745
  0
POINT
  8
2
  6
BYLAYER
 62
  256
 10
126.1939692170071
 20
1083.58745
  0
POINT
  8
2
  6
BYLAYER
 62
  256
 10
160.2376118540246
 20
1026.749009927129
  0
POINT
  8
2
  6
BYLAYER
 62
  256
 10
188.1101416023613
 20
876.4208009242803
  0
POINT
  8
2
  6
BYLAYER
 62
  256
 10
185.8359208793696
 20
643.5874499999999
  0
POINT
  8
2
  6
BYLAYER
 62
  256
 10
0.2637499999999159
 20
643.5874499999999
  0
POINT
  8
2
  6
BYLAYER
 62
  256
 10
0.263749999999946
 20
1083.58745
  0
POINT
  8
3
  6
BYLAYER
 62
  256
 10
133.4787301281129
 20
1076.119372378218
  0
POINT
  8
3
  6
BYLAYER
 62
  256
 10
136.343487189333
 20
1072.825652472727
  0
POINT
  8
3
  6
BYLAYER
 62
  256
 10
140.4236817979172
 20
1067.435472654626
  0
POINT
  8
3
  6
BYLAYER
 62
  256
 10
145.6123809122253
 20
1059.18790870268
  0
POINT
  8
3
  6
BYLAYER
 62
  256
 10
150.6663568654134
 20
1049.63220968857
  0
POINT
  8
3
  6
BYLAYER
 62
  256
 10
155.5842533541225
 20
1038.75266939168
  0
POINT
  8
3
  6
BYLAYER
 62
  256
 10
164.9218138652889
 20
1012.933738951205
  0
POINT
  8
3
  6
BYLAYER
 62
  256
 10
169.2992128028136
 20
997.8541349861644
  0
POINT
  8
3
  6
BYLAYER
 62
  256
 10
173.4070042432598
 20
981.3425845162864
  0
POINT
  8
3
  6
BYLAYER
 62
  256
 10
177.1996735057417
 20
963.3593341427318
  0
POINT
  8
3
  6
BYLAYER
 62
  256
 10
180.6229007504364
 20
943.8886314345544
  0
POINT
  8
3
  6
BYLAYER
 62
  256
 10
183.620643268141
 20
922.9167106293861
  0
POINT
  8
3
  6
BYLAYER
 62
  256
 10
186.1357130241376
 20
900.4312144791686
  0
POINT
  8
3
  6
BYLAYER
 62
  256
 10
189.4854173171925
 20
850.8748698799208
  0
POINT
  8
3
  6
BYLAYER
 62
  256
 10
190.2023452148802
 20
823.794616991262
  0
POINT
  8
3
  6
BYLAYER
 62
  256
 10
190.2391677603788
 20
791.0613070475662
  0
POINT
  8
3
  6
BYLAYER
 62
  256
 10
189.9471583566898
 20
756.7909560726116
  0
POINT
  8
3
  6
BYLAYER
 62
  256
 10
189.374145029755
 20
725.6303904924215
  0
POINT
  8
3
  6
BYLAYER
 62
  256
 10
188.5306341487886
 20
697.2681686981723
  0
POINT
  8
3
  6
BYLAYER
 62
  256
 10
187.4270459810876
 20
671.4053591505574
  0
POLYLINE
  8
84
  6
BYLAYER
 62
  256
 66
    1
 10
0
 20
0
 30
0
 70
    1
  0
VERTEX
  8
84
  6
BYLAYER
 62
  256
 10
0.263749999999946
 20
1083.58745
 30
0
  0
VERTEX
  8
84
  6
BYLAYER
 62
  256
 10
126.1939692170071
 20
1083.58745
 30
0
  0
VERTEX
  8
84
  6
BYLAYER
 62
  256
 10
133.4787301281129
 20
1076.119372378218
 30
0
  0
VERTEX
  8
84
  6
BYLAYER
 62
  256
 10
136.343487189333
 20
1072.825652472727
 30
0
  0
VERTEX
  8
84
  6
BYLAYER
 62
  256
 10
140.4236817979172
 20
1067.435472654626
 30
0
  0
VERTEX
  8
84
  6
BYLAYER
 62
  256
 10
145.6123809122253
 20
1059.18790870268
 30
0
  0
VERTEX
  8
84
  6
BYLAYER
 62
  256
 10
150.6663568654134
 20
1049.63220968857
 30
0
  0
VERTEX
  8
84
  6
BYLAYER
 62
  256
 10
155.5842533541225
 20
1038.75266939168
 30
0
  0
VERTEX
  8
84
  6
BYLAYER
 62
  256
 10
160.2376118540246
 20
1026.749009927129
 30
0
  0
VERTEX
  8
84
  6
BYLAYER
 62
  256
 10
164.9218138652889
 20
1012.933738951205
 30
0
  0
VERTEX
  8
84
  6
BYLAYER
 62
  256
 10
169.2992128028136
 20
997.8541349861644
 30
0
  0
VERTEX
  8
84
  6
BYLAYER
 62
  256
 10
173.4070042432598
 20
981.3425845162864
 30
0
  0
VERTEX
  8
84
  6
BYLAYER
 62
  256
 10
177.1996735057417
 20
963.3593341427318
 30
0
  0
VERTEX
  8
84
  6
BYLAYER
 62
  256
 10
180.6229007504364
 20
943.8886314345544
 30
0
  0
VERTEX
  8
84
  6
BYLAYER
 62
  256
 10
183.620643268141
 20
922.9167106293861
 30
0
  0
VERTEX
  8
84
  6
BYLAYER
 62
  256
 10
186.1357130241376
 20
900.4312144791686
 30
0
  0
VERTEX
  8
84
  6
BYLAYER
 62
  256
 10
188.1101416023613
 20
876.4208009242803
 30
0
  0
VERTEX
  8
84
  6
BYLAYER
 62
  256
 10
189.4854173171925
 20
850.8748698799208
 30
0
  0
VERTEX
  8
84
  6
BYLAYER
 62
  256
 10
190.2023452148802
 20
823.794616991262
 30
0
  0
VERTEX
  8
84
  6
BYLAYER
 62
  256
 10
190.2391677603788
 20
791.0613070475662
 30
0
  0
VERTEX
  8
84
  6
BYLAYER
 62
  256
 10
189.9471583566898
 20
756.7909560726116
 30
0
  0
VERTEX
  8
84
  6
BYLAYER
 62
  256
 10
189.374145029755
 20
725.6303904924215
 30
0
  0
VERTEX
  8
84
  6
BYLAYER
 62
  256
 10
188.5306341487886
 20
697.2681686981723
 30
0
  0
VERTEX
  8
84
  6
BYLAYER
 62
  256
 10
187.4270459810876
 20
671.4053591505574
 30
0
  0
VERTEX
  8
84
  6
BYLAYER
 62
  256
 10
185.8359208793696
 20
643.5874499999999
 30
0
  0
VERTEX
  8
84
  6
BYLAYER
 62
  256
 10
0.2637499999999159
 20
643.5874499999999
 30
0
  0
VERTEX
  8
84
  6
BYLAYER
 62
  256
 10
0.263749999999946
 20
1083.58745
 30
0
  0
SEQEND
  8
84
  6
BYLAYER
 62
  256
  0
POLYLINE
  8
14
  6
BYLAYER
 62
  256
 66
    1
 10
0
 20
0
 30
0
 70
    1
  0
VERTEX
  8
14
  6
BYLAYER
 62
  256
 10
20.26374999999994
 20
1063.58745
 30
0
  0
VERTEX
  8
14
  6
BYLAYER
 62
  256
 10
117.7637499999999
 20
1063.58745
 30
0
  0
VERTEX
  8
14
  6
BYLAYER
 62
  256
 10
118.7630376576884
 20
1062.563015857937
 30
0
  0
VERTEX
  8
14
  6
BYLAYER
 62
  256
 10
120.8070137827435
 20
1060.212978941866
 30
0
  0
VERTEX
  8
14
  6
BYLAYER
 62
  256
 10
123.9554450376277
 20
1056.053713946747
 30
0
  0
VERTEX
  8
14
  6
BYLAYER
 62
  256
 10
128.2839473430355
 20
1049.173453828839
 30
0
  0
VERTEX
  8
14
  6
BYLAYER
 62
  256
 10
132.6970832165507
 20
1040.829409752199
 30
0
  0
VERTEX
  8
14
  6
BYLAYER
 62
  256
 10
137.1342661498333
 20
1031.013320568917
 30
0
  0
VERTEX
  8
14
  6
BYLAYER
 62
  256
 10
141.4346052760767
 20
1019.920298947093
 30
0
  0
VERTEX
  8
14
  6
BYLAYER
 62
  256
 10
145.8384271623428
 20
1006.931962290782
 30
0
  0
VERTEX
  8
14
  6
BYLAYER
 62
  256
 10
149.9842322248903
 20
992.6501709001095
 30
0
  0
VERTEX
  8
14
  6
BYLAYER
 62
  256
 10
153.9117383138468
 20
976.8632898111531
 30
0
  0
VERTEX
  8
14
  6
BYLAYER
 62
  256
 10
157.5603589208724
 20
959.5630578760025
 30
0
  0
VERTEX
  8
14
  6
BYLAYER
 62
  256
 10
160.8695075376277
 20
940.7412139467472
 30
0
  0
VERTEX
  8
14
  6
BYLAYER
 62
  256
 10
163.778597655773
 20
920.3894968754769
 30
0
  0
VERTEX
  8
14
  6
BYLAYER
 62
  256
 10
166.2270427669685
 20
898.4996455142814
 30
0
  0
VERTEX
  8
14
  6
BYLAYER
 62
  256
 10
168.1542563628746
 20
875.0633987152503
 30
0
  0
VERTEX
  8
14
  6
BYLAYER
 62
  256
 10
169.4996519351517
 20
850.0724953304732
 30
0
  0
VERTEX
  8
14
  6
BYLAYER
 62
  256
 10
170.2026429754601
 20
823.5186742120399
 30
0
  0
VERTEX
  8
14
  6
BYLAYER
 62
  256
 10
170.2637499999999
 20
809.58745
 30
0
  0
VERTEX
  8
14
  6
BYLAYER
 62
  256
 10
170.2390719097005
 20
791.1352640142601
 30
0
  0
VERTEX
  8
14
  6
BYLAYER
 62
  256
 10
169.9487250214442
 20
757.0600265755897
 30
0
  0
VERTEX
  8
14
  6
BYLAYER
 62
  256
 10
169.3796116356054
 20
726.1115404786636
 30
0
  0
VERTEX
  8
14
  6
BYLAYER
 62
  256
 10
168.5433121428577
 20
697.9917945038962
 30
0
  0
VERTEX
  8
14
  6
BYLAYER
 62
  256
 10
167.4514069338749
 20
672.4027774317021
 30
0
  0
VERTEX
  8
14
  6
BYLAYER
 62
  256
 10
166.9471889971302
 20
663.58745
 30
0
  0
VERTEX
  8
14
  6
BYLAYER
 62
  256
 10
20.26374999999994
 20
663.58745
 30
0
  0
VERTEX
  8
14
  6
BYLAYER
 62
  256
 10
20.26374999999994
 20
1063.58745
 30
0
  0
SEQEND
  8
14
  6
BYLAYER
 62
  256
  0
POINT
  8
2
  6
BYLAYER
 62
  256
 10
20.26374999999994
 20
1063.58745
  0
POINT
  8
2
  6
BYLAYER
 62
  256
 10
117.7637499999999
 20
1063.58745
  0
POINT
  8
2
  6
BYLAYER
 62
  256
 10
141.4346052760767
 20
1019.920298947093
  0
POINT
  8
2
  6
BYLAYER
 62
  256
 10
168.1542563628746
 20
875.0633987152503
  0
POINT
  8
2
  6
BYLAYER
 62
  256
 10
166.9471889971302
 20
663.58745
  0
POINT
  8
2
  6
BYLAYER
 62
  256
 10
20.26374999999994
 20
663.58745
  0
POINT
  8
2
  6
BYLAYER
 62
  256
 10
20.26374999999994
 20
1063.58745
  0
POINT
  8
3
  6
BYLAYER
 62
  256
 10
118.7630376576884
 20
1062.563015857937
  0
POINT
  8
3
  6
BYLAYER
 62
  256
 10
120.8070137827435
 20
1060.212978941866
  0
POINT
  8
3
  6
BYLAYER
 62
  256
 10
123.9554450376277
 20
1056.053713946747
  0
POINT
  8
3
  6
BYLAYER
 62
  256
 10
128.2839473430355
 20
1049.173453828839
  0
POINT
  8
3
  6
BYLAYER
 62
  256
 10
132.6970832165507
 20
1040.829409752199
  0
POINT
  8
3
  6
BYLAYER
 62
  256
 10
137.1342661498333
 20
1031.013320568917
  0
POINT
  8
3
  6
BYLAYER
 62
  256
 10
145.8384271623428
 20
1006.931962290782
  0
POINT
  8
3
  6
BYLAYER
 62
  256
 10
149.9842322248903
 20
992.6501709001095
  0
POINT
  8
3
  6
BYLAYER
 62
  256
 10
153.9117383138468
 20
976.8632898111531
  0
POINT
  8
3
  6
BYLAYER
 62
  256
 10
157.5603589208724
 20
959.5630578760025
  0
POINT
  8
3
  6
BYLAYER
 62
  256
 10
160.8695075376277
 20
940.7412139467472
  0
POINT
  8
3
  6
BYLAYER
 62
  256
 10
163.778597655773
 20
920.3894968754769
  0
POINT
  8
3
  6
BYLAYER
 62
  256
 10
166.2270427669685
 20
898.4996455142814
  0
POINT
  8
3
  6
BYLAYER
 62
  256
 10
169.4996519351517
 20
850.0724953304732
  0
POINT
  8
3
  6
BYLAYER
 62
  256
 10
170.2026429754601
 20
823.5186742120399
  0
POINT
  8
3
  6
BYLAYER
 62
  256
 10
170.2637499999999
 20
809.58745
  0
POINT
  8
3
  6
BYLAYER
 62
  256
 10
170.2390719097005
 20
791.1352640142601
  0
POINT
  8
3
  6
BYLAYER
 62
  256
 10
169.9487250214442
 20
757.0600265755897
  0
POINT
  8
3
  6
BYLAYER
 62
  256
 10
169.3796116356054
 20
726.1115404786636
  0
POINT
  8
3
  6
BYLAYER
 62
  256
 10
168.5433121428577
 20
697.9917945038962
  0
POINT
  8
3
  6
BYLAYER
 62
  256
 10
167.4514069338749
 20
672.4027774317021
  0
POLYLINE
  8
87
  6
BYLAYER
 62
  256
 66
    1
 10
0
 20
0
 30
0
 70
    1
  0
VERTEX
  8
87
  6
BYLAYER
 62
  256
 10
20.26374999999994
 20
1063.58745
 30
0
  0
VERTEX
  8
87
  6
BYLAYER
 62
  256
 10
117.7637499999999
 20
1063.58745
 30
0
  0
VERTEX
  8
87
  6
BYLAYER
 62
  256
 10
118.7630376576884
 20
1062.563015857937
 30
0
  0
VERTEX
  8
87
  6
BYLAYER
 62
  256
 10
120.8070137827435
 20
1060.212978941866
 30
0
  0
VERTEX
  8
87
  6
BYLAYER
 62
  256
 10
123.9554450376277
 20
1056.053713946747
 30
0
  0
VERTEX
  8
87
  6
BYLAYER
 62
  256
 10
128.2839473430355
 20
1049.173453828839
 30
0
  0
VERTEX
  8
87
  6
BYLAYER
 62
  256
 10
132.6970832165507
 20
1040.829409752199
 30
0
  0
VERTEX
  8
87
  6
BYLAYER
 62
  256
 10
137.1342661498333
 20
1031.013320568917
 30
0
  0
VERTEX
  8
87
  6
BYLAYER
 62
  256
 10
141.4346052760767
 20
1019.920298947093
 30
0
  0
VERTEX
  8
87
  6
BYLAYER
 62
  256
 10
145.8384271623428
 20
1006.931962290782
 30
0
  0
VERTEX
  8
87
  6
BYLAYER
 62
  256
 10
149.9842322248903
 20
992.6501709001095
 30
0
  0
VERTEX
  8
87
  6
BYLAYER
 62
  256
 10
153.9117383138468
 20
976.8632898111531
 30
0
  0
VERTEX
  8
87
  6
BYLAYER
 62
  256
 10
157.5603589208724
 20
959.5630578760025
 30
0
  0
VERTEX
  8
87
  6
BYLAYER
 62
  256
 10
160.8695075376277
 20
940.7412139467472
 30
0
  0
VERTEX
  8
87
  6
BYLAYER
 62
  256
 10
163.778597655773
 20
920.3894968754769
 30
0
  0
VERTEX
  8
87
  6
BYLAYER
 62
  256
 10
166.2270427669685
 20
898.4996455142814
 30
0
  0
VERTEX
  8
87
  6
BYLAYER
 62
  256
 10
168.1542563628746
 20
875.0633987152503
 30
0
  0
VERTEX
  8
87
  6
BYLAYER
 62
  256
 10
169.4996519351517
 20
850.0724953304732
 30
0
  0
VERTEX
  8
87
  6
BYLAYER
 62
  256
 10
170.2026429754601
 20
823.5186742120399
 30
0
  0
VERTEX
  8
87
  6
BYLAYER
 62
  256
 10
170.2637499999999
 20
809.58745
 30
0
  0
VERTEX
  8
87
  6
BYLAYER
 62
  256
 10
170.2390719097005
 20
791.1352640142601
 30
0
  0
VERTEX
  8
87
  6
BYLAYER
 62
  256
 10
169.9487250214442
 20
757.0600265755897
 30
0
  0
VERTEX
  8
87
  6
BYLAYER
 62
  256
 10
169.3796116356054
 20
726.1115404786636
 30
0
  0
VERTEX
  8
87
  6
BYLAYER
 62
  256
 10
168.5433121428577
 20
697.9917945038962
 30
0
  0
VERTEX
  8
87
  6
BYLAYER
 62
  256
 10
167.4514069338749
 20
672.4027774317021
 30
0
  0
VERTEX
  8
87
  6
BYLAYER
 62
  256
 10
166.9471889971302
 20
663.58745
 30
0
  0
VERTEX
  8
87
  6
BYLAYER
 62
  256
 10
20.26374999999994
 20
663.58745
 30
0
  0
VERTEX
  8
87
  6
BYLAYER
 62
  256
 10
20.26374999999994
 20
1063.58745
 30
0
  0
SEQEND
  8
87
  6
BYLAYER
 62
  256
  0
POINT
  8
4
  6
BYLAYER
 62
  256
 10
160.2376118540246
 20
1026.749009927129
 30
10.00000000000001
 50
199.9595651182772
 39
11.47152872702092
  0
ATTDEF
  8
1
  6
BYLAYER
 62
  256
 10
155.5842533541225
 20
1038.75266939168
 11
160.2376118540246
 21
1026.749009927129
 40
3
  1
Link:4
  2
Dependency
  3

 70
    2
 73
    3
  0
POINT
  8
4
  6
BYLAYER
 62
  256
 10
188.2465021961836
 20
873.8878845865701
 30
10
 50
183.0815671234533
 39
11.47152872702091
  0
ATTDEF
  8
1
  6
BYLAYER
 62
  256
 10
188.1101416023613
 20
876.4208009242803
 11
188.2465021961836
 21
873.8878845865701
 40
3
  1
Link:4
  2
Dependency
  3

 70
    2
 73
    3
  0
LINE
  8
7
  6
BYLAYER
 62
  256
 10
20.26374999999994
 20
663.58745
 11
20.26374999999997
 21
1063.58745
  0
TEXT
  8
1
  6
BYLAYER
 62
  256
 10
69.43611875000001
 20
971.1528479166666
 40
2.116666666666666
  1
E
 50
-0
 41
1
 51
0
  7
YU GOTHIC UI_BOLD
 71
    0
210
0
220
0
230
1
  0
TEXT
  8
1
  6
BYLAYER
 62
  256
 10
66.79028541666666
 20
968.0653479166665
 40
1.322916666666667
  1
pocket
 50
-0
 41
1
 51
0
  7
YU GOTHIC UI_BOLD
 71
    0
210
0
220
0
230
1
  0
TEXT
  8
1
  6
BYLAYER
 62
  256
 10
60.44028541666666
 20
965.24243125
 40
1.058333333333333
  1
Lining, Cut 2 or 1 on fold
 50
-0
 41
1
 51
0
  7
YU GOTHIC UI
 71
    0
210
0
220
0
230
1
  0
TEXT
  8
15
  6
BYLAYER
 62
  256
 10
95.25145888018938
 20
866.0874499999999
 40
2.5
  1
pocket
 50
0
 41
1
 51
0
  7
STANDARD
 71
    0
210
0
220
0
230
1
  0
ENDBLK
  8
1
  0
BLOCK
  8
1
  2
FRONT
 70
    0
 10
0
 20
0
  3
FRONT
  1

  0
POLYLINE
  8
1
  6
BYLAYER
 62
  256
 66
    1
 10
0
 20
0
 30
0
 70
    1
  0
VERTEX
  8
1
  6
BYLAYER
 62
  256
 10
265.5799889117683
 20
959.5354500000001
 30
0
  0
VERTEX
  8
1
  6
BYLAYER
 62
  256
 10
355.2475682678001
 20
959.5354500000001
 30
0
  0
VERTEX
  8
1
  6
BYLAYER
 62
  256
 10
333.0437499999999
 20
959.5354500000001
 30
0
  0
VERTEX
  8
1
  6
BYLAYER
 62
  256
 10
422.7475682678001
 20
959.5354500000001
 30
0
  0
VERTEX
  8
1
  6
BYLAYER
 62
  256
 10
418.3399317321997
 20
959.5354500000001
 30
0
  0
VERTEX
  8
1
  6
BYLAYER
 62
  256
 10
496.4739692170069
 20
959.5354500000001
 30
0
  0
VERTEX
  8
1
  6
BYLAYER
 62
  256
 10
503.7587301281129
 20
952.0673723782179
 30
0
  0
VERTEX
  8
1
  6
BYLAYER
 62
  256
 10
506.6234871893329
 20
948.7736524727272
 30
0
  0
VERTEX
  8
1
  6
BYLAYER
 62
  256
 10
510.7036817979172
 20
943.3834726546262
 30
0
  0
VERTEX
  8
1
  6
BYLAYER
 62
  256
 10
515.8923809122253
 20
935.1359087026798
 30
0
  0
VERTEX
  8
1
  6
BYLAYER
 62
  256
 10
520.9463568654135
 20
925.5802096885701
 30
0
  0
VERTEX
  8
1
  6
BYLAYER
 62
  256
 10
525.8642533541224
 20
914.7006693916802
 30
0
  0
VERTEX
  8
1
  6
BYLAYER
 62
  256
 10
530.5176118540246
 20
902.6970099271294
 30
0
  0
VERTEX
  8
1
  6
BYLAYER
 62
  256
 10
535.201813865289
 20
888.8817389512054
 30
0
  0
VERTEX
  8
1
  6
BYLAYER
 62
  256
 10
539.5792128028136
 20
873.8021349861644
 30
0
  0
VERTEX
  8
1
  6
BYLAYER
 62
  256
 10
543.6870042432597
 20
857.2905845162863
 30
0
  0
VERTEX
  8
1
  6
BYLAYER
 62
  256
 10
547.4796735057417
 20
839.3073341427316
 30
0
  0
VERTEX
  8
1
  6
BYLAYER
 62
  256
 10
550.9029007504364
 20
819.8366314345546
 30
0
  0
VERTEX
  8
1
  6
BYLAYER
 62
  256
 10
553.9006432681409
 20
798.8647106293861
 30
0
  0
VERTEX
  8
1
  6
BYLAYER
 62
  256
 10
556.4157130241376
 20
776.3792144791685
 30
0
  0
VERTEX
  8
1
  6
BYLAYER
 62
  256
 10
558.3901416023613
 20
752.3688009242804
 30
0
  0
VERTEX
  8
1
  6
BYLAYER
 62
  256
 10
559.7654173171926
 20
726.8228698799206
 30
0
  0
VERTEX
  8
1
  6
BYLAYER
 62
  256
 10
560.4823452148802
 20
699.7426169912621
 30
0
  0
VERTEX
  8
1
  6
BYLAYER
 62
  256
 10
560.5191677603788
 20
667.009307047566
 30
0
  0
VERTEX
  8
1
  6
BYLAYER
 62
  256
 10
560.2271583566899
 20
632.7389560726116
 30
0
  0
VERTEX
  8
1
  6
BYLAYER
 62
  256
 10
559.6541450297549
 20
601.5783904924216
 30
0
  0
VERTEX
  8
1
  6
BYLAYER
 62
  256
 10
558.8106341487886
 20
573.2161686981724
 30
0
  0
VERTEX
  8
1
  6
BYLAYER
 62
  256
 10
557.7070459810876
 20
547.3533591505575
 30
0
  0
VERTEX
  8
1
  6
BYLAYER
 62
  256
 10
556.3537328805052
 20
523.6931574205929
 30
0
  0
VERTEX
  8
1
  6
BYLAYER
 62
  256
 10
554.7612213042459
 20
501.9419024557253
 30
0
  0
VERTEX
  8
1
  6
BYLAYER
 62
  256
 10
552.9406028640318
 20
481.8100312238884
 30
0
  0
VERTEX
  8
1
  6
BYLAYER
 62
  256
 10
550.904025736252
 20
463.0125918702193
 30
0
  0
VERTEX
  8
1
  6
BYLAYER
 62
  256
 10
548.6651219856479
 20
445.2688366961464
 30
0
  0
VERTEX
  8
1
  6
BYLAYER
 62
  256
 10
546.2391035862593
 20
428.3005366587119
 30
0
  0
VERTEX
  8
1
  6
BYLAYER
 62
  256
 10
543.6349100745268
 20
411.7822915564223
 30
0
  0
VERTEX
  8
1
  6
BYLAYER
 62
  256
 10
536.6113325861418
 20
371.4425870779912
 30
0
  0
VERTEX
  8
1
  6
BYLAYER
 62
  256
 10
528.6570327624543
 20
326.6809176665821
 30
0
  0
VERTEX
  8
1
  6
BYLAYER
 62
  256
 10
525.3688744033367
 20
304.1722749287442
 30
0
  0
VERTEX
  8
1
  6
BYLAYER
 62
  256
 10
520.0246089026379
 20
264.4530080637506
 30
0
  0
VERTEX
  8
1
  6
BYLAYER
 62
  256
 10
513.8656039346309
 20
221.4308795957155
 30
0
  0
VERTEX
  8
1
  6
BYLAYER
 62
  256
 10
510.4005449201899
 20
200.1975198332274
 30
0
  0
VERTEX
  8
1
  6
BYLAYER
 62
  256
 10
507.9219905222168
 20
186.4296703597127
 30
0
  0
VERTEX
  8
1
  6
BYLAYER
 62
  256
 10
505.2865607091913
 20
173.1884523049083
 30
0
  0
VERTEX
  8
1
  6
BYLAYER
 62
  256
 10
502.4668439276947
 20
160.5868776344765
 30
0
  0
VERTEX
  8
1
  6
BYLAYER
 62
  256
 10
499.4291427871297
 20
148.742185453116
 30
0
  0
VERTEX
  8
1
  6
BYLAYER
 62
  256
 10
496.1511793715183
 20
137.8492089507442
 30
0
  0
VERTEX
  8
1
  6
BYLAYER
 62
  256
 10
490.6069397875619
 20
122.0815058087946
 30
0
  0
VERTEX
  8
1
  6
BYLAYER
 62
  256
 10
475.9651655807427
 20
119.2453186693633
 30
0
  0
VERTEX
  8
1
  6
BYLAYER
 62
  256
 10
467.2304085044295
 20
117.0810333140824
 30
0
  0
VERTEX
  8
1
  6
BYLAYER
 62
  256
 10
450.3345978931428
 20
112.4099359206835
 30
0
  0
VERTEX
  8
1
  6
BYLAYER
 62
  256
 10
430.5012940003496
 20
107.1261642040243
 30
0
  0
VERTEX
  8
1
  6
BYLAYER
 62
  256
 10
416.4970962390095
 20
103.8711539955058
 30
0
  0
VERTEX
  8
1
  6
BYLAYER
 62
  256
 10
405.895094746663
 20
101.8681221105193
 30
0
  0
VERTEX
  8
1
  6
BYLAYER
 62
  256
 10
398.7463851802588
 20
100.7871925569351
 30
0
  0
VERTEX
  8
1
  6
BYLAYER
 62
  256
 10
391.6689363136243
 20
100.0013806670322
 30
0
  0
VERTEX
  8
1
  6
BYLAYER
 62
  256
 10
384.624972748889
 20
99.56772936805976
 30
0
  0
VERTEX
  8
1
  6
BYLAYER
 62
  256
 10
377.7125272511108
 20
99.56772936805976
 30
0
  0
VERTEX
  8
1
  6
BYLAYER
 62
  256
 10
370.6685636863755
 20
100.0013806670322
 30
0
  0
VERTEX
  8
1
  6
BYLAYER
 62
  256
 10
363.5911148197409
 20
100.787192556935
 30
0
  0
VERTEX
  8
1
  6
BYLAYER
 62
  256
 10
356.4424052533368
 20
101.8681221105193
 30
0
  0
VERTEX
  8
1
  6
BYLAYER
 62
  256
 10
345.8404037609905
 20
103.8711539955057
 30
0
  0
VERTEX
  8
1
  6
BYLAYER
 62
  256
 10
331.83620599965
 20
107.1261642040243
 30
0
  0
VERTEX
  8
1
  6
BYLAYER
 62
  256
 10
312.0029021068573
 20
112.4099359206835
 30
0
  0
VERTEX
  8
1
  6
BYLAYER
 62
  256
 10
295.1070914955702
 20
117.0810333140824
 30
0
  0
VERTEX
  8
1
  6
BYLAYER
 62
  256
 10
286.3723344192571
 20
119.2453186693633
 30
0
  0
VERTEX
  8
1
  6
BYLAYER
 62
  256
 10
271.78065427168
 20
122.0718023312939
 30
0
  0
VERTEX
  8
1
  6
BYLAYER
 62
  256
 10
266.2446551221582
 20
137.6247580886375
 30
0
  0
VERTEX
  8
1
  6
BYLAYER
 62
  256
 10
262.8237282837113
 20
148.2234742130844
 30
0
  0
VERTEX
  8
1
  6
BYLAYER
 62
  256
 10
259.4215621961608
 20
159.8246258472741
 30
0
  0
VERTEX
  8
1
  6
BYLAYER
 62
  256
 10
256.047560916148
 20
172.2704575761522
 30
0
  0
VERTEX
  8
1
  6
BYLAYER
 62
  256
 10
251.0717328924895
 20
192.0704476713337
 30
0
  0
VERTEX
  8
1
  6
BYLAYER
 62
  256
 10
244.6464634547312
 20
220.1605740611657
 30
0
  0
VERTEX
  8
1
  6
BYLAYER
 62
  256
 10
238.5668497365659
 20
248.9200382057487
 30
0
  0
VERTEX
  8
1
  6
BYLAYER
 62
  256
 10
232.9710323969745
 20
277.075048117168
 30
0
  0
VERTEX
  8
1
  6
BYLAYER
 62
  256
 10
225.7011981985402
 20
315.7879146883746
 30
0
  0
VERTEX
  8
1
  6
BYLAYER
 62
  256
 10
218.9254218322177
 20
354.3076791878928
 30
0
  0
VERTEX
  8
1
  6
BYLAYER
 62
  256
 10
214.8946436677754
 20
379.794613225324
 30
0
  0
VERTEX
  8
1
  6
BYLAYER
 62
  256
 10
212.5497471473251
 20
396.3346104184409
 30
0
  0
VERTEX
  8
1
  6
BYLAYER
 62
  256
 10
210.4915901003325
 20
412.7363225798469
 30
0
  0
VERTEX
  8
1
  6
BYLAYER
 62
  256
 10
208.7029475675557
 20
429.3010287328167
 30
0
  0
VERTEX
  8
1
  6
BYLAYER
 62
  256
 10
207.168469433424
 20
446.3078517293109
 30
0
  0
VERTEX
  8
1
  6
BYLAYER
 62
  256
 10
205.8713594787787
 20
464.0378024978668
 30
0
  0
VERTEX
  8
1
  6
BYLAYER
 62
  256
 10
204.793528606366
 20
482.7762056128274
 30
0
  0
VERTEX
  8
1
  6
BYLAYER
 62
  256
 10
203.9153230919164
 20
502.830958448184
 30
0
  0
VERTEX
  8
1
  6
BYLAYER
 62
  256
 10
202.9144372830612
 20
535.6953491537529
 30
0
  0
VERTEX
  8
1
  6
BYLAYER
 62
  256
 10
202.1330319205872
 20
587.1264526375604
 30
0
  0
VERTEX
  8
1
  6
BYLAYER
 62
  256
 10
201.8146011598946
 20
649.1239837211521
 30
0
  0
VERTEX
  8
1
  6
BYLAYER
 62
  256
 10
201.7851496765656
 20
700.6976753264798
 30
0
  0
VERTEX
  8
1
  6
BYLAYER
 62
  256
 10
218.0652529710842
 20
705.26120061919
 30
0
  0
VERTEX
  8
1
  6
BYLAYER
 62
  256
 10
221.1105971749926
 20
706.3156352198448
 30
0
  0
VERTEX
  8
1
  6
BYLAYER
 62
  256
 10
223.8174627020297
 20
707.4918830657061
 30
0
  0
VERTEX
  8
1
  6
BYLAYER
 62
  256
 10
226.3370976826766
 20
708.8374928703936
 30
0
  0
VERTEX
  8
1
  6
BYLAYER
 62
  256
 10
228.7153803843877
 20
710.3742310590335
 30
0
  0
VERTEX
  8
1
  6
BYLAYER
 62
  256
 10
230.9961632177285
 20
712.1360467569647
 30
0
  0
VERTEX
  8
1
  6
BYLAYER
 62
  256
 10
233.2158845731876
 20
714.1667122947631
 30
0
  0
VERTEX
  8
1
  6
BYLAYER
 62
  256
 10
235.3998208842004
 20
716.5153784941327
 30
0
  0
VERTEX
  8
1
  6
BYLAYER
 62
  256
 10
237.5609034872703
 20
719.231429240449
 30
0
  0
VERTEX
  8
1
  6
BYLAYER
 62
  256
 10
239.700985621999
 20
722.3601167156153
 30
0
  0
VERTEX
  8
1
  6
BYLAYER
 62
  256
 10
241.813657538061
 20
725.9398853876354
 30
0
  0
VERTEX
  8
1
  6
BYLAYER
 62
  256
 10
243.8875058142301
 20
730.0015079583212
 30
0
  0
VERTEX
  8
1
  6
BYLAYER
 62
  256
 10
245.9089884556124
 20
734.5685989826493
 30
0
  0
VERTEX
  8
1
  6
BYLAYER
 62
  256
 10
247.864535512222
 20
739.6588882523606
 30
0
  0
VERTEX
  8
1
  6
BYLAYER
 62
  256
 10
249.7418401182667
 20
745.2857257309414
 30
0
  0
VERTEX
  8
1
  6
BYLAYER
 62
  256
 10
251.5304940703144
 20
751.4594837972436
 30
0
  0
VERTEX
  8
1
  6
BYLAYER
 62
  256
 10
253.2221740744893
 20
758.1887026690567
 30
0
  0
VERTEX
  8
1
  6
BYLAYER
 62
  256
 10
254.8105612846025
 20
765.4809459074046
 30
0
  0
VERTEX
  8
1
  6
BYLAYER
 62
  256
 10
256.2911274091953
 20
773.3433960247593
 30
0
  0
VERTEX
  8
1
  6
BYLAYER
 62
  256
 10
257.6552614549099
 20
781.7486695602056
 30
0
  0
VERTEX
  8
1
  6
BYLAYER
 62
  256
 10
259.5156421891851
 20
795.4543878580068
 30
0
  0
VERTEX
  8
1
  6
BYLAYER
 62
  256
 10
261.580284338003
 20
815.9210456508181
 30
0
  0
VERTEX
  8
1
  6
BYLAYER
 62
  256
 10
263.1947716449291
 20
838.8104948484868
 30
0
  0
VERTEX
  8
1
  6
BYLAYER
 62
  256
 10
264.3759772041902
 20
864.2336909792031
 30
0
  0
VERTEX
  8
1
  6
BYLAYER
 62
  256
 10
265.1419361374861
 20
892.2725432771477
 30
0
  0
VERTEX
  8
1
  6
BYLAYER
 62
  256
 10
265.5137862117392
 20
923.0317778041327
 30
0
  0
VERTEX
  8
1
  6
BYLAYER
 62
  256
 10
265.5799889117683
 20
959.5354500000001
 30
0
  0
SEQEND
  8
1
  6
BYLAYER
 62
  256
  0
POINT
  8
2
  6
BYLAYER
 62
  256
 10
265.5799889117683
 20
959.5354500000001
  0
POINT
  8
2
  6
BYLAYER
 62
  256
 10
355.2475682678001
 20
959.5354500000001
  0
POINT
  8
2
  6
BYLAYER
 62
  256
 10
333.0437499999999
 20
959.5354500000001
  0
POINT
  8
2
  6
BYLAYER
 62
  256
 10
422.7475682678001
 20
959.5354500000001
  0
POINT
  8
2
  6
BYLAYER
 62
  256
 10
418.3399317321997
 20
959.5354500000001
  0
POINT
  8
2
  6
BYLAYER
 62
  256
 10
496.4739692170069
 20
959.5354500000001
  0
POINT
  8
2
  6
BYLAYER
 62
  256
 10
530.5176118540246
 20
902.6970099271294
  0
POINT
  8
2
  6
BYLAYER
 62
  256
 10
550.9029007504364
 20
819.8366314345546
  0
POINT
  8
2
  6
BYLAYER
 62
  256
 10
558.3901416023613
 20
752.3688009242804
  0
POINT
  8
2
  6
BYLAYER
 62
  256
 10
560.4823452148802
 20
699.7426169912621
  0
POINT
  8
2
  6
BYLAYER
 62
  256
 10
536.6113325861418
 20
371.4425870779912
  0
POINT
  8
2
  6
BYLAYER
 62
  256
 10
520.0246089026379
 20
264.4530080637506
  0
POINT
  8
2
  6
BYLAYER
 62
  256
 10
490.6069397875619
 20
122.0815058087946
  0
POINT
  8
2
  6
BYLAYER
 62
  256
 10
384.624972748889
 20
99.56772936805976
  0
POINT
  8
2
  6
BYLAYER
 62
  256
 10
271.78065427168
 20
122.0718023312939
  0
POINT
  8
2
  6
BYLAYER
 62
  256
 10
225.7011981985402
 20
315.7879146883746
  0
POINT
  8
2
  6
BYLAYER
 62
  256
 10
201.7851496765656
 20
700.6976753264798
  0
POINT
  8
2
  6
BYLAYER
 62
  256
 10
265.5137862117392
 20
923.0317778041327
  0
POINT
  8
2
  6
BYLAYER
 62
  256
 10
265.5799889117683
 20
959.5354500000001
  0
POINT
  8
3
  6
BYLAYER
 62
  256
 10
503.7587301281129
 20
952.0673723782179
  0
POINT
  8
3
  6
BYLAYER
 62
  256
 10
506.6234871893329
 20
948.7736524727272
  0
POINT
  8
3
  6
BYLAYER
 62
  256
 10
510.7036817979172
 20
943.3834726546262
  0
POINT
  8
3
  6
BYLAYER
 62
  256
 10
515.8923809122253
 20
935.1359087026798
  0
POINT
  8
3
  6
BYLAYER
 62
  256
 10
520.9463568654135
 20
925.5802096885701
  0
POINT
  8
3
  6
BYLAYER
 62
  256
 10
525.8642533541224
 20
914.7006693916802
  0
POINT
  8
3
  6
BYLAYER
 62
  256
 10
535.201813865289
 20
888.8817389512054
  0
POINT
  8
3
  6
BYLAYER
 62
  256
 10
539.5792128028136
 20
873.8021349861644
  0
POINT
  8
3
  6
BYLAYER
 62
  256
 10
543.6870042432597
 20
857.2905845162863
  0
POINT
  8
3
  6
BYLAYER
 62
  256
 10
547.4796735057417
 20
839.3073341427316
  0
POINT
  8
3
  6
BYLAYER
 62
  256
 10
553.9006432681409
 20
798.8647106293861
  0
POINT
  8
3
  6
BYLAYER
 62
  256
 10
556.4157130241376
 20
776.3792144791685
  0
POINT
  8
3
  6
BYLAYER
 62
  256
 10
559.7654173171926
 20
726.8228698799206
  0
POINT
  8
3
  6
BYLAYER
 62
  256
 10
560.5191677603788
 20
667.009307047566
  0
POINT
  8
3
  6
BYLAYER
 62
  256
 10
560.2271583566899
 20
632.7389560726116
  0
POINT
  8
3
  6
BYLAYER
 62
  256
 10
559.6541450297549
 20
601.5783904924216
  0
POINT
  8
3
  6
BYLAYER
 62
  256
 10
558.8106341487886
 20
573.2161686981724
  0
POINT
  8
3
  6
BYLAYER
 62
  256
 10
557.7070459810876
 20
547.3533591505575
  0
POINT
  8
3
  6
BYLAYER
 62
  256
 10
556.3537328805052
 20
523.6931574205929
  0
POINT
  8
3
  6
BYLAYER
 62
  256
 10
554.7612213042459
 20
501.9419024557253
  0
POINT
  8
3
  6
BYLAYER
 62
  256
 10
552.9406028640318
 20
481.8100312238884
  0
POINT
  8
3
  6
BYLAYER
 62
  256
 10
550.904025736252
 20
463.0125918702193
  0
POINT
  8
3
  6
BYLAYER
 62
  256
 10
548.6651219856479
 20
445.2688366961464
  0
POINT
  8
3
  6
BYLAYER
 62
  256
 10
546.2391035862593
 20
428.3005366587119
  0
POINT
  8
3
  6
BYLAYER
 62
  256
 10
543.6349100745268
 20
411.7822915564223
  0
POINT
  8
3
  6
BYLAYER
 62
  256
 10
528.6570327624543
 20
326.6809176665821
  0
POINT
  8
3
  6
BYLAYER
 62
  256
 10
525.3688744033367
 20
304.1722749287442
  0
POINT
  8
3
  6
BYLAYER
 62
  256
 10
513.8656039346309
 20
221.4308795957155
  0
POINT
  8
3
  6
BYLAYER
 62
  256
 10
510.4005449201899
 20
200.1975198332274
  0
POINT
  8
3
  6
BYLAYER
 62
  256
 10
507.9219905222168
 20
186.4296703597127
  0
POINT
  8
3
  6
BYLAYER
 62
  256
 10
505.2865607091913
 20
173.1884523049083
  0
POINT
  8
3
  6
BYLAYER
 62
  256
 10
502.4668439276947
 20
160.5868776344765
  0
POINT
  8
3
  6
BYLAYER
 62
  256
 10
499.4291427871297
 20
148.742185453116
  0
POINT
  8
3
  6
BYLAYER
 62
  256
 10
496.1511793715183
 20
137.8492089507442
  0
POINT
  8
3
  6
BYLAYER
 62
  256
 10
475.9651655807427
 20
119.2453186693633
  0
POINT
  8
3
  6
BYLAYER
 62
  256
 10
467.2304085044295
 20
117.0810333140824
  0
POINT
  8
3
  6
BYLAYER
 62
  256
 10
450.3345978931428
 20
112.4099359206835
  0
POINT
  8
3
  6
BYLAYER
 62
  256
 10
430.5012940003496
 20
107.1261642040243
  0
POINT
  8
3
  6
BYLAYER
 62
  256
 10
416.4970962390095
 20
103.8711539955058
  0
POINT
  8
3
  6
BYLAYER
 62
  256
 10
405.895094746663
 20
101.8681221105193
  0
POINT
  8
3
  6
BYLAYER
 62
  256
 10
398.7463851802588
 20
100.7871925569351
  0
POINT
  8
3
  6
BYLAYER
 62
  256
 10
391.6689363136243
 20
100.0013806670322
  0
POINT
  8
3
  6
BYLAYER
 62
  256
 10
377.7125272511108
 20
99.56772936805976
  0
POINT
  8
3
  6
BYLAYER
 62
  256
 10
370.6685636863755
 20
100.0013806670322
  0
POINT
  8
3
  6
BYLAYER
 62
  256
 10
363.5911148197409
 20
100.787192556935
  0
POINT
  8
3
  6
BYLAYER
 62
  256
 10
356.4424052533368
 20
101.8681221105193
  0
POINT
  8
3
  6
BYLAYER
 62
  256
 10
345.8404037609905
 20
103.8711539955057
  0
POINT
  8
3
  6
BYLAYER
 62
  256
 10
331.83620599965
 20
107.1261642040243
  0
POINT
  8
3
  6
BYLAYER
 62
  256
 10
312.0029021068573
 20
112.4099359206835
  0
POINT
  8
3
  6
BYLAYER
 62
  256
 10
295.1070914955702
 20
117.0810333140824
  0
POINT
  8
3
  6
BYLAYER
 62
  256
 10
286.3723344192571
 20
119.2453186693633
  0
POINT
  8
3
  6
BYLAYER
 62
  256
 10
266.2446551221582
 20
137.6247580886375
  0
POINT
  8
3
  6
BYLAYER
 62
  256
 10
262.8237282837113
 20
148.2234742130844
  0
POINT
  8
3
  6
BYLAYER
 62
  256
 10
259.4215621961608
 20
159.8246258472741
  0
POINT
  8
3
  6
BYLAYER
 62
  256
 10
256.047560916148
 20
172.2704575761522
  0
POINT
  8
3
  6
BYLAYER
 62
  256
 10
251.0717328924895
 20
192.0704476713337
  0
POINT
  8
3
  6
BYLAYER
 62
  256
 10
244.6464634547312
 20
220.1605740611657
  0
POINT
  8
3
  6
BYLAYER
 62
  256
 10
238.5668497365659
 20
248.9200382057487
  0
POINT
  8
3
  6
BYLAYER
 62
  256
 10
232.9710323969745
 20
277.075048117168
  0
POINT
  8
3
  6
BYLAYER
 62
  256
 10
218.9254218322177
 20
354.3076791878928
  0
POINT
  8
3
  6
BYLAYER
 62
  256
 10
214.8946436677754
 20
379.794613225324
  0
POINT
  8
3
  6
BYLAYER
 62
  256
 10
212.5497471473251
 20
396.3346104184409
  0
POINT
  8
3
  6
BYLAYER
 62
  256
 10
210.4915901003325
 20
412.7363225798469
  0
POINT
  8
3
  6
BYLAYER
 62
  256
 10
208.7029475675557
 20
429.3010287328167
  0
POINT
  8
3
  6
BYLAYER
 62
  256
 10
207.168469433424
 20
446.3078517293109
  0
POINT
  8
3
  6
BYLAYER
 62
  256
 10
205.8713594787787
 20
464.0378024978668
  0
POINT
  8
3
  6
BYLAYER
 62
  256
 10
204.793528606366
 20
482.7762056128274
  0
POINT
  8
3
  6
BYLAYER
 62
  256
 10
203.9153230919164
 20
502.830958448184
  0
POINT
  8
3
  6
BYLAYER
 62
  256
 10
202.9144372830612
 20
535.6953491537529
  0
POINT
  8
3
  6
BYLAYER
 62
  256
 10
202.1330319205872
 20
587.1264526375604
  0
POINT
  8
3
  6
BYLAYER
 62
  256
 10
201.8146011598946
 20
649.1239837211521
  0
POINT
  8
3
  6
BYLAYER
 62
  256
 10
218.0652529710842
 20
705.26120061919
  0
POINT
  8
3
  6
BYLAYER
 62
  256
 10
221.1105971749926
 20
706.3156352198448
  0
POINT
  8
3
  6
BYLAYER
 62
  256
 10
223.8174627020297
 20
707.4918830657061
  0
POINT
  8
3
  6
BYLAYER
 62
  256
 10
226.3370976826766
 20
708.8374928703936
  0
POINT
  8
3
  6
BYLAYER
 62
  256
 10
228.7153803843877
 20
710.3742310590335
  0
POINT
  8
3
  6
BYLAYER
 62
  256
 10
230.9961632177285
 20
712.1360467569647
  0
POINT
  8
3
  6
BYLAYER
 62
  256
 10
233.2158845731876
 20
714.1667122947631
  0
POINT
  8
3
  6
BYLAYER
 62
  256
 10
235.3998208842004
 20
716.5153784941327
  0
POINT
  8
3
  6
BYLAYER
 62
  256
 10
237.5609034872703
 20
719.231429240449
  0
POINT
  8
3
  6
BYLAYER
 62
  256
 10
239.700985621999
 20
722.3601167156153
  0
POINT
  8
3
  6
BYLAYER
 62
  256
 10
241.813657538061
 20
725.9398853876354
  0
POINT
  8
3
  6
BYLAYER
 62
  256
 10
243.8875058142301
 20
730.0015079583212
  0
POINT
  8
3
  6
BYLAYER
 62
  256
 10
245.9089884556124
 20
734.5685989826493
  0
POINT
  8
3
  6
BYLAYER
 62
  256
 10
247.864535512222
 20
739.6588882523606
  0
POINT
  8
3
  6
BYLAYER
 62
  256
 10
249.7418401182667
 20
745.2857257309414
  0
POINT
  8
3
  6
BYLAYER
 62
  256
 10
251.5304940703144
 20
751.4594837972436
  0
POINT
  8
3
  6
BYLAYER
 62
  256
 10
253.2221740744893
 20
758.1887026690567
  0
POINT
  8
3
  6
BYLAYER
 62
  256
 10
254.8105612846025
 20
765.4809459074046
  0
POINT
  8
3
  6
BYLAYER
 62
  256
 10
256.2911274091953
 20
773.3433960247593
  0
POINT
  8
3
  6
BYLAYER
 62
  256
 10
257.6552614549099
 20
781.7486695602056
  0
POINT
  8
3
  6
BYLAYER
 62
  256
 10
259.5156421891851
 20
795.4543878580068
  0
POINT
  8
3
  6
BYLAYER
 62
  256
 10
261.580284338003
 20
815.9210456508181
  0
POINT
  8
3
  6
BYLAYER
 62
  256
 10
263.1947716449291
 20
838.8104948484868
  0
POINT
  8
3
  6
BYLAYER
 62
  256
 10
264.3759772041902
 20
864.2336909792031
  0
POINT
  8
3
  6
BYLAYER
 62
  256
 10
265.1419361374861
 20
892.2725432771477
  0
POLYLINE
  8
84
  6
BYLAYER
 62
  256
 66
    1
 10
0
 20
0
 30
0
 70
    1
  0
VERTEX
  8
84
  6
BYLAYER
 62
  256
 10
265.5799889117683
 20
959.5354500000001
 30
0
  0
VERTEX
  8
84
  6
BYLAYER
 62
  256
 10
355.2475682678001
 20
959.5354500000001
 30
0
  0
VERTEX
  8
84
  6
BYLAYER
 62
  256
 10
333.0437499999999
 20
959.5354500000001
 30
0
  0
VERTEX
  8
84
  6
BYLAYER
 62
  256
 10
422.7475682678001
 20
959.5354500000001
 30
0
  0
VERTEX
  8
84
  6
BYLAYER
 62
  256
 10
418.3399317321997
 20
959.5354500000001
 30
0
  0
VERTEX
  8
84
  6
BYLAYER
 62
  256
 10
496.4739692170069
 20
959.5354500000001
 30
0
  0
VERTEX
  8
84
  6
BYLAYER
 62
  256
 10
503.7587301281129
 20
952.0673723782179
 30
0
  0
VERTEX
  8
84
  6
BYLAYER
 62
  256
 10
506.6234871893329
 20
948.7736524727272
 30
0
  0
VERTEX
  8
84
  6
BYLAYER
 62
  256
 10
510.7036817979172
 20
943.3834726546262
 30
0
  0
VERTEX
  8
84
  6
BYLAYER
 62
  256
 10
515.8923809122253
 20
935.1359087026798
 30
0
  0
VERTEX
  8
84
  6
BYLAYER
 62
  256
 10
520.9463568654135
 20
925.5802096885701
 30
0
  0
VERTEX
  8
84
  6
BYLAYER
 62
  256
 10
525.8642533541224
 20
914.7006693916802
 30
0
  0
VERTEX
  8
84
  6
BYLAYER
 62
  256
 10
530.5176118540246
 20
902.6970099271294
 30
0
  0
VERTEX
  8
84
  6
BYLAYER
 62
  256
 10
535.201813865289
 20
888.8817389512054
 30
0
  0
VERTEX
  8
84
  6
BYLAYER
 62
  256
 10
539.5792128028136
 20
873.8021349861644
 30
0
  0
VERTEX
  8
84
  6
BYLAYER
 62
  256
 10
543.6870042432597
 20
857.2905845162863
 30
0
  0
VERTEX
  8
84
  6
BYLAYER
 62
  256
 10
547.4796735057417
 20
839.3073341427316
 30
0
  0
VERTEX
  8
84
  6
BYLAYER
 62
  256
 10
550.9029007504364
 20
819.8366314345546
 30
0
  0
VERTEX
  8
84
  6
BYLAYER
 62
  256
 10
553.9006432681409
 20
798.8647106293861
 30
0
  0
VERTEX
  8
84
  6
BYLAYER
 62
  256
 10
556.4157130241376
 20
776.3792144791685
 30
0
  0
VERTEX
  8
84
  6
BYLAYER
 62
  256
 10
558.3901416023613
 20
752.3688009242804
 30
0
  0
VERTEX
  8
84
  6
BYLAYER
 62
  256
 10
559.7654173171926
 20
726.8228698799206
 30
0
  0
VERTEX
  8
84
  6
BYLAYER
 62
  256
 10
560.4823452148802
 20
699.7426169912621
 30
0
  0
VERTEX
  8
84
  6
BYLAYER
 62
  256
 10
560.5191677603788
 20
667.009307047566
 30
0
  0
VERTEX
  8
84
  6
BYLAYER
 62
  256
 10
560.2271583566899
 20
632.7389560726116
 30
0
  0
VERTEX
  8
84
  6
BYLAYER
 62
  256
 10
559.6541450297549
 20
601.5783904924216
 30
0
  0
VERTEX
  8
84
  6
BYLAYER
 62
  256
 10
558.8106341487886
 20
573.2161686981724
 30
0
  0
VERTEX
  8
84
  6
BYLAYER
 62
  256
 10
557.7070459810876
 20
547.3533591505575
 30
0
  0
VERTEX
  8
84
  6
BYLAYER
 62
  256
 10
556.3537328805052
 20
523.6931574205929
 30
0
  0
VERTEX
  8
84
  6
BYLAYER
 62
  256
 10
554.7612213042459
 20
501.9419024557253
 30
0
  0
VERTEX
  8
84
  6
BYLAYER
 62
  256
 10
552.9406028640318
 20
481.8100312238884
 30
0
  0
VERTEX
  8
84
  6
BYLAYER
 62
  256
 10
550.904025736252
 20
463.0125918702193
 30
0
  0
VERTEX
  8
84
  6
BYLAYER
 62
  256
 10
548.6651219856479
 20
445.2688366961464
 30
0
  0
VERTEX
  8
84
  6
BYLAYER
 62
  256
 10
546.2391035862593
 20
428.3005366587119
 30
0
  0
VERTEX
  8
84
  6
BYLAYER
 62
  256
 10
543.6349100745268
 20
411.7822915564223
 30
0
  0
VERTEX
  8
84
  6
BYLAYER
 62
  256
 10
536.6113325861418
 20
371.4425870779912
 30
0
  0
VERTEX
  8
84
  6
BYLAYER
 62
  256
 10
528.6570327624543
 20
326.6809176665821
 30
0
  0
VERTEX
  8
84
  6
BYLAYER
 62
  256
 10
525.3688744033367
 20
304.1722749287442
 30
0
  0
VERTEX
  8
84
  6
BYLAYER
 62
  256
 10
520.0246089026379
 20
264.4530080637506
 30
0
  0
VERTEX
  8
84
  6
BYLAYER
 62
  256
 10
513.8656039346309
 20
221.4308795957155
 30
0
  0
VERTEX
  8
84
  6
BYLAYER
 62
  256
 10
510.4005449201899
 20
200.1975198332274
 30
0
  0
VERTEX
  8
84
  6
BYLAYER
 62
  256
 10
507.9219905222168
 20
186.4296703597127
 30
0
  0
VERTEX
  8
84
  6
BYLAYER
 62
  256
 10
505.2865607091913
 20
173.1884523049083
 30
0
  0
VERTEX
  8
84
  6
BYLAYER
 62
  256
 10
502.4668439276947
 20
160.5868776344765
 30
0
  0
VERTEX
  8
84
  6
BYLAYER
 62
  256
 10
499.4291427871297
 20
148.742185453116
 30
0
  0
VERTEX
  8
84
  6
BYLAYER
 62
  256
 10
496.1511793715183
 20
137.8492089507442
 30
0
  0
VERTEX
  8
84
  6
BYLAYER
 62
  256
 10
490.6069397875619
 20
122.0815058087946
 30
0
  0
VERTEX
  8
84
  6
BYLAYER
 62
  256
 10
475.9651655807427
 20
119.2453186693633
 30
0
  0
VERTEX
  8
84
  6
BYLAYER
 62
  256
 10
467.2304085044295
 20
117.0810333140824
 30
0
  0
VERTEX
  8
84
  6
BYLAYER
 62
  256
 10
450.3345978931428
 20
112.4099359206835
 30
0
  0
VERTEX
  8
84
  6
BYLAYER
 62
  256
 10
430.5012940003496
 20
107.1261642040243
 30
0
  0
VERTEX
  8
84
  6
BYLAYER
 62
  256
 10
416.4970962390095
 20
103.8711539955058
 30
0
  0
VERTEX
  8
84
  6
BYLAYER
 62
  256
 10
405.895094746663
 20
101.8681221105193
 30
0
  0
VERTEX
  8
84
  6
BYLAYER
 62
  256
 10
398.7463851802588
 20
100.7871925569351
 30
0
  0
VERTEX
  8
84
  6
BYLAYER
 62
  256
 10
391.6689363136243
 20
100.0013806670322
 30
0
  0
VERTEX
  8
84
  6
BYLAYER
 62
  256
 10
384.624972748889
 20
99.56772936805976
 30
0
  0
VERTEX
  8
84
  6
BYLAYER
 62
  256
 10
377.7125272511108
 20
99.56772936805976
 30
0
  0
VERTEX
  8
84
  6
BYLAYER
 62
  256
 10
370.6685636863755
 20
100.0013806670322
 30
0
  0
VERTEX
  8
84
  6
BYLAYER
 62
  256
 10
363.5911148197409
 20
100.787192556935
 30
0
  0
VERTEX
  8
84
  6
BYLAYER
 62
  256
 10
356.4424052533368
 20
101.8681221105193
 30
0
  0
VERTEX
  8
84
  6
BYLAYER
 62
  256
 10
345.8404037609905
 20
103.8711539955057
 30
0
  0
VERTEX
  8
84
  6
BYLAYER
 62
  256
 10
331.83620599965
 20
107.1261642040243
 30
0
  0
VERTEX
  8
84
  6
BYLAYER
 62
  256
 10
312.0029021068573
 20
112.4099359206835
 30
0
  0
VERTEX
  8
84
  6
BYLAYER
 62
  256
 10
295.1070914955702
 20
117.0810333140824
 30
0
  0
VERTEX
  8
84
  6
BYLAYER
 62
  256
 10
286.3723344192571
 20
119.2453186693633
 30
0
  0
VERTEX
  8
84
  6
BYLAYER
 62
  256
 10
271.78065427168
 20
122.0718023312939
 30
0
  0
VERTEX
  8
84
  6
BYLAYER
 62
  256
 10
266.2446551221582
 20
137.6247580886375
 30
0
  0
VERTEX
  8
84
  6
BYLAYER
 62
  256
 10
262.8237282837113
 20
148.2234742130844
 30
0
  0
VERTEX
  8
84
  6
BYLAYER
 62
  256
 10
259.4215621961608
 20
159.8246258472741
 30
0
  0
VERTEX
  8
84
  6
BYLAYER
 62
  256
 10
256.047560916148
 20
172.2704575761522
 30
0
  0
VERTEX
  8
84
  6
BYLAYER
 62
  256
 10
251.0717328924895
 20
192.0704476713337
 30
0
  0
VERTEX
  8
84
  6
BYLAYER
 62
  256
 10
244.6464634547312
 20
220.1605740611657
 30
0
  0
VERTEX
  8
84
  6
BYLAYER
 62
  256
 10
238.5668497365659
 20
248.9200382057487
 30
0
  0
VERTEX
  8
84
  6
BYLAYER
 62
  256
 10
232.9710323969745
 20
277.075048117168
 30
0
  0
VERTEX
  8
84
  6
BYLAYER
 62
  256
 10
225.7011981985402
 20
315.7879146883746
 30
0
  0
VERTEX
  8
84
  6
BYLAYER
 62
  256
 10
218.9254218322177
 20
354.3076791878928
 30
0
  0
VERTEX
  8
84
  6
BYLAYER
 62
  256
 10
214.8946436677754
 20
379.794613225324
 30
0
  0
VERTEX
  8
84
  6
BYLAYER
 62
  256
 10
212.5497471473251
 20
396.3346104184409
 30
0
  0
VERTEX
  8
84
  6
BYLAYER
 62
  256
 10
210.4915901003325
 20
412.7363225798469
 30
0
  0
VERTEX
  8
84
  6
BYLAYER
 62
  256
 10
208.7029475675557
 20
429.3010287328167
 30
0
  0
VERTEX
  8
84
  6
BYLAYER
 62
  256
 10
207.168469433424
 20
446.3078517293109
 30
0
  0
VERTEX
  8
84
  6
BYLAYER
 62
  256
 10
205.8713594787787
 20
464.0378024978668
 30
0
  0
VERTEX
  8
84
  6
BYLAYER
 62
  256
 10
204.793528606366
 20
482.7762056128274
 30
0
  0
VERTEX
  8
84
  6
BYLAYER
 62
  256
 10
203.9153230919164
 20
502.830958448184
 30
0
  0
VERTEX
  8
84
  6
BYLAYER
 62
  256
 10
202.9144372830612
 20
535.6953491537529
 30
0
  0
VERTEX
  8
84
  6
BYLAYER
 62
  256
 10
202.1330319205872
 20
587.1264526375604
 30
0
  0
VERTEX
  8
84
  6
BYLAYER
 62
  256
 10
201.8146011598946
 20
649.1239837211521
 30
0
  0
VERTEX
  8
84
  6
BYLAYER
 62
  256
 10
201.7851496765656
 20
700.6976753264798
 30
0
  0
VERTEX
  8
84
  6
BYLAYER
 62
  256
 10
218.0652529710842
 20
705.26120061919
 30
0
  0
VERTEX
  8
84
  6
BYLAYER
 62
  256
 10
221.1105971749926
 20
706.3156352198448
 30
0
  0
VERTEX
  8
84
  6
BYLAYER
 62
  256
 10
223.8174627020297
 20
707.4918830657061
 30
0
  0
VERTEX
  8
84
  6
BYLAYER
 62
  256
 10
226.3370976826766
 20
708.8374928703936
 30
0
  0
VERTEX
  8
84
  6
BYLAYER
 62
  256
 10
228.7153803843877
 20
710.3742310590335
 30
0
  0
VERTEX
  8
84
  6
BYLAYER
 62
  256
 10
230.9961632177285
 20
712.1360467569647
 30
0
  0
VERTEX
  8
84
  6
BYLAYER
 62
  256
 10
233.2158845731876
 20
714.1667122947631
 30
0
  0
VERTEX
  8
84
  6
BYLAYER
 62
  256
 10
235.3998208842004
 20
716.5153784941327
 30
0
  0
VERTEX
  8
84
  6
BYLAYER
 62
  256
 10
237.5609034872703
 20
719.231429240449
 30
0
  0
VERTEX
  8
84
  6
BYLAYER
 62
  256
 10
239.700985621999
 20
722.3601167156153
 30
0
  0
VERTEX
  8
84
  6
BYLAYER
 62
  256
 10
241.813657538061
 20
725.9398853876354
 30
0
  0
VERTEX
  8
84
  6
BYLAYER
 62
  256
 10
243.8875058142301
 20
730.0015079583212
 30
0
  0
VERTEX
  8
84
  6
BYLAYER
 62
  256
 10
245.9089884556124
 20
734.5685989826493
 30
0
  0
VERTEX
  8
84
  6
BYLAYER
 62
  256
 10
247.864535512222
 20
739.6588882523606
 30
0
  0
VERTEX
  8
84
  6
BYLAYER
 62
  256
 10
249.7418401182667
 20
745.2857257309414
 30
0
  0
VERTEX
  8
84
  6
BYLAYER
 62
  256
 10
251.5304940703144
 20
751.4594837972436
 30
0
  0
VERTEX
  8
84
  6
BYLAYER
 62
  256
 10
253.2221740744893
 20
758.1887026690567
 30
0
  0
VERTEX
  8
84
  6
BYLAYER
 62
  256
 10
254.8105612846025
 20
765.4809459074046
 30
0
  0
VERTEX
  8
84
  6
BYLAYER
 62
  256
 10
256.2911274091953
 20
773.3433960247593
 30
0
  0
VERTEX
  8
84
  6
BYLAYER
 62
  256
 10
257.6552614549099
 20
781.7486695602056
 30
0
  0
VERTEX
  8
84
  6
BYLAYER
 62
  256
 10
259.5156421891851
 20
795.4543878580068
 30
0
  0
VERTEX
  8
84
  6
BYLAYER
 62
  256
 10
261.580284338003
 20
815.9210456508181
 30
0
  0
VERTEX
  8
84
  6
BYLAYER
 62
  256
 10
263.1947716449291
 20
838.8104948484868
 30
0
  0
VERTEX
  8
84
  6
BYLAYER
 62
  256
 10
264.3759772041902
 20
864.2336909792031
 30
0
  0
VERTEX
  8
84
  6
BYLAYER
 62
  256
 10
265.1419361374861
 20
892.2725432771477
 30
0
  0
VERTEX
  8
84
  6
BYLAYER
 62
  256
 10
265.5137862117392
 20
923.0317778041327
 30
0
  0
VERTEX
  8
84
  6
BYLAYER
 62
  256
 10
265.5799889117683
 20
959.5354500000001
 30
0
  0
SEQEND
  8
84
  6
BYLAYER
 62
  256
  0
POLYLINE
  8
14
  6
BYLAYER
 62
  256
 66
    1
 10
0
 20
0
 30
0
 70
    1
  0
VERTEX
  8
14
  6
BYLAYER
 62
  256
 10
285.5437499999999
 20
939.5354499999999
 30
0
  0
VERTEX
  8
14
  6
BYLAYER
 62
  256
 10
340.5437499999999
 20
939.5354499999999
 30
0
  0
VERTEX
  8
14
  6
BYLAYER
 62
  256
 10
353.0437499999999
 20
899.53545
 30
0
  0
VERTEX
  8
14
  6
BYLAYER
 62
  256
 10
353.0437499999999
 20
939.5354499999999
 30
0
  0
VERTEX
  8
14
  6
BYLAYER
 62
  256
 10
408.0437499999999
 20
939.5354499999999
 30
0
  0
VERTEX
  8
14
  6
BYLAYER
 62
  256
 10
420.5437499999999
 20
899.53545
 30
0
  0
VERTEX
  8
14
  6
BYLAYER
 62
  256
 10
433.0437499999999
 20
939.5354499999999
 30
0
  0
VERTEX
  8
14
  6
BYLAYER
 62
  256
 10
488.0437499999999
 20
939.5354499999999
 30
0
  0
VERTEX
  8
14
  6
BYLAYER
 62
  256
 10
489.0430376576884
 20
938.5110158579364
 30
0
  0
VERTEX
  8
14
  6
BYLAYER
 62
  256
 10
491.0870137827434
 20
936.1609789418657
 30
0
  0
VERTEX
  8
14
  6
BYLAYER
 62
  256
 10
494.2354450376276
 20
932.001713946747
 30
0
  0
VERTEX
  8
14
  6
BYLAYER
 62
  256
 10
498.5639473430355
 20
925.1214538288393
 30
0
  0
VERTEX
  8
14
  6
BYLAYER
 62
  256
 10
502.9770832165507
 20
916.7774097521992
 30
0
  0
VERTEX
  8
14
  6
BYLAYER
 62
  256
 10
507.4142661498333
 20
906.9613205689166
 30
0
  0
VERTEX
  8
14
  6
BYLAYER
 62
  256
 10
511.7146052760767
 20
895.8682989470933
 30
0
  0
VERTEX
  8
14
  6
BYLAYER
 62
  256
 10
516.1184271623429
 20
882.8799622907821
 30
0
  0
VERTEX
  8
14
  6
BYLAYER
 62
  256
 10
520.2642322248903
 20
868.5981709001097
 30
0
  0
VERTEX
  8
14
  6
BYLAYER
 62
  256
 10
524.1917383138467
 20
852.8112898111531
 30
0
  0
VERTEX
  8
14
  6
BYLAYER
 62
  256
 10
527.8403589208724
 20
835.5110578760026
 30
0
  0
VERTEX
  8
14
  6
BYLAYER
 62
  256
 10
531.1495075376278
 20
816.6892139467473
 30
0
  0
VERTEX
  8
14
  6
BYLAYER
 62
  256
 10
532.3822100313996
 20
808.4265159307471
 30
0
  0
VERTEX
  8
14
  6
BYLAYER
 62
  256
 10
534.0585976557729
 20
796.3374968754769
 30
0
  0
VERTEX
  8
14
  6
BYLAYER
 62
  256
 10
536.5070427669685
 20
774.4476455142814
 30
0
  0
VERTEX
  8
14
  6
BYLAYER
 62
  256
 10
538.4342563628746
 20
751.0113987152503
 30
0
  0
VERTEX
  8
14
  6
BYLAYER
 62
  256
 10
539.7796519351517
 20
726.0204953304732
 30
0
  0
VERTEX
  8
14
  6
BYLAYER
 62
  256
 10
540.4826429754601
 20
699.4666742120398
 30
0
  0
VERTEX
  8
14
  6
BYLAYER
 62
  256
 10
540.5437499999999
 20
685.53545
 30
0
  0
VERTEX
  8
14
  6
BYLAYER
 62
  256
 10
540.5190719097005
 20
667.0832640142602
 30
0
  0
VERTEX
  8
14
  6
BYLAYER
 62
  256
 10
540.2287250214442
 20
633.0080265755898
 30
0
  0
VERTEX
  8
14
  6
BYLAYER
 62
  256
 10
539.6596116356053
 20
602.0595404786636
 30
0
  0
VERTEX
  8
14
  6
BYLAYER
 62
  256
 10
538.8233121428577
 20
573.9397945038962
 30
0
  0
VERTEX
  8
14
  6
BYLAYER
 62
  256
 10
537.7314069338748
 20
548.3507774317021
 30
0
  0
VERTEX
  8
14
  6
BYLAYER
 62
  256
 10
536.3954763993305
 20
524.9944780424959
 30
0
  0
VERTEX
  8
14
  6
BYLAYER
 62
  256
 10
534.8271009298986
 20
503.5728851166921
 30
0
  0
VERTEX
  8
14
  6
BYLAYER
 62
  256
 10
533.0378609162526
 20
483.7879874347053
 30
0
  0
VERTEX
  8
14
  6
BYLAYER
 62
  256
 10
531.0393367490664
 20
465.3417737769502
 30
0
  0
VERTEX
  8
14
  6
BYLAYER
 62
  256
 10
528.8431088190135
 20
447.9362329238409
 30
0
  0
VERTEX
  8
14
  6
BYLAYER
 62
  256
 10
526.4607575167678
 20
431.2733536557923
 30
0
  0
VERTEX
  8
14
  6
BYLAYER
 62
  256
 10
523.9038632330029
 20
415.055124753219
 30
0
  0
VERTEX
  8
14
  6
BYLAYER
 62
  256
 10
516.9077555520914
 20
374.8731922816314
 30
0
  0
VERTEX
  8
14
  6
BYLAYER
 62
  256
 10
510.5437499999998
 20
339.53545
 30
0
  0
VERTEX
  8
14
  6
BYLAYER
 62
  256
 10
508.9116250916613
 20
329.8768258025458
 30
0
  0
VERTEX
  8
14
  6
BYLAYER
 62
  256
 10
505.5625749876255
 20
306.9513568713318
 30
0
  0
VERTEX
  8
14
  6
BYLAYER
 62
  256
 10
500.2144885032775
 20
267.2036919656299
 30
0
  0
VERTEX
  8
14
  6
BYLAYER
 62
  256
 10
495.9944875540316
 20
237.2761699436119
 30
0
  0
VERTEX
  8
14
  6
BYLAYER
 62
  256
 10
494.0951868338848
 20
224.4589005711091
 30
0
  0
VERTEX
  8
14
  6
BYLAYER
 62
  256
 10
490.6879883784924
 20
203.5801016000009
 30
0
  0
VERTEX
  8
14
  6
BYLAYER
 62
  256
 10
488.2709183171559
 20
190.1537847119661
 30
0
  0
VERTEX
  8
14
  6
BYLAYER
 62
  256
 10
485.7175084294749
 20
177.3246602408938
 30
0
  0
VERTEX
  8
14
  6
BYLAYER
 62
  256
 10
483.0169917503873
 20
165.2558018351194
 30
0
  0
VERTEX
  8
14
  6
BYLAYER
 62
  256
 10
480.1586013148315
 20
154.1102831429785
 30
0
  0
VERTEX
  8
14
  6
BYLAYER
 62
  256
 10
477.1315701577454
 20
144.0511778128065
 30
0
  0
VERTEX
  8
14
  6
BYLAYER
 62
  256
 10
475.5437499999999
 20
139.53545
 30
0
  0
VERTEX
  8
14
  6
BYLAYER
 62
  256
 10
471.6555436615204
 20
138.7822843892699
 30
0
  0
VERTEX
  8
14
  6
BYLAYER
 62
  256
 10
462.1597501433062
 20
136.4294305355579
 30
0
  0
VERTEX
  8
14
  6
BYLAYER
 62
  256
 10
445.0954922383267
 20
131.7117633898934
 30
0
  0
VERTEX
  8
14
  6
BYLAYER
 62
  256
 10
425.6617934765613
 20
126.534450097941
 30
0
  0
VERTEX
  8
14
  6
BYLAYER
 62
  256
 10
412.3748945874898
 20
123.4461624101682
 30
0
  0
VERTEX
  8
14
  6
BYLAYER
 62
  256
 10
402.5424465289081
 20
121.5885219464284
 30
0
  0
VERTEX
  8
14
  6
BYLAYER
 62
  256
 10
396.1467810253609
 20
120.6214573603789
 30
0
  0
VERTEX
  8
14
  6
BYLAYER
 62
  256
 10
389.9499060716007
 20
119.9334159332111
 30
0
  0
VERTEX
  8
14
  6
BYLAYER
 62
  256
 10
384.0099196190229
 20
119.5677293680598
 30
0
  0
VERTEX
  8
14
  6
BYLAYER
 62
  256
 10
378.3275803809769
 20
119.5677293680598
 30
0
  0
VERTEX
  8
14
  6
BYLAYER
 62
  256
 10
372.3875939283992
 20
119.9334159332111
 30
0
  0
VERTEX
  8
14
  6
BYLAYER
 62
  256
 10
366.1907189746389
 20
120.6214573603789
 30
0
  0
VERTEX
  8
14
  6
BYLAYER
 62
  256
 10
359.7950534710916
 20
121.5885219464284
 30
0
  0
VERTEX
  8
14
  6
BYLAYER
 62
  256
 10
349.96260541251
 20
123.4461624101682
 30
0
  0
VERTEX
  8
14
  6
BYLAYER
 62
  256
 10
336.6757065234384
 20
126.534450097941
 30
0
  0
VERTEX
  8
14
  6
BYLAYER
 62
  256
 10
317.242007761673
 20
131.7117633898934
 30
0
  0
VERTEX
  8
14
  6
BYLAYER
 62
  256
 10
300.1777498566935
 20
136.4294305355579
 30
0
  0
VERTEX
  8
14
  6
BYLAYER
 62
  256
 10
290.6819563384794
 20
138.7822843892699
 30
0
  0
VERTEX
  8
14
  6
BYLAYER
 62
  256
 10
286.7937499999999
 20
139.53545
 30
0
  0
VERTEX
  8
14
  6
BYLAYER
 62
  256
 10
285.1863985922544
 20
144.0511778128065
 30
0
  0
VERTEX
  8
14
  6
BYLAYER
 62
  256
 10
281.9396408726683
 20
154.1102831429785
 30
0
  0
VERTEX
  8
14
  6
BYLAYER
 62
  256
 10
278.6710941871124
 20
165.2558018351194
 30
0
  0
VERTEX
  8
14
  6
BYLAYER
 62
  256
 10
275.3992884455249
 20
177.3246602408938
 30
0
  0
VERTEX
  8
14
  6
BYLAYER
 62
  256
 10
270.5206200662221
 20
196.7380292577847
 30
0
  0
VERTEX
  8
14
  6
BYLAYER
 62
  256
 10
264.179813166115
 20
224.4589005711091
 30
0
  0
VERTEX
  8
14
  6
BYLAYER
 62
  256
 10
258.1595084207677
 20
252.9378050689304
 30
0
  0
VERTEX
  8
14
  6
BYLAYER
 62
  256
 10
252.6079451096857
 20
280.8701535645657
 30
0
  0
VERTEX
  8
14
  6
BYLAYER
 62
  256
 10
245.3788463020993
 20
319.3660985791622
 30
0
  0
VERTEX
  8
14
  6
BYLAYER
 62
  256
 10
238.6529219463496
 20
357.6024582548973
 30
0
  0
VERTEX
  8
14
  6
BYLAYER
 62
  256
 10
234.6741467788892
 20
382.7605731661563
 30
0
  0
VERTEX
  8
14
  6
BYLAYER
 62
  256
 10
232.3741967666072
 20
398.9835349965355
 30
0
  0
VERTEX
  8
14
  6
BYLAYER
 62
  256
 10
230.3574648919968
 20
415.055124753219
 30
0
  0
VERTEX
  8
14
  6
BYLAYER
 62
  256
 10
228.606234670732
 20
431.2733536557923
 30
0
  0
VERTEX
  8
14
  6
BYLAYER
 62
  256
 10
227.1027896184862
 20
447.9362329238409
 30
0
  0
VERTEX
  8
14
  6
BYLAYER
 62
  256
 10
225.8294132509334
 20
465.3417737769502
 30
0
  0
VERTEX
  8
14
  6
BYLAYER
 62
  256
 10
224.7683890837472
 20
483.7879874347053
 30
0
  0
VERTEX
  8
14
  6
BYLAYER
 62
  256
 10
223.9020006326012
 20
503.5728851166921
 30
0
  0
VERTEX
  8
14
  6
BYLAYER
 62
  256
 10
222.909812050841
 20
536.1516997188003
 30
0
  0
VERTEX
  8
14
  6
BYLAYER
 62
  256
 10
222.1322516328753
 20
587.3297338631885
 30
0
  0
VERTEX
  8
14
  6
BYLAYER
 62
  256
 10
221.8143373611976
 20
649.2267060570408
 30
0
  0
VERTEX
  8
14
  6
BYLAYER
 62
  256
 10
221.7937499999999
 20
685.53545
 30
0
  0
VERTEX
  8
14
  6
BYLAYER
 62
  256
 10
224.0416022380656
 20
686.1655523007723
 30
0
  0
VERTEX
  8
14
  6
BYLAYER
 62
  256
 10
228.3785345401616
 20
687.6671925666438
 30
0
  0
VERTEX
  8
14
  6
BYLAYER
 62
  256
 10
232.527805831538
 20
689.4702268768548
 30
0
  0
VERTEX
  8
14
  6
BYLAYER
 62
  256
 10
236.4926001101092
 20
691.5876232837917
 30
0
  0
VERTEX
  8
14
  6
BYLAYER
 62
  256
 10
240.2761013737897
 20
694.0323498398407
 30
0
  0
VERTEX
  8
14
  6
BYLAYER
 62
  256
 10
243.8814936204938
 20
696.8173745973879
 30
0
  0
VERTEX
  8
14
  6
BYLAYER
 62
  256
 10
247.3119608481362
 20
699.9556656088197
 30
0
  0
VERTEX
  8
14
  6
BYLAYER
 62
  256
 10
250.570687054631
 20
703.4601909265223
 30
0
  0
VERTEX
  8
14
  6
BYLAYER
 62
  256
 10
253.6608562378929
 20
707.3439186028818
 30
0
  0
VERTEX
  8
14
  6
BYLAYER
 62
  256
 10
256.5856523958362
 20
711.6198166902848
 30
0
  0
VERTEX
  8
14
  6
BYLAYER
 62
  256
 10
259.3482595263754
 20
716.3008532411172
 30
0
  0
VERTEX
  8
14
  6
BYLAYER
 62
  256
 10
261.9518616274248
 20
721.3999963077654
 30
0
  0
VERTEX
  8
14
  6
BYLAYER
 62
  256
 10
264.3996426968991
 20
726.9302139426154
 30
0
  0
VERTEX
  8
14
  6
BYLAYER
 62
  256
 10
266.6947867327125
 20
732.9044741980539
 30
0
  0
VERTEX
  8
14
  6
BYLAYER
 62
  256
 10
268.8404777327794
 20
739.3357451264668
 30
0
  0
VERTEX
  8
14
  6
BYLAYER
 62
  256
 10
270.8398996950145
 20
746.2369947802403
 30
0
  0
VERTEX
  8
14
  6
BYLAYER
 62
  256
 10
272.696236617332
 20
753.6211912117608
 30
0
  0
VERTEX
  8
14
  6
BYLAYER
 62
  256
 10
274.4126724976463
 20
761.5013024734145
 30
0
  0
VERTEX
  8
14
  6
BYLAYER
 62
  256
 10
275.9923913338721
 20
769.8902966175875
 30
0
  0
VERTEX
  8
14
  6
BYLAYER
 62
  256
 10
277.4385771239236
 20
778.8011416966663
 30
0
  0
VERTEX
  8
14
  6
BYLAYER
 62
  256
 10
279.3801429742855
 20
793.1049635495934
 30
0
  0
VERTEX
  8
14
  6
BYLAYER
 62
  256
 10
281.5095242523164
 20
814.21337594582
 30
0
  0
VERTEX
  8
14
  6
BYLAYER
 62
  256
 10
283.1620853081102
 20
837.642617024621
 30
0
  0
VERTEX
  8
14
  6
BYLAYER
 62
  256
 10
284.3632981249824
 20
863.496431205087
 30
0
  0
VERTEX
  8
14
  6
BYLAYER
 62
  256
 10
285.1386346862482
 20
891.8785629063077
 30
0
  0
VERTEX
  8
14
  6
BYLAYER
 62
  256
 10
285.5135669752235
 20
922.8927565473733
 30
0
  0
VERTEX
  8
14
  6
BYLAYER
 62
  256
 10
285.5437499999999
 20
939.5354499999999
 30
0
  0
SEQEND
  8
14
  6
BYLAYER
 62
  256
  0
POINT
  8
2
  6
BYLAYER
 62
  256
 10
285.5437499999999
 20
939.5354499999999
  0
POINT
  8
2
  6
BYLAYER
 62
  256
 10
340.5437499999999
 20
939.5354499999999
  0
POINT
  8
2
  6
BYLAYER
 62
  256
 10
353.0437499999999
 20
899.53545
  0
POINT
  8
2
  6
BYLAYER
 62
  256
 10
353.0437499999999
 20
939.5354499999999
  0
POINT
  8
2
  6
BYLAYER
 62
  256
 10
408.0437499999999
 20
939.5354499999999
  0
POINT
  8
2
  6
BYLAYER
 62
  256
 10
420.5437499999999
 20
899.53545
  0
POINT
  8
2
  6
BYLAYER
 62
  256
 10
433.0437499999999
 20
939.5354499999999
  0
POINT
  8
2
  6
BYLAYER
 62
  256
 10
488.0437499999999
 20
939.5354499999999
  0
POINT
  8
2
  6
BYLAYER
 62
  256
 10
511.7146052760767
 20
895.8682989470933
  0
POINT
  8
2
  6
BYLAYER
 62
  256
 10
532.3822100313996
 20
808.4265159307471
  0
POINT
  8
2
  6
BYLAYER
 62
  256
 10
538.4342563628746
 20
751.0113987152503
  0
POINT
  8
2
  6
BYLAYER
 62
  256
 10
540.5437499999999
 20
685.53545
  0
POINT
  8
2
  6
BYLAYER
 62
  256
 10
510.5437499999998
 20
339.53545
  0
POINT
  8
2
  6
BYLAYER
 62
  256
 10
495.9944875540316
 20
237.2761699436119
  0
POINT
  8
2
  6
BYLAYER
 62
  256
 10
475.5437499999999
 20
139.53545
  0
POINT
  8
2
  6
BYLAYER
 62
  256
 10
384.0099196190229
 20
119.5677293680598
  0
POINT
  8
2
  6
BYLAYER
 62
  256
 10
286.7937499999999
 20
139.53545
  0
POINT
  8
2
  6
BYLAYER
 62
  256
 10
245.3788463020993
 20
319.3660985791622
  0
POINT
  8
2
  6
BYLAYER
 62
  256
 10
221.7937499999999
 20
685.53545
  0
POINT
  8
2
  6
BYLAYER
 62
  256
 10
285.5135669752235
 20
922.8927565473733
  0
POINT
  8
2
  6
BYLAYER
 62
  256
 10
285.5437499999999
 20
939.5354499999999
  0
POINT
  8
3
  6
BYLAYER
 62
  256
 10
489.0430376576884
 20
938.5110158579364
  0
POINT
  8
3
  6
BYLAYER
 62
  256
 10
491.0870137827434
 20
936.1609789418657
  0
POINT
  8
3
  6
BYLAYER
 62
  256
 10
494.2354450376276
 20
932.001713946747
  0
POINT
  8
3
  6
BYLAYER
 62
  256
 10
498.5639473430355
 20
925.1214538288393
  0
POINT
  8
3
  6
BYLAYER
 62
  256
 10
502.9770832165507
 20
916.7774097521992
  0
POINT
  8
3
  6
BYLAYER
 62
  256
 10
507.4142661498333
 20
906.9613205689166
  0
POINT
  8
3
  6
BYLAYER
 62
  256
 10
516.1184271623429
 20
882.8799622907821
  0
POINT
  8
3
  6
BYLAYER
 62
  256
 10
520.2642322248903
 20
868.5981709001097
  0
POINT
  8
3
  6
BYLAYER
 62
  256
 10
524.1917383138467
 20
852.8112898111531
  0
POINT
  8
3
  6
BYLAYER
 62
  256
 10
527.8403589208724
 20
835.5110578760026
  0
POINT
  8
3
  6
BYLAYER
 62
  256
 10
531.1495075376278
 20
816.6892139467473
  0
POINT
  8
3
  6
BYLAYER
 62
  256
 10
534.0585976557729
 20
796.3374968754769
  0
POINT
  8
3
  6
BYLAYER
 62
  256
 10
536.5070427669685
 20
774.4476455142814
  0
POINT
  8
3
  6
BYLAYER
 62
  256
 10
539.7796519351517
 20
726.0204953304732
  0
POINT
  8
3
  6
BYLAYER
 62
  256
 10
540.4826429754601
 20
699.4666742120398
  0
POINT
  8
3
  6
BYLAYER
 62
  256
 10
540.5190719097005
 20
667.0832640142602
  0
POINT
  8
3
  6
BYLAYER
 62
  256
 10
540.2287250214442
 20
633.0080265755898
  0
POINT
  8
3
  6
BYLAYER
 62
  256
 10
539.6596116356053
 20
602.0595404786636
  0
POINT
  8
3
  6
BYLAYER
 62
  256
 10
538.8233121428577
 20
573.9397945038962
  0
POINT
  8
3
  6
BYLAYER
 62
  256
 10
537.7314069338748
 20
548.3507774317021
  0
POINT
  8
3
  6
BYLAYER
 62
  256
 10
536.3954763993305
 20
524.9944780424959
  0
POINT
  8
3
  6
BYLAYER
 62
  256
 10
534.8271009298986
 20
503.5728851166921
  0
POINT
  8
3
  6
BYLAYER
 62
  256
 10
533.0378609162526
 20
483.7879874347053
  0
POINT
  8
3
  6
BYLAYER
 62
  256
 10
531.0393367490664
 20
465.3417737769502
  0
POINT
  8
3
  6
BYLAYER
 62
  256
 10
528.8431088190135
 20
447.9362329238409
  0
POINT
  8
3
  6
BYLAYER
 62
  256
 10
526.4607575167678
 20
431.2733536557923
  0
POINT
  8
3
  6
BYLAYER
 62
  256
 10
523.9038632330029
 20
415.055124753219
  0
POINT
  8
3
  6
BYLAYER
 62
  256
 10
516.9077555520914
 20
374.8731922816314
  0
POINT
  8
3
  6
BYLAYER
 62
  256
 10
508.9116250916613
 20
329.8768258025458
  0
POINT
  8
3
  6
BYLAYER
 62
  256
 10
505.5625749876255
 20
306.9513568713318
  0
POINT
  8
3
  6
BYLAYER
 62
  256
 10
500.2144885032775
 20
267.2036919656299
  0
POINT
  8
3
  6
BYLAYER
 62
  256
 10
494.0951868338848
 20
224.4589005711091
  0
POINT
  8
3
  6
BYLAYER
 62
  256
 10
490.6879883784924
 20
203.5801016000009
  0
POINT
  8
3
  6
BYLAYER
 62
  256
 10
488.2709183171559
 20
190.1537847119661
  0
POINT
  8
3
  6
BYLAYER
 62
  256
 10
485.7175084294749
 20
177.3246602408938
  0
POINT
  8
3
  6
BYLAYER
 62
  256
 10
483.0169917503873
 20
165.2558018351194
  0
POINT
  8
3
  6
BYLAYER
 62
  256
 10
480.1586013148315
 20
154.1102831429785
  0
POINT
  8
3
  6
BYLAYER
 62
  256
 10
477.1315701577454
 20
144.0511778128065
  0
POINT
  8
3
  6
BYLAYER
 62
  256
 10
471.6555436615204
 20
138.7822843892699
  0
POINT
  8
3
  6
BYLAYER
 62
  256
 10
462.1597501433062
 20
136.4294305355579
  0
POINT
  8
3
  6
BYLAYER
 62
  256
 10
445.0954922383267
 20
131.7117633898934
  0
POINT
  8
3
  6
BYLAYER
 62
  256
 10
425.6617934765613
 20
126.534450097941
  0
POINT
  8
3
  6
BYLAYER
 62
  256
 10
412.3748945874898
 20
123.4461624101682
  0
POINT
  8
3
  6
BYLAYER
 62
  256
 10
402.5424465289081
 20
121.5885219464284
  0
POINT
  8
3
  6
BYLAYER
 62
  256
 10
396.1467810253609
 20
120.6214573603789
  0
POINT
  8
3
  6
BYLAYER
 62
  256
 10
389.9499060716007
 20
119.9334159332111
  0
POINT
  8
3
  6
BYLAYER
 62
  256
 10
378.3275803809769
 20
119.5677293680598
  0
POINT
  8
3
  6
BYLAYER
 62
  256
 10
372.3875939283992
 20
119.9334159332111
  0
POINT
  8
3
  6
BYLAYER
 62
  256
 10
366.1907189746389
 20
120.6214573603789
  0
POINT
  8
3
  6
BYLAYER
 62
  256
 10
359.7950534710916
 20
121.5885219464284
  0
POINT
  8
3
  6
BYLAYER
 62
  256
 10
349.96260541251
 20
123.4461624101682
  0
POINT
  8
3
  6
BYLAYER
 62
  256
 10
336.6757065234384
 20
126.534450097941
  0
POINT
  8
3
  6
BYLAYER
 62
  256
 10
317.242007761673
 20
131.7117633898934
  0
POINT
  8
3
  6
BYLAYER
 62
  256
 10
300.1777498566935
 20
136.4294305355579
  0
POINT
  8
3
  6
BYLAYER
 62
  256
 10
290.6819563384794
 20
138.7822843892699
  0
POINT
  8
3
  6
BYLAYER
 62
  256
 10
285.1863985922544
 20
144.0511778128065
  0
POINT
  8
3
  6
BYLAYER
 62
  256
 10
281.9396408726683
 20
154.1102831429785
  0
POINT
  8
3
  6
BYLAYER
 62
  256
 10
278.6710941871124
 20
165.2558018351194
  0
POINT
  8
3
  6
BYLAYER
 62
  256
 10
275.3992884455249
 20
177.3246602408938
  0
POINT
  8
3
  6
BYLAYER
 62
  256
 10
270.5206200662221
 20
196.7380292577847
  0
POINT
  8
3
  6
BYLAYER
 62
  256
 10
264.179813166115
 20
224.4589005711091
  0
POINT
  8
3
  6
BYLAYER
 62
  256
 10
258.1595084207677
 20
252.9378050689304
  0
POINT
  8
3
  6
BYLAYER
 62
  256
 10
252.6079451096857
 20
280.8701535645657
  0
POINT
  8
3
  6
BYLAYER
 62
  256
 10
238.6529219463496
 20
357.6024582548973
  0
POINT
  8
3
  6
BYLAYER
 62
  256
 10
234.6741467788892
 20
382.7605731661563
  0
POINT
  8
3
  6
BYLAYER
 62
  256
 10
232.3741967666072
 20
398.9835349965355
  0
POINT
  8
3
  6
BYLAYER
 62
  256
 10
230.3574648919968
 20
415.055124753219
  0
POINT
  8
3
  6
BYLAYER
 62
  256
 10
228.606234670732
 20
431.2733536557923
  0
POINT
  8
3
  6
BYLAYER
 62
  256
 10
227.1027896184862
 20
447.9362329238409
  0
POINT
  8
3
  6
BYLAYER
 62
  256
 10
225.8294132509334
 20
465.3417737769502
  0
POINT
  8
3
  6
BYLAYER
 62
  256
 10
224.7683890837472
 20
483.7879874347053
  0
POINT
  8
3
  6
BYLAYER
 62
  256
 10
223.9020006326012
 20
503.5728851166921
  0
POINT
  8
3
  6
BYLAYER
 62
  256
 10
222.909812050841
 20
536.1516997188003
  0
POINT
  8
3
  6
BYLAYER
 62
  256
 10
222.1322516328753
 20
587.3297338631885
  0
POINT
  8
3
  6
BYLAYER
 62
  256
 10
221.8143373611976
 20
649.2267060570408
  0
POINT
  8
3
  6
BYLAYER
 62
  256
 10
224.0416022380656
 20
686.1655523007723
  0
POINT
  8
3
  6
BYLAYER
 62
  256
 10
228.3785345401616
 20
687.6671925666438
  0
POINT
  8
3
  6
BYLAYER
 62
  256
 10
232.527805831538
 20
689.4702268768548
  0
POINT
  8
3
  6
BYLAYER
 62
  256
 10
236.4926001101092
 20
691.5876232837917
  0
POINT
  8
3
  6
BYLAYER
 62
  256
 10
240.2761013737897
 20
694.0323498398407
  0
POINT
  8
3
  6
BYLAYER
 62
  256
 10
243.8814936204938
 20
696.8173745973879
  0
POINT
  8
3
  6
BYLAYER
 62
  256
 10
247.3119608481362
 20
699.9556656088197
  0
POINT
  8
3
  6
BYLAYER
 62
  256
 10
250.570687054631
 20
703.4601909265223
  0
POINT
  8
3
  6
BYLAYER
 62
  256
 10
253.6608562378929
 20
707.3439186028818
  0
POINT
  8
3
  6
BYLAYER
 62
  256
 10
256.5856523958362
 20
711.6198166902848
  0
POINT
  8
3
  6
BYLAYER
 62
  256
 10
259.3482595263754
 20
716.3008532411172
  0
POINT
  8
3
  6
BYLAYER
 62
  256
 10
261.9518616274248
 20
721.3999963077654
  0
POINT
  8
3
  6
BYLAYER
 62
  256
 10
264.3996426968991
 20
726.9302139426154
  0
POINT
  8
3
  6
BYLAYER
 62
  256
 10
266.6947867327125
 20
732.9044741980539
  0
POINT
  8
3
  6
BYLAYER
 62
  256
 10
268.8404777327794
 20
739.3357451264668
  0
POINT
  8
3
  6
BYLAYER
 62
  256
 10
270.8398996950145
 20
746.2369947802403
  0
POINT
  8
3
  6
BYLAYER
 62
  256
 10
272.696236617332
 20
753.6211912117608
  0
POINT
  8
3
  6
BYLAYER
 62
  256
 10
274.4126724976463
 20
761.5013024734145
  0
POINT
  8
3
  6
BYLAYER
 62
  256
 10
275.9923913338721
 20
769.8902966175875
  0
POINT
  8
3
  6
BYLAYER
 62
  256
 10
277.4385771239236
 20
778.8011416966663
  0
POINT
  8
3
  6
BYLAYER
 62
  256
 10
279.3801429742855
 20
793.1049635495934
  0
POINT
  8
3
  6
BYLAYER
 62
  256
 10
281.5095242523164
 20
814.21337594582
  0
POINT
  8
3
  6
BYLAYER
 62
  256
 10
283.1620853081102
 20
837.642617024621
  0
POINT
  8
3
  6
BYLAYER
 62
  256
 10
284.3632981249824
 20
863.496431205087
  0
POINT
  8
3
  6
BYLAYER
 62
  256
 10
285.1386346862482
 20
891.8785629063077
  0
POLYLINE
  8
87
  6
BYLAYER
 62
  256
 66
    1
 10
0
 20
0
 30
0
 70
    1
  0
VERTEX
  8
87
  6
BYLAYER
 62
  256
 10
285.5437499999999
 20
939.5354499999999
 30
0
  0
VERTEX
  8
87
  6
BYLAYER
 62
  256
 10
340.5437499999999
 20
939.5354499999999
 30
0
  0
VERTEX
  8
87
  6
BYLAYER
 62
  256
 10
353.0437499999999
 20
899.53545
 30
0
  0
VERTEX
  8
87
  6
BYLAYER
 62
  256
 10
353.0437499999999
 20
939.5354499999999
 30
0
  0
VERTEX
  8
87
  6
BYLAYER
 62
  256
 10
408.0437499999999
 20
939.5354499999999
 30
0
  0
VERTEX
  8
87
  6
BYLAYER
 62
  256
 10
420.5437499999999
 20
899.53545
 30
0
  0
VERTEX
  8
87
  6
BYLAYER
 62
  256
 10
433.0437499999999
 20
939.5354499999999
 30
0
  0
VERTEX
  8
87
  6
BYLAYER
 62
  256
 10
488.0437499999999
 20
939.5354499999999
 30
0
  0
VERTEX
  8
87
  6
BYLAYER
 62
  256
 10
489.0430376576884
 20
938.5110158579364
 30
0
  0
VERTEX
  8
87
  6
BYLAYER
 62
  256
 10
491.0870137827434
 20
936.1609789418657
 30
0
  0
VERTEX
  8
87
  6
BYLAYER
 62
  256
 10
494.2354450376276
 20
932.001713946747
 30
0
  0
VERTEX
  8
87
  6
BYLAYER
 62
  256
 10
498.5639473430355
 20
925.1214538288393
 30
0
  0
VERTEX
  8
87
  6
BYLAYER
 62
  256
 10
502.9770832165507
 20
916.7774097521992
 30
0
  0
VERTEX
  8
87
  6
BYLAYER
 62
  256
 10
507.4142661498333
 20
906.9613205689166
 30
0
  0
VERTEX
  8
87
  6
BYLAYER
 62
  256
 10
511.7146052760767
 20
895.8682989470933
 30
0
  0
VERTEX
  8
87
  6
BYLAYER
 62
  256
 10
516.1184271623429
 20
882.8799622907821
 30
0
  0
VERTEX
  8
87
  6
BYLAYER
 62
  256
 10
520.2642322248903
 20
868.5981709001097
 30
0
  0
VERTEX
  8
87
  6
BYLAYER
 62
  256
 10
524.1917383138467
 20
852.8112898111531
 30
0
  0
VERTEX
  8
87
  6
BYLAYER
 62
  256
 10
527.8403589208724
 20
835.5110578760026
 30
0
  0
VERTEX
  8
87
  6
BYLAYER
 62
  256
 10
531.1495075376278
 20
816.6892139467473
 30
0
  0
VERTEX
  8
87
  6
BYLAYER
 62
  256
 10
532.3822100313996
 20
808.4265159307471
 30
0
  0
VERTEX
  8
87
  6
BYLAYER
 62
  256
 10
534.0585976557729
 20
796.3374968754769
 30
0
  0
VERTEX
  8
87
  6
BYLAYER
 62
  256
 10
536.5070427669685
 20
774.4476455142814
 30
0
  0
VERTEX
  8
87
  6
BYLAYER
 62
  256
 10
538.4342563628746
 20
751.0113987152503
 30
0
  0
VERTEX
  8
87
  6
BYLAYER
 62
  256
 10
539.7796519351517
 20
726.0204953304732
 30
0
  0
VERTEX
  8
87
  6
BYLAYER
 62
  256
 10
540.4826429754601
 20
699.4666742120398
 30
0
  0
VERTEX
  8
87
  6
BYLAYER
 62
  256
 10
540.5437499999999
 20
685.53545
 30
0
  0
VERTEX
  8
87
  6
BYLAYER
 62
  256
 10
540.5190719097005
 20
667.0832640142602
 30
0
  0
VERTEX
  8
87
  6
BYLAYER
 62
  256
 10
540.2287250214442
 20
633.0080265755898
 30
0
  0
VERTEX
  8
87
  6
BYLAYER
 62
  256
 10
539.6596116356053
 20
602.0595404786636
 30
0
  0
VERTEX
  8
87
  6
BYLAYER
 62
  256
 10
538.8233121428577
 20
573.9397945038962
 30
0
  0
VERTEX
  8
87
  6
BYLAYER
 62
  256
 10
537.7314069338748
 20
548.3507774317021
 30
0
  0
VERTEX
  8
87
  6
BYLAYER
 62
  256
 10
536.3954763993305
 20
524.9944780424959
 30
0
  0
VERTEX
  8
87
  6
BYLAYER
 62
  256
 10
534.8271009298986
 20
503.5728851166921
 30
0
  0
VERTEX
  8
87
  6
BYLAYER
 62
  256
 10
533.0378609162526
 20
483.7879874347053
 30
0
  0
VERTEX
  8
87
  6
BYLAYER
 62
  256
 10
531.0393367490664
 20
465.3417737769502
 30
0
  0
VERTEX
  8
87
  6
BYLAYER
 62
  256
 10
528.8431088190135
 20
447.9362329238409
 30
0
  0
VERTEX
  8
87
  6
BYLAYER
 62
  256
 10
526.4607575167678
 20
431.2733536557923
 30
0
  0
VERTEX
  8
87
  6
BYLAYER
 62
  256
 10
523.9038632330029
 20
415.055124753219
 30
0
  0
VERTEX
  8
87
  6
BYLAYER
 62
  256
 10
516.9077555520914
 20
374.8731922816314
 30
0
  0
VERTEX
  8
87
  6
BYLAYER
 62
  256
 10
510.5437499999998
 20
339.53545
 30
0
  0
VERTEX
  8
87
  6
BYLAYER
 62
  256
 10
508.9116250916613
 20
329.8768258025458
 30
0
  0
VERTEX
  8
87
  6
BYLAYER
 62
  256
 10
505.5625749876255
 20
306.9513568713318
 30
0
  0
VERTEX
  8
87
  6
BYLAYER
 62
  256
 10
500.2144885032775
 20
267.2036919656299
 30
0
  0
VERTEX
  8
87
  6
BYLAYER
 62
  256
 10
495.9944875540316
 20
237.2761699436119
 30
0
  0
VERTEX
  8
87
  6
BYLAYER
 62
  256
 10
494.0951868338848
 20
224.4589005711091
 30
0
  0
VERTEX
  8
87
  6
BYLAYER
 62
  256
 10
490.6879883784924
 20
203.5801016000009
 30
0
  0
VERTEX
  8
87
  6
BYLAYER
 62
  256
 10
488.2709183171559
 20
190.1537847119661
 30
0
  0
VERTEX
  8
87
  6
BYLAYER
 62
  256
 10
485.7175084294749
 20
177.3246602408938
 30
0
  0
VERTEX
  8
87
  6
BYLAYER
 62
  256
 10
483.0169917503873
 20
165.2558018351194
 30
0
  0
VERTEX
  8
87
  6
BYLAYER
 62
  256
 10
480.1586013148315
 20
154.1102831429785
 30
0
  0
VERTEX
  8
87
  6
BYLAYER
 62
  256
 10
477.1315701577454
 20
144.0511778128065
 30
0
  0
VERTEX
  8
87
  6
BYLAYER
 62
  256
 10
475.5437499999999
 20
139.53545
 30
0
  0
VERTEX
  8
87
  6
BYLAYER
 62
  256
 10
471.6555436615204
 20
138.7822843892699
 30
0
  0
VERTEX
  8
87
  6
BYLAYER
 62
  256
 10
462.1597501433062
 20
136.4294305355579
 30
0
  0
VERTEX
  8
87
  6
BYLAYER
 62
  256
 10
445.0954922383267
 20
131.7117633898934
 30
0
  0
VERTEX
  8
87
  6
BYLAYER
 62
  256
 10
425.6617934765613
 20
126.534450097941
 30
0
  0
VERTEX
  8
87
  6
BYLAYER
 62
  256
 10
412.3748945874898
 20
123.4461624101682
 30
0
  0
VERTEX
  8
87
  6
BYLAYER
 62
  256
 10
402.5424465289081
 20
121.5885219464284
 30
0
  0
VERTEX
  8
87
  6
BYLAYER
 62
  256
 10
396.1467810253609
 20
120.6214573603789
 30
0
  0
VERTEX
  8
87
  6
BYLAYER
 62
  256
 10
389.9499060716007
 20
119.9334159332111
 30
0
  0
VERTEX
  8
87
  6
BYLAYER
 62
  256
 10
384.0099196190229
 20
119.5677293680598
 30
0
  0
VERTEX
  8
87
  6
BYLAYER
 62
  256
 10
378.3275803809769
 20
119.5677293680598
 30
0
  0
VERTEX
  8
87
  6
BYLAYER
 62
  256
 10
372.3875939283992
 20
119.9334159332111
 30
0
  0
VERTEX
  8
87
  6
BYLAYER
 62
  256
 10
366.1907189746389
 20
120.6214573603789
 30
0
  0
VERTEX
  8
87
  6
BYLAYER
 62
  256
 10
359.7950534710916
 20
121.5885219464284
 30
0
  0
VERTEX
  8
87
  6
BYLAYER
 62
  256
 10
349.96260541251
 20
123.4461624101682
 30
0
  0
VERTEX
  8
87
  6
BYLAYER
 62
  256
 10
336.6757065234384
 20
126.534450097941
 30
0
  0
VERTEX
  8
87
  6
BYLAYER
 62
  256
 10
317.242007761673
 20
131.7117633898934
 30
0
  0
VERTEX
  8
87
  6
BYLAYER
 62
  256
 10
300.1777498566935
 20
136.4294305355579
 30
0
  0
VERTEX
  8
87
  6
BYLAYER
 62
  256
 10
290.6819563384794
 20
138.7822843892699
 30
0
  0
VERTEX
  8
87
  6
BYLAYER
 62
  256
 10
286.7937499999999
 20
139.53545
 30
0
  0
VERTEX
  8
87
  6
BYLAYER
 62
  256
 10
285.1863985922544
 20
144.0511778128065
 30
0
  0
VERTEX
  8
87
  6
BYLAYER
 62
  256
 10
281.9396408726683
 20
154.1102831429785
 30
0
  0
VERTEX
  8
87
  6
BYLAYER
 62
  256
 10
278.6710941871124
 20
165.2558018351194
 30
0
  0
VERTEX
  8
87
  6
BYLAYER
 62
  256
 10
275.3992884455249
 20
177.3246602408938
 30
0
  0
VERTEX
  8
87
  6
BYLAYER
 62
  256
 10
270.5206200662221
 20
196.7380292577847
 30
0
  0
VERTEX
  8
87
  6
BYLAYER
 62
  256
 10
264.179813166115
 20
224.4589005711091
 30
0
  0
VERTEX
  8
87
  6
BYLAYER
 62
  256
 10
258.1595084207677
 20
252.9378050689304
 30
0
  0
VERTEX
  8
87
  6
BYLAYER
 62
  256
 10
252.6079451096857
 20
280.8701535645657
 30
0
  0
VERTEX
  8
87
  6
BYLAYER
 62
  256
 10
245.3788463020993
 20
319.3660985791622
 30
0
  0
VERTEX
  8
87
  6
BYLAYER
 62
  256
 10
238.6529219463496
 20
357.6024582548973
 30
0
  0
VERTEX
  8
87
  6
BYLAYER
 62
  256
 10
234.6741467788892
 20
382.7605731661563
 30
0
  0
VERTEX
  8
87
  6
BYLAYER
 62
  256
 10
232.3741967666072
 20
398.9835349965355
 30
0
  0
VERTEX
  8
87
  6
BYLAYER
 62
  256
 10
230.3574648919968
 20
415.055124753219
 30
0
  0
VERTEX
  8
87
  6
BYLAYER
 62
  256
 10
228.606234670732
 20
431.2733536557923
 30
0
  0
VERTEX
  8
87
  6
BYLAYER
 62
  256
 10
227.1027896184862
 20
447.9362329238409
 30
0
  0
VERTEX
  8
87
  6
BYLAYER
 62
  256
 10
225.8294132509334
 20
465.3417737769502
 30
0
  0
VERTEX
  8
87
  6
BYLAYER
 62
  256
 10
224.7683890837472
 20
483.7879874347053
 30
0
  0
VERTEX
  8
87
  6
BYLAYER
 62
  256
 10
223.9020006326012
 20
503.5728851166921
 30
0
  0
VERTEX
  8
87
  6
BYLAYER
 62
  256
 10
222.909812050841
 20
536.1516997188003
 30
0
  0
VERTEX
  8
87
  6
BYLAYER
 62
  256
 10
222.1322516328753
 20
587.3297338631885
 30
0
  0
VERTEX
  8
87
  6
BYLAYER
 62
  256
 10
221.8143373611976
 20
649.2267060570408
 30
0
  0
VERTEX
  8
87
  6
BYLAYER
 62
  256
 10
221.7937499999999
 20
685.53545
 30
0
  0
VERTEX
  8
87
  6
BYLAYER
 62
  256
 10
224.0416022380656
 20
686.1655523007723
 30
0
  0
VERTEX
  8
87
  6
BYLAYER
 62
  256
 10
228.3785345401616
 20
687.6671925666438
 30
0
  0
VERTEX
  8
87
  6
BYLAYER
 62
  256
 10
232.527805831538
 20
689.4702268768548
 30
0
  0
VERTEX
  8
87
  6
BYLAYER
 62
  256
 10
236.4926001101092
 20
691.5876232837917
 30
0
  0
VERTEX
  8
87
  6
BYLAYER
 62
  256
 10
240.2761013737897
 20
694.0323498398407
 30
0
  0
VERTEX
  8
87
  6
BYLAYER
 62
  256
 10
243.8814936204938
 20
696.8173745973879
 30
0
  0
VERTEX
  8
87
  6
BYLAYER
 62
  256
 10
247.3119608481362
 20
699.9556656088197
 30
0
  0
VERTEX
  8
87
  6
BYLAYER
 62
  256
 10
250.570687054631
 20
703.4601909265223
 30
0
  0
VERTEX
  8
87
  6
BYLAYER
 62
  256
 10
253.6608562378929
 20
707.3439186028818
 30
0
  0
VERTEX
  8
87
  6
BYLAYER
 62
  256
 10
256.5856523958362
 20
711.6198166902848
 30
0
  0
VERTEX
  8
87
  6
BYLAYER
 62
  256
 10
259.3482595263754
 20
716.3008532411172
 30
0
  0
VERTEX
  8
87
  6
BYLAYER
 62
  256
 10
261.9518616274248
 20
721.3999963077654
 30
0
  0
VERTEX
  8
87
  6
BYLAYER
 62
  256
 10
264.3996426968991
 20
726.9302139426154
 30
0
  0
VERTEX
  8
87
  6
BYLAYER
 62
  256
 10
266.6947867327125
 20
732.9044741980539
 30
0
  0
VERTEX
  8
87
  6
BYLAYER
 62
  256
 10
268.8404777327794
 20
739.3357451264668
 30
0
  0
VERTEX
  8
87
  6
BYLAYER
 62
  256
 10
270.8398996950145
 20
746.2369947802403
 30
0
  0
VERTEX
  8
87
  6
BYLAYER
 62
  256
 10
272.696236617332
 20
753.6211912117608
 30
0
  0
VERTEX
  8
87
  6
BYLAYER
 62
  256
 10
274.4126724976463
 20
761.5013024734145
 30
0
  0
VERTEX
  8
87
  6
BYLAYER
 62
  256
 10
275.9923913338721
 20
769.8902966175875
 30
0
  0
VERTEX
  8
87
  6
BYLAYER
 62
  256
 10
277.4385771239236
 20
778.8011416966663
 30
0
  0
VERTEX
  8
87
  6
BYLAYER
 62
  256
 10
279.3801429742855
 20
793.1049635495934
 30
0
  0
VERTEX
  8
87
  6
BYLAYER
 62
  256
 10
281.5095242523164
 20
814.21337594582
 30
0
  0
VERTEX
  8
87
  6
BYLAYER
 62
  256
 10
283.1620853081102
 20
837.642617024621
 30
0
  0
VERTEX
  8
87
  6
BYLAYER
 62
  256
 10
284.3632981249824
 20
863.496431205087
 30
0
  0
VERTEX
  8
87
  6
BYLAYER
 62
  256
 10
285.1386346862482
 20
891.8785629063077
 30
0
  0
VERTEX
  8
87
  6
BYLAYER
 62
  256
 10
285.5135669752235
 20
922.8927565473733
 30
0
  0
VERTEX
  8
87
  6
BYLAYER
 62
  256
 10
285.5437499999999
 20
939.5354499999999
 30
0
  0
SEQEND
  8
87
  6
BYLAYER
 62
  256
  0
POINT
  8
4
  6
BYLAYER
 62
  256
 10
530.5176118540245
 20
902.6970099271296
 30
10
 50
199.9595651182771
 39
11.47152872702095
  0
ATTDEF
  8
1
  6
BYLAYER
 62
  256
 10
525.8642533541224
 20
914.7006693916802
 11
530.5176118540245
 21
902.6970099271296
 40
3
  1
Link:4
  2
Dependency
  3

 70
    2
 73
    3
  0
POINT
  8
80
  6
BYLAYER
 62
  256
 10
552.1303756700883
 20
811.249333942113
 30
10.00000000000002
 50
188.1347979771218
 39
7.500000000000028
  0
ATTDEF
  8
1
  6
BYLAYER
 62
  256
 10
550.9029007504364
 20
819.8366314345546
 11
552.1303756700883
 21
811.249333942113
 40
3
  1
Link:80
  2
Dependency
  3

 70
    2
 73
    3
  0
POINT
  8
4
  6
BYLAYER
 62
  256
 10
558.5265021961835
 20
749.83588458657
 30
10
 50
183.0815671234533
 39
11.47152872702088
  0
ATTDEF
  8
1
  6
BYLAYER
 62
  256
 10
558.3901416023613
 20
752.3688009242804
 11
558.5265021961835
 21
749.83588458657
 40
3
  1
Link:4
  2
Dependency
  3

 70
    2
 73
    3
  0
POINT
  8
80
  6
BYLAYER
 62
  256
 10
515.6480482013675
 20
234.46258581897
 30
10.00000000000003
 50
171.8529490224448
 39
7.500000000000071
  0
ATTDEF
  8
1
  6
BYLAYER
 62
  256
 10
520.0246089026379
 20
264.4530080637506
 11
515.6480482013675
 21
234.46258581897
 40
3
  1
Link:80
  2
Dependency
  3

 70
    2
 73
    3
  0
LINE
  8
7
  6
BYLAYER
 62
  256
 10
381.1687499999999
 20
139.53545
 11
381.1687499999999
 21
939.5354499999999
  0
TEXT
  8
1
  6
BYLAYER
 62
  256
 10
420.3364479166666
 20
872.8757624999998
 40
2.116666666666666
  1
A
 50
-0
 41
1
 51
0
  7
YU GOTHIC UI_BOLD
 71
    0
210
0
220
0
230
1
  0
TEXT
  8
1
  6
BYLAYER
 62
  256
 10
419.01353125
 20
869.7882624999999
 40
1.322916666666667
  1
front
 50
-0
 41
1
 51
0
  7
YU GOTHIC UI_BOLD
 71
    0
210
0
220
0
230
1
  0
TEXT
  8
1
  6
BYLAYER
 62
  256
 10
416.6322812499999
 20
866.9653458333333
 40
1.058333333333333
  1
Fabric, Cut 2
 50
-0
 41
1
 51
0
  7
YU GOTHIC UI
 71
    0
210
0
220
0
230
1
  0
TEXT
  8
15
  6
BYLAYER
 62
  256
 10
381.1521587184722
 20
532.0515896840299
 40
2.5
  1
front
 50
0
 41
1
 51
0
  7
STANDARD
 71
    0
210
0
220
0
230
1
  0
ENDBLK
  8
1
  0
BLOCK
  8
1
  2
LEG_FLY_FACING
 70
    0
 10
0
 20
0
  3
LEG_FLY_FACING
  1

  0
POLYLINE
  8
1
  6
BYLAYER
 62
  256
 66
    1
 10
0
 20
0
 30
0
 70
    1
  0
VERTEX
  8
1
  6
BYLAYER
 62
  256
 10
976.3698499703182
 20
242.080880910622
 30
0
  0
VERTEX
  8
1
  6
BYLAYER
 62
  256
 10
999.5013173684838
 20
240.0380197910706
 30
0
  0
VERTEX
  8
1
  6
BYLAYER
 62
  256
 10
1003.845427963035
 20
238.981122733667
 30
0
  0
VERTEX
  8
1
  6
BYLAYER
 62
  256
 10
1007.789082150131
 20
237.5421652190149
 30
0
  0
VERTEX
  8
1
  6
BYLAYER
 62
  256
 10
1013.000298526464
 20
234.8730333966486
 30
0
  0
VERTEX
  8
1
  6
BYLAYER
 62
  256
 10
1018.937622591934
 20
230.2946818390047
 30
0
  0
VERTEX
  8
1
  6
BYLAYER
 62
  256
 10
1023.970536681629
 20
224.5607894441387
 30
0
  0
VERTEX
  8
1
  6
BYLAYER
 62
  256
 10
1027.76561359728
 20
217.984461543437
 30
0
  0
VERTEX
  8
1
  6
BYLAYER
 62
  256
 10
1029.712352628849
 20
212.3177087244644
 30
0
  0
VERTEX
  8
1
  6
BYLAYER
 62
  256
 10
1030.570500465382
 20
208.067919424838
 30
0
  0
VERTEX
  8
1
  6
BYLAYER
 62
  256
 10
1030.912119914947
 20
203.8095418227051
 30
0
  0
VERTEX
  8
1
  6
BYLAYER
 62
  256
 10
1030.727261461339
 20
199.6923969251482
 30
0
  0
VERTEX
  8
1
  6
BYLAYER
 62
  256
 10
1028.514092019819
 20
184.7945198637384
 30
0
  0
VERTEX
  8
1
  6
BYLAYER
 62
  256
 10
1025.05754492019
 20
163.6133198332274
 30
0
  0
VERTEX
  8
1
  6
BYLAYER
 62
  256
 10
1022.578990522217
 20
149.8454703597127
 30
0
  0
VERTEX
  8
1
  6
BYLAYER
 62
  256
 10
1019.943560709191
 20
136.6042523049083
 30
0
  0
VERTEX
  8
1
  6
BYLAYER
 62
  256
 10
1017.123843927694
 20
124.0026776344761
 30
0
  0
VERTEX
  8
1
  6
BYLAYER
 62
  256
 10
1014.08614278713
 20
112.157985453116
 30
0
  0
VERTEX
  8
1
  6
BYLAYER
 62
  256
 10
1010.808179371518
 20
101.2650089507441
 30
0
  0
VERTEX
  8
1
  6
BYLAYER
 62
  256
 10
1004.368695675531
 20
82.95124999999994
 30
0
  0
VERTEX
  8
1
  6
BYLAYER
 62
  256
 10
941.9680048186838
 20
82.95124999999994
 30
0
  0
VERTEX
  8
1
  6
BYLAYER
 62
  256
 10
952.7689609439724
 20
113.6689466748688
 30
0
  0
VERTEX
  8
1
  6
BYLAYER
 62
  256
 10
955.5450598425331
 20
122.8941808328411
 30
0
  0
VERTEX
  8
1
  6
BYLAYER
 62
  256
 10
958.22413957308
 20
133.3405260357629
 30
0
  0
VERTEX
  8
1
  6
BYLAYER
 62
  256
 10
960.8054561497584
 20
144.8766681768793
 30
0
  0
VERTEX
  8
1
  6
BYLAYER
 62
  256
 10
963.2768461120951
 20
157.2936990642197
 30
0
  0
VERTEX
  8
1
  6
BYLAYER
 62
  256
 10
965.6324318367948
 20
170.3784833667743
 30
0
  0
VERTEX
  8
1
  6
BYLAYER
 62
  256
 10
968.9836583672412
 20
190.9142948118338
 30
0
  0
VERTEX
  8
1
  6
BYLAYER
 62
  256
 10
976.3698499703182
 20
242.080880910622
 30
0
  0
SEQEND
  8
1
  6
BYLAYER
 62
  256
  0
POINT
  8
2
  6
BYLAYER
 62
  256
 10
976.3698499703182
 20
242.080880910622
  0
POINT
  8
2
  6
BYLAYER
 62
  256
 10
1030.727261461339
 20
199.6923969251482
  0
POINT
  8
2
  6
BYLAYER
 62
  256
 10
1004.368695675531
 20
82.95124999999994
  0
POINT
  8
2
  6
BYLAYER
 62
  256
 10
941.9680048186838
 20
82.95124999999994
  0
POINT
  8
2
  6
BYLAYER
 62
  256
 10
968.9836583672412
 20
190.9142948118338
  0
POINT
  8
2
  6
BYLAYER
 62
  256
 10
976.3698499703182
 20
242.080880910622
  0
POINT
  8
3
  6
BYLAYER
 62
  256
 10
999.5013173684838
 20
240.0380197910706
  0
POINT
  8
3
  6
BYLAYER
 62
  256
 10
1003.845427963035
 20
238.981122733667
  0
POINT
  8
3
  6
BYLAYER
 62
  256
 10
1007.789082150131
 20
237.5421652190149
  0
POINT
  8
3
  6
BYLAYER
 62
  256
 10
1013.000298526464
 20
234.8730333966486
  0
POINT
  8
3
  6
BYLAYER
 62
  256
 10
1018.937622591934
 20
230.2946818390047
  0
POINT
  8
3
  6
BYLAYER
 62
  256
 10
1023.970536681629
 20
224.5607894441387
  0
POINT
  8
3
  6
BYLAYER
 62
  256
 10
1027.76561359728
 20
217.984461543437
  0
POINT
  8
3
  6
BYLAYER
 62
  256
 10
1029.712352628849
 20
212.3177087244644
  0
POINT
  8
3
  6
BYLAYER
 62
  256
 10
1030.570500465382
 20
208.067919424838
  0
POINT
  8
3
  6
BYLAYER
 62
  256
 10
1030.912119914947
 20
203.8095418227051
  0
POINT
  8
3
  6
BYLAYER
 62
  256
 10
1028.514092019819
 20
184.7945198637384
  0
POINT
  8
3
  6
BYLAYER
 62
  256
 10
1025.05754492019
 20
163.6133198332274
  0
POINT
  8
3
  6
BYLAYER
 62
  256
 10
1022.578990522217
 20
149.8454703597127
  0
POINT
  8
3
  6
BYLAYER
 62
  256
 10
1019.943560709191
 20
136.6042523049083
  0
POINT
  8
3
  6
BYLAYER
 62
  256
 10
1017.123843927694
 20
124.0026776344761
  0
POINT
  8
3
  6
BYLAYER
 62
  256
 10
1014.08614278713
 20
112.157985453116
  0
POINT
  8
3
  6
BYLAYER
 62
  256
 10
1010.808179371518
 20
101.2650089507441
  0
POINT
  8
3
  6
BYLAYER
 62
  256
 10
952.7689609439724
 20
113.6689466748688
  0
POINT
  8
3
  6
BYLAYER
 62
  256
 10
955.5450598425331
 20
122.8941808328411
  0
POINT
  8
3
  6
BYLAYER
 62
  256
 10
958.22413957308
 20
133.3405260357629
  0
POINT
  8
3
  6
BYLAYER
 62
  256
 10
960.8054561497584
 20
144.8766681768793
  0
POINT
  8
3
  6
BYLAYER
 62
  256
 10
963.2768461120951
 20
157.2936990642197
  0
POINT
  8
3
  6
BYLAYER
 62
  256
 10
965.6324318367948
 20
170.3784833667743
  0
POLYLINE
  8
84
  6
BYLAYER
 62
  256
 66
    1
 10
0
 20
0
 30
0
 70
    1
  0
VERTEX
  8
84
  6
BYLAYER
 62
  256
 10
976.3698499703182
 20
242.080880910622
 30
0
  0
VERTEX
  8
84
  6
BYLAYER
 62
  256
 10
999.5013173684838
 20
240.0380197910706
 30
0
  0
VERTEX
  8
84
  6
BYLAYER
 62
  256
 10
1003.845427963035
 20
238.981122733667
 30
0
  0
VERTEX
  8
84
  6
BYLAYER
 62
  256
 10
1007.789082150131
 20
237.5421652190149
 30
0
  0
VERTEX
  8
84
  6
BYLAYER
 62
  256
 10
1013.000298526464
 20
234.8730333966486
 30
0
  0
VERTEX
  8
84
  6
BYLAYER
 62
  256
 10
1018.937622591934
 20
230.2946818390047
 30
0
  0
VERTEX
  8
84
  6
BYLAYER
 62
  256
 10
1023.970536681629
 20
224.5607894441387
 30
0
  0
VERTEX
  8
84
  6
BYLAYER
 62
  256
 10
1027.76561359728
 20
217.984461543437
 30
0
  0
VERTEX
  8
84
  6
BYLAYER
 62
  256
 10
1029.712352628849
 20
212.3177087244644
 30
0
  0
VERTEX
  8
84
  6
BYLAYER
 62
  256
 10
1030.570500465382
 20
208.067919424838
 30
0
  0
VERTEX
  8
84
  6
BYLAYER
 62
  256
 10
1030.912119914947
 20
203.8095418227051
 30
0
  0
VERTEX
  8
84
  6
BYLAYER
 62
  256
 10
1030.727261461339
 20
199.6923969251482
 30
0
  0
VERTEX
  8
84
  6
BYLAYER
 62
  256
 10
1028.514092019819
 20
184.7945198637384
 30
0
  0
VERTEX
  8
84
  6
BYLAYER
 62
  256
 10
1025.05754492019
 20
163.6133198332274
 30
0
  0
VERTEX
  8
84
  6
BYLAYER
 62
  256
 10
1022.578990522217
 20
149.8454703597127
 30
0
  0
VERTEX
  8
84
  6
BYLAYER
 62
  256
 10
1019.943560709191
 20
136.6042523049083
 30
0
  0
VERTEX
  8
84
  6
BYLAYER
 62
  256
 10
1017.123843927694
 20
124.0026776344761
 30
0
  0
VERTEX
  8
84
  6
BYLAYER
 62
  256
 10
1014.08614278713
 20
112.157985453116
 30
0
  0
VERTEX
  8
84
  6
BYLAYER
 62
  256
 10
1010.808179371518
 20
101.2650089507441
 30
0
  0
VERTEX
  8
84
  6
BYLAYER
 62
  256
 10
1004.368695675531
 20
82.95124999999994
 30
0
  0
VERTEX
  8
84
  6
BYLAYER
 62
  256
 10
941.9680048186838
 20
82.95124999999994
 30
0
  0
VERTEX
  8
84
  6
BYLAYER
 62
  256
 10
952.7689609439724
 20
113.6689466748688
 30
0
  0
VERTEX
  8
84
  6
BYLAYER
 62
  256
 10
955.5450598425331
 20
122.8941808328411
 30
0
  0
VERTEX
  8
84
  6
BYLAYER
 62
  256
 10
958.22413957308
 20
133.3405260357629
 30
0
  0
VERTEX
  8
84
  6
BYLAYER
 62
  256
 10
960.8054561497584
 20
144.8766681768793
 30
0
  0
VERTEX
  8
84
  6
BYLAYER
 62
  256
 10
963.2768461120951
 20
157.2936990642197
 30
0
  0
VERTEX
  8
84
  6
BYLAYER
 62
  256
 10
965.6324318367948
 20
170.3784833667743
 30
0
  0
VERTEX
  8
84
  6
BYLAYER
 62
  256
 10
968.9836583672412
 20
190.9142948118338
 30
0
  0
VERTEX
  8
84
  6
BYLAYER
 62
  256
 10
976.3698499703182
 20
242.080880910622
 30
0
  0
SEQEND
  8
84
  6
BYLAYER
 62
  256
  0
POLYLINE
  8
14
  6
BYLAYER
 62
  256
 66
    1
 10
0
 20
0
 30
0
 70
    1
  0
VERTEX
  8
14
  6
BYLAYER
 62
  256
 10
993.4609179888656
 20
220.4936347938562
 30
0
  0
VERTEX
  8
14
  6
BYLAYER
 62
  256
 10
994.3963223860177
 20
220.4741941936215
 30
0
  0
VERTEX
  8
14
  6
BYLAYER
 62
  256
 10
996.2391507979891
 20
220.2482744935723
 30
0
  0
VERTEX
  8
14
  6
BYLAYER
 62
  256
 10
998.0357589142264
 20
219.8111700990064
 30
0
  0
VERTEX
  8
14
  6
BYLAYER
 62
  256
 10
999.7720980270242
 20
219.1776160154562
 30
0
  0
VERTEX
  8
14
  6
BYLAYER
 62
  256
 10
1002.244794613253
 20
217.9111260697814
 30
0
  0
VERTEX
  8
14
  6
BYLAYER
 62
  256
 10
1005.187274325744
 20
215.6421398351636
 30
0
  0
VERTEX
  8
14
  6
BYLAYER
 62
  256
 10
1007.635801285775
 20
212.852584944192
 30
0
  0
VERTEX
  8
14
  6
BYLAYER
 62
  256
 10
1009.477985831703
 20
209.6603414411253
 30
0
  0
VERTEX
  8
14
  6
BYLAYER
 62
  256
 10
1010.369008115998
 20
207.0666691720552
 30
0
  0
VERTEX
  8
14
  6
BYLAYER
 62
  256
 10
1010.729978270592
 20
205.2790435029435
 30
0
  0
VERTEX
  8
14
  6
BYLAYER
 62
  256
 10
1010.876143636986
 20
203.4570532057043
 30
0
  0
VERTEX
  8
14
  6
BYLAYER
 62
  256
 10
1010.793455507472
 20
201.6154332858694
 30
0
  0
VERTEX
  8
14
  6
BYLAYER
 62
  256
 10
1008.752186833885
 20
187.8747005711091
 30
0
  0
VERTEX
  8
14
  6
BYLAYER
 62
  256
 10
1005.344988378492
 20
166.9959016000008
 30
0
  0
VERTEX
  8
14
  6
BYLAYER
 62
  256
 10
1002.927918317156
 20
153.5695847119661
 30
0
  0
VERTEX
  8
14
  6
BYLAYER
 62
  256
 10
1000.374508429475
 20
140.7404602408938
 30
0
  0
VERTEX
  8
14
  6
BYLAYER
 62
  256
 10
997.6739917503872
 20
128.6716018351194
 30
0
  0
VERTEX
  8
14
  6
BYLAYER
 62
  256
 10
994.8156013148313
 20
117.5260831429785
 30
0
  0
VERTEX
  8
14
  6
BYLAYER
 62
  256
 10
991.7885701577452
 20
107.4669778128065
 30
0
  0
VERTEX
  8
14
  6
BYLAYER
 62
  256
 10
990.2007499999997
 20
102.95125
 30
0
  0
VERTEX
  8
14
  6
BYLAYER
 62
  256
 10
970.2007499999997
 20
102.95125
 30
0
  0
VERTEX
  8
14
  6
BYLAYER
 62
  256
 10
971.7885701577453
 20
107.4669778128065
 30
0
  0
VERTEX
  8
14
  6
BYLAYER
 62
  256
 10
974.8156013148314
 20
117.5260831429785
 30
0
  0
VERTEX
  8
14
  6
BYLAYER
 62
  256
 10
977.6739917503872
 20
128.6716018351194
 30
0
  0
VERTEX
  8
14
  6
BYLAYER
 62
  256
 10
980.3745084294748
 20
140.7404602408938
 30
0
  0
VERTEX
  8
14
  6
BYLAYER
 62
  256
 10
982.9279183171558
 20
153.5695847119661
 30
0
  0
VERTEX
  8
14
  6
BYLAYER
 62
  256
 10
985.3449883784923
 20
166.9959016000008
 30
0
  0
VERTEX
  8
14
  6
BYLAYER
 62
  256
 10
988.7521868338847
 20
187.8747005711091
 30
0
  0
VERTEX
  8
14
  6
BYLAYER
 62
  256
 10
990.6514875540315
 20
200.6919699436119
 30
0
  0
VERTEX
  8
14
  6
BYLAYER
 62
  256
 10
993.4609179888656
 20
220.4936347938562
 30
0
  0
SEQEND
  8
14
  6
BYLAYER
 62
  256
  0
POINT
  8
2
  6
BYLAYER
 62
  256
 10
993.4609179888656
 20
220.4936347938562
  0
POINT
  8
2
  6
BYLAYER
 62
  256
 10
1010.793455507472
 20
201.6154332858694
  0
POINT
  8
2
  6
BYLAYER
 62
  256
 10
990.2007499999997
 20
102.95125
  0
POINT
  8
2
  6
BYLAYER
 62
  256
 10
970.2007499999997
 20
102.95125
  0
POINT
  8
2
  6
BYLAYER
 62
  256
 10
990.6514875540315
 20
200.6919699436119
  0
POINT
  8
2
  6
BYLAYER
 62
  256
 10
993.4609179888656
 20
220.4936347938562
  0
POINT
  8
3
  6
BYLAYER
 62
  256
 10
994.3963223860177
 20
220.4741941936215
  0
POINT
  8
3
  6
BYLAYER
 62
  256
 10
996.2391507979891
 20
220.2482744935723
  0
POINT
  8
3
  6
BYLAYER
 62
  256
 10
998.0357589142264
 20
219.8111700990064
  0
POINT
  8
3
  6
BYLAYER
 62
  256
 10
999.7720980270242
 20
219.1776160154562
  0
POINT
  8
3
  6
BYLAYER
 62
  256
 10
1002.244794613253
 20
217.9111260697814
  0
POINT
  8
3
  6
BYLAYER
 62
  256
 10
1005.187274325744
 20
215.6421398351636
  0
POINT
  8
3
  6
BYLAYER
 62
  256
 10
1007.635801285775
 20
212.852584944192
  0
POINT
  8
3
  6
BYLAYER
 62
  256
 10
1009.477985831703
 20
209.6603414411253
  0
POINT
  8
3
  6
BYLAYER
 62
  256
 10
1010.369008115998
 20
207.0666691720552
  0
POINT
  8
3
  6
BYLAYER
 62
  256
 10
1010.729978270592
 20
205.2790435029435
  0
POINT
  8
3
  6
BYLAYER
 62
  256
 10
1010.876143636986
 20
203.4570532057043
  0
POINT
  8
3
  6
BYLAYER
 62
  256
 10
1008.752186833885
 20
187.8747005711091
  0
POINT
  8
3
  6
BYLAYER
 62
  256
 10
1005.344988378492
 20
166.9959016000008
  0
POINT
  8
3
  6
BYLAYER
 62
  256
 10
1002.927918317156
 20
153.5695847119661
  0
POINT
  8
3
  6
BYLAYER
 62
  256
 10
1000.374508429475
 20
140.7404602408938
  0
POINT
  8
3
  6
BYLAYER
 62
  256
 10
997.6739917503872
 20
128.6716018351194
  0
POINT
  8
3
  6
BYLAYER
 62
  256
 10
994.8156013148313
 20
117.5260831429785
  0
POINT
  8
3
  6
BYLAYER
 62
  256
 10
991.7885701577452
 20
107.4669778128065
  0
POINT
  8
3
  6
BYLAYER
 62
  256
 10
971.7885701577453
 20
107.4669778128065
  0
POINT
  8
3
  6
BYLAYER
 62
  256
 10
974.8156013148314
 20
117.5260831429785
  0
POINT
  8
3
  6
BYLAYER
 62
  256
 10
977.6739917503872
 20
128.6716018351194
  0
POINT
  8
3
  6
BYLAYER
 62
  256
 10
980.3745084294748
 20
140.7404602408938
  0
POINT
  8
3
  6
BYLAYER
 62
  256
 10
982.9279183171558
 20
153.5695847119661
  0
POINT
  8
3
  6
BYLAYER
 62
  256
 10
985.3449883784923
 20
166.9959016000008
  0
POINT
  8
3
  6
BYLAYER
 62
  256
 10
988.7521868338847
 20
187.8747005711091
  0
POLYLINE
  8
87
  6
BYLAYER
 62
  256
 66
    1
 10
0
 20
0
 30
0
 70
    1
  0
VERTEX
  8
87
  6
BYLAYER
 62
  256
 10
993.4609179888656
 20
220.4936347938562
 30
0
  0
VERTEX
  8
87
  6
BYLAYER
 62
  256
 10
994.3963223860177
 20
220.4741941936215
 30
0
  0
VERTEX
  8
87
  6
BYLAYER
 62
  256
 10
996.2391507979891
 20
220.2482744935723
 30
0
  0
VERTEX
  8
87
  6
BYLAYER
 62
  256
 10
998.0357589142264
 20
219.8111700990064
 30
0
  0
VERTEX
  8
87
  6
BYLAYER
 62
  256
 10
999.7720980270242
 20
219.1776160154562
 30
0
  0
VERTEX
  8
87
  6
BYLAYER
 62
  256
 10
1002.244794613253
 20
217.9111260697814
 30
0
  0
VERTEX
  8
87
  6
BYLAYER
 62
  256
 10
1005.187274325744
 20
215.6421398351636
 30
0
  0
VERTEX
  8
87
  6
BYLAYER
 62
  256
 10
1007.635801285775
 20
212.852584944192
 30
0
  0
VERTEX
  8
87
  6
BYLAYER
 62
  256
 10
1009.477985831703
 20
209.6603414411253
 30
0
  0
VERTEX
  8
87
  6
BYLAYER
 62
  256
 10
1010.369008115998
 20
207.0666691720552
 30
0
  0
VERTEX
  8
87
  6
BYLAYER
 62
  256
 10
1010.729978270592
 20
205.2790435029435
 30
0
  0
VERTEX
  8
87
  6
BYLAYER
 62
  256
 10
1010.876143636986
 20
203.4570532057043
 30
0
  0
VERTEX
  8
87
  6
BYLAYER
 62
  256
 10
1010.793455507472
 20
201.6154332858694
 30
0
  0
VERTEX
  8
87
  6
BYLAYER
 62
  256
 10
1008.752186833885
 20
187.8747005711091
 30
0
  0
VERTEX
  8
87
  6
BYLAYER
 62
  256
 10
1005.344988378492
 20
166.9959016000008
 30
0
  0
VERTEX
  8
87
  6
BYLAYER
 62
  256
 10
1002.927918317156
 20
153.5695847119661
 30
0
  0
VERTEX
  8
87
  6
BYLAYER
 62
  256
 10
1000.374508429475
 20
140.7404602408938
 30
0
  0
VERTEX
  8
87
  6
BYLAYER
 62
  256
 10
997.6739917503872
 20
128.6716018351194
 30
0
  0
VERTEX
  8
87
  6
BYLAYER
 62
  256
 10
994.8156013148313
 20
117.5260831429785
 30
0
  0
VERTEX
  8
87
  6
BYLAYER
 62
  256
 10
991.7885701577452
 20
107.4669778128065
 30
0
  0
VERTEX
  8
87
  6
BYLAYER
 62
  256
 10
990.2007499999997
 20
102.95125
 30
0
  0
VERTEX
  8
87
  6
BYLAYER
 62
  256
 10
970.2007499999997
 20
102.95125
 30
0
  0
VERTEX
  8
87
  6
BYLAYER
 62
  256
 10
971.7885701577453
 20
107.4669778128065
 30
0
  0
VERTEX
  8
87
  6
BYLAYER
 62
  256
 10
974.8156013148314
 20
117.5260831429785
 30
0
  0
VERTEX
  8
87
  6
BYLAYER
 62
  256
 10
977.6739917503872
 20
128.6716018351194
 30
0
  0
VERTEX
  8
87
  6
BYLAYER
 62
  256
 10
980.3745084294748
 20
140.7404602408938
 30
0
  0
VERTEX
  8
87
  6
BYLAYER
 62
  256
 10
982.9279183171558
 20
153.5695847119661
 30
0
  0
VERTEX
  8
87
  6
BYLAYER
 62
  256
 10
985.3449883784923
 20
166.9959016000008
 30
0
  0
VERTEX
  8
87
  6
BYLAYER
 62
  256
 10
988.7521868338847
 20
187.8747005711091
 30
0
  0
VERTEX
  8
87
  6
BYLAYER
 62
  256
 10
990.6514875540315
 20
200.6919699436119
 30
0
  0
VERTEX
  8
87
  6
BYLAYER
 62
  256
 10
993.4609179888656
 20
220.4936347938562
 30
0
  0
SEQEND
  8
87
  6
BYLAYER
 62
  256
  0
TEXT
  8
1
  6
BYLAYER
 62
  256
 10
988.6677183333333
 20
171.4523833333334
 40
1.322916666666667
  1
leg_fly_facing
 50
-0
 41
1
 51
0
  7
YU GOTHIC UI_BOLD
 71
    0
210
0
220
0
230
1
  0
TEXT
  8
1
  6
BYLAYER
 62
  256
 10
990.9166766666665
 20
168.6294666666667
 40
1.058333333333333
  1
Fabric, Cut 4
 50
-0
 41
1
 51
0
  7
YU GOTHIC UI
 71
    0
210
0
220
0
230
1
  0
TEXT
  8
15
  6
BYLAYER
 62
  256
 10
986.4400623668156
 20
165.016065455311
 40
2.5
  1
leg_fly_facing
 50
0
 41
1
 51
0
  7
STANDARD
 71
    0
210
0
220
0
230
1
  0
ENDBLK
  8
1
  0
BLOCK
  8
1
  2
FLY_FACING
 70
    0
 10
0
 20
0
  3
FLY_FACING
  1

  0
POLYLINE
  8
1
  6
BYLAYER
 62
  256
 66
    1
 10
0
 20
0
 30
0
 70
    1
  0
VERTEX
  8
1
  6
BYLAYER
 62
  256
 10
1090.875431378913
 20
939.2571312977155
 30
0
  0
VERTEX
  8
1
  6
BYLAYER
 62
  256
 10
1171.975564384561
 20
932.1617890492768
 30
0
  0
VERTEX
  8
1
  6
BYLAYER
 62
  256
 10
1162.395901367039
 20
905.8335750953879
 30
0
  0
VERTEX
  8
1
  6
BYLAYER
 62
  256
 10
1161.093766085668
 20
901.7035910644586
 30
0
  0
VERTEX
  8
1
  6
BYLAYER
 62
  256
 10
1159.10861795901
 20
894.1879293345097
 30
0
  0
VERTEX
  8
1
  6
BYLAYER
 62
  256
 10
1156.553157046946
 20
881.9237653972601
 30
0
  0
VERTEX
  8
1
  6
BYLAYER
 62
  256
 10
1154.170325731352
 20
867.6904582182582
 30
0
  0
VERTEX
  8
1
  6
BYLAYER
 62
  256
 10
1151.975037195755
 20
851.8506276119341
 30
0
  0
VERTEX
  8
1
  6
BYLAYER
 62
  256
 10
1149.970159073544
 20
834.7743267766408
 30
0
  0
VERTEX
  8
1
  6
BYLAYER
 62
  256
 10
1148.148539975435
 20
816.80607096433
 30
0
  0
VERTEX
  8
1
  6
BYLAYER
 62
  256
 10
1146.497383047833
 20
798.2649192854233
 30
0
  0
VERTEX
  8
1
  6
BYLAYER
 62
  256
 10
1144.289822626167
 20
770.9093041132719
 30
0
  0
VERTEX
  8
1
  6
BYLAYER
 62
  256
 10
1143.083485335773
 20
763.9915221365853
 30
0
  0
VERTEX
  8
1
  6
BYLAYER
 62
  256
 10
1141.299285810637
 20
757.4965502632731
 30
0
  0
VERTEX
  8
1
  6
BYLAYER
 62
  256
 10
1138.904625210012
 20
751.3828041877847
 30
0
  0
VERTEX
  8
1
  6
BYLAYER
 62
  256
 10
1135.8965674853
 20
745.7034609644583
 30
0
  0
VERTEX
  8
1
  6
BYLAYER
 62
  256
 10
1132.304768566237
 20
740.5318931708404
 30
0
  0
VERTEX
  8
1
  6
BYLAYER
 62
  256
 10
1128.199429481915
 20
735.9432094532324
 30
0
  0
VERTEX
  8
1
  6
BYLAYER
 62
  256
 10
1123.686019561851
 20
731.9916013844036
 30
0
  0
VERTEX
  8
1
  6
BYLAYER
 62
  256
 10
1118.887337684906
 20
728.6941761742921
 30
0
  0
VERTEX
  8
1
  6
BYLAYER
 62
  256
 10
1113.921554890085
 20
726.0283765820168
 30
0
  0
VERTEX
  8
1
  6
BYLAYER
 62
  256
 10
1108.886215876668
 20
723.9414262469253
 30
0
  0
VERTEX
  8
1
  6
BYLAYER
 62
  256
 10
1103.852520566193
 20
722.3645342713379
 30
0
  0
VERTEX
  8
1
  6
BYLAYER
 62
  256
 10
1098.867894551305
 20
721.2252235167938
 30
0
  0
VERTEX
  8
1
  6
BYLAYER
 62
  256
 10
1093.870910466024
 20
720.4406232940851
 30
0
  0
VERTEX
  8
1
  6
BYLAYER
 62
  256
 10
1086.895917449077
 20
719.8347806502162
 30
0
  0
VERTEX
  8
1
  6
BYLAYER
 62
  256
 10
1060.632775867054
 20
719.4771617223107
 30
0
  0
VERTEX
  8
1
  6
BYLAYER
 62
  256
 10
1066.784788387956
 20
805.0468149640759
 30
0
  0
VERTEX
  8
1
  6
BYLAYER
 62
  256
 10
1068.480096716861
 20
824.0837510319312
 30
0
  0
VERTEX
  8
1
  6
BYLAYER
 62
  256
 10
1070.358306241125
 20
842.6102087508581
 30
0
  0
VERTEX
  8
1
  6
BYLAYER
 62
  256
 10
1072.448731482868
 20
860.4151465703826
 30
0
  0
VERTEX
  8
1
  6
BYLAYER
 62
  256
 10
1074.778568124988
 20
877.225792256888
 30
0
  0
VERTEX
  8
1
  6
BYLAYER
 62
  256
 10
1077.385030873056
 20
892.7949115231595
 30
0
  0
VERTEX
  8
1
  6
BYLAYER
 62
  256
 10
1080.317379982778
 20
906.8678366980606
 30
0
  0
VERTEX
  8
1
  6
BYLAYER
 62
  256
 10
1082.81335935979
 20
916.3174774732997
 30
0
  0
VERTEX
  8
1
  6
BYLAYER
 62
  256
 10
1084.661216438077
 20
922.1783279808838
 30
0
  0
VERTEX
  8
1
  6
BYLAYER
 62
  256
 10
1090.875431378913
 20
939.2571312977155
 30
0
  0
SEQEND
  8
1
  6
BYLAYER
 62
  256
  0
POINT
  8
2
  6
BYLAYER
 62
  256
 10
1090.875431378913
 20
939.2571312977155
  0
POINT
  8
2
  6
BYLAYER
 62
  256
 10
1171.975564384561
 20
932.1617890492768
  0
POINT
  8
2
  6
BYLAYER
 62
  256
 10
1146.497383047833
 20
798.2649192854233
  0
POINT
  8
2
  6
BYLAYER
 62
  256
 10
1060.632775867054
 20
719.4771617223107
  0
POINT
  8
2
  6
BYLAYER
 62
  256
 10
1084.661216438077
 20
922.1783279808838
  0
POINT
  8
2
  6
BYLAYER
 62
  256
 10
1090.875431378913
 20
939.2571312977155
  0
POINT
  8
3
  6
BYLAYER
 62
  256
 10
1162.395901367039
 20
905.8335750953879
  0
POINT
  8
3
  6
BYLAYER
 62
  256
 10
1161.093766085668
 20
901.7035910644586
  0
POINT
  8
3
  6
BYLAYER
 62
  256
 10
1159.10861795901
 20
894.1879293345097
  0
POINT
  8
3
  6
BYLAYER
 62
  256
 10
1156.553157046946
 20
881.9237653972601
  0
POINT
  8
3
  6
BYLAYER
 62
  256
 10
1154.170325731352
 20
867.6904582182582
  0
POINT
  8
3
  6
BYLAYER
 62
  256
 10
1151.975037195755
 20
851.8506276119341
  0
POINT
  8
3
  6
BYLAYER
 62
  256
 10
1149.970159073544
 20
834.7743267766408
  0
POINT
  8
3
  6
BYLAYER
 62
  256
 10
1148.148539975435
 20
816.80607096433
  0
POINT
  8
3
  6
BYLAYER
 62
  256
 10
1144.289822626167
 20
770.9093041132719
  0
POINT
  8
3
  6
BYLAYER
 62
  256
 10
1143.083485335773
 20
763.9915221365853
  0
POINT
  8
3
  6
BYLAYER
 62
  256
 10
1141.299285810637
 20
757.4965502632731
  0
POINT
  8
3
  6
BYLAYER
 62
  256
 10
1138.904625210012
 20
751.3828041877847
  0
POINT
  8
3
  6
BYLAYER
 62
  256
 10
1135.8965674853
 20
745.7034609644583
  0
POINT
  8
3
  6
BYLAYER
 62
  256
 10
1132.304768566237
 20
740.5318931708404
  0
POINT
  8
3
  6
BYLAYER
 62
  256
 10
1128.199429481915
 20
735.9432094532324
  0
POINT
  8
3
  6
BYLAYER
 62
  256
 10
1123.686019561851
 20
731.9916013844036
  0
POINT
  8
3
  6
BYLAYER
 62
  256
 10
1118.887337684906
 20
728.6941761742921
  0
POINT
  8
3
  6
BYLAYER
 62
  256
 10
1113.921554890085
 20
726.0283765820168
  0
POINT
  8
3
  6
BYLAYER
 62
  256
 10
1108.886215876668
 20
723.9414262469253
  0
POINT
  8
3
  6
BYLAYER
 62
  256
 10
1103.852520566193
 20
722.3645342713379
  0
POINT
  8
3
  6
BYLAYER
 62
  256
 10
1098.867894551305
 20
721.2252235167938
  0
POINT
  8
3
  6
BYLAYER
 62
  256
 10
1093.870910466024
 20
720.4406232940851
  0
POINT
  8
3
  6
BYLAYER
 62
  256
 10
1086.895917449077
 20
719.8347806502162
  0
POINT
  8
3
  6
BYLAYER
 62
  256
 10
1066.784788387956
 20
805.0468149640759
  0
POINT
  8
3
  6
BYLAYER
 62
  256
 10
1068.480096716861
 20
824.0837510319312
  0
POINT
  8
3
  6
BYLAYER
 62
  256
 10
1070.358306241125
 20
842.6102087508581
  0
POINT
  8
3
  6
BYLAYER
 62
  256
 10
1072.448731482868
 20
860.4151465703826
  0
POINT
  8
3
  6
BYLAYER
 62
  256
 10
1074.778568124988
 20
877.225792256888
  0
POINT
  8
3
  6
BYLAYER
 62
  256
 10
1077.385030873056
 20
892.7949115231595
  0
POINT
  8
3
  6
BYLAYER
 62
  256
 10
1080.317379982778
 20
906.8678366980606
  0
POINT
  8
3
  6
BYLAYER
 62
  256
 10
1082.81335935979
 20
916.3174774732997
  0
POLYLINE
  8
84
  6
BYLAYER
 62
  256
 66
    1
 10
0
 20
0
 30
0
 70
    1
  0
VERTEX
  8
84
  6
BYLAYER
 62
  256
 10
1090.875431378913
 20
939.2571312977155
 30
0
  0
VERTEX
  8
84
  6
BYLAYER
 62
  256
 10
1171.975564384561
 20
932.1617890492768
 30
0
  0
VERTEX
  8
84
  6
BYLAYER
 62
  256
 10
1162.395901367039
 20
905.8335750953879
 30
0
  0
VERTEX
  8
84
  6
BYLAYER
 62
  256
 10
1161.093766085668
 20
901.7035910644586
 30
0
  0
VERTEX
  8
84
  6
BYLAYER
 62
  256
 10
1159.10861795901
 20
894.1879293345097
 30
0
  0
VERTEX
  8
84
  6
BYLAYER
 62
  256
 10
1156.553157046946
 20
881.9237653972601
 30
0
  0
VERTEX
  8
84
  6
BYLAYER
 62
  256
 10
1154.170325731352
 20
867.6904582182582
 30
0
  0
VERTEX
  8
84
  6
BYLAYER
 62
  256
 10
1151.975037195755
 20
851.8506276119341
 30
0
  0
VERTEX
  8
84
  6
BYLAYER
 62
  256
 10
1149.970159073544
 20
834.7743267766408
 30
0
  0
VERTEX
  8
84
  6
BYLAYER
 62
  256
 10
1148.148539975435
 20
816.80607096433
 30
0
  0
VERTEX
  8
84
  6
BYLAYER
 62
  256
 10
1146.497383047833
 20
798.2649192854233
 30
0
  0
VERTEX
  8
84
  6
BYLAYER
 62
  256
 10
1144.289822626167
 20
770.9093041132719
 30
0
  0
VERTEX
  8
84
  6
BYLAYER
 62
  256
 10
1143.083485335773
 20
763.9915221365853
 30
0
  0
VERTEX
  8
84
  6
BYLAYER
 62
  256
 10
1141.299285810637
 20
757.4965502632731
 30
0
  0
VERTEX
  8
84
  6
BYLAYER
 62
  256
 10
1138.904625210012
 20
751.3828041877847
 30
0
  0
VERTEX
  8
84
  6
BYLAYER
 62
  256
 10
1135.8965674853
 20
745.7034609644583
 30
0
  0
VERTEX
  8
84
  6
BYLAYER
 62
  256
 10
1132.304768566237
 20
740.5318931708404
 30
0
  0
VERTEX
  8
84
  6
BYLAYER
 62
  256
 10
1128.199429481915
 20
735.9432094532324
 30
0
  0
VERTEX
  8
84
  6
BYLAYER
 62
  256
 10
1123.686019561851
 20
731.9916013844036
 30
0
  0
VERTEX
  8
84
  6
BYLAYER
 62
  256
 10
1118.887337684906
 20
728.6941761742921
 30
0
  0
VERTEX
  8
84
  6
BYLAYER
 62
  256
 10
1113.921554890085
 20
726.0283765820168
 30
0
  0
VERTEX
  8
84
  6
BYLAYER
 62
  256
 10
1108.886215876668
 20
723.9414262469253
 30
0
  0
VERTEX
  8
84
  6
BYLAYER
 62
  256
 10
1103.852520566193
 20
722.3645342713379
 30
0
  0
VERTEX
  8
84
  6
BYLAYER
 62
  256
 10
1098.867894551305
 20
721.2252235167938
 30
0
  0
VERTEX
  8
84
  6
BYLAYER
 62
  256
 10
1093.870910466024
 20
720.4406232940851
 30
0
  0
VERTEX
  8
84
  6
BYLAYER
 62
  256
 10
1086.895917449077
 20
719.8347806502162
 30
0
  0
VERTEX
  8
84
  6
BYLAYER
 62
  256
 10
1060.632775867054
 20
719.4771617223107
 30
0
  0
VERTEX
  8
84
  6
BYLAYER
 62
  256
 10
1066.784788387956
 20
805.0468149640759
 30
0
  0
VERTEX
  8
84
  6
BYLAYER
 62
  256
 10
1068.480096716861
 20
824.0837510319312
 30
0
  0
VERTEX
  8
84
  6
BYLAYER
 62
  256
 10
1070.358306241125
 20
842.6102087508581
 30
0
  0
VERTEX
  8
84
  6
BYLAYER
 62
  256
 10
1072.448731482868
 20
860.4151465703826
 30
0
  0
VERTEX
  8
84
  6
BYLAYER
 62
  256
 10
1074.778568124988
 20
877.225792256888
 30
0
  0
VERTEX
  8
84
  6
BYLAYER
 62
  256
 10
1077.385030873056
 20
892.7949115231595
 30
0
  0
VERTEX
  8
84
  6
BYLAYER
 62
  256
 10
1080.317379982778
 20
906.8678366980606
 30
0
  0
VERTEX
  8
84
  6
BYLAYER
 62
  256
 10
1082.81335935979
 20
916.3174774732997
 30
0
  0
VERTEX
  8
84
  6
BYLAYER
 62
  256
 10
1084.661216438077
 20
922.1783279808838
 30
0
  0
VERTEX
  8
84
  6
BYLAYER
 62
  256
 10
1090.875431378913
 20
939.2571312977155
 30
0
  0
SEQEND
  8
84
  6
BYLAYER
 62
  256
  0
POLYLINE
  8
14
  6
BYLAYER
 62
  256
 66
    1
 10
0
 20
0
 30
0
 70
    1
  0
VERTEX
  8
14
  6
BYLAYER
 62
  256
 10
1104.422063005477
 20
917.9955578505626
 30
0
  0
VERTEX
  8
14
  6
BYLAYER
 62
  256
 10
1144.269850929147
 20
914.5093281406562
 30
0
  0
VERTEX
  8
14
  6
BYLAYER
 62
  256
 10
1143.452452864393
 20
912.2628366831826
 30
0
  0
VERTEX
  8
14
  6
BYLAYER
 62
  256
 10
1141.877456684564
 20
907.2674194139258
 30
0
  0
VERTEX
  8
14
  6
BYLAYER
 62
  256
 10
1139.636892932729
 20
898.7847681613322
 30
0
  0
VERTEX
  8
14
  6
BYLAYER
 62
  256
 10
1136.892987921836
 20
885.6162236052568
 30
0
  0
VERTEX
  8
14
  6
BYLAYER
 62
  256
 10
1134.398340890005
 20
870.7150103826198
 30
0
  0
VERTEX
  8
14
  6
BYLAYER
 62
  256
 10
1132.135778301147
 20
854.3897722362051
 30
0
  0
VERTEX
  8
14
  6
BYLAYER
 62
  256
 10
1130.08812661917
 20
836.9491529087963
 30
0
  0
VERTEX
  8
14
  6
BYLAYER
 62
  256
 10
1128.238212307983
 20
818.7017961431778
 30
0
  0
VERTEX
  8
14
  6
BYLAYER
 62
  256
 10
1126.568861831498
 20
799.9563456821329
 30
0
  0
VERTEX
  8
14
  6
BYLAYER
 62
  256
 10
1124.707764452743
 20
776.1931221312312
 30
0
  0
VERTEX
  8
14
  6
BYLAYER
 62
  256
 10
1124.428781632444
 20
773.4369309525138
 30
0
  0
VERTEX
  8
14
  6
BYLAYER
 62
  256
 10
1123.544902629671
 20
768.3682969281421
 30
0
  0
VERTEX
  8
14
  6
BYLAYER
 62
  256
 10
1122.292714829163
 20
763.8099925289857
 30
0
  0
VERTEX
  8
14
  6
BYLAYER
 62
  256
 10
1120.697537383005
 20
759.7373862278646
 30
0
  0
VERTEX
  8
14
  6
BYLAYER
 62
  256
 10
1118.784689443281
 20
756.1258464975995
 30
0
  0
VERTEX
  8
14
  6
BYLAYER
 62
  256
 10
1116.579490162073
 20
752.9507418110106
 30
0
  0
VERTEX
  8
14
  6
BYLAYER
 62
  256
 10
1114.107258691466
 20
750.1874406409186
 30
0
  0
VERTEX
  8
14
  6
BYLAYER
 62
  256
 10
1111.393314183544
 20
747.8113114601438
 30
0
  0
VERTEX
  8
14
  6
BYLAYER
 62
  256
 10
1108.462975790389
 20
745.7977227415066
 30
0
  0
VERTEX
  8
14
  6
BYLAYER
 62
  256
 10
1105.341562664085
 20
744.1220429578275
 30
0
  0
VERTEX
  8
14
  6
BYLAYER
 62
  256
 10
1102.054393956717
 20
742.7596405819269
 30
0
  0
VERTEX
  8
14
  6
BYLAYER
 62
  256
 10
1098.626788820368
 20
741.6858840866254
 30
0
  0
VERTEX
  8
14
  6
BYLAYER
 62
  256
 10
1095.084066407121
 20
740.8761419447433
 30
0
  0
VERTEX
  8
14
  6
BYLAYER
 62
  256
 10
1091.451545869061
 20
740.3057826291009
 30
0
  0
VERTEX
  8
14
  6
BYLAYER
 62
  256
 10
1085.893091753703
 20
739.8229794880956
 30
0
  0
VERTEX
  8
14
  6
BYLAYER
 62
  256
 10
1082.14348545121
 20
739.7719219943918
 30
0
  0
VERTEX
  8
14
  6
BYLAYER
 62
  256
 10
1084.500834523655
 20
775.0314427511953
 30
0
  0
VERTEX
  8
14
  6
BYLAYER
 62
  256
 10
1086.721073907828
 20
803.4425753920391
 30
0
  0
VERTEX
  8
14
  6
BYLAYER
 62
  256
 10
1088.390424384314
 20
822.1880258530841
 30
0
  0
VERTEX
  8
14
  6
BYLAYER
 62
  256
 10
1090.2403386955
 20
840.4353826187029
 30
0
  0
VERTEX
  8
14
  6
BYLAYER
 62
  256
 10
1092.287990377476
 20
857.8760019461114
 30
0
  0
VERTEX
  8
14
  6
BYLAYER
 62
  256
 10
1094.550552966335
 20
874.2012400925262
 30
0
  0
VERTEX
  8
14
  6
BYLAYER
 62
  256
 10
1097.045199998166
 20
889.1024533151631
 30
0
  0
VERTEX
  8
14
  6
BYLAYER
 62
  256
 10
1099.789105009059
 20
902.2709978712386
 30
0
  0
VERTEX
  8
14
  6
BYLAYER
 62
  256
 10
1102.029668760894
 20
910.7536491238324
 30
0
  0
VERTEX
  8
14
  6
BYLAYER
 62
  256
 10
1103.604664940723
 20
915.7490663930889
 30
0
  0
VERTEX
  8
14
  6
BYLAYER
 62
  256
 10
1104.422063005477
 20
917.9955578505626
 30
0
  0
SEQEND
  8
14
  6
BYLAYER
 62
  256
  0
POINT
  8
2
  6
BYLAYER
 62
  256
 10
1104.422063005477
 20
917.9955578505626
  0
POINT
  8
2
  6
BYLAYER
 62
  256
 10
1144.269850929147
 20
914.5093281406562
  0
POINT
  8
2
  6
BYLAYER
 62
  256
 10
1124.707764452743
 20
776.1931221312312
  0
POINT
  8
2
  6
BYLAYER
 62
  256
 10
1082.14348545121
 20
739.7719219943918
  0
POINT
  8
2
  6
BYLAYER
 62
  256
 10
1084.500834523655
 20
775.0314427511953
  0
POINT
  8
2
  6
BYLAYER
 62
  256
 10
1103.604664940723
 20
915.7490663930889
  0
POINT
  8
2
  6
BYLAYER
 62
  256
 10
1104.422063005477
 20
917.9955578505626
  0
POINT
  8
3
  6
BYLAYER
 62
  256
 10
1143.452452864393
 20
912.2628366831826
  0
POINT
  8
3
  6
BYLAYER
 62
  256
 10
1141.877456684564
 20
907.2674194139258
  0
POINT
  8
3
  6
BYLAYER
 62
  256
 10
1139.636892932729
 20
898.7847681613322
  0
POINT
  8
3
  6
BYLAYER
 62
  256
 10
1136.892987921836
 20
885.6162236052568
  0
POINT
  8
3
  6
BYLAYER
 62
  256
 10
1134.398340890005
 20
870.7150103826198
  0
POINT
  8
3
  6
BYLAYER
 62
  256
 10
1132.135778301147
 20
854.3897722362051
  0
POINT
  8
3
  6
BYLAYER
 62
  256
 10
1130.08812661917
 20
836.9491529087963
  0
POINT
  8
3
  6
BYLAYER
 62
  256
 10
1128.238212307983
 20
818.7017961431778
  0
POINT
  8
3
  6
BYLAYER
 62
  256
 10
1126.568861831498
 20
799.9563456821329
  0
POINT
  8
3
  6
BYLAYER
 62
  256
 10
1124.428781632444
 20
773.4369309525138
  0
POINT
  8
3
  6
BYLAYER
 62
  256
 10
1123.544902629671
 20
768.3682969281421
  0
POINT
  8
3
  6
BYLAYER
 62
  256
 10
1122.292714829163
 20
763.8099925289857
  0
POINT
  8
3
  6
BYLAYER
 62
  256
 10
1120.697537383005
 20
759.7373862278646
  0
POINT
  8
3
  6
BYLAYER
 62
  256
 10
1118.784689443281
 20
756.1258464975995
  0
POINT
  8
3
  6
BYLAYER
 62
  256
 10
1116.579490162073
 20
752.9507418110106
  0
POINT
  8
3
  6
BYLAYER
 62
  256
 10
1114.107258691466
 20
750.1874406409186
  0
POINT
  8
3
  6
BYLAYER
 62
  256
 10
1111.393314183544
 20
747.8113114601438
  0
POINT
  8
3
  6
BYLAYER
 62
  256
 10
1108.462975790389
 20
745.7977227415066
  0
POINT
  8
3
  6
BYLAYER
 62
  256
 10
1105.341562664085
 20
744.1220429578275
  0
POINT
  8
3
  6
BYLAYER
 62
  256
 10
1102.054393956717
 20
742.7596405819269
  0
POINT
  8
3
  6
BYLAYER
 62
  256
 10
1098.626788820368
 20
741.6858840866254
  0
POINT
  8
3
  6
BYLAYER
 62
  256
 10
1095.084066407121
 20
740.8761419447433
  0
POINT
  8
3
  6
BYLAYER
 62
  256
 10
1091.451545869061
 20
740.3057826291009
  0
POINT
  8
3
  6
BYLAYER
 62
  256
 10
1085.893091753703
 20
739.8229794880956
  0
POINT
  8
3
  6
BYLAYER
 62
  256
 10
1086.721073907828
 20
803.4425753920391
  0
POINT
  8
3
  6
BYLAYER
 62
  256
 10
1088.390424384314
 20
822.1880258530841
  0
POINT
  8
3
  6
BYLAYER
 62
  256
 10
1090.2403386955
 20
840.4353826187029
  0
POINT
  8
3
  6
BYLAYER
 62
  256
 10
1092.287990377476
 20
857.8760019461114
  0
POINT
  8
3
  6
BYLAYER
 62
  256
 10
1094.550552966335
 20
874.2012400925262
  0
POINT
  8
3
  6
BYLAYER
 62
  256
 10
1097.045199998166
 20
889.1024533151631
  0
POINT
  8
3
  6
BYLAYER
 62
  256
 10
1099.789105009059
 20
902.2709978712386
  0
POINT
  8
3
  6
BYLAYER
 62
  256
 10
1102.029668760894
 20
910.7536491238324
  0
POLYLINE
  8
87
  6
BYLAYER
 62
  256
 66
    1
 10
0
 20
0
 30
0
 70
    1
  0
VERTEX
  8
87
  6
BYLAYER
 62
  256
 10
1104.422063005477
 20
917.9955578505626
 30
0
  0
VERTEX
  8
87
  6
BYLAYER
 62
  256
 10
1144.269850929147
 20
914.5093281406562
 30
0
  0
VERTEX
  8
87
  6
BYLAYER
 62
  256
 10
1143.452452864393
 20
912.2628366831826
 30
0
  0
VERTEX
  8
87
  6
BYLAYER
 62
  256
 10
1141.877456684564
 20
907.2674194139258
 30
0
  0
VERTEX
  8
87
  6
BYLAYER
 62
  256
 10
1139.636892932729
 20
898.7847681613322
 30
0
  0
VERTEX
  8
87
  6
BYLAYER
 62
  256
 10
1136.892987921836
 20
885.6162236052568
 30
0
  0
VERTEX
  8
87
  6
BYLAYER
 62
  256
 10
1134.398340890005
 20
870.7150103826198
 30
0
  0
VERTEX
  8
87
  6
BYLAYER
 62
  256
 10
1132.135778301147
 20
854.3897722362051
 30
0
  0
VERTEX
  8
87
  6
BYLAYER
 62
  256
 10
1130.08812661917
 20
836.9491529087963
 30
0
  0
VERTEX
  8
87
  6
BYLAYER
 62
  256
 10
1128.238212307983
 20
818.7017961431778
 30
0
  0
VERTEX
  8
87
  6
BYLAYER
 62
  256
 10
1126.568861831498
 20
799.9563456821329
 30
0
  0
VERTEX
  8
87
  6
BYLAYER
 62
  256
 10
1124.707764452743
 20
776.1931221312312
 30
0
  0
VERTEX
  8
87
  6
BYLAYER
 62
  256
 10
1124.428781632444
 20
773.4369309525138
 30
0
  0
VERTEX
  8
87
  6
BYLAYER
 62
  256
 10
1123.544902629671
 20
768.3682969281421
 30
0
  0
VERTEX
  8
87
  6
BYLAYER
 62
  256
 10
1122.292714829163
 20
763.8099925289857
 30
0
  0
VERTEX
  8
87
  6
BYLAYER
 62
  256
 10
1120.697537383005
 20
759.7373862278646
 30
0
  0
VERTEX
  8
87
  6
BYLAYER
 62
  256
 10
1118.784689443281
 20
756.1258464975995
 30
0
  0
VERTEX
  8
87
  6
BYLAYER
 62
  256
 10
1116.579490162073
 20
752.9507418110106
 30
0
  0
VERTEX
  8
87
  6
BYLAYER
 62
  256
 10
1114.107258691466
 20
750.1874406409186
 30
0
  0
VERTEX
  8
87
  6
BYLAYER
 62
  256
 10
1111.393314183544
 20
747.8113114601438
 30
0
  0
VERTEX
  8
87
  6
BYLAYER
 62
  256
 10
1108.462975790389
 20
745.7977227415066
 30
0
  0
VERTEX
  8
87
  6
BYLAYER
 62
  256
 10
1105.341562664085
 20
744.1220429578275
 30
0
  0
VERTEX
  8
87
  6
BYLAYER
 62
  256
 10
1102.054393956717
 20
742.7596405819269
 30
0
  0
VERTEX
  8
87
  6
BYLAYER
 62
  256
 10
1098.626788820368
 20
741.6858840866254
 30
0
  0
VERTEX
  8
87
  6
BYLAYER
 62
  256
 10
1095.084066407121
 20
740.8761419447433
 30
0
  0
VERTEX
  8
87
  6
BYLAYER
 62
  256
 10
1091.451545869061
 20
740.3057826291009
 30
0
  0
VERTEX
  8
87
  6
BYLAYER
 62
  256
 10
1085.893091753703
 20
739.8229794880956
 30
0
  0
VERTEX
  8
87
  6
BYLAYER
 62
  256
 10
1082.14348545121
 20
739.7719219943918
 30
0
  0
VERTEX
  8
87
  6
BYLAYER
 62
  256
 10
1084.500834523655
 20
775.0314427511953
 30
0
  0
VERTEX
  8
87
  6
BYLAYER
 62
  256
 10
1086.721073907828
 20
803.4425753920391
 30
0
  0
VERTEX
  8
87
  6
BYLAYER
 62
  256
 10
1088.390424384314
 20
822.1880258530841
 30
0
  0
VERTEX
  8
87
  6
BYLAYER
 62
  256
 10
1090.2403386955
 20
840.4353826187029
 30
0
  0
VERTEX
  8
87
  6
BYLAYER
 62
  256
 10
1092.287990377476
 20
857.8760019461114
 30
0
  0
VERTEX
  8
87
  6
BYLAYER
 62
  256
 10
1094.550552966335
 20
874.2012400925262
 30
0
  0
VERTEX
  8
87
  6
BYLAYER
 62
  256
 10
1097.045199998166
 20
889.1024533151631
 30
0
  0
VERTEX
  8
87
  6
BYLAYER
 62
  256
 10
1099.789105009059
 20
902.2709978712386
 30
0
  0
VERTEX
  8
87
  6
BYLAYER
 62
  256
 10
1102.029668760894
 20
910.7536491238324
 30
0
  0
VERTEX
  8
87
  6
BYLAYER
 62
  256
 10
1103.604664940723
 20
915.7490663930889
 30
0
  0
VERTEX
  8
87
  6
BYLAYER
 62
  256
 10
1104.422063005477
 20
917.9955578505626
 30
0
  0
SEQEND
  8
87
  6
BYLAYER
 62
  256
  0
TEXT
  8
1
  6
BYLAYER
 62
  256
 10
1110.852189583333
 20
873.3470125
 40
2.116666666666666
  1
F
 50
-0
 41
1
 51
0
  7
YU GOTHIC UI_BOLD
 71
    0
210
0
220
0
230
1
  0
TEXT
  8
1
  6
BYLAYER
 62
  256
 10
1106.751147916667
 20
870.2595125
 40
1.322916666666667
  1
fly_facing
 50
-0
 41
1
 51
0
  7
YU GOTHIC UI_BOLD
 71
    0
210
0
220
0
230
1
  0
TEXT
  8
1
  6
BYLAYER
 62
  256
 10
1106.883439583333
 20
867.4365958333333
 40
1.058333333333333
  1
Fabric, Cut 2
 50
-0
 41
1
 51
0
  7
YU GOTHIC UI
 71
    0
210
0
220
0
230
1
  0
TEXT
  8
15
  6
BYLAYER
 62
  256
 10
1116.304170125808
 20
831.8671465100133
 40
2.5
  1
fly_facing
 50
0
 41
1
 51
0
  7
STANDARD
 71
    0
210
0
220
0
230
1
  0
ENDBLK
  8
1
  0
BLOCK
  8
1
  2
KNEE_BAND
 70
    0
 10
0
 20
0
  3
KNEE_BAND
  1

  0
POLYLINE
  8
1
  6
BYLAYER
 62
  256
 66
    1
 10
0
 20
0
 30
0
 70
    1
  0
VERTEX
  8
1
  6
BYLAYER
 62
  256
 10
259.1677499999999
 20
80.04945000000002
 30
0
  0
VERTEX
  8
1
  6
BYLAYER
 62
  256
 10
694.1677499999998
 20
80.04945000000002
 30
0
  0
VERTEX
  8
1
  6
BYLAYER
 62
  256
 10
694.1677499999998
 20
0.04945000000005469
 30
0
  0
VERTEX
  8
1
  6
BYLAYER
 62
  256
 10
259.1677499999999
 20
0.04945000000005469
 30
0
  0
VERTEX
  8
1
  6
BYLAYER
 62
  256
 10
259.1677499999999
 20
80.04945000000002
 30
0
  0
SEQEND
  8
1
  6
BYLAYER
 62
  256
  0
POINT
  8
2
  6
BYLAYER
 62
  256
 10
259.1677499999999
 20
80.04945000000002
  0
POINT
  8
2
  6
BYLAYER
 62
  256
 10
694.1677499999998
 20
80.04945000000002
  0
POINT
  8
2
  6
BYLAYER
 62
  256
 10
694.1677499999998
 20
0.04945000000005469
  0
POINT
  8
2
  6
BYLAYER
 62
  256
 10
259.1677499999999
 20
0.04945000000005469
  0
POINT
  8
2
  6
BYLAYER
 62
  256
 10
259.1677499999999
 20
80.04945000000002
  0
POLYLINE
  8
84
  6
BYLAYER
 62
  256
 66
    1
 10
0
 20
0
 30
0
 70
    1
  0
VERTEX
  8
84
  6
BYLAYER
 62
  256
 10
259.1677499999999
 20
80.04945000000002
 30
0
  0
VERTEX
  8
84
  6
BYLAYER
 62
  256
 10
694.1677499999998
 20
80.04945000000002
 30
0
  0
VERTEX
  8
84
  6
BYLAYER
 62
  256
 10
694.1677499999998
 20
0.04945000000005469
 30
0
  0
VERTEX
  8
84
  6
BYLAYER
 62
  256
 10
259.1677499999999
 20
0.04945000000005469
 30
0
  0
VERTEX
  8
84
  6
BYLAYER
 62
  256
 10
259.1677499999999
 20
80.04945000000002
 30
0
  0
SEQEND
  8
84
  6
BYLAYER
 62
  256
  0
POLYLINE
  8
14
  6
BYLAYER
 62
  256
 66
    1
 10
0
 20
0
 30
0
 70
    1
  0
VERTEX
  8
14
  6
BYLAYER
 62
  256
 10
279.1677499999999
 20
60.04945000000001
 30
0
  0
VERTEX
  8
14
  6
BYLAYER
 62
  256
 10
674.1677499999998
 20
60.04945000000001
 30
0
  0
VERTEX
  8
14
  6
BYLAYER
 62
  256
 10
674.1677499999998
 20
20.04944999999996
 30
0
  0
VERTEX
  8
14
  6
BYLAYER
 62
  256
 10
279.1677499999999
 20
20.04944999999996
 30
0
  0
VERTEX
  8
14
  6
BYLAYER
 62
  256
 10
279.1677499999999
 20
60.04945000000001
 30
0
  0
SEQEND
  8
14
  6
BYLAYER
 62
  256
  0
POINT
  8
2
  6
BYLAYER
 62
  256
 10
279.1677499999999
 20
60.04945000000001
  0
POINT
  8
2
  6
BYLAYER
 62
  256
 10
674.1677499999998
 20
60.04945000000001
  0
POINT
  8
2
  6
BYLAYER
 62
  256
 10
674.1677499999998
 20
20.04944999999996
  0
POINT
  8
2
  6
BYLAYER
 62
  256
 10
279.1677499999999
 20
20.04944999999996
  0
POINT
  8
2
  6
BYLAYER
 62
  256
 10
279.1677499999999
 20
60.04945000000001
  0
POLYLINE
  8
87
  6
BYLAYER
 62
  256
 66
    1
 10
0
 20
0
 30
0
 70
    1
  0
VERTEX
  8
87
  6
BYLAYER
 62
  256
 10
279.1677499999999
 20
60.04945000000001
 30
0
  0
VERTEX
  8
87
  6
BYLAYER
 62
  256
 10
674.1677499999998
 20
60.04945000000001
 30
0
  0
VERTEX
  8
87
  6
BYLAYER
 62
  256
 10
674.1677499999998
 20
20.04944999999996
 30
0
  0
VERTEX
  8
87
  6
BYLAYER
 62
  256
 10
279.1677499999999
 20
20.04944999999996
 30
0
  0
VERTEX
  8
87
  6
BYLAYER
 62
  256
 10
279.1677499999999
 20
60.04945000000001
 30
0
  0
SEQEND
  8
87
  6
BYLAYER
 62
  256
  0
TEXT
  8
1
  6
BYLAYER
 62
  256
 10
367.6487
 20
51.87668749999998
 40
2.116666666666666
  1
D
 50
-0
 41
1
 51
0
  7
YU GOTHIC UI_BOLD
 71
    0
210
0
220
0
230
1
  0
TEXT
  8
1
  6
BYLAYER
 62
  256
 10
363.2830750000001
 20
48.78918749999997
 40
1.322916666666667
  1
knee_band
 50
-0
 41
1
 51
0
  7
YU GOTHIC UI_BOLD
 71
    0
210
0
220
0
230
1
  0
TEXT
  8
1
  6
BYLAYER
 62
  256
 10
364.076825
 20
45.96627083333328
 40
1.058333333333333
  1
Fabric, Cut 2
 50
-0
 41
1
 51
0
  7
YU GOTHIC UI
 71
    0
210
0
220
0
230
1
  0
TEXT
  8
15
  6
BYLAYER
 62
  256
 10
476.6677499999998
 20
42.54945000000014
 40
2.5
  1
knee_band
 50
0
 41
1
 51
0
  7
STANDARD
 71
    0
210
0
220
0
230
1
  0
ENDBLK
  8
1
  0
BLOCK
  8
1
  2
WAISTBAND
 70
    0
 10
0
 20
0
  3
WAISTBAND
  1

  0
POLYLINE
  8
1
  6
BYLAYER
 62
  256
 66
    1
 10
0
 20
0
 30
0
 70
    1
  0
VERTEX
  8
1
  6
BYLAYER
 62
  256
 10
361.1687499999998
 20
1094.53545
 30
0
  0
VERTEX
  8
1
  6
BYLAYER
 62
  256
 10
1081.16875
 20
1094.53545
 30
0
  0
VERTEX
  8
1
  6
BYLAYER
 62
  256
 10
1081.16875
 20
1004.53545
 30
0
  0
VERTEX
  8
1
  6
BYLAYER
 62
  256
 10
361.1687499999999
 20
1004.53545
 30
0
  0
VERTEX
  8
1
  6
BYLAYER
 62
  256
 10
361.1687499999998
 20
1094.53545
 30
0
  0
SEQEND
  8
1
  6
BYLAYER
 62
  256
  0
POINT
  8
2
  6
BYLAYER
 62
  256
 10
361.1687499999998
 20
1094.53545
  0
POINT
  8
2
  6
BYLAYER
 62
  256
 10
1081.16875
 20
1094.53545
  0
POINT
  8
2
  6
BYLAYER
 62
  256
 10
1081.16875
 20
1004.53545
  0
POINT
  8
2
  6
BYLAYER
 62
  256
 10
361.1687499999999
 20
1004.53545
  0
POINT
  8
2
  6
BYLAYER
 62
  256
 10
361.1687499999998
 20
1094.53545
  0
POLYLINE
  8
84
  6
BYLAYER
 62
  256
 66
    1
 10
0
 20
0
 30
0
 70
    1
  0
VERTEX
  8
84
  6
BYLAYER
 62
  256
 10
361.1687499999998
 20
1094.53545
 30
0
  0
VERTEX
  8
84
  6
BYLAYER
 62
  256
 10
1081.16875
 20
1094.53545
 30
0
  0
VERTEX
  8
84
  6
BYLAYER
 62
  256
 10
1081.16875
 20
1004.53545
 30
0
  0
VERTEX
  8
84
  6
BYLAYER
 62
  256
 10
361.1687499999999
 20
1004.53545
 30
0
  0
VERTEX
  8
84
  6
BYLAYER
 62
  256
 10
361.1687499999998
 20
1094.53545
 30
0
  0
SEQEND
  8
84
  6
BYLAYER
 62
  256
  0
POLYLINE
  8
14
  6
BYLAYER
 62
  256
 66
    1
 10
0
 20
0
 30
0
 70
    1
  0
VERTEX
  8
14
  6
BYLAYER
 62
  256
 10
381.1687499999999
 20
1074.53545
 30
0
  0
VERTEX
  8
14
  6
BYLAYER
 62
  256
 10
1061.16875
 20
1074.53545
 30
0
  0
VERTEX
  8
14
  6
BYLAYER
 62
  256
 10
1061.16875
 20
1024.53545
 30
0
  0
VERTEX
  8
14
  6
BYLAYER
 62
  256
 10
381.1687499999999
 20
1024.53545
 30
0
  0
VERTEX
  8
14
  6
BYLAYER
 62
  256
 10
381.1687499999999
 20
1074.53545
 30
0
  0
SEQEND
  8
14
  6
BYLAYER
 62
  256
  0
POINT
  8
2
  6
BYLAYER
 62
  256
 10
381.1687499999999
 20
1074.53545
  0
POINT
  8
2
  6
BYLAYER
 62
  256
 10
1061.16875
 20
1074.53545
  0
POINT
  8
2
  6
BYLAYER
 62
  256
 10
1061.16875
 20
1024.53545
  0
POINT
  8
2
  6
BYLAYER
 62
  256
 10
381.1687499999999
 20
1024.53545
  0
POINT
  8
2
  6
BYLAYER
 62
  256
 10
381.1687499999999
 20
1074.53545
  0
POLYLINE
  8
87
  6
BYLAYER
 62
  256
 66
    1
 10
0
 20
0
 30
0
 70
    1
  0
VERTEX
  8
87
  6
BYLAYER
 62
  256
 10
381.1687499999999
 20
1074.53545
 30
0
  0
VERTEX
  8
87
  6
BYLAYER
 62
  256
 10
1061.16875
 20
1074.53545
 30
0
  0
VERTEX
  8
87
  6
BYLAYER
 62
  256
 10
1061.16875
 20
1024.53545
 30
0
  0
VERTEX
  8
87
  6
BYLAYER
 62
  256
 10
381.1687499999999
 20
1024.53545
 30
0
  0
VERTEX
  8
87
  6
BYLAYER
 62
  256
 10
381.1687499999999
 20
1074.53545
 30
0
  0
SEQEND
  8
87
  6
BYLAYER
 62
  256
  0
POLYLINE
  8
8
  6
DOT
 62
  256
 66
    1
 10
0
 20
0
 30
0
 70
    0
  0
VERTEX
  8
8
  6
DOT
 62
  256
 10
1011.16875
 20
1024.53545
 30
0
  0
VERTEX
  8
8
  6
DOT
 62
  256
 10
1011.16875
 20
1074.53545
 30
0
  0
SEQEND
  8
8
  6
DOT
 62
  256
  0
POINT
  8
2
  6
BYLAYER
 62
  256
 10
1011.16875
 20
1024.53545
  0
POINT
  8
2
  6
BYLAYER
 62
  256
 10
1011.16875
 20
1074.53545
  0
POLYLINE
  8
85
  6
BYLAYER
 62
  256
 66
    1
 10
0
 20
0
 30
0
 70
    0
  0
VERTEX
  8
85
  6
BYLAYER
 62
  256
 10
1011.16875
 20
1024.53545
 30
0
  0
VERTEX
  8
85
  6
BYLAYER
 62
  256
 10
1011.16875
 20
1074.53545
 30
0
  0
SEQEND
  8
85
  6
BYLAYER
 62
  256
  0
TEXT
  8
1
  6
BYLAYER
 62
  256
 10
472.8038520833333
 20
1066.276389583333
 40
2.116666666666666
  1
C
 50
-0
 41
1
 51
0
  7
YU GOTHIC UI_BOLD
 71
    0
210
0
220
0
230
1
  0
TEXT
  8
1
  6
BYLAYER
 62
  256
 10
468.4382270833333
 20
1063.188889583333
 40
1.322916666666667
  1
waistband
 50
-0
 41
1
 51
0
  7
YU GOTHIC UI_BOLD
 71
    0
210
0
220
0
230
1
  0
TEXT
  8
1
  6
BYLAYER
 62
  256
 10
468.9673937499999
 20
1060.365972916667
 40
1.058333333333333
  1
Fabric, Cut 1
 50
-0
 41
1
 51
0
  7
YU GOTHIC UI
 71
    0
210
0
220
0
230
1
  0
TEXT
  8
15
  6
BYLAYER
 62
  256
 10
721.1687499999998
 20
1052.03545
 40
2.5
  1
waistband
 50
0
 41
1
 51
0
  7
STANDARD
 71
    0
210
0
220
0
230
1
  0
ENDBLK
  8
0
  0
ENDSEC
  0
SECTION
  2
ENTITIES
  0
TEXT
  8
1
  6
BYLAYER
 62
  256
 10
0
 20
5.000000000000067
 40
2.5
  1
Cycling Knickers
 50
0
 41
1
 51
0
  7
STANDARD
 71
    0
210
0
220
0
230
1
  0
TEXT
  8
1
  6
BYLAYER
 62
  256
 10
0
 20
2.499999999999913
 40
2.5
  1
measurements
 50
0
 41
1
 51
0
  7
STANDARD
 71
    0
210
0
220
0
230
1
  0
TEXT
  8
1
  6
BYLAYER
 62
  256
 10
0
 20
0
 40
2.5
  1
2026-07-11
 50
0
 41
1
 51
0
  7
STANDARD
 71
    0
210
0
220
0
230
1
  0
INSERT
  8
1
  6
BYLAYER
 62
  256
  2
BACK
 10
0
 20
0
  0
INSERT
  8
1
  6
BYLAYER
 62
  256
  2
POCKET
 10
0
 20
0
  0
INSERT
  8
1
  6
BYLAYER
 62
  256
  2
FRONT
 10
0
 20
0
  0
INSERT
  8
1
  6
BYLAYER
 62
  256
  2
LEG_FLY_FACING
 10
0
 20
0
  0
INSERT
  8
1
  6
BYLAYER
 62
  256
  2
FLY_FACING
 10
0
 20
0
  0
INSERT
  8
1
  6
BYLAYER
 62
  256
  2
KNEE_BAND
 10
0
 20
0
  0
INSERT
  8
1
  6
BYLAYER
 62
  256
  2
WAISTBAND
 10
0
 20
0
  0
ENDSEC
  0
EOF
