999
dxfrw 0.6.3
  0
SECTION
  2
HEADER
  9
$ACADVER
  1
AC1009
  9
$DWGCODEPAGE
  3
ANSI_1252
  9
$INSBASE
 10
0
 20
0
 30
0
  9
$EXTMIN
 10
1e+20
 20
1e+20
 30
1e+20
  9
$EXTMAX
 10
-1e+20
 20
-1e+20
 30
-1e+20
  9
$LIMMIN
 10
0
 20
0
  9
$LIMMAX
 10
420
 20
297
  9
$ORTHOMODE
 70
    0
  9
$REGENMODE
 70
    1
  9
$FILLMODE
 70
    1
  9
$QTEXTMODE
 70
    0
  9
$MIRRTEXT
 70
    0
  9
$DRAGMODE
 70
    2
  9
$LTSCALE
 40
1
  9
$OSMODE
 70
    0
  9
$ATTMODE
 70
    0
  9
$TEXTSIZE
 40
2.5
  9
$TRACEWID
 40
15.68
  9
$TEXTSTYLE
  7
STANDARD
  9
$CLAYER
  8
1
  9
$CELTYPE
  6
BYLAYER
  9
$CECOLOR
 62
  256
  9
$DIMSCALE
 40
1
  9
$DIMASZ
 40
2.5
  9
$DIMEXO
 40
0.625
  9
$DIMDLI
 40
3.75
  9
$DIMRND
 40
0
  9
$DIMDLE
 40
0
  9
$DIMEXE
 40
1.25
  9
$DIMTP
 40
0
  9
$DIMTM
 40
0
  9
$DIMTXT
 40
2.5
  9
$DIMCEN
 40
2.5
  9
$DIMTSZ
 40
0
  9
$DIMTOL
 70
    0
  9
$DIMLIM
 70
    0
  9
$DIMTIH
 70
    0
  9
$DIMTOH
 70
    0
  9
$DIMSE1
 70
    0
  9
$DIMSE2
 70
    0
  9
$DIMTAD
 70
    1
  9
$DIMZIN
 70
    8
  9
$DIMBLK
  1

  9
$DIMASO
 70
    1
  9
$DIMSHO
 70
    1
  9
$DIMPOST
  1

  9
$DIMAPOST
  1

  9
$DIMALT
 70
    0
  9
$DIMALTD
 70
    3
  9
$DIMALTF
 40
0.03937
  9
$DIMLFAC
 40
1
  9
$DIMTOFL
 70
    1
  9
$DIMTVP
 40
0
  9
$DIMTIX
 70
    0
  9
$DIMSOXD
 70
    0
  9
$DIMSAH
 70
    0
  9
$DIMBLK1
  1

  9
$DIMBLK2
  1

  9
$DIMSTYLE
  2
STANDARD
  9
$DIMCLRD
 70
    0
  9
$DIMCLRE
 70
    0
  9
$DIMCLRT
 70
    0
  9
$DIMTFAC
 40
1
  9
$DIMGAP
 40
0.625
  9
$LUNITS
 70
    2
  9
$LUPREC
 70
    4
  9
$SKETCHINC
 40
1
  9
$FILLETRAD
 40
0
  9
$AUNITS
 70
    0
  9
$AUPREC
 70
    2
  9
$MENU
  1
.
  9
$ELEVATION
 40
0
  9
$PELEVATION
 40
0
  9
$THICKNESS
 40
0
  9
$LIMCHECK
 70
    0
  9
$BLIPMODE
 70
    0
  9
$CHAMFERA
 40
0
  9
$CHAMFERB
 40
0
  9
$SKPOLY
 70
    0
  9
$USRTIMER
 70
    1
  9
$ANGBASE
 50
0
  9
$ANGDIR
 70
    0
  9
$PDMODE
 70
   34
  9
$PDSIZE
 40
0
  9
$PLINEWID
 40
0
  9
$COORDS
 70
    2
  9
$SPLFRAME
 70
    0
  9
$SPLINETYPE
 70
    2
  9
$SPLINESEGS
 70
    8
  9
$ATTDIA
 70
    1
  9
$ATTREQ
 70
    1
  9
$HANDSEED
  5
20000
  9
$SURFTAB1
 70
    6
  9
$SURFTAB2
 70
    6
  9
$SURFTYPE
 70
    6
  9
$SURFU
 70
    6
  9
$SURFV
 70
    6
  9
$TDCREATE
 40
20260723.22271600
  9
$UCSNAME
  2

  9
$UCSORG
 10
0
 20
0
 30
0
  9
$UCSXDIR
 10
1
 20
0
 30
0
  9
$UCSYDIR
 10
0
 20
1
 30
0
  9
$PUCSNAME
  2

  9
$PUCSORG
 10
0
 20
0
 30
0
  9
$PUCSXDIR
 10
1
 20
0
 30
0
  9
$PUCSYDIR
 10
0
 20
1
 30
0
  9
$USERI1
 70
    0
  9
$USERI2
 70
    0
  9
$USERI3
 70
    0
  9
$USERI4
 70
    0
  9
$USERI5
 70
    0
  9
$USERR1
 40
0
  9
$USERR2
 40
0
  9
$USERR3
 40
0
  9
$USERR4
 40
0
  9
$USERR5
 40
0
  9
$WORLDVIEW
 70
    1
  9
$SHADEDGE
 70
    3
  9
$SHADEDIF
 70
   70
  9
$TILEMODE
 70
    1
  9
$MAXACTVP
 70
   64
  9
$PLIMCHECK
 70
    0
  9
$PEXTMIN
 10
0
 20
0
 30
0
  9
$PEXTMAX
 10
0
 20
0
 30
0
  9
$PLIMMIN
 10
0
 20
0
  9
$PLIMMAX
 10
297
 20
210
  9
$UNITMODE
 70
    0
  9
$VISRETAIN
 70
    1
  9
$PLINEGEN
 70
    0
  9
$PSLTSCALE
 70
    1
  0
ENDSEC
  0
SECTION
  2
TABLES
  0
TABLE
  2
VPORT
 70
    1
  0
VPORT
  2
*ACTIVE
 70
    0
 10
0
 20
0
 11
1
 21
1
 12
0.651828
 22
-0.16
 13
0
 23
0
 14
10
 24
10
 15
10
 25
10
 16
0
 26
0
 36
1
 17
0
 27
0
 37
0
 40
297
 41
2.4426877
 42
50
 43
0
 44
0
 50
0
 51
0
 71
    0
 72
  100
 73
    1
 74
    3
 75
    0
 76
    0
 77
    0
 78
    0
  0
ENDTAB
  0
TABLE
  2
LTYPE
 70
    4
  0
LTYPE
  2
BYBLOCK
 70
    0
  3

 72
   65
 73
    0
 40
0
  0
LTYPE
  2
BYLAYER
 70
    0
  3

 72
   65
 73
    0
 40
0
  0
LTYPE
  2
CONTINUOUS
 70
    0
  3
Solid line
 72
   65
 73
    0
 40
0
  0
ENDTAB
  0
TABLE
  2
LAYER
 70
    1
  0
LAYER
  2
1
 70
    0
 62
  250
  6
CONTINUOUS
  0
LAYER
  2
2
 70
    0
 62
  250
  6
CONTINUOUS
  0
LAYER
  2
3
 70
    0
 62
  250
  6
CONTINUOUS
  0
LAYER
  2
4
 70
    0
 62
  250
  6
CONTINUOUS
  0
LAYER
  2
6
 70
    0
 62
  250
  6
CONTINUOUS
  0
LAYER
  2
7
 70
    0
 62
  250
  6
CONTINUOUS
  0
LAYER
  2
8
 70
    0
 62
  250
  6
CONTINUOUS
  0
LAYER
  2
11
 70
    0
 62
  250
  6
CONTINUOUS
  0
LAYER
  2
13
 70
    0
 62
  250
  6
CONTINUOUS
  0
LAYER
  2
14
 70
    0
 62
  250
  6
CONTINUOUS
  0
LAYER
  2
15
 70
    0
 62
  250
  6
CONTINUOUS
  0
LAYER
  2
80
 70
    0
 62
  250
  6
CONTINUOUS
  0
LAYER
  2
81
 70
    0
 62
  250
  6
CONTINUOUS
  0
LAYER
  2
82
 70
    0
 62
  250
  6
CONTINUOUS
  0
LAYER
  2
83
 70
    0
 62
  250
  6
CONTINUOUS
  0
LAYER
  2
84
 70
    0
 62
  250
  6
CONTINUOUS
  0
LAYER
  2
85
 70
    0
 62
  250
  6
CONTINUOUS
  0
LAYER
  2
86
 70
    0
 62
  250
  6
CONTINUOUS
  0
LAYER
  2
87
 70
    0
 62
  250
  6
CONTINUOUS
  0
ENDTAB
  0
TABLE
  2
STYLE
 70
    3
  0
STYLE
  2
STANDARD
 70
    0
 40
0
 41
1
 50
0
 71
    0
 42
2.5
  3
TXT
  4

  0
STYLE
  2
YU GOTHIC UI_BOLD
 70
    0
 40
0
 41
1
 50
0
 71
    0
 42
1
  3
YU GOTHIC UI
  4

  0
STYLE
  2
YU GOTHIC UI
 70
    0
 40
0
 41
1
 50
0
 71
    0
 42
1
  3
YU GOTHIC UI
  4

  0
ENDTAB
  0
TABLE
  2
VIEW
 70
    0
  0
ENDTAB
  0
TABLE
  2
UCS
 70
    0
  0
ENDTAB
  0
TABLE
  2
APPID
 70
    1
  0
APPID
  2
ACAD
 70
    0
  0
APPID
  2
VALENTINA
 70
    0
  0
ENDTAB
  0
TABLE
  2
DIMSTYLE
 70
    1
  0
DIMSTYLE
  2
STANDARD
 70
    0
  3

  4

  5

  6

  7

 40
1
 41
2.5
 42
0.625
 43
3.75
 44
1.25
 45
0
 46
0
 47
0
 48
0
 49
1
140
2.5
141
2.5
142
0
143
0.03937007874015748
144
1
145
0
146
1
147
0.625
 71
    0
 72
    0
 73
    0
 74
    0
 75
    0
 76
    0
 77
    1
 78
    8
170
    0
171
    3
172
    1
173
    0
174
    0
175
    0
176
    0
177
    0
178
    0
  0
ENDTAB
  0
ENDSEC
  0
SECTION
  2
BLOCKS
  0
BLOCK
  8
1
  2
POCKET
 70
    0
 10
0
 20
0
  3
POCKET
  1

  0
POLYLINE
  8
1
  6
BYLAYER
 62
  256
 66
    1
 10
0
 20
0
 30
0
 70
    1
  0
VERTEX
  8
1
  6
BYLAYER
 62
  256
 10
1007.052555145417
 20
1058.252118476758
 30
0
  0
VERTEX
  8
1
  6
BYLAYER
 62
  256
 10
1041.106672068825
 20
1038.910548946623
 30
0
  0
VERTEX
  8
1
  6
BYLAYER
 62
  256
 10
1060.07485018456
 20
1028.137274845561
 30
0
  0
VERTEX
  8
1
  6
BYLAYER
 62
  256
 10
1075.615148186309
 20
1018.729202280185
 30
0
  0
VERTEX
  8
1
  6
BYLAYER
 62
  256
 10
1086.325468096927
 20
1011.714233114347
 30
0
  0
VERTEX
  8
1
  6
BYLAYER
 62
  256
 10
1097.037422327578
 20
1004.064621744145
 30
0
  0
VERTEX
  8
1
  6
BYLAYER
 62
  256
 10
1107.573742798596
 20
995.7158327149451
 30
0
  0
VERTEX
  8
1
  6
BYLAYER
 62
  256
 10
1115.28005565435
 20
988.8903700840835
 30
0
  0
VERTEX
  8
1
  6
BYLAYER
 62
  256
 10
1120.341834916963
 20
984.0353719581574
 30
0
  0
VERTEX
  8
1
  6
BYLAYER
 62
  256
 10
1125.228016206933
 20
978.9880987664029
 30
0
  0
VERTEX
  8
1
  6
BYLAYER
 62
  256
 10
1129.952827322531
 20
973.7000442543101
 30
0
  0
VERTEX
  8
1
  6
BYLAYER
 62
  256
 10
1134.489750486644
 20
968.161052877268
 30
0
  0
VERTEX
  8
1
  6
BYLAYER
 62
  256
 10
1138.810939887981
 20
962.3617955013353
 30
0
  0
VERTEX
  8
1
  6
BYLAYER
 62
  256
 10
1142.887220434512
 20
956.2942045808376
 30
0
  0
VERTEX
  8
1
  6
BYLAYER
 62
  256
 10
1146.688214650425
 20
949.9519455483289
 30
0
  0
VERTEX
  8
1
  6
BYLAYER
 62
  256
 10
1150.182629507134
 20
943.3308763096369
 30
0
  0
VERTEX
  8
1
  6
BYLAYER
 62
  256
 10
1153.338718438089
 20
936.4294272890436
 30
0
  0
VERTEX
  8
1
  6
BYLAYER
 62
  256
 10
1156.124905296938
 20
929.2488229086396
 30
0
  0
VERTEX
  8
1
  6
BYLAYER
 62
  256
 10
1158.510520032344
 20
921.7930695588723
 30
0
  0
VERTEX
  8
1
  6
BYLAYER
 62
  256
 10
1160.466559159579
 20
914.0686605197737
 30
0
  0
VERTEX
  8
1
  6
BYLAYER
 62
  256
 10
1161.966360212671
 20
906.0839940710013
 30
0
  0
VERTEX
  8
1
  6
BYLAYER
 62
  256
 10
1162.986079809384
 20
897.8485576648341
 30
0
  0
VERTEX
  8
1
  6
BYLAYER
 62
  256
 10
1163.50476848813
 20
889.3740382442477
 30
0
  0
VERTEX
  8
1
  6
BYLAYER
 62
  256
 10
1163.546822926232
 20
685.0318666666667
 30
0
  0
VERTEX
  8
1
  6
BYLAYER
 62
  256
 10
983.5427064225009
 20
685.0318666666667
 30
0
  0
VERTEX
  8
1
  6
BYLAYER
 62
  256
 10
983.5427064225009
 20
888.9812076717636
 30
0
  0
VERTEX
  8
1
  6
BYLAYER
 62
  256
 10
1007.052555145417
 20
1058.252118476758
 30
0
  0
SEQEND
  8
1
  6
BYLAYER
 62
  256
  0
POINT
  8
2
  6
BYLAYER
 62
  256
 10
1007.052555145417
 20
1058.252118476758
  0
POINT
  8
2
  6
BYLAYER
 62
  256
 10
1163.50476848813
 20
889.3740382442477
  0
POINT
  8
2
  6
BYLAYER
 62
  256
 10
1163.546822926232
 20
685.0318666666667
  0
POINT
  8
2
  6
BYLAYER
 62
  256
 10
983.5427064225009
 20
685.0318666666667
  0
POINT
  8
2
  6
BYLAYER
 62
  256
 10
983.5427064225009
 20
888.9812076717636
  0
POINT
  8
2
  6
BYLAYER
 62
  256
 10
1007.052555145417
 20
1058.252118476758
  0
POINT
  8
3
  6
BYLAYER
 62
  256
 10
1041.106672068825
 20
1038.910548946623
  0
POINT
  8
3
  6
BYLAYER
 62
  256
 10
1060.07485018456
 20
1028.137274845561
  0
POINT
  8
3
  6
BYLAYER
 62
  256
 10
1075.615148186309
 20
1018.729202280185
  0
POINT
  8
3
  6
BYLAYER
 62
  256
 10
1086.325468096927
 20
1011.714233114347
  0
POINT
  8
3
  6
BYLAYER
 62
  256
 10
1097.037422327578
 20
1004.064621744145
  0
POINT
  8
3
  6
BYLAYER
 62
  256
 10
1107.573742798596
 20
995.7158327149451
  0
POINT
  8
3
  6
BYLAYER
 62
  256
 10
1115.28005565435
 20
988.8903700840835
  0
POINT
  8
3
  6
BYLAYER
 62
  256
 10
1120.341834916963
 20
984.0353719581574
  0
POINT
  8
3
  6
BYLAYER
 62
  256
 10
1125.228016206933
 20
978.9880987664029
  0
POINT
  8
3
  6
BYLAYER
 62
  256
 10
1129.952827322531
 20
973.7000442543101
  0
POINT
  8
3
  6
BYLAYER
 62
  256
 10
1134.489750486644
 20
968.161052877268
  0
POINT
  8
3
  6
BYLAYER
 62
  256
 10
1138.810939887981
 20
962.3617955013353
  0
POINT
  8
3
  6
BYLAYER
 62
  256
 10
1142.887220434512
 20
956.2942045808376
  0
POINT
  8
3
  6
BYLAYER
 62
  256
 10
1146.688214650425
 20
949.9519455483289
  0
POINT
  8
3
  6
BYLAYER
 62
  256
 10
1150.182629507134
 20
943.3308763096369
  0
POINT
  8
3
  6
BYLAYER
 62
  256
 10
1153.338718438089
 20
936.4294272890436
  0
POINT
  8
3
  6
BYLAYER
 62
  256
 10
1156.124905296938
 20
929.2488229086396
  0
POINT
  8
3
  6
BYLAYER
 62
  256
 10
1158.510520032344
 20
921.7930695588723
  0
POINT
  8
3
  6
BYLAYER
 62
  256
 10
1160.466559159579
 20
914.0686605197737
  0
POINT
  8
3
  6
BYLAYER
 62
  256
 10
1161.966360212671
 20
906.0839940710013
  0
POINT
  8
3
  6
BYLAYER
 62
  256
 10
1162.986079809384
 20
897.8485576648341
  0
POLYLINE
  8
84
  6
BYLAYER
 62
  256
 66
    1
 10
0
 20
0
 30
0
 70
    1
  0
VERTEX
  8
84
  6
BYLAYER
 62
  256
 10
1007.052555145417
 20
1058.252118476758
 30
0
  0
VERTEX
  8
84
  6
BYLAYER
 62
  256
 10
1041.106672068825
 20
1038.910548946623
 30
0
  0
VERTEX
  8
84
  6
BYLAYER
 62
  256
 10
1060.07485018456
 20
1028.137274845561
 30
0
  0
VERTEX
  8
84
  6
BYLAYER
 62
  256
 10
1075.615148186309
 20
1018.729202280185
 30
0
  0
VERTEX
  8
84
  6
BYLAYER
 62
  256
 10
1086.325468096927
 20
1011.714233114347
 30
0
  0
VERTEX
  8
84
  6
BYLAYER
 62
  256
 10
1097.037422327578
 20
1004.064621744145
 30
0
  0
VERTEX
  8
84
  6
BYLAYER
 62
  256
 10
1107.573742798596
 20
995.7158327149451
 30
0
  0
VERTEX
  8
84
  6
BYLAYER
 62
  256
 10
1115.28005565435
 20
988.8903700840835
 30
0
  0
VERTEX
  8
84
  6
BYLAYER
 62
  256
 10
1120.341834916963
 20
984.0353719581574
 30
0
  0
VERTEX
  8
84
  6
BYLAYER
 62
  256
 10
1125.228016206933
 20
978.9880987664029
 30
0
  0
VERTEX
  8
84
  6
BYLAYER
 62
  256
 10
1129.952827322531
 20
973.7000442543101
 30
0
  0
VERTEX
  8
84
  6
BYLAYER
 62
  256
 10
1134.489750486644
 20
968.161052877268
 30
0
  0
VERTEX
  8
84
  6
BYLAYER
 62
  256
 10
1138.810939887981
 20
962.3617955013353
 30
0
  0
VERTEX
  8
84
  6
BYLAYER
 62
  256
 10
1142.887220434512
 20
956.2942045808376
 30
0
  0
VERTEX
  8
84
  6
BYLAYER
 62
  256
 10
1146.688214650425
 20
949.9519455483289
 30
0
  0
VERTEX
  8
84
  6
BYLAYER
 62
  256
 10
1150.182629507134
 20
943.3308763096369
 30
0
  0
VERTEX
  8
84
  6
BYLAYER
 62
  256
 10
1153.338718438089
 20
936.4294272890436
 30
0
  0
VERTEX
  8
84
  6
BYLAYER
 62
  256
 10
1156.124905296938
 20
929.2488229086396
 30
0
  0
VERTEX
  8
84
  6
BYLAYER
 62
  256
 10
1158.510520032344
 20
921.7930695588723
 30
0
  0
VERTEX
  8
84
  6
BYLAYER
 62
  256
 10
1160.466559159579
 20
914.0686605197737
 30
0
  0
VERTEX
  8
84
  6
BYLAYER
 62
  256
 10
1161.966360212671
 20
906.0839940710013
 30
0
  0
VERTEX
  8
84
  6
BYLAYER
 62
  256
 10
1162.986079809384
 20
897.8485576648341
 30
0
  0
VERTEX
  8
84
  6
BYLAYER
 62
  256
 10
1163.50476848813
 20
889.3740382442477
 30
0
  0
VERTEX
  8
84
  6
BYLAYER
 62
  256
 10
1163.546822926232
 20
685.0318666666667
 30
0
  0
VERTEX
  8
84
  6
BYLAYER
 62
  256
 10
983.5427064225009
 20
685.0318666666667
 30
0
  0
VERTEX
  8
84
  6
BYLAYER
 62
  256
 10
983.5427064225009
 20
888.9812076717636
 30
0
  0
VERTEX
  8
84
  6
BYLAYER
 62
  256
 10
1007.052555145417
 20
1058.252118476758
 30
0
  0
SEQEND
  8
84
  6
BYLAYER
 62
  256
  0
POLYLINE
  8
14
  6
BYLAYER
 62
  256
 66
    1
 10
0
 20
0
 30
0
 70
    1
  0
VERTEX
  8
14
  6
BYLAYER
 62
  256
 10
1022.802278400957
 20
1026.267871153559
 30
0
  0
VERTEX
  8
14
  6
BYLAYER
 62
  256
 10
1049.972600345314
 20
1010.87362075044
 30
0
  0
VERTEX
  8
14
  6
BYLAYER
 62
  256
 10
1064.953824035646
 20
1001.804010915358
 30
0
  0
VERTEX
  8
14
  6
BYLAYER
 62
  256
 10
1075.030309182949
 20
995.2041863351153
 30
0
  0
VERTEX
  8
14
  6
BYLAYER
 62
  256
 10
1085.007964914493
 20
988.0789515657594
 30
0
  0
VERTEX
  8
14
  6
BYLAYER
 62
  256
 10
1094.723348292568
 20
980.3806581829359
 30
0
  0
VERTEX
  8
14
  6
BYLAYER
 62
  256
 10
1101.722314155245
 20
974.1816910705762
 30
0
  0
VERTEX
  8
14
  6
BYLAYER
 62
  256
 10
1106.230073825081
 20
969.8580800212311
 30
0
  0
VERTEX
  8
14
  6
BYLAYER
 62
  256
 10
1110.580328754089
 20
965.3644020798192
 30
0
  0
VERTEX
  8
14
  6
BYLAYER
 62
  256
 10
1114.752648575055
 20
960.6947011932966
 30
0
  0
VERTEX
  8
14
  6
BYLAYER
 62
  256
 10
1118.726602920767
 20
955.8430213086187
 30
0
  0
VERTEX
  8
14
  6
BYLAYER
 62
  256
 10
1122.481761424011
 20
950.8034063727414
 30
0
  0
VERTEX
  8
14
  6
BYLAYER
 62
  256
 10
1125.997693717573
 20
945.5699003326199
 30
0
  0
VERTEX
  8
14
  6
BYLAYER
 62
  256
 10
1129.253969434239
 20
940.1365471352101
 30
0
  0
VERTEX
  8
14
  6
BYLAYER
 62
  256
 10
1132.230158206796
 20
934.497390727468
 30
0
  0
VERTEX
  8
14
  6
BYLAYER
 62
  256
 10
1134.905829668032
 20
928.6464750563485
 30
0
  0
VERTEX
  8
14
  6
BYLAYER
 62
  256
 10
1137.260553450731
 20
922.577844068808
 30
0
  0
VERTEX
  8
14
  6
BYLAYER
 62
  256
 10
1139.273899187681
 20
916.2855417118016
 30
0
  0
VERTEX
  8
14
  6
BYLAYER
 62
  256
 10
1140.925436511668
 20
909.7636119322854
 30
0
  0
VERTEX
  8
14
  6
BYLAYER
 62
  256
 10
1142.194735055479
 20
903.0060986772146
 30
0
  0
VERTEX
  8
14
  6
BYLAYER
 62
  256
 10
1143.061364451899
 20
896.0070458935452
 30
0
  0
VERTEX
  8
14
  6
BYLAYER
 62
  256
 10
1143.504894333716
 20
888.7604975282326
 30
0
  0
VERTEX
  8
14
  6
BYLAYER
 62
  256
 10
1143.542706422501
 20
705.0318666666667
 30
0
  0
VERTEX
  8
14
  6
BYLAYER
 62
  256
 10
1003.542706422501
 20
705.0318666666667
 30
0
  0
VERTEX
  8
14
  6
BYLAYER
 62
  256
 10
1003.542706422501
 20
887.5989529086738
 30
0
  0
VERTEX
  8
14
  6
BYLAYER
 62
  256
 10
1022.802278400957
 20
1026.267871153559
 30
0
  0
SEQEND
  8
14
  6
BYLAYER
 62
  256
  0
POINT
  8
2
  6
BYLAYER
 62
  256
 10
1022.802278400957
 20
1026.267871153559
  0
POINT
  8
2
  6
BYLAYER
 62
  256
 10
1143.504894333716
 20
888.7604975282326
  0
POINT
  8
2
  6
BYLAYER
 62
  256
 10
1143.542706422501
 20
705.0318666666667
  0
POINT
  8
2
  6
BYLAYER
 62
  256
 10
1003.542706422501
 20
705.0318666666667
  0
POINT
  8
2
  6
BYLAYER
 62
  256
 10
1003.542706422501
 20
887.5989529086738
  0
POINT
  8
2
  6
BYLAYER
 62
  256
 10
1022.802278400957
 20
1026.267871153559
  0
POINT
  8
3
  6
BYLAYER
 62
  256
 10
1049.972600345314
 20
1010.87362075044
  0
POINT
  8
3
  6
BYLAYER
 62
  256
 10
1064.953824035646
 20
1001.804010915358
  0
POINT
  8
3
  6
BYLAYER
 62
  256
 10
1075.030309182949
 20
995.2041863351153
  0
POINT
  8
3
  6
BYLAYER
 62
  256
 10
1085.007964914493
 20
988.0789515657594
  0
POINT
  8
3
  6
BYLAYER
 62
  256
 10
1094.723348292568
 20
980.3806581829359
  0
POINT
  8
3
  6
BYLAYER
 62
  256
 10
1101.722314155245
 20
974.1816910705762
  0
POINT
  8
3
  6
BYLAYER
 62
  256
 10
1106.230073825081
 20
969.8580800212311
  0
POINT
  8
3
  6
BYLAYER
 62
  256
 10
1110.580328754089
 20
965.3644020798192
  0
POINT
  8
3
  6
BYLAYER
 62
  256
 10
1114.752648575055
 20
960.6947011932966
  0
POINT
  8
3
  6
BYLAYER
 62
  256
 10
1118.726602920767
 20
955.8430213086187
  0
POINT
  8
3
  6
BYLAYER
 62
  256
 10
1122.481761424011
 20
950.8034063727414
  0
POINT
  8
3
  6
BYLAYER
 62
  256
 10
1125.997693717573
 20
945.5699003326199
  0
POINT
  8
3
  6
BYLAYER
 62
  256
 10
1129.253969434239
 20
940.1365471352101
  0
POINT
  8
3
  6
BYLAYER
 62
  256
 10
1132.230158206796
 20
934.497390727468
  0
POINT
  8
3
  6
BYLAYER
 62
  256
 10
1134.905829668032
 20
928.6464750563485
  0
POINT
  8
3
  6
BYLAYER
 62
  256
 10
1137.260553450731
 20
922.577844068808
  0
POINT
  8
3
  6
BYLAYER
 62
  256
 10
1139.273899187681
 20
916.2855417118016
  0
POINT
  8
3
  6
BYLAYER
 62
  256
 10
1140.925436511668
 20
909.7636119322854
  0
POINT
  8
3
  6
BYLAYER
 62
  256
 10
1142.194735055479
 20
903.0060986772146
  0
POINT
  8
3
  6
BYLAYER
 62
  256
 10
1143.061364451899
 20
896.0070458935452
  0
POLYLINE
  8
87
  6
BYLAYER
 62
  256
 66
    1
 10
0
 20
0
 30
0
 70
    1
  0
VERTEX
  8
87
  6
BYLAYER
 62
  256
 10
1022.802278400957
 20
1026.267871153559
 30
0
  0
VERTEX
  8
87
  6
BYLAYER
 62
  256
 10
1049.972600345314
 20
1010.87362075044
 30
0
  0
VERTEX
  8
87
  6
BYLAYER
 62
  256
 10
1064.953824035646
 20
1001.804010915358
 30
0
  0
VERTEX
  8
87
  6
BYLAYER
 62
  256
 10
1075.030309182949
 20
995.2041863351153
 30
0
  0
VERTEX
  8
87
  6
BYLAYER
 62
  256
 10
1085.007964914493
 20
988.0789515657594
 30
0
  0
VERTEX
  8
87
  6
BYLAYER
 62
  256
 10
1094.723348292568
 20
980.3806581829359
 30
0
  0
VERTEX
  8
87
  6
BYLAYER
 62
  256
 10
1101.722314155245
 20
974.1816910705762
 30
0
  0
VERTEX
  8
87
  6
BYLAYER
 62
  256
 10
1106.230073825081
 20
969.8580800212311
 30
0
  0
VERTEX
  8
87
  6
BYLAYER
 62
  256
 10
1110.580328754089
 20
965.3644020798192
 30
0
  0
VERTEX
  8
87
  6
BYLAYER
 62
  256
 10
1114.752648575055
 20
960.6947011932966
 30
0
  0
VERTEX
  8
87
  6
BYLAYER
 62
  256
 10
1118.726602920767
 20
955.8430213086187
 30
0
  0
VERTEX
  8
87
  6
BYLAYER
 62
  256
 10
1122.481761424011
 20
950.8034063727414
 30
0
  0
VERTEX
  8
87
  6
BYLAYER
 62
  256
 10
1125.997693717573
 20
945.5699003326199
 30
0
  0
VERTEX
  8
87
  6
BYLAYER
 62
  256
 10
1129.253969434239
 20
940.1365471352101
 30
0
  0
VERTEX
  8
87
  6
BYLAYER
 62
  256
 10
1132.230158206796
 20
934.497390727468
 30
0
  0
VERTEX
  8
87
  6
BYLAYER
 62
  256
 10
1134.905829668032
 20
928.6464750563485
 30
0
  0
VERTEX
  8
87
  6
BYLAYER
 62
  256
 10
1137.260553450731
 20
922.577844068808
 30
0
  0
VERTEX
  8
87
  6
BYLAYER
 62
  256
 10
1139.273899187681
 20
916.2855417118016
 30
0
  0
VERTEX
  8
87
  6
BYLAYER
 62
  256
 10
1140.925436511668
 20
909.7636119322854
 30
0
  0
VERTEX
  8
87
  6
BYLAYER
 62
  256
 10
1142.194735055479
 20
903.0060986772146
 30
0
  0
VERTEX
  8
87
  6
BYLAYER
 62
  256
 10
1143.061364451899
 20
896.0070458935452
 30
0
  0
VERTEX
  8
87
  6
BYLAYER
 62
  256
 10
1143.504894333716
 20
888.7604975282326
 30
0
  0
VERTEX
  8
87
  6
BYLAYER
 62
  256
 10
1143.542706422501
 20
705.0318666666667
 30
0
  0
VERTEX
  8
87
  6
BYLAYER
 62
  256
 10
1003.542706422501
 20
705.0318666666667
 30
0
  0
VERTEX
  8
87
  6
BYLAYER
 62
  256
 10
1003.542706422501
 20
887.5989529086738
 30
0
  0
VERTEX
  8
87
  6
BYLAYER
 62
  256
 10
1022.802278400957
 20
1026.267871153559
 30
0
  0
SEQEND
  8
87
  6
BYLAYER
 62
  256
  0
POINT
  8
4
  6
BYLAYER
 62
  256
 10
1007.052555145417
 20
1058.252118476758
 30
10
 50
296.2166151640306
 39
11.47152872702096
  0
ATTDEF
  8
1
  6
BYLAYER
 62
  256
 10
1007.052555145417
 20
1058.252118476758
 11
1007.052555145417
 21
1058.252118476758
 40
3
  1
Link:4
  2
Dependency
  3

 70
    2
 73
    3
  0
POINT
  8
4
  6
BYLAYER
 62
  256
 10
983.5427064225009
 20
888.9812076717636
 30
9.999999999999993
 50
356.0464186485212
 39
11.4715287270209
  0
ATTDEF
  8
1
  6
BYLAYER
 62
  256
 10
983.5427064225009
 20
685.0318666666667
 11
983.5427064225009
 21
888.9812076717636
 40
3
  1
Link:4
  2
Dependency
  3

 70
    2
 73
    3
  0
TEXT
  8
1
  6
BYLAYER
 62
  256
 10
1117.287498084932
 20
853.2798333333333
 40
2.116666666666666
  1
D
 50
-0
 41
1
 51
0
  7
YU GOTHIC UI_BOLD
 71
    0
210
0
220
0
230
1
  0
TEXT
  8
1
  6
BYLAYER
 62
  256
 10
1115.038539751599
 20
850.1923333333332
 40
1.322916666666667
  1
pocket
 50
-0
 41
1
 51
0
  7
YU GOTHIC UI_BOLD
 71
    0
210
0
220
0
230
1
  0
TEXT
  8
1
  6
BYLAYER
 62
  256
 10
1113.715623084932
 20
847.3694166666667
 40
1.058333333333333
  1
Fabric, Cut 2
 50
-0
 41
1
 51
0
  7
YU GOTHIC UI
 71
    0
210
0
220
0
230
1
  0
TEXT
  8
15
  6
BYLAYER
 62
  256
 10
1073.544764674367
 20
874.1419925717124
 40
2.5
  1
pocket
 50
0
 41
1
 51
0
  7
STANDARD
 71
    0
210
0
220
0
230
1
  0
ENDBLK
  8
1
  0
BLOCK
  8
1
  2
FRONT_AND_SIDE
 70
    0
 10
0
 20
0
  3
FRONT_AND_SIDE
  1

  0
POLYLINE
  8
1
  6
BYLAYER
 62
  256
 66
    1
 10
0
 20
0
 30
0
 70
    1
  0
VERTEX
  8
1
  6
BYLAYER
 62
  256
 10
456.6991856162374
 20
1060.036645666667
 30
0
  0
VERTEX
  8
1
  6
BYLAYER
 62
  256
 10
556.6464960418009
 20
1060.036645666667
 30
0
  0
VERTEX
  8
1
  6
BYLAYER
 62
  256
 10
599.4050543333332
 20
925.892149065781
 30
0
  0
VERTEX
  8
1
  6
BYLAYER
 62
  256
 10
642.1636126248657
 20
1060.036645666667
 30
0
  0
VERTEX
  8
1
  6
BYLAYER
 62
  256
 10
739.3131627084676
 20
1060.036645666667
 30
0
  0
VERTEX
  8
1
  6
BYLAYER
 62
  256
 10
782.071721
 20
925.892149065781
 30
0
  0
VERTEX
  8
1
  6
BYLAYER
 62
  256
 10
824.8302792915324
 20
1060.036645666667
 30
0
  0
VERTEX
  8
1
  6
BYLAYER
 62
  256
 10
925.3633876666665
 20
1060.036645666667
 30
0
  0
VERTEX
  8
1
  6
BYLAYER
 62
  256
 10
926.3633876666667
 20
1050.56296145614
 30
0
  0
VERTEX
  8
1
  6
BYLAYER
 62
  256
 10
927.7449362582033
 20
1063.651316533857
 30
0
  0
VERTEX
  8
1
  6
BYLAYER
 62
  256
 10
952.1820294750174
 20
1059.112196796404
 30
0
  0
VERTEX
  8
1
  6
BYLAYER
 62
  256
 10
958.2859803466583
 20
1057.695834097269
 30
0
  0
VERTEX
  8
1
  6
BYLAYER
 62
  256
 10
966.6670439901155
 20
1055.225269007907
 30
0
  0
VERTEX
  8
1
  6
BYLAYER
 62
  256
 10
980.0975971587796
 20
1050.022187062601
 30
0
  0
VERTEX
  8
1
  6
BYLAYER
 62
  256
 10
991.841261919186
 20
1045.272007674606
 30
0
  0
VERTEX
  8
1
  6
BYLAYER
 62
  256
 10
997.372221430633
 20
1043.467204880298
 30
0
  0
VERTEX
  8
1
  6
BYLAYER
 62
  256
 10
1001.16332306291
 20
1042.456513001417
 30
0
  0
VERTEX
  8
1
  6
BYLAYER
 62
  256
 10
1005.331068621383
 20
1041.576140058239
 30
0
  0
VERTEX
  8
1
  6
BYLAYER
 62
  256
 10
1009.932401537117
 20
1040.862793026892
 30
0
  0
VERTEX
  8
1
  6
BYLAYER
 62
  256
 10
1015.085279207809
 20
1040.277023348833
 30
0
  0
VERTEX
  8
1
  6
BYLAYER
 62
  256
 10
1021.220833620234
 20
1040.059904335141
 30
0
  0
VERTEX
  8
1
  6
BYLAYER
 62
  256
 10
1183.724467787183
 20
0.03664566666662759
 30
0
  0
VERTEX
  8
1
  6
BYLAYER
 62
  256
 10
309.4769633940153
 20
0.03664566666662759
 30
0
  0
VERTEX
  8
1
  6
BYLAYER
 62
  256
 10
456.6991856162374
 20
1060.036645666667
 30
0
  0
SEQEND
  8
1
  6
BYLAYER
 62
  256
  0
POINT
  8
2
  6
BYLAYER
 62
  256
 10
456.6991856162374
 20
1060.036645666667
  0
POINT
  8
2
  6
BYLAYER
 62
  256
 10
556.6464960418009
 20
1060.036645666667
  0
POINT
  8
2
  6
BYLAYER
 62
  256
 10
599.4050543333332
 20
925.892149065781
  0
POINT
  8
2
  6
BYLAYER
 62
  256
 10
642.1636126248657
 20
1060.036645666667
  0
POINT
  8
2
  6
BYLAYER
 62
  256
 10
739.3131627084676
 20
1060.036645666667
  0
POINT
  8
2
  6
BYLAYER
 62
  256
 10
782.071721
 20
925.892149065781
  0
POINT
  8
2
  6
BYLAYER
 62
  256
 10
824.8302792915324
 20
1060.036645666667
  0
POINT
  8
2
  6
BYLAYER
 62
  256
 10
925.3633876666665
 20
1060.036645666667
  0
POINT
  8
2
  6
BYLAYER
 62
  256
 10
926.3633876666667
 20
1050.56296145614
  0
POINT
  8
2
  6
BYLAYER
 62
  256
 10
927.7449362582033
 20
1063.651316533857
  0
POINT
  8
2
  6
BYLAYER
 62
  256
 10
1021.220833620234
 20
1040.059904335141
  0
POINT
  8
2
  6
BYLAYER
 62
  256
 10
1183.724467787183
 20
0.03664566666662759
  0
POINT
  8
2
  6
BYLAYER
 62
  256
 10
309.4769633940153
 20
0.03664566666662759
  0
POINT
  8
2
  6
BYLAYER
 62
  256
 10
456.6991856162374
 20
1060.036645666667
  0
POINT
  8
3
  6
BYLAYER
 62
  256
 10
952.1820294750174
 20
1059.112196796404
  0
POINT
  8
3
  6
BYLAYER
 62
  256
 10
958.2859803466583
 20
1057.695834097269
  0
POINT
  8
3
  6
BYLAYER
 62
  256
 10
966.6670439901155
 20
1055.225269007907
  0
POINT
  8
3
  6
BYLAYER
 62
  256
 10
980.0975971587796
 20
1050.022187062601
  0
POINT
  8
3
  6
BYLAYER
 62
  256
 10
991.841261919186
 20
1045.272007674606
  0
POINT
  8
3
  6
BYLAYER
 62
  256
 10
997.372221430633
 20
1043.467204880298
  0
POINT
  8
3
  6
BYLAYER
 62
  256
 10
1001.16332306291
 20
1042.456513001417
  0
POINT
  8
3
  6
BYLAYER
 62
  256
 10
1005.331068621383
 20
1041.576140058239
  0
POINT
  8
3
  6
BYLAYER
 62
  256
 10
1009.932401537117
 20
1040.862793026892
  0
POINT
  8
3
  6
BYLAYER
 62
  256
 10
1015.085279207809
 20
1040.277023348833
  0
POLYLINE
  8
84
  6
BYLAYER
 62
  256
 66
    1
 10
0
 20
0
 30
0
 70
    1
  0
VERTEX
  8
84
  6
BYLAYER
 62
  256
 10
456.6991856162374
 20
1060.036645666667
 30
0
  0
VERTEX
  8
84
  6
BYLAYER
 62
  256
 10
556.6464960418009
 20
1060.036645666667
 30
0
  0
VERTEX
  8
84
  6
BYLAYER
 62
  256
 10
599.4050543333332
 20
925.892149065781
 30
0
  0
VERTEX
  8
84
  6
BYLAYER
 62
  256
 10
642.1636126248657
 20
1060.036645666667
 30
0
  0
VERTEX
  8
84
  6
BYLAYER
 62
  256
 10
739.3131627084676
 20
1060.036645666667
 30
0
  0
VERTEX
  8
84
  6
BYLAYER
 62
  256
 10
782.071721
 20
925.892149065781
 30
0
  0
VERTEX
  8
84
  6
BYLAYER
 62
  256
 10
824.8302792915324
 20
1060.036645666667
 30
0
  0
VERTEX
  8
84
  6
BYLAYER
 62
  256
 10
925.3633876666665
 20
1060.036645666667
 30
0
  0
VERTEX
  8
84
  6
BYLAYER
 62
  256
 10
926.3633876666667
 20
1050.56296145614
 30
0
  0
VERTEX
  8
84
  6
BYLAYER
 62
  256
 10
927.7449362582033
 20
1063.651316533857
 30
0
  0
VERTEX
  8
84
  6
BYLAYER
 62
  256
 10
952.1820294750174
 20
1059.112196796404
 30
0
  0
VERTEX
  8
84
  6
BYLAYER
 62
  256
 10
958.2859803466583
 20
1057.695834097269
 30
0
  0
VERTEX
  8
84
  6
BYLAYER
 62
  256
 10
966.6670439901155
 20
1055.225269007907
 30
0
  0
VERTEX
  8
84
  6
BYLAYER
 62
  256
 10
980.0975971587796
 20
1050.022187062601
 30
0
  0
VERTEX
  8
84
  6
BYLAYER
 62
  256
 10
991.841261919186
 20
1045.272007674606
 30
0
  0
VERTEX
  8
84
  6
BYLAYER
 62
  256
 10
997.372221430633
 20
1043.467204880298
 30
0
  0
VERTEX
  8
84
  6
BYLAYER
 62
  256
 10
1001.16332306291
 20
1042.456513001417
 30
0
  0
VERTEX
  8
84
  6
BYLAYER
 62
  256
 10
1005.331068621383
 20
1041.576140058239
 30
0
  0
VERTEX
  8
84
  6
BYLAYER
 62
  256
 10
1009.932401537117
 20
1040.862793026892
 30
0
  0
VERTEX
  8
84
  6
BYLAYER
 62
  256
 10
1015.085279207809
 20
1040.277023348833
 30
0
  0
VERTEX
  8
84
  6
BYLAYER
 62
  256
 10
1021.220833620234
 20
1040.059904335141
 30
0
  0
VERTEX
  8
84
  6
BYLAYER
 62
  256
 10
1183.724467787183
 20
0.03664566666662759
 30
0
  0
VERTEX
  8
84
  6
BYLAYER
 62
  256
 10
309.4769633940153
 20
0.03664566666662759
 30
0
  0
VERTEX
  8
84
  6
BYLAYER
 62
  256
 10
456.6991856162374
 20
1060.036645666667
 30
0
  0
SEQEND
  8
84
  6
BYLAYER
 62
  256
  0
POLYLINE
  8
14
  6
BYLAYER
 62
  256
 66
    1
 10
0
 20
0
 30
0
 70
    1
  0
VERTEX
  8
14
  6
BYLAYER
 62
  256
 10
474.1133876666665
 20
1040.036645666667
 30
0
  0
VERTEX
  8
14
  6
BYLAYER
 62
  256
 10
542.0300543333333
 20
1040.036645666667
 30
0
  0
VERTEX
  8
14
  6
BYLAYER
 62
  256
 10
599.4050543333332
 20
860.0366456666667
 30
0
  0
VERTEX
  8
14
  6
BYLAYER
 62
  256
 10
656.7800543333334
 20
1040.036645666667
 30
0
  0
VERTEX
  8
14
  6
BYLAYER
 62
  256
 10
724.6967210000001
 20
1040.036645666667
 30
0
  0
VERTEX
  8
14
  6
BYLAYER
 62
  256
 10
782.071721
 20
860.0366456666667
 30
0
  0
VERTEX
  8
14
  6
BYLAYER
 62
  256
 10
839.446721
 20
1040.036645666667
 30
0
  0
VERTEX
  8
14
  6
BYLAYER
 62
  256
 10
907.3633876666667
 20
1040.036645666667
 30
0
  0
VERTEX
  8
14
  6
BYLAYER
 62
  256
 10
926.3633876666667
 20
860.0366456666667
 30
0
  0
VERTEX
  8
14
  6
BYLAYER
 62
  256
 10
945.3633876666667
 20
1040.036645666667
 30
0
  0
VERTEX
  8
14
  6
BYLAYER
 62
  256
 10
948.0934359072072
 20
1039.529547062799
 30
0
  0
VERTEX
  8
14
  6
BYLAYER
 62
  256
 10
953.1937474466029
 20
1038.346069153117
 30
0
  0
VERTEX
  8
14
  6
BYLAYER
 62
  256
 10
960.215998779832
 20
1036.276053970003
 30
0
  0
VERTEX
  8
14
  6
BYLAYER
 62
  256
 10
972.7349930591763
 20
1031.426115751507
 30
0
  0
VERTEX
  8
14
  6
BYLAYER
 62
  256
 10
984.9812443268244
 20
1026.472645813578
 30
0
  0
VERTEX
  8
14
  6
BYLAYER
 62
  256
 10
991.6898411966029
 20
1024.283569153117
 30
0
  0
VERTEX
  8
14
  6
BYLAYER
 62
  256
 10
996.5174097243022
 20
1022.996559524004
 30
0
  0
VERTEX
  8
14
  6
BYLAYER
 62
  256
 10
1001.729661720961
 20
1021.895550461309
 30
0
  0
VERTEX
  8
14
  6
BYLAYER
 62
  256
 10
1007.401498599328
 20
1021.016242644735
 30
0
  0
VERTEX
  8
14
  6
BYLAYER
 62
  256
 10
1013.607821772156
 20
1020.394336753983
 30
0
  0
VERTEX
  8
14
  6
BYLAYER
 62
  256
 10
1020.423532652195
 20
1020.065533468756
 30
0
  0
VERTEX
  8
14
  6
BYLAYER
 62
  256
 10
1024.113387666667
 20
1020.036645666667
 30
0
  0
VERTEX
  8
14
  6
BYLAYER
 62
  256
 10
1180.363387666666
 20
20.03664566666665
 30
0
  0
VERTEX
  8
14
  6
BYLAYER
 62
  256
 10
332.4467210000001
 20
20.03664566666665
 30
0
  0
VERTEX
  8
14
  6
BYLAYER
 62
  256
 10
474.1133876666665
 20
1040.036645666667
 30
0
  0
SEQEND
  8
14
  6
BYLAYER
 62
  256
  0
POINT
  8
2
  6
BYLAYER
 62
  256
 10
474.1133876666665
 20
1040.036645666667
  0
POINT
  8
2
  6
BYLAYER
 62
  256
 10
542.0300543333333
 20
1040.036645666667
  0
POINT
  8
2
  6
BYLAYER
 62
  256
 10
599.4050543333332
 20
860.0366456666667
  0
POINT
  8
2
  6
BYLAYER
 62
  256
 10
656.7800543333334
 20
1040.036645666667
  0
POINT
  8
2
  6
BYLAYER
 62
  256
 10
724.6967210000001
 20
1040.036645666667
  0
POINT
  8
2
  6
BYLAYER
 62
  256
 10
782.071721
 20
860.0366456666667
  0
POINT
  8
2
  6
BYLAYER
 62
  256
 10
839.446721
 20
1040.036645666667
  0
POINT
  8
2
  6
BYLAYER
 62
  256
 10
907.3633876666667
 20
1040.036645666667
  0
POINT
  8
2
  6
BYLAYER
 62
  256
 10
926.3633876666667
 20
860.0366456666667
  0
POINT
  8
2
  6
BYLAYER
 62
  256
 10
945.3633876666667
 20
1040.036645666667
  0
POINT
  8
2
  6
BYLAYER
 62
  256
 10
1024.113387666667
 20
1020.036645666667
  0
POINT
  8
2
  6
BYLAYER
 62
  256
 10
1180.363387666666
 20
20.03664566666665
  0
POINT
  8
2
  6
BYLAYER
 62
  256
 10
332.4467210000001
 20
20.03664566666665
  0
POINT
  8
2
  6
BYLAYER
 62
  256
 10
474.1133876666665
 20
1040.036645666667
  0
POINT
  8
3
  6
BYLAYER
 62
  256
 10
948.0934359072072
 20
1039.529547062799
  0
POINT
  8
3
  6
BYLAYER
 62
  256
 10
953.1937474466029
 20
1038.346069153117
  0
POINT
  8
3
  6
BYLAYER
 62
  256
 10
960.215998779832
 20
1036.276053970003
  0
POINT
  8
3
  6
BYLAYER
 62
  256
 10
972.7349930591763
 20
1031.426115751507
  0
POINT
  8
3
  6
BYLAYER
 62
  256
 10
984.9812443268244
 20
1026.472645813578
  0
POINT
  8
3
  6
BYLAYER
 62
  256
 10
991.6898411966029
 20
1024.283569153117
  0
POINT
  8
3
  6
BYLAYER
 62
  256
 10
996.5174097243022
 20
1022.996559524004
  0
POINT
  8
3
  6
BYLAYER
 62
  256
 10
1001.729661720961
 20
1021.895550461309
  0
POINT
  8
3
  6
BYLAYER
 62
  256
 10
1007.401498599328
 20
1021.016242644735
  0
POINT
  8
3
  6
BYLAYER
 62
  256
 10
1013.607821772156
 20
1020.394336753983
  0
POINT
  8
3
  6
BYLAYER
 62
  256
 10
1020.423532652195
 20
1020.065533468756
  0
POLYLINE
  8
87
  6
BYLAYER
 62
  256
 66
    1
 10
0
 20
0
 30
0
 70
    1
  0
VERTEX
  8
87
  6
BYLAYER
 62
  256
 10
474.1133876666665
 20
1040.036645666667
 30
0
  0
VERTEX
  8
87
  6
BYLAYER
 62
  256
 10
542.0300543333333
 20
1040.036645666667
 30
0
  0
VERTEX
  8
87
  6
BYLAYER
 62
  256
 10
599.4050543333332
 20
860.0366456666667
 30
0
  0
VERTEX
  8
87
  6
BYLAYER
 62
  256
 10
656.7800543333334
 20
1040.036645666667
 30
0
  0
VERTEX
  8
87
  6
BYLAYER
 62
  256
 10
724.6967210000001
 20
1040.036645666667
 30
0
  0
VERTEX
  8
87
  6
BYLAYER
 62
  256
 10
782.071721
 20
860.0366456666667
 30
0
  0
VERTEX
  8
87
  6
BYLAYER
 62
  256
 10
839.446721
 20
1040.036645666667
 30
0
  0
VERTEX
  8
87
  6
BYLAYER
 62
  256
 10
907.3633876666667
 20
1040.036645666667
 30
0
  0
VERTEX
  8
87
  6
BYLAYER
 62
  256
 10
926.3633876666667
 20
860.0366456666667
 30
0
  0
VERTEX
  8
87
  6
BYLAYER
 62
  256
 10
945.3633876666667
 20
1040.036645666667
 30
0
  0
VERTEX
  8
87
  6
BYLAYER
 62
  256
 10
948.0934359072072
 20
1039.529547062799
 30
0
  0
VERTEX
  8
87
  6
BYLAYER
 62
  256
 10
953.1937474466029
 20
1038.346069153117
 30
0
  0
VERTEX
  8
87
  6
BYLAYER
 62
  256
 10
960.215998779832
 20
1036.276053970003
 30
0
  0
VERTEX
  8
87
  6
BYLAYER
 62
  256
 10
972.7349930591763
 20
1031.426115751507
 30
0
  0
VERTEX
  8
87
  6
BYLAYER
 62
  256
 10
984.9812443268244
 20
1026.472645813578
 30
0
  0
VERTEX
  8
87
  6
BYLAYER
 62
  256
 10
991.6898411966029
 20
1024.283569153117
 30
0
  0
VERTEX
  8
87
  6
BYLAYER
 62
  256
 10
996.5174097243022
 20
1022.996559524004
 30
0
  0
VERTEX
  8
87
  6
BYLAYER
 62
  256
 10
1001.729661720961
 20
1021.895550461309
 30
0
  0
VERTEX
  8
87
  6
BYLAYER
 62
  256
 10
1007.401498599328
 20
1021.016242644735
 30
0
  0
VERTEX
  8
87
  6
BYLAYER
 62
  256
 10
1013.607821772156
 20
1020.394336753983
 30
0
  0
VERTEX
  8
87
  6
BYLAYER
 62
  256
 10
1020.423532652195
 20
1020.065533468756
 30
0
  0
VERTEX
  8
87
  6
BYLAYER
 62
  256
 10
1024.113387666667
 20
1020.036645666667
 30
0
  0
VERTEX
  8
87
  6
BYLAYER
 62
  256
 10
1180.363387666666
 20
20.03664566666665
 30
0
  0
VERTEX
  8
87
  6
BYLAYER
 62
  256
 10
332.4467210000001
 20
20.03664566666665
 30
0
  0
VERTEX
  8
87
  6
BYLAYER
 62
  256
 10
474.1133876666665
 20
1040.036645666667
 30
0
  0
SEQEND
  8
87
  6
BYLAYER
 62
  256
  0
POLYLINE
  8
8
  6
DASHDOT2
 62
  256
 66
    1
 10
0
 20
0
 30
0
 70
    0
  0
VERTEX
  8
8
  6
DASHDOT2
 62
  256
 10
782.071721
 20
860.0366456666667
 30
0
  0
VERTEX
  8
8
  6
DASHDOT2
 62
  256
 10
782.071721
 20
20.03664566666665
 30
0
  0
SEQEND
  8
8
  6
DASHDOT2
 62
  256
  0
POINT
  8
2
  6
BYLAYER
 62
  256
 10
782.071721
 20
860.0366456666667
  0
POINT
  8
2
  6
BYLAYER
 62
  256
 10
782.071721
 20
20.03664566666665
  0
POLYLINE
  8
85
  6
BYLAYER
 62
  256
 66
    1
 10
0
 20
0
 30
0
 70
    0
  0
VERTEX
  8
85
  6
BYLAYER
 62
  256
 10
782.071721
 20
860.0366456666667
 30
0
  0
VERTEX
  8
85
  6
BYLAYER
 62
  256
 10
782.071721
 20
20.03664566666665
 30
0
  0
SEQEND
  8
85
  6
BYLAYER
 62
  256
  0
POINT
  8
4
  6
BYLAYER
 62
  256
 10
417.1600819589459
 20
775.3550993341677
 30
10.00000000000004
 50
352.0928372970421
 39
11.47152872702105
  0
ATTDEF
  8
1
  6
BYLAYER
 62
  256
 10
309.4769633940153
 20
0.03664566666662759
 11
417.1600819589459
 21
775.3550993341677
 40
3
  1
Link:4
  2
Dependency
  3

 70
    2
 73
    3
  0
POINT
  8
4
  6
BYLAYER
 62
  256
 10
419.9114493844397
 20
795.1649447977227
 30
9.999999999999948
 50
352.0928372970411
  0
ATTDEF
  8
1
  6
BYLAYER
 62
  256
 10
309.4769633940153
 20
0.03664566666662759
 11
419.9114493844397
 21
795.1649447977227
 40
3
  1
Link:4
  2
Dependency
  3

 70
    2
 73
    3
  0
POINT
  8
4
  6
BYLAYER
 62
  256
 10
436.4196539374021
 20
914.0240175790526
 30
10.00000000000006
 50
352.0928372970416
 39
11.47152872702099
  0
ATTDEF
  8
1
  6
BYLAYER
 62
  256
 10
309.4769633940153
 20
0.03664566666662759
 11
436.4196539374021
 21
914.0240175790526
 40
3
  1
Link:4
  2
Dependency
  3

 70
    2
 73
    3
  0
LINE
  8
7
  6
BYLAYER
 62
  256
 10
1180.363387666666
 20
20.03664566666665
 11
1024.113387666667
 21
1020.036645666667
  0
TEXT
  8
1
  6
BYLAYER
 62
  256
 10
862.1417064166667
 20
770.3362373333333
 40
2.116666666666666
  1
A
 50
-0
 41
1
 51
0
  7
YU GOTHIC UI_BOLD
 71
    0
210
0
220
0
230
1
  0
TEXT
  8
1
  6
BYLAYER
 62
  256
 10
855.5271230833332
 20
767.2487373333333
 40
1.322916666666667
  1
front_and_side
 50
-0
 41
1
 51
0
  7
YU GOTHIC UI_BOLD
 71
    0
210
0
220
0
230
1
  0
TEXT
  8
1
  6
BYLAYER
 62
  256
 10
855.26253975
 20
764.4258206666667
 40
1.058333333333333
  1
Fabric, Cut 1 on fold
 50
-0
 41
1
 51
0
  7
YU GOTHIC UI
 71
    0
210
0
220
0
230
1
  0
TEXT
  8
1
  6
BYLAYER
 62
  256
 10
846.13441475
 20
761.602904
 40
1.058333333333333
  1
Some or all darts can be changed to pleats
 50
-0
 41
1
 51
0
  7
YU GOTHIC UI
 71
    0
210
0
220
0
230
1
  0
TEXT
  8
15
  6
BYLAYER
 62
  256
 10
746.6007155905993
 20
534.3439811002617
 40
2.5
  1
front_and_side
 50
0
 41
1
 51
0
  7
STANDARD
 71
    0
210
0
220
0
230
1
  0
ENDBLK
  8
1
  0
BLOCK
  8
1
  2
FACING
 70
    0
 10
0
 20
0
  3
FACING
  1

  0
POLYLINE
  8
1
  6
BYLAYER
 62
  256
 66
    1
 10
0
 20
0
 30
0
 70
    1
  0
VERTEX
  8
1
  6
BYLAYER
 62
  256
 10
396.8775656414521
 20
1069.168466666667
 30
0
  0
VERTEX
  8
1
  6
BYLAYER
 62
  256
 10
452.1655353837625
 20
1069.168466666667
 30
0
  0
VERTEX
  8
1
  6
BYLAYER
 62
  256
 10
414.9700721012352
 20
801.3611310324711
 30
0
  0
VERTEX
  8
1
  6
BYLAYER
 62
  256
 10
393.9228261275099
 20
801.5671349792622
 30
0
  0
VERTEX
  8
1
  6
BYLAYER
 62
  256
 10
389.3015227840978
 20
801.8634242513326
 30
0
  0
VERTEX
  8
1
  6
BYLAYER
 62
  256
 10
384.4331272958103
 20
802.560245804618
 30
0
  0
VERTEX
  8
1
  6
BYLAYER
 62
  256
 10
379.4601397441211
 20
803.7983666918554
 30
0
  0
VERTEX
  8
1
  6
BYLAYER
 62
  256
 10
374.5524043415293
 20
805.7799840044934
 30
0
  0
VERTEX
  8
1
  6
BYLAYER
 62
  256
 10
370.9796303777011
 20
808.0326733363455
 30
0
  0
VERTEX
  8
1
  6
BYLAYER
 62
  256
 10
368.5950006418458
 20
810.0842932642664
 30
0
  0
VERTEX
  8
1
  6
BYLAYER
 62
  256
 10
366.4994177785452
 20
812.5211365166451
 30
0
  0
VERTEX
  8
1
  6
BYLAYER
 62
  256
 10
364.7666260877058
 20
815.4080123377643
 30
0
  0
VERTEX
  8
1
  6
BYLAYER
 62
  256
 10
363.5484288235868
 20
818.6619356376771
 30
0
  0
VERTEX
  8
1
  6
BYLAYER
 62
  256
 10
362.9626237456197
 20
821.9916826624278
 30
0
  0
VERTEX
  8
1
  6
BYLAYER
 62
  256
 10
362.8927332719006
 20
824.4776736058959
 30
0
  0
VERTEX
  8
1
  6
BYLAYER
 62
  256
 10
396.8775656414521
 20
1069.168466666667
 30
0
  0
SEQEND
  8
1
  6
BYLAYER
 62
  256
  0
POINT
  8
2
  6
BYLAYER
 62
  256
 10
396.8775656414521
 20
1069.168466666667
  0
POINT
  8
2
  6
BYLAYER
 62
  256
 10
452.1655353837625
 20
1069.168466666667
  0
POINT
  8
2
  6
BYLAYER
 62
  256
 10
414.9700721012352
 20
801.3611310324711
  0
POINT
  8
2
  6
BYLAYER
 62
  256
 10
362.8927332719006
 20
824.4776736058959
  0
POINT
  8
2
  6
BYLAYER
 62
  256
 10
396.8775656414521
 20
1069.168466666667
  0
POINT
  8
3
  6
BYLAYER
 62
  256
 10
393.9228261275099
 20
801.5671349792622
  0
POINT
  8
3
  6
BYLAYER
 62
  256
 10
389.3015227840978
 20
801.8634242513326
  0
POINT
  8
3
  6
BYLAYER
 62
  256
 10
384.4331272958103
 20
802.560245804618
  0
POINT
  8
3
  6
BYLAYER
 62
  256
 10
379.4601397441211
 20
803.7983666918554
  0
POINT
  8
3
  6
BYLAYER
 62
  256
 10
374.5524043415293
 20
805.7799840044934
  0
POINT
  8
3
  6
BYLAYER
 62
  256
 10
370.9796303777011
 20
808.0326733363455
  0
POINT
  8
3
  6
BYLAYER
 62
  256
 10
368.5950006418458
 20
810.0842932642664
  0
POINT
  8
3
  6
BYLAYER
 62
  256
 10
366.4994177785452
 20
812.5211365166451
  0
POINT
  8
3
  6
BYLAYER
 62
  256
 10
364.7666260877058
 20
815.4080123377643
  0
POINT
  8
3
  6
BYLAYER
 62
  256
 10
363.5484288235868
 20
818.6619356376771
  0
POINT
  8
3
  6
BYLAYER
 62
  256
 10
362.9626237456197
 20
821.9916826624278
  0
POLYLINE
  8
84
  6
BYLAYER
 62
  256
 66
    1
 10
0
 20
0
 30
0
 70
    1
  0
VERTEX
  8
84
  6
BYLAYER
 62
  256
 10
396.8775656414521
 20
1069.168466666667
 30
0
  0
VERTEX
  8
84
  6
BYLAYER
 62
  256
 10
452.1655353837625
 20
1069.168466666667
 30
0
  0
VERTEX
  8
84
  6
BYLAYER
 62
  256
 10
414.9700721012352
 20
801.3611310324711
 30
0
  0
VERTEX
  8
84
  6
BYLAYER
 62
  256
 10
393.9228261275099
 20
801.5671349792622
 30
0
  0
VERTEX
  8
84
  6
BYLAYER
 62
  256
 10
389.3015227840978
 20
801.8634242513326
 30
0
  0
VERTEX
  8
84
  6
BYLAYER
 62
  256
 10
384.4331272958103
 20
802.560245804618
 30
0
  0
VERTEX
  8
84
  6
BYLAYER
 62
  256
 10
379.4601397441211
 20
803.7983666918554
 30
0
  0
VERTEX
  8
84
  6
BYLAYER
 62
  256
 10
374.5524043415293
 20
805.7799840044934
 30
0
  0
VERTEX
  8
84
  6
BYLAYER
 62
  256
 10
370.9796303777011
 20
808.0326733363455
 30
0
  0
VERTEX
  8
84
  6
BYLAYER
 62
  256
 10
368.5950006418458
 20
810.0842932642664
 30
0
  0
VERTEX
  8
84
  6
BYLAYER
 62
  256
 10
366.4994177785452
 20
812.5211365166451
 30
0
  0
VERTEX
  8
84
  6
BYLAYER
 62
  256
 10
364.7666260877058
 20
815.4080123377643
 30
0
  0
VERTEX
  8
84
  6
BYLAYER
 62
  256
 10
363.5484288235868
 20
818.6619356376771
 30
0
  0
VERTEX
  8
84
  6
BYLAYER
 62
  256
 10
362.9626237456197
 20
821.9916826624278
 30
0
  0
VERTEX
  8
84
  6
BYLAYER
 62
  256
 10
362.8927332719006
 20
824.4776736058959
 30
0
  0
VERTEX
  8
84
  6
BYLAYER
 62
  256
 10
396.8775656414521
 20
1069.168466666667
 30
0
  0
SEQEND
  8
84
  6
BYLAYER
 62
  256
  0
POLYLINE
  8
14
  6
BYLAYER
 62
  256
 66
    1
 10
0
 20
0
 30
0
 70
    1
  0
VERTEX
  8
14
  6
BYLAYER
 62
  256
 10
405.5846666666666
 20
1059.168466666667
 30
0
  0
VERTEX
  8
14
  6
BYLAYER
 62
  256
 10
430.5846666666666
 20
1059.168466666667
 30
0
  0
VERTEX
  8
14
  6
BYLAYER
 62
  256
 10
396.1925738479948
 20
811.5453983722289
 30
0
  0
VERTEX
  8
14
  6
BYLAYER
 62
  256
 10
394.291945759252
 20
811.5640011332814
 30
0
  0
VERTEX
  8
14
  6
BYLAYER
 62
  256
 10
390.3314445774536
 20
811.8179238743327
 30
0
  0
VERTEX
  8
14
  6
BYLAYER
 62
  256
 10
386.354513980085
 20
812.387148573278
 30
0
  0
VERTEX
  8
14
  6
BYLAYER
 62
  256
 10
382.555225733374
 20
813.3330544469596
 30
0
  0
VERTEX
  8
14
  6
BYLAYER
 62
  256
 10
379.127651603549
 20
814.7170207122198
 30
0
  0
VERTEX
  8
14
  6
BYLAYER
 62
  256
 10
376.9398840581267
 20
816.0964420414284
 30
0
  0
VERTEX
  8
14
  6
BYLAYER
 62
  256
 10
375.6868248617175
 20
817.1745134835326
 30
0
  0
VERTEX
  8
14
  6
BYLAYER
 62
  256
 10
374.6358595630332
 20
818.396625833005
 30
0
  0
VERTEX
  8
14
  6
BYLAYER
 62
  256
 10
373.811247132852
 20
819.7704514919516
 30
0
  0
VERTEX
  8
14
  6
BYLAYER
 62
  256
 10
373.2372465419529
 20
821.3036628624774
 30
0
  0
VERTEX
  8
14
  6
BYLAYER
 62
  256
 10
372.9381167611139
 20
823.0039323466874
 30
0
  0
VERTEX
  8
14
  6
BYLAYER
 62
  256
 10
372.9121784889284
 20
823.9265517869507
 30
0
  0
VERTEX
  8
14
  6
BYLAYER
 62
  256
 10
405.5846666666666
 20
1059.168466666667
 30
0
  0
SEQEND
  8
14
  6
BYLAYER
 62
  256
  0
POINT
  8
2
  6
BYLAYER
 62
  256
 10
405.5846666666666
 20
1059.168466666667
  0
POINT
  8
2
  6
BYLAYER
 62
  256
 10
430.5846666666666
 20
1059.168466666667
  0
POINT
  8
2
  6
BYLAYER
 62
  256
 10
396.1925738479948
 20
811.5453983722289
  0
POINT
  8
2
  6
BYLAYER
 62
  256
 10
372.9121784889284
 20
823.9265517869507
  0
POINT
  8
2
  6
BYLAYER
 62
  256
 10
405.5846666666666
 20
1059.168466666667
  0
POINT
  8
3
  6
BYLAYER
 62
  256
 10
394.291945759252
 20
811.5640011332814
  0
POINT
  8
3
  6
BYLAYER
 62
  256
 10
390.3314445774536
 20
811.8179238743327
  0
POINT
  8
3
  6
BYLAYER
 62
  256
 10
386.354513980085
 20
812.387148573278
  0
POINT
  8
3
  6
BYLAYER
 62
  256
 10
382.555225733374
 20
813.3330544469596
  0
POINT
  8
3
  6
BYLAYER
 62
  256
 10
379.127651603549
 20
814.7170207122198
  0
POINT
  8
3
  6
BYLAYER
 62
  256
 10
376.9398840581267
 20
816.0964420414284
  0
POINT
  8
3
  6
BYLAYER
 62
  256
 10
375.6868248617175
 20
817.1745134835326
  0
POINT
  8
3
  6
BYLAYER
 62
  256
 10
374.6358595630332
 20
818.396625833005
  0
POINT
  8
3
  6
BYLAYER
 62
  256
 10
373.811247132852
 20
819.7704514919516
  0
POINT
  8
3
  6
BYLAYER
 62
  256
 10
373.2372465419529
 20
821.3036628624774
  0
POINT
  8
3
  6
BYLAYER
 62
  256
 10
372.9381167611139
 20
823.0039323466874
  0
POLYLINE
  8
87
  6
BYLAYER
 62
  256
 66
    1
 10
0
 20
0
 30
0
 70
    1
  0
VERTEX
  8
87
  6
BYLAYER
 62
  256
 10
405.5846666666666
 20
1059.168466666667
 30
0
  0
VERTEX
  8
87
  6
BYLAYER
 62
  256
 10
430.5846666666666
 20
1059.168466666667
 30
0
  0
VERTEX
  8
87
  6
BYLAYER
 62
  256
 10
396.1925738479948
 20
811.5453983722289
 30
0
  0
VERTEX
  8
87
  6
BYLAYER
 62
  256
 10
394.291945759252
 20
811.5640011332814
 30
0
  0
VERTEX
  8
87
  6
BYLAYER
 62
  256
 10
390.3314445774536
 20
811.8179238743327
 30
0
  0
VERTEX
  8
87
  6
BYLAYER
 62
  256
 10
386.354513980085
 20
812.387148573278
 30
0
  0
VERTEX
  8
87
  6
BYLAYER
 62
  256
 10
382.555225733374
 20
813.3330544469596
 30
0
  0
VERTEX
  8
87
  6
BYLAYER
 62
  256
 10
379.127651603549
 20
814.7170207122198
 30
0
  0
VERTEX
  8
87
  6
BYLAYER
 62
  256
 10
376.9398840581267
 20
816.0964420414284
 30
0
  0
VERTEX
  8
87
  6
BYLAYER
 62
  256
 10
375.6868248617175
 20
817.1745134835326
 30
0
  0
VERTEX
  8
87
  6
BYLAYER
 62
  256
 10
374.6358595630332
 20
818.396625833005
 30
0
  0
VERTEX
  8
87
  6
BYLAYER
 62
  256
 10
373.811247132852
 20
819.7704514919516
 30
0
  0
VERTEX
  8
87
  6
BYLAYER
 62
  256
 10
373.2372465419529
 20
821.3036628624774
 30
0
  0
VERTEX
  8
87
  6
BYLAYER
 62
  256
 10
372.9381167611139
 20
823.0039323466874
 30
0
  0
VERTEX
  8
87
  6
BYLAYER
 62
  256
 10
372.9121784889284
 20
823.9265517869507
 30
0
  0
VERTEX
  8
87
  6
BYLAYER
 62
  256
 10
405.5846666666666
 20
1059.168466666667
 30
0
  0
SEQEND
  8
87
  6
BYLAYER
 62
  256
  0
TEXT
  8
1
  6
BYLAYER
 62
  256
 10
404.7492376539551
 20
976.3319041338075
 40
2.116666666666666
  1
C
 50
-0
 41
1
 51
0
  7
YU GOTHIC UI_BOLD
 71
    0
210
0
220
0
230
1
  0
TEXT
  8
1
  6
BYLAYER
 62
  256
 10
401.399906161738
 20
978.003703339161
 40
1.322916666666667
  1
facing
 50
-0
 41
1
 51
0
  7
YU GOTHIC UI_BOLD
 71
    0
210
0
220
0
230
1
  0
TEXT
  8
1
  6
BYLAYER
 62
  256
 10
398.3672399095776
 20
979.3187992621598
 40
1.058333333333333
  1
Fabric, Cut 2
 50
-0
 41
1
 51
0
  7
YU GOTHIC UI
 71
    0
210
0
220
0
230
1
  0
TEXT
  8
15
  6
BYLAYER
 62
  256
 10
407.5291343278316
 20
937.7647988495689
 40
2.5
  1
facing
 50
0
 41
1
 51
0
  7
STANDARD
 71
    0
210
0
220
0
230
1
  0
ENDBLK
  8
1
  0
BLOCK
  8
1
  2
BACK
 70
    0
 10
0
 20
0
  3
BACK
  1

  0
POLYLINE
  8
1
  6
BYLAYER
 62
  256
 66
    1
 10
0
 20
0
 30
0
 70
    1
  0
VERTEX
  8
1
  6
BYLAYER
 62
  256
 10
1.379250000000194
 20
1090.871552601389
 30
0
  0
VERTEX
  8
1
  6
BYLAYER
 62
  256
 10
11.319325637017
 20
1090.766166595803
 30
0
  0
VERTEX
  8
1
  6
BYLAYER
 62
  256
 10
32.092164118019
 20
1090.545930195985
 30
0
  0
VERTEX
  8
1
  6
BYLAYER
 62
  256
 10
54.31454576218875
 20
1089.960904626168
 30
0
  0
VERTEX
  8
1
  6
BYLAYER
 62
  256
 10
77.65605789795845
 20
1089.103989178514
 30
0
  0
VERTEX
  8
1
  6
BYLAYER
 62
  256
 10
101.8068026352163
 20
1087.988078172827
 30
0
  0
VERTEX
  8
1
  6
BYLAYER
 62
  256
 10
126.4543066467479
 20
1086.625775330569
 30
0
  0
VERTEX
  8
1
  6
BYLAYER
 62
  256
 10
151.2849815666779
 20
1085.029451584863
 30
0
  0
VERTEX
  8
1
  6
BYLAYER
 62
  256
 10
175.9851707580725
 20
1083.211218155637
 30
0
  0
VERTEX
  8
1
  6
BYLAYER
 62
  256
 10
200.2421257306436
 20
1081.182820956456
 30
0
  0
VERTEX
  8
1
  6
BYLAYER
 62
  256
 10
223.7452014131194
 20
1078.955419613898
 30
0
  0
VERTEX
  8
1
  6
BYLAYER
 62
  256
 10
246.1876609072823
 20
1076.539149347706
 30
0
  0
VERTEX
  8
1
  6
BYLAYER
 62
  256
 10
267.2698167850128
 20
1073.942216744802
 30
0
  0
VERTEX
  8
1
  6
BYLAYER
 62
  256
 10
286.7051232027598
 20
1071.168883636892
 30
0
  0
VERTEX
  8
1
  6
BYLAYER
 62
  256
 10
304.233297808308
 20
1068.214466560698
 30
0
  0
VERTEX
  8
1
  6
BYLAYER
 62
  256
 10
319.5976169528483
 20
1065.062241731243
 30
0
  0
VERTEX
  8
1
  6
BYLAYER
 62
  256
 10
329.5580346586384
 20
1062.511739858646
 30
0
  0
VERTEX
  8
1
  6
BYLAYER
 62
  256
 10
335.5831900218454
 20
1060.677148805769
 30
0
  0
VERTEX
  8
1
  6
BYLAYER
 62
  256
 10
351.6125000000002
 20
1055.028252383241
 30
0
  0
VERTEX
  8
1
  6
BYLAYER
 62
  256
 10
351.6125000000002
 20
0.8708666666668402
 30
0
  0
VERTEX
  8
1
  6
BYLAYER
 62
  256
 10
1.379250000000194
 20
0.8708666666665994
 30
0
  0
VERTEX
  8
1
  6
BYLAYER
 62
  256
 10
1.379250000000194
 20
1090.871552601389
 30
0
  0
SEQEND
  8
1
  6
BYLAYER
 62
  256
  0
POINT
  8
2
  6
BYLAYER
 62
  256
 10
1.379250000000194
 20
1090.871552601389
  0
POINT
  8
2
  6
BYLAYER
 62
  256
 10
351.6125000000002
 20
1055.028252383241
  0
POINT
  8
2
  6
BYLAYER
 62
  256
 10
351.6125000000002
 20
0.8708666666668402
  0
POINT
  8
2
  6
BYLAYER
 62
  256
 10
1.379250000000194
 20
0.8708666666665994
  0
POINT
  8
2
  6
BYLAYER
 62
  256
 10
1.379250000000194
 20
1090.871552601389
  0
POINT
  8
3
  6
BYLAYER
 62
  256
 10
11.319325637017
 20
1090.766166595803
  0
POINT
  8
3
  6
BYLAYER
 62
  256
 10
32.092164118019
 20
1090.545930195985
  0
POINT
  8
3
  6
BYLAYER
 62
  256
 10
54.31454576218875
 20
1089.960904626168
  0
POINT
  8
3
  6
BYLAYER
 62
  256
 10
77.65605789795845
 20
1089.103989178514
  0
POINT
  8
3
  6
BYLAYER
 62
  256
 10
101.8068026352163
 20
1087.988078172827
  0
POINT
  8
3
  6
BYLAYER
 62
  256
 10
126.4543066467479
 20
1086.625775330569
  0
POINT
  8
3
  6
BYLAYER
 62
  256
 10
151.2849815666779
 20
1085.029451584863
  0
POINT
  8
3
  6
BYLAYER
 62
  256
 10
175.9851707580725
 20
1083.211218155637
  0
POINT
  8
3
  6
BYLAYER
 62
  256
 10
200.2421257306436
 20
1081.182820956456
  0
POINT
  8
3
  6
BYLAYER
 62
  256
 10
223.7452014131194
 20
1078.955419613898
  0
POINT
  8
3
  6
BYLAYER
 62
  256
 10
246.1876609072823
 20
1076.539149347706
  0
POINT
  8
3
  6
BYLAYER
 62
  256
 10
267.2698167850128
 20
1073.942216744802
  0
POINT
  8
3
  6
BYLAYER
 62
  256
 10
286.7051232027598
 20
1071.168883636892
  0
POINT
  8
3
  6
BYLAYER
 62
  256
 10
304.233297808308
 20
1068.214466560698
  0
POINT
  8
3
  6
BYLAYER
 62
  256
 10
319.5976169528483
 20
1065.062241731243
  0
POINT
  8
3
  6
BYLAYER
 62
  256
 10
329.5580346586384
 20
1062.511739858646
  0
POINT
  8
3
  6
BYLAYER
 62
  256
 10
335.5831900218454
 20
1060.677148805769
  0
POLYLINE
  8
84
  6
BYLAYER
 62
  256
 66
    1
 10
0
 20
0
 30
0
 70
    1
  0
VERTEX
  8
84
  6
BYLAYER
 62
  256
 10
1.379250000000194
 20
1090.871552601389
 30
0
  0
VERTEX
  8
84
  6
BYLAYER
 62
  256
 10
11.319325637017
 20
1090.766166595803
 30
0
  0
VERTEX
  8
84
  6
BYLAYER
 62
  256
 10
32.092164118019
 20
1090.545930195985
 30
0
  0
VERTEX
  8
84
  6
BYLAYER
 62
  256
 10
54.31454576218875
 20
1089.960904626168
 30
0
  0
VERTEX
  8
84
  6
BYLAYER
 62
  256
 10
77.65605789795845
 20
1089.103989178514
 30
0
  0
VERTEX
  8
84
  6
BYLAYER
 62
  256
 10
101.8068026352163
 20
1087.988078172827
 30
0
  0
VERTEX
  8
84
  6
BYLAYER
 62
  256
 10
126.4543066467479
 20
1086.625775330569
 30
0
  0
VERTEX
  8
84
  6
BYLAYER
 62
  256
 10
151.2849815666779
 20
1085.029451584863
 30
0
  0
VERTEX
  8
84
  6
BYLAYER
 62
  256
 10
175.9851707580725
 20
1083.211218155637
 30
0
  0
VERTEX
  8
84
  6
BYLAYER
 62
  256
 10
200.2421257306436
 20
1081.182820956456
 30
0
  0
VERTEX
  8
84
  6
BYLAYER
 62
  256
 10
223.7452014131194
 20
1078.955419613898
 30
0
  0
VERTEX
  8
84
  6
BYLAYER
 62
  256
 10
246.1876609072823
 20
1076.539149347706
 30
0
  0
VERTEX
  8
84
  6
BYLAYER
 62
  256
 10
267.2698167850128
 20
1073.942216744802
 30
0
  0
VERTEX
  8
84
  6
BYLAYER
 62
  256
 10
286.7051232027598
 20
1071.168883636892
 30
0
  0
VERTEX
  8
84
  6
BYLAYER
 62
  256
 10
304.233297808308
 20
1068.214466560698
 30
0
  0
VERTEX
  8
84
  6
BYLAYER
 62
  256
 10
319.5976169528483
 20
1065.062241731243
 30
0
  0
VERTEX
  8
84
  6
BYLAYER
 62
  256
 10
329.5580346586384
 20
1062.511739858646
 30
0
  0
VERTEX
  8
84
  6
BYLAYER
 62
  256
 10
335.5831900218454
 20
1060.677148805769
 30
0
  0
VERTEX
  8
84
  6
BYLAYER
 62
  256
 10
351.6125000000002
 20
1055.028252383241
 30
0
  0
VERTEX
  8
84
  6
BYLAYER
 62
  256
 10
351.6125000000002
 20
0.8708666666668402
 30
0
  0
VERTEX
  8
84
  6
BYLAYER
 62
  256
 10
1.379250000000194
 20
0.8708666666665994
 30
0
  0
VERTEX
  8
84
  6
BYLAYER
 62
  256
 10
1.379250000000194
 20
1090.871552601389
 30
0
  0
SEQEND
  8
84
  6
BYLAYER
 62
  256
  0
POLYLINE
  8
14
  6
BYLAYER
 62
  256
 66
    1
 10
0
 20
0
 30
0
 70
    1
  0
VERTEX
  8
14
  6
BYLAYER
 62
  256
 10
1.612500000000235
 20
1070.870866666667
 30
0
  0
VERTEX
  8
14
  6
BYLAYER
 62
  256
 10
11.14963939250167
 20
1070.845673321288
 30
0
  0
VERTEX
  8
14
  6
BYLAYER
 62
  256
 10
31.68487794220404
 20
1070.549723034049
 30
0
  0
VERTEX
  8
14
  6
BYLAYER
 62
  256
 10
53.68448672098083
 20
1069.970562174171
 30
0
  0
VERTEX
  8
14
  6
BYLAYER
 62
  256
 10
76.82759740820393
 20
1069.120930456256
 30
0
  0
VERTEX
  8
14
  6
BYLAYER
 62
  256
 10
100.7933416832452
 20
1068.013567594905
 30
0
  0
VERTEX
  8
14
  6
BYLAYER
 62
  256
 10
125.2608512254766
 20
1066.66121330472
 30
0
  0
VERTEX
  8
14
  6
BYLAYER
 62
  256
 10
149.90925771427
 20
1065.076607300302
 30
0
  0
VERTEX
  8
14
  6
BYLAYER
 62
  256
 10
174.4176928289972
 20
1063.272489296252
 30
0
  0
VERTEX
  8
14
  6
BYLAYER
 62
  256
 10
198.4652882490301
 20
1061.261599007172
 30
0
  0
VERTEX
  8
14
  6
BYLAYER
 62
  256
 10
221.7311756537409
 20
1059.056676147662
 30
0
  0
VERTEX
  8
14
  6
BYLAYER
 62
  256
 10
243.894486722501
 20
1056.670460432324
 30
0
  0
VERTEX
  8
14
  6
BYLAYER
 62
  256
 10
264.6343531346828
 20
1054.11569157576
 30
0
  0
VERTEX
  8
14
  6
BYLAYER
 62
  256
 10
283.6299065696582
 20
1051.405109292571
 30
0
  0
VERTEX
  8
14
  6
BYLAYER
 62
  256
 10
300.5602787067988
 20
1048.551453297357
 30
0
  0
VERTEX
  8
14
  6
BYLAYER
 62
  256
 10
315.1046012254765
 20
1045.56746330472
 30
0
  0
VERTEX
  8
14
  6
BYLAYER
 62
  256
 10
324.1618641663795
 20
1043.248226624722
 30
0
  0
VERTEX
  8
14
  6
BYLAYER
 62
  256
 10
329.3436741612824
 20
1041.670424612775
 30
0
  0
VERTEX
  8
14
  6
BYLAYER
 62
  256
 10
331.6125000000002
 20
1040.870866666667
 30
0
  0
VERTEX
  8
14
  6
BYLAYER
 62
  256
 10
331.6125000000002
 20
20.87086666666663
 30
0
  0
VERTEX
  8
14
  6
BYLAYER
 62
  256
 10
1.612500000000235
 20
20.87086666666663
 30
0
  0
VERTEX
  8
14
  6
BYLAYER
 62
  256
 10
1.612500000000235
 20
1070.870866666667
 30
0
  0
SEQEND
  8
14
  6
BYLAYER
 62
  256
  0
POINT
  8
2
  6
BYLAYER
 62
  256
 10
1.612500000000235
 20
1070.870866666667
  0
POINT
  8
2
  6
BYLAYER
 62
  256
 10
331.6125000000002
 20
1040.870866666667
  0
POINT
  8
2
  6
BYLAYER
 62
  256
 10
331.6125000000002
 20
20.87086666666663
  0
POINT
  8
2
  6
BYLAYER
 62
  256
 10
1.612500000000235
 20
20.87086666666663
  0
POINT
  8
2
  6
BYLAYER
 62
  256
 10
1.612500000000235
 20
1070.870866666667
  0
POINT
  8
3
  6
BYLAYER
 62
  256
 10
11.14963939250167
 20
1070.845673321288
  0
POINT
  8
3
  6
BYLAYER
 62
  256
 10
31.68487794220404
 20
1070.549723034049
  0
POINT
  8
3
  6
BYLAYER
 62
  256
 10
53.68448672098083
 20
1069.970562174171
  0
POINT
  8
3
  6
BYLAYER
 62
  256
 10
76.82759740820393
 20
1069.120930456256
  0
POINT
  8
3
  6
BYLAYER
 62
  256
 10
100.7933416832452
 20
1068.013567594905
  0
POINT
  8
3
  6
BYLAYER
 62
  256
 10
125.2608512254766
 20
1066.66121330472
  0
POINT
  8
3
  6
BYLAYER
 62
  256
 10
149.90925771427
 20
1065.076607300302
  0
POINT
  8
3
  6
BYLAYER
 62
  256
 10
174.4176928289972
 20
1063.272489296252
  0
POINT
  8
3
  6
BYLAYER
 62
  256
 10
198.4652882490301
 20
1061.261599007172
  0
POINT
  8
3
  6
BYLAYER
 62
  256
 10
221.7311756537409
 20
1059.056676147662
  0
POINT
  8
3
  6
BYLAYER
 62
  256
 10
243.894486722501
 20
1056.670460432324
  0
POINT
  8
3
  6
BYLAYER
 62
  256
 10
264.6343531346828
 20
1054.11569157576
  0
POINT
  8
3
  6
BYLAYER
 62
  256
 10
283.6299065696582
 20
1051.405109292571
  0
POINT
  8
3
  6
BYLAYER
 62
  256
 10
300.5602787067988
 20
1048.551453297357
  0
POINT
  8
3
  6
BYLAYER
 62
  256
 10
315.1046012254765
 20
1045.56746330472
  0
POINT
  8
3
  6
BYLAYER
 62
  256
 10
324.1618641663795
 20
1043.248226624722
  0
POINT
  8
3
  6
BYLAYER
 62
  256
 10
329.3436741612824
 20
1041.670424612775
  0
POLYLINE
  8
87
  6
BYLAYER
 62
  256
 66
    1
 10
0
 20
0
 30
0
 70
    1
  0
VERTEX
  8
87
  6
BYLAYER
 62
  256
 10
1.612500000000235
 20
1070.870866666667
 30
0
  0
VERTEX
  8
87
  6
BYLAYER
 62
  256
 10
11.14963939250167
 20
1070.845673321288
 30
0
  0
VERTEX
  8
87
  6
BYLAYER
 62
  256
 10
31.68487794220404
 20
1070.549723034049
 30
0
  0
VERTEX
  8
87
  6
BYLAYER
 62
  256
 10
53.68448672098083
 20
1069.970562174171
 30
0
  0
VERTEX
  8
87
  6
BYLAYER
 62
  256
 10
76.82759740820393
 20
1069.120930456256
 30
0
  0
VERTEX
  8
87
  6
BYLAYER
 62
  256
 10
100.7933416832452
 20
1068.013567594905
 30
0
  0
VERTEX
  8
87
  6
BYLAYER
 62
  256
 10
125.2608512254766
 20
1066.66121330472
 30
0
  0
VERTEX
  8
87
  6
BYLAYER
 62
  256
 10
149.90925771427
 20
1065.076607300302
 30
0
  0
VERTEX
  8
87
  6
BYLAYER
 62
  256
 10
174.4176928289972
 20
1063.272489296252
 30
0
  0
VERTEX
  8
87
  6
BYLAYER
 62
  256
 10
198.4652882490301
 20
1061.261599007172
 30
0
  0
VERTEX
  8
87
  6
BYLAYER
 62
  256
 10
221.7311756537409
 20
1059.056676147662
 30
0
  0
VERTEX
  8
87
  6
BYLAYER
 62
  256
 10
243.894486722501
 20
1056.670460432324
 30
0
  0
VERTEX
  8
87
  6
BYLAYER
 62
  256
 10
264.6343531346828
 20
1054.11569157576
 30
0
  0
VERTEX
  8
87
  6
BYLAYER
 62
  256
 10
283.6299065696582
 20
1051.405109292571
 30
0
  0
VERTEX
  8
87
  6
BYLAYER
 62
  256
 10
300.5602787067988
 20
1048.551453297357
 30
0
  0
VERTEX
  8
87
  6
BYLAYER
 62
  256
 10
315.1046012254765
 20
1045.56746330472
 30
0
  0
VERTEX
  8
87
  6
BYLAYER
 62
  256
 10
324.1618641663795
 20
1043.248226624722
 30
0
  0
VERTEX
  8
87
  6
BYLAYER
 62
  256
 10
329.3436741612824
 20
1041.670424612775
 30
0
  0
VERTEX
  8
87
  6
BYLAYER
 62
  256
 10
331.6125000000002
 20
1040.870866666667
 30
0
  0
VERTEX
  8
87
  6
BYLAYER
 62
  256
 10
331.6125000000002
 20
20.87086666666663
 30
0
  0
VERTEX
  8
87
  6
BYLAYER
 62
  256
 10
1.612500000000235
 20
20.87086666666663
 30
0
  0
VERTEX
  8
87
  6
BYLAYER
 62
  256
 10
1.612500000000235
 20
1070.870866666667
 30
0
  0
SEQEND
  8
87
  6
BYLAYER
 62
  256
  0
LINE
  8
7
  6
BYLAYER
 62
  256
 10
1.612500000000235
 20
20.87086666666663
 11
1.612500000000355
 21
1070.870866666667
  0
TEXT
  8
1
  6
BYLAYER
 62
  256
 10
167.1707291666667
 20
958.8449729166665
 40
2.116666666666666
  1
B
 50
-0
 41
1
 51
0
  7
YU GOTHIC UI_BOLD
 71
    0
210
0
220
0
230
1
  0
TEXT
  8
1
  6
BYLAYER
 62
  256
 10
165.8478125
 20
955.7574729166666
 40
1.322916666666667
  1
back
 50
-0
 41
1
 51
0
  7
YU GOTHIC UI_BOLD
 71
    0
210
0
220
0
230
1
  0
TEXT
  8
1
  6
BYLAYER
 62
  256
 10
160.1592708333334
 20
952.9345562499999
 40
1.058333333333333
  1
Fabric, Cut 1 on fold
 50
-0
 41
1
 51
0
  7
YU GOTHIC UI
 71
    0
210
0
220
0
230
1
  0
TEXT
  8
15
  6
BYLAYER
 62
  256
 10
176.4958750000002
 20
548.3712096340279
 40
2.5
  1
back
 50
0
 41
1
 51
0
  7
STANDARD
 71
    0
210
0
220
0
230
1
  0
ENDBLK
  8
0
  0
ENDSEC
  0
SECTION
  2
ENTITIES
  0
TEXT
  8
1
  6
BYLAYER
 62
  256
 10
0
 20
7.49999999999998
 40
2.5
  1
Cutter's Practical Guide
 50
0
 41
1
 51
0
  7
STANDARD
 71
    0
210
0
220
0
230
1
  0
TEXT
  8
1
  6
BYLAYER
 62
  256
 10
0
 20
5.000000000000067
 40
2.5
  1
Foundation Skirt (improved)
 50
0
 41
1
 51
0
  7
STANDARD
 71
    0
210
0
220
0
230
1
  0
TEXT
  8
1
  6
BYLAYER
 62
  256
 10
0
 20
2.499999999999913
 40
2.5
  1
measurements
 50
0
 41
1
 51
0
  7
STANDARD
 71
    0
210
0
220
0
230
1
  0
TEXT
  8
1
  6
BYLAYER
 62
  256
 10
0
 20
0
 40
2.5
  1
2026-07-23
 50
0
 41
1
 51
0
  7
STANDARD
 71
    0
210
0
220
0
230
1
  0
INSERT
  8
1
  6
BYLAYER
 62
  256
  2
POCKET
 10
0
 20
0
  0
INSERT
  8
1
  6
BYLAYER
 62
  256
  2
FRONT_AND_SIDE
 10
0
 20
0
  0
INSERT
  8
1
  6
BYLAYER
 62
  256
  2
FACING
 10
0
 20
0
  0
INSERT
  8
1
  6
BYLAYER
 62
  256
  2
BACK
 10
0
 20
0
  0
ENDSEC
  0
EOF
