999
dxfrw 0.6.3
  0
SECTION
  2
HEADER
  9
$ACADVER
  1
AC1009
  9
$DWGCODEPAGE
  3
ANSI_1252
  9
$INSBASE
 10
0
 20
0
 30
0
  9
$EXTMIN
 10
1e+20
 20
1e+20
 30
1e+20
  9
$EXTMAX
 10
-1e+20
 20
-1e+20
 30
-1e+20
  9
$LIMMIN
 10
0
 20
0
  9
$LIMMAX
 10
420
 20
297
  9
$ORTHOMODE
 70
    0
  9
$REGENMODE
 70
    1
  9
$FILLMODE
 70
    1
  9
$QTEXTMODE
 70
    0
  9
$MIRRTEXT
 70
    0
  9
$DRAGMODE
 70
    2
  9
$LTSCALE
 40
1
  9
$OSMODE
 70
    0
  9
$ATTMODE
 70
    0
  9
$TEXTSIZE
 40
2.5
  9
$TRACEWID
 40
15.68
  9
$TEXTSTYLE
  7
STANDARD
  9
$CLAYER
  8
1
  9
$CELTYPE
  6
BYLAYER
  9
$CECOLOR
 62
  256
  9
$DIMSCALE
 40
1
  9
$DIMASZ
 40
2.5
  9
$DIMEXO
 40
0.625
  9
$DIMDLI
 40
3.75
  9
$DIMRND
 40
0
  9
$DIMDLE
 40
0
  9
$DIMEXE
 40
1.25
  9
$DIMTP
 40
0
  9
$DIMTM
 40
0
  9
$DIMTXT
 40
2.5
  9
$DIMCEN
 40
2.5
  9
$DIMTSZ
 40
0
  9
$DIMTOL
 70
    0
  9
$DIMLIM
 70
    0
  9
$DIMTIH
 70
    0
  9
$DIMTOH
 70
    0
  9
$DIMSE1
 70
    0
  9
$DIMSE2
 70
    0
  9
$DIMTAD
 70
    1
  9
$DIMZIN
 70
    8
  9
$DIMBLK
  1

  9
$DIMASO
 70
    1
  9
$DIMSHO
 70
    1
  9
$DIMPOST
  1

  9
$DIMAPOST
  1

  9
$DIMALT
 70
    0
  9
$DIMALTD
 70
    3
  9
$DIMALTF
 40
0.03937
  9
$DIMLFAC
 40
1
  9
$DIMTOFL
 70
    1
  9
$DIMTVP
 40
0
  9
$DIMTIX
 70
    0
  9
$DIMSOXD
 70
    0
  9
$DIMSAH
 70
    0
  9
$DIMBLK1
  1

  9
$DIMBLK2
  1

  9
$DIMSTYLE
  2
STANDARD
  9
$DIMCLRD
 70
    0
  9
$DIMCLRE
 70
    0
  9
$DIMCLRT
 70
    0
  9
$DIMTFAC
 40
1
  9
$DIMGAP
 40
0.625
  9
$LUNITS
 70
    2
  9
$LUPREC
 70
    4
  9
$SKETCHINC
 40
1
  9
$FILLETRAD
 40
0
  9
$AUNITS
 70
    0
  9
$AUPREC
 70
    2
  9
$MENU
  1
.
  9
$ELEVATION
 40
0
  9
$PELEVATION
 40
0
  9
$THICKNESS
 40
0
  9
$LIMCHECK
 70
    0
  9
$BLIPMODE
 70
    0
  9
$CHAMFERA
 40
0
  9
$CHAMFERB
 40
0
  9
$SKPOLY
 70
    0
  9
$USRTIMER
 70
    1
  9
$ANGBASE
 50
0
  9
$ANGDIR
 70
    0
  9
$PDMODE
 70
   34
  9
$PDSIZE
 40
0
  9
$PLINEWID
 40
0
  9
$COORDS
 70
    2
  9
$SPLFRAME
 70
    0
  9
$SPLINETYPE
 70
    2
  9
$SPLINESEGS
 70
    8
  9
$ATTDIA
 70
    1
  9
$ATTREQ
 70
    1
  9
$HANDSEED
  5
20000
  9
$SURFTAB1
 70
    6
  9
$SURFTAB2
 70
    6
  9
$SURFTYPE
 70
    6
  9
$SURFU
 70
    6
  9
$SURFV
 70
    6
  9
$TDCREATE
 40
20260723.22274018
  9
$UCSNAME
  2

  9
$UCSORG
 10
0
 20
0
 30
0
  9
$UCSXDIR
 10
1
 20
0
 30
0
  9
$UCSYDIR
 10
0
 20
1
 30
0
  9
$PUCSNAME
  2

  9
$PUCSORG
 10
0
 20
0
 30
0
  9
$PUCSXDIR
 10
1
 20
0
 30
0
  9
$PUCSYDIR
 10
0
 20
1
 30
0
  9
$USERI1
 70
    0
  9
$USERI2
 70
    0
  9
$USERI3
 70
    0
  9
$USERI4
 70
    0
  9
$USERI5
 70
    0
  9
$USERR1
 40
0
  9
$USERR2
 40
0
  9
$USERR3
 40
0
  9
$USERR4
 40
0
  9
$USERR5
 40
0
  9
$WORLDVIEW
 70
    1
  9
$SHADEDGE
 70
    3
  9
$SHADEDIF
 70
   70
  9
$TILEMODE
 70
    1
  9
$MAXACTVP
 70
   64
  9
$PLIMCHECK
 70
    0
  9
$PEXTMIN
 10
0
 20
0
 30
0
  9
$PEXTMAX
 10
0
 20
0
 30
0
  9
$PLIMMIN
 10
0
 20
0
  9
$PLIMMAX
 10
297
 20
210
  9
$UNITMODE
 70
    0
  9
$VISRETAIN
 70
    1
  9
$PLINEGEN
 70
    0
  9
$PSLTSCALE
 70
    1
  0
ENDSEC
  0
SECTION
  2
TABLES
  0
TABLE
  2
VPORT
 70
    1
  0
VPORT
  2
*ACTIVE
 70
    0
 10
0
 20
0
 11
1
 21
1
 12
0.651828
 22
-0.16
 13
0
 23
0
 14
10
 24
10
 15
10
 25
10
 16
0
 26
0
 36
1
 17
0
 27
0
 37
0
 40
297
 41
2.4426877
 42
50
 43
0
 44
0
 50
0
 51
0
 71
    0
 72
  100
 73
    1
 74
    3
 75
    0
 76
    0
 77
    0
 78
    0
  0
ENDTAB
  0
TABLE
  2
LTYPE
 70
    4
  0
LTYPE
  2
BYBLOCK
 70
    0
  3

 72
   65
 73
    0
 40
0
  0
LTYPE
  2
BYLAYER
 70
    0
  3

 72
   65
 73
    0
 40
0
  0
LTYPE
  2
CONTINUOUS
 70
    0
  3
Solid line
 72
   65
 73
    0
 40
0
  0
ENDTAB
  0
TABLE
  2
LAYER
 70
    1
  0
LAYER
  2
1
 70
    0
 62
  250
  6
CONTINUOUS
  0
LAYER
  2
2
 70
    0
 62
  250
  6
CONTINUOUS
  0
LAYER
  2
3
 70
    0
 62
  250
  6
CONTINUOUS
  0
LAYER
  2
4
 70
    0
 62
  250
  6
CONTINUOUS
  0
LAYER
  2
6
 70
    0
 62
  250
  6
CONTINUOUS
  0
LAYER
  2
7
 70
    0
 62
  250
  6
CONTINUOUS
  0
LAYER
  2
8
 70
    0
 62
  250
  6
CONTINUOUS
  0
LAYER
  2
11
 70
    0
 62
  250
  6
CONTINUOUS
  0
LAYER
  2
13
 70
    0
 62
  250
  6
CONTINUOUS
  0
LAYER
  2
14
 70
    0
 62
  250
  6
CONTINUOUS
  0
LAYER
  2
15
 70
    0
 62
  250
  6
CONTINUOUS
  0
LAYER
  2
80
 70
    0
 62
  250
  6
CONTINUOUS
  0
LAYER
  2
81
 70
    0
 62
  250
  6
CONTINUOUS
  0
LAYER
  2
82
 70
    0
 62
  250
  6
CONTINUOUS
  0
LAYER
  2
83
 70
    0
 62
  250
  6
CONTINUOUS
  0
LAYER
  2
84
 70
    0
 62
  250
  6
CONTINUOUS
  0
LAYER
  2
85
 70
    0
 62
  250
  6
CONTINUOUS
  0
LAYER
  2
86
 70
    0
 62
  250
  6
CONTINUOUS
  0
LAYER
  2
87
 70
    0
 62
  250
  6
CONTINUOUS
  0
ENDTAB
  0
TABLE
  2
STYLE
 70
    3
  0
STYLE
  2
STANDARD
 70
    0
 40
0
 41
1
 50
0
 71
    0
 42
2.5
  3
TXT
  4

  0
STYLE
  2
YU GOTHIC UI_BOLD
 70
    0
 40
0
 41
1
 50
0
 71
    0
 42
1
  3
YU GOTHIC UI
  4

  0
STYLE
  2
YU GOTHIC UI
 70
    0
 40
0
 41
1
 50
0
 71
    0
 42
1
  3
YU GOTHIC UI
  4

  0
ENDTAB
  0
TABLE
  2
VIEW
 70
    0
  0
ENDTAB
  0
TABLE
  2
UCS
 70
    0
  0
ENDTAB
  0
TABLE
  2
APPID
 70
    1
  0
APPID
  2
ACAD
 70
    0
  0
APPID
  2
VALENTINA
 70
    0
  0
ENDTAB
  0
TABLE
  2
DIMSTYLE
 70
    1
  0
DIMSTYLE
  2
STANDARD
 70
    0
  3

  4

  5

  6

  7

 40
1
 41
2.5
 42
0.625
 43
3.75
 44
1.25
 45
0
 46
0
 47
0
 48
0
 49
1
140
2.5
141
2.5
142
0
143
0.03937007874015748
144
1
145
0
146
1
147
0.625
 71
    0
 72
    0
 73
    0
 74
    0
 75
    0
 76
    0
 77
    1
 78
    8
170
    0
171
    3
172
    1
173
    0
174
    0
175
    0
176
    0
177
    0
178
    0
  0
ENDTAB
  0
ENDSEC
  0
SECTION
  2
BLOCKS
  0
BLOCK
  8
1
  2
BACK_CLOSING_COLLAR
 70
    0
 10
0
 20
0
  3
BACK_CLOSING_COLLAR
  1

  0
POLYLINE
  8
1
  6
BYLAYER
 62
  256
 66
    1
 10
0
 20
0
 30
0
 70
    1
  0
VERTEX
  8
1
  6
BYLAYER
 62
  256
 10
44.90279117983735
 20
70.31669036909609
 30
0
  0
VERTEX
  8
1
  6
BYLAYER
 62
  256
 10
61.44320961010077
 20
71.05176074829676
 30
0
  0
VERTEX
  8
1
  6
BYLAYER
 62
  256
 10
85.88833622131463
 20
72.68362317567333
 30
0
  0
VERTEX
  8
1
  6
BYLAYER
 62
  256
 10
111.7388248345716
 20
74.81114022937834
 30
0
  0
VERTEX
  8
1
  6
BYLAYER
 62
  256
 10
151.3570549436789
 20
78.48508540846484
 30
0
  0
VERTEX
  8
1
  6
BYLAYER
 62
  256
 10
200.4606052071736
 20
83.21024865475401
 30
0
  0
VERTEX
  8
1
  6
BYLAYER
 62
  256
 10
220.7932646497728
 20
84.8955405911624
 30
0
  0
VERTEX
  8
1
  6
BYLAYER
 62
  256
 10
226.1619343003013
 20
15.10274983358994
 30
0
  0
VERTEX
  8
1
  6
BYLAYER
 62
  256
 10
205.8784363707105
 20
13.42125434416793
 30
0
  0
VERTEX
  8
1
  6
BYLAYER
 62
  256
 10
155.8615207214686
 20
8.673778185335538
 30
0
  0
VERTEX
  8
1
  6
BYLAYER
 62
  256
 10
115.0255619937534
 20
4.946034818119402
 30
0
  0
VERTEX
  8
1
  6
BYLAYER
 62
  256
 10
88.24703056100103
 20
2.77253554335803
 30
0
  0
VERTEX
  8
1
  6
BYLAYER
 62
  256
 10
62.89445476089355
 20
1.094425847188043
 30
0
  0
VERTEX
  8
1
  6
BYLAYER
 62
  256
 10
45.64629363021366
 20
0.3294474432314119
 30
0
  0
VERTEX
  8
1
  6
BYLAYER
 62
  256
 10
35.06223910132771
 20
0.07611231360646221
 30
0
  0
VERTEX
  8
1
  6
BYLAYER
 62
  256
 10
0.1561793132726956
 20
0.04538878929730714
 30
0
  0
VERTEX
  8
1
  6
BYLAYER
 62
  256
 10
0.1824135745742139
 20
41.60045869090484
 30
0
  0
VERTEX
  8
1
  6
BYLAYER
 62
  256
 10
0.5612397361862422
 20
44.71660937513283
 30
0
  0
VERTEX
  8
1
  6
BYLAYER
 62
  256
 10
1.665848454062299
 20
49.00977934048613
 30
0
  0
VERTEX
  8
1
  6
BYLAYER
 62
  256
 10
4.080323766821246
 20
54.1836550106839
 30
0
  0
VERTEX
  8
1
  6
BYLAYER
 62
  256
 10
7.376748505250242
 20
58.83245912898118
 30
0
  0
VERTEX
  8
1
  6
BYLAYER
 62
  256
 10
11.38424087101881
 20
62.83995149474976
 30
0
  0
VERTEX
  8
1
  6
BYLAYER
 62
  256
 10
16.03304498931614
 20
66.13637623317877
 30
0
  0
VERTEX
  8
1
  6
BYLAYER
 62
  256
 10
21.20692065951391
 20
68.55085154593772
 30
0
  0
VERTEX
  8
1
  6
BYLAYER
 62
  256
 10
25.50009062486717
 20
69.65546026381375
 30
0
  0
VERTEX
  8
1
  6
BYLAYER
 62
  256
 10
28.52869729941089
 20
70.02364382032691
 30
0
  0
VERTEX
  8
1
  6
BYLAYER
 62
  256
 10
44.90279117983735
 20
70.31669036909609
 30
0
  0
SEQEND
  8
1
  6
BYLAYER
 62
  256
  0
POINT
  8
2
  6
BYLAYER
 62
  256
 10
220.7932646497728
 20
84.8955405911624
  0
POINT
  8
2
  6
BYLAYER
 62
  256
 10
226.1619343003013
 20
15.10274983358994
  0
POINT
  8
2
  6
BYLAYER
 62
  256
 10
35.06223910132771
 20
0.07611231360646221
  0
POINT
  8
2
  6
BYLAYER
 62
  256
 10
0.1561793132726956
 20
0.04538878929730714
  0
POINT
  8
2
  6
BYLAYER
 62
  256
 10
28.52869729941089
 20
70.02364382032691
  0
POINT
  8
3
  6
BYLAYER
 62
  256
 10
44.90279117983735
 20
70.31669036909609
  0
POINT
  8
3
  6
BYLAYER
 62
  256
 10
61.44320961010077
 20
71.05176074829676
  0
POINT
  8
3
  6
BYLAYER
 62
  256
 10
85.88833622131463
 20
72.68362317567333
  0
POINT
  8
3
  6
BYLAYER
 62
  256
 10
111.7388248345716
 20
74.81114022937834
  0
POINT
  8
3
  6
BYLAYER
 62
  256
 10
151.3570549436789
 20
78.48508540846484
  0
POINT
  8
3
  6
BYLAYER
 62
  256
 10
200.4606052071736
 20
83.21024865475401
  0
POINT
  8
3
  6
BYLAYER
 62
  256
 10
205.8784363707105
 20
13.42125434416793
  0
POINT
  8
3
  6
BYLAYER
 62
  256
 10
155.8615207214686
 20
8.673778185335538
  0
POINT
  8
3
  6
BYLAYER
 62
  256
 10
115.0255619937534
 20
4.946034818119402
  0
POINT
  8
3
  6
BYLAYER
 62
  256
 10
88.24703056100103
 20
2.77253554335803
  0
POINT
  8
3
  6
BYLAYER
 62
  256
 10
62.89445476089355
 20
1.094425847188043
  0
POINT
  8
3
  6
BYLAYER
 62
  256
 10
45.64629363021366
 20
0.3294474432314119
  0
POINT
  8
3
  6
BYLAYER
 62
  256
 10
0.1824135745742139
 20
41.60045869090484
  0
POINT
  8
3
  6
BYLAYER
 62
  256
 10
0.5612397361862422
 20
44.71660937513283
  0
POINT
  8
3
  6
BYLAYER
 62
  256
 10
1.665848454062299
 20
49.00977934048613
  0
POINT
  8
3
  6
BYLAYER
 62
  256
 10
4.080323766821246
 20
54.1836550106839
  0
POINT
  8
3
  6
BYLAYER
 62
  256
 10
7.376748505250242
 20
58.83245912898118
  0
POINT
  8
3
  6
BYLAYER
 62
  256
 10
11.38424087101881
 20
62.83995149474976
  0
POINT
  8
3
  6
BYLAYER
 62
  256
 10
16.03304498931614
 20
66.13637623317877
  0
POINT
  8
3
  6
BYLAYER
 62
  256
 10
21.20692065951391
 20
68.55085154593772
  0
POINT
  8
3
  6
BYLAYER
 62
  256
 10
25.50009062486717
 20
69.65546026381375
  0
POINT
  8
3
  6
BYLAYER
 62
  256
 10
44.90279117983735
 20
70.31669036909609
  0
POLYLINE
  8
84
  6
BYLAYER
 62
  256
 66
    1
 10
0
 20
0
 30
0
 70
    1
  0
VERTEX
  8
84
  6
BYLAYER
 62
  256
 10
44.90279117983735
 20
70.31669036909609
 30
0
  0
VERTEX
  8
84
  6
BYLAYER
 62
  256
 10
61.44320961010077
 20
71.05176074829676
 30
0
  0
VERTEX
  8
84
  6
BYLAYER
 62
  256
 10
85.88833622131463
 20
72.68362317567333
 30
0
  0
VERTEX
  8
84
  6
BYLAYER
 62
  256
 10
111.7388248345716
 20
74.81114022937834
 30
0
  0
VERTEX
  8
84
  6
BYLAYER
 62
  256
 10
151.3570549436789
 20
78.48508540846484
 30
0
  0
VERTEX
  8
84
  6
BYLAYER
 62
  256
 10
200.4606052071736
 20
83.21024865475401
 30
0
  0
VERTEX
  8
84
  6
BYLAYER
 62
  256
 10
220.7932646497728
 20
84.8955405911624
 30
0
  0
VERTEX
  8
84
  6
BYLAYER
 62
  256
 10
226.1619343003013
 20
15.10274983358994
 30
0
  0
VERTEX
  8
84
  6
BYLAYER
 62
  256
 10
205.8784363707105
 20
13.42125434416793
 30
0
  0
VERTEX
  8
84
  6
BYLAYER
 62
  256
 10
155.8615207214686
 20
8.673778185335538
 30
0
  0
VERTEX
  8
84
  6
BYLAYER
 62
  256
 10
115.0255619937534
 20
4.946034818119402
 30
0
  0
VERTEX
  8
84
  6
BYLAYER
 62
  256
 10
88.24703056100103
 20
2.77253554335803
 30
0
  0
VERTEX
  8
84
  6
BYLAYER
 62
  256
 10
62.89445476089355
 20
1.094425847188043
 30
0
  0
VERTEX
  8
84
  6
BYLAYER
 62
  256
 10
45.64629363021366
 20
0.3294474432314119
 30
0
  0
VERTEX
  8
84
  6
BYLAYER
 62
  256
 10
35.06223910132771
 20
0.07611231360646221
 30
0
  0
VERTEX
  8
84
  6
BYLAYER
 62
  256
 10
0.1561793132726956
 20
0.04538878929730714
 30
0
  0
VERTEX
  8
84
  6
BYLAYER
 62
  256
 10
0.1824135745742139
 20
41.60045869090484
 30
0
  0
VERTEX
  8
84
  6
BYLAYER
 62
  256
 10
0.5612397361862422
 20
44.71660937513283
 30
0
  0
VERTEX
  8
84
  6
BYLAYER
 62
  256
 10
1.665848454062299
 20
49.00977934048613
 30
0
  0
VERTEX
  8
84
  6
BYLAYER
 62
  256
 10
4.080323766821246
 20
54.1836550106839
 30
0
  0
VERTEX
  8
84
  6
BYLAYER
 62
  256
 10
7.376748505250242
 20
58.83245912898118
 30
0
  0
VERTEX
  8
84
  6
BYLAYER
 62
  256
 10
11.38424087101881
 20
62.83995149474976
 30
0
  0
VERTEX
  8
84
  6
BYLAYER
 62
  256
 10
16.03304498931614
 20
66.13637623317877
 30
0
  0
VERTEX
  8
84
  6
BYLAYER
 62
  256
 10
21.20692065951391
 20
68.55085154593772
 30
0
  0
VERTEX
  8
84
  6
BYLAYER
 62
  256
 10
25.50009062486717
 20
69.65546026381375
 30
0
  0
VERTEX
  8
84
  6
BYLAYER
 62
  256
 10
28.52869729941089
 20
70.02364382032691
 30
0
  0
VERTEX
  8
84
  6
BYLAYER
 62
  256
 10
44.90279117983735
 20
70.31669036909609
 30
0
  0
SEQEND
  8
84
  6
BYLAYER
 62
  256
  0
POLYLINE
  8
14
  6
BYLAYER
 62
  256
 66
    1
 10
0
 20
0
 30
0
 70
    1
  0
VERTEX
  8
14
  6
BYLAYER
 62
  256
 10
34.9306883888313
 20
60.07571934443087
 30
0
  0
VERTEX
  8
14
  6
BYLAYER
 62
  256
 10
45.21332489548328
 20
60.32062067554146
 30
0
  0
VERTEX
  8
14
  6
BYLAYER
 62
  256
 10
61.99830294463894
 20
61.06655949392665
 30
0
  0
VERTEX
  8
14
  6
BYLAYER
 62
  256
 10
86.55441517408961
 20
62.70583089337611
 30
0
  0
VERTEX
  8
14
  6
BYLAYER
 62
  256
 10
112.5586036945004
 20
64.84479874311498
 30
0
  0
VERTEX
  8
14
  6
BYLAYER
 62
  256
 10
152.2802952045903
 20
68.52779524393551
 30
0
  0
VERTEX
  8
14
  6
BYLAYER
 62
  256
 10
201.3372914010505
 20
73.24439564966686
 30
0
  0
VERTEX
  8
14
  6
BYLAYER
 62
  256
 10
221.3276797151136
 20
74.90692463349042
 30
0
  0
VERTEX
  8
14
  6
BYLAYER
 62
  256
 10
225.1625
 20
25.0542
 30
0
  0
VERTEX
  8
14
  6
BYLAYER
 62
  256
 10
205.0522735520342
 20
23.387068660973
 30
0
  0
VERTEX
  8
14
  6
BYLAYER
 62
  256
 10
154.9167341504496
 20
18.62904705841086
 30
0
  0
VERTEX
  8
14
  6
BYLAYER
 62
  256
 10
114.1164994352355
 20
14.90462936075949
 30
0
  0
VERTEX
  8
14
  6
BYLAYER
 62
  256
 10
87.43822141162205
 20
12.73977326300137
 30
0
  0
VERTEX
  8
14
  6
BYLAYER
 62
  256
 10
62.3428375796092
 20
11.07979126513649
 30
0
  0
VERTEX
  8
14
  6
BYLAYER
 62
  256
 10
45.30507596675254
 20
10.32414435374408
 30
0
  0
VERTEX
  8
14
  6
BYLAYER
 62
  256
 10
34.93817827220021
 20
10.07600699163108
 30
0
  0
VERTEX
  8
14
  6
BYLAYER
 62
  256
 10
10.1625
 20
10.05420000000001
 30
0
  0
VERTEX
  8
14
  6
BYLAYER
 62
  256
 10
10.18203125
 20
40.99169999999999
 30
0
  0
VERTEX
  8
14
  6
BYLAYER
 62
  256
 10
10.40908203125
 20
42.85937578124999
 30
0
  0
VERTEX
  8
14
  6
BYLAYER
 62
  256
 10
11.11953125
 20
45.62060624999999
 30
0
  0
VERTEX
  8
14
  6
BYLAYER
 62
  256
 10
12.76015625
 20
49.13623124999999
 30
0
  0
VERTEX
  8
14
  6
BYLAYER
 62
  256
 10
15.0453125
 20
52.35888749999999
 30
0
  0
VERTEX
  8
14
  6
BYLAYER
 62
  256
 10
17.8578125
 20
55.1713875
 30
0
  0
VERTEX
  8
14
  6
BYLAYER
 62
  256
 10
21.08046875
 20
57.45654374999999
 30
0
  0
VERTEX
  8
14
  6
BYLAYER
 62
  256
 10
24.59609375
 20
59.09716874999999
 30
0
  0
VERTEX
  8
14
  6
BYLAYER
 62
  256
 10
27.35732421875
 20
59.80761796874999
 30
0
  0
VERTEX
  8
14
  6
BYLAYER
 62
  256
 10
29.225
 20
60.03466874999999
 30
0
  0
VERTEX
  8
14
  6
BYLAYER
 62
  256
 10
34.9306883888313
 20
60.07571934443087
 30
0
  0
SEQEND
  8
14
  6
BYLAYER
 62
  256
  0
POINT
  8
2
  6
BYLAYER
 62
  256
 10
221.3276797151136
 20
74.90692463349042
  0
POINT
  8
2
  6
BYLAYER
 62
  256
 10
225.1625
 20
25.0542
  0
POINT
  8
2
  6
BYLAYER
 62
  256
 10
34.93817827220021
 20
10.07600699163108
  0
POINT
  8
2
  6
BYLAYER
 62
  256
 10
10.1625
 20
10.05420000000001
  0
POINT
  8
2
  6
BYLAYER
 62
  256
 10
29.225
 20
60.03466874999999
  0
POINT
  8
3
  6
BYLAYER
 62
  256
 10
34.9306883888313
 20
60.07571934443087
  0
POINT
  8
3
  6
BYLAYER
 62
  256
 10
45.21332489548328
 20
60.32062067554146
  0
POINT
  8
3
  6
BYLAYER
 62
  256
 10
61.99830294463894
 20
61.06655949392665
  0
POINT
  8
3
  6
BYLAYER
 62
  256
 10
86.55441517408961
 20
62.70583089337611
  0
POINT
  8
3
  6
BYLAYER
 62
  256
 10
112.5586036945004
 20
64.84479874311498
  0
POINT
  8
3
  6
BYLAYER
 62
  256
 10
152.2802952045903
 20
68.52779524393551
  0
POINT
  8
3
  6
BYLAYER
 62
  256
 10
201.3372914010505
 20
73.24439564966686
  0
POINT
  8
3
  6
BYLAYER
 62
  256
 10
205.0522735520342
 20
23.387068660973
  0
POINT
  8
3
  6
BYLAYER
 62
  256
 10
154.9167341504496
 20
18.62904705841086
  0
POINT
  8
3
  6
BYLAYER
 62
  256
 10
114.1164994352355
 20
14.90462936075949
  0
POINT
  8
3
  6
BYLAYER
 62
  256
 10
87.43822141162205
 20
12.73977326300137
  0
POINT
  8
3
  6
BYLAYER
 62
  256
 10
62.3428375796092
 20
11.07979126513649
  0
POINT
  8
3
  6
BYLAYER
 62
  256
 10
45.30507596675254
 20
10.32414435374408
  0
POINT
  8
3
  6
BYLAYER
 62
  256
 10
10.18203125
 20
40.99169999999999
  0
POINT
  8
3
  6
BYLAYER
 62
  256
 10
10.40908203125
 20
42.85937578124999
  0
POINT
  8
3
  6
BYLAYER
 62
  256
 10
11.11953125
 20
45.62060624999999
  0
POINT
  8
3
  6
BYLAYER
 62
  256
 10
12.76015625
 20
49.13623124999999
  0
POINT
  8
3
  6
BYLAYER
 62
  256
 10
15.0453125
 20
52.35888749999999
  0
POINT
  8
3
  6
BYLAYER
 62
  256
 10
17.8578125
 20
55.1713875
  0
POINT
  8
3
  6
BYLAYER
 62
  256
 10
21.08046875
 20
57.45654374999999
  0
POINT
  8
3
  6
BYLAYER
 62
  256
 10
24.59609375
 20
59.09716874999999
  0
POINT
  8
3
  6
BYLAYER
 62
  256
 10
27.35732421875
 20
59.80761796874999
  0
POINT
  8
3
  6
BYLAYER
 62
  256
 10
34.9306883888313
 20
60.07571934443087
  0
POLYLINE
  8
87
  6
BYLAYER
 62
  256
 66
    1
 10
0
 20
0
 30
0
 70
    1
  0
VERTEX
  8
87
  6
BYLAYER
 62
  256
 10
34.9306883888313
 20
60.07571934443087
 30
0
  0
VERTEX
  8
87
  6
BYLAYER
 62
  256
 10
45.21332489548328
 20
60.32062067554146
 30
0
  0
VERTEX
  8
87
  6
BYLAYER
 62
  256
 10
61.99830294463894
 20
61.06655949392665
 30
0
  0
VERTEX
  8
87
  6
BYLAYER
 62
  256
 10
86.55441517408961
 20
62.70583089337611
 30
0
  0
VERTEX
  8
87
  6
BYLAYER
 62
  256
 10
112.5586036945004
 20
64.84479874311498
 30
0
  0
VERTEX
  8
87
  6
BYLAYER
 62
  256
 10
152.2802952045903
 20
68.52779524393551
 30
0
  0
VERTEX
  8
87
  6
BYLAYER
 62
  256
 10
201.3372914010505
 20
73.24439564966686
 30
0
  0
VERTEX
  8
87
  6
BYLAYER
 62
  256
 10
221.3276797151136
 20
74.90692463349042
 30
0
  0
VERTEX
  8
87
  6
BYLAYER
 62
  256
 10
225.1625
 20
25.0542
 30
0
  0
VERTEX
  8
87
  6
BYLAYER
 62
  256
 10
205.0522735520342
 20
23.387068660973
 30
0
  0
VERTEX
  8
87
  6
BYLAYER
 62
  256
 10
154.9167341504496
 20
18.62904705841086
 30
0
  0
VERTEX
  8
87
  6
BYLAYER
 62
  256
 10
114.1164994352355
 20
14.90462936075949
 30
0
  0
VERTEX
  8
87
  6
BYLAYER
 62
  256
 10
87.43822141162205
 20
12.73977326300137
 30
0
  0
VERTEX
  8
87
  6
BYLAYER
 62
  256
 10
62.3428375796092
 20
11.07979126513649
 30
0
  0
VERTEX
  8
87
  6
BYLAYER
 62
  256
 10
45.30507596675254
 20
10.32414435374408
 30
0
  0
VERTEX
  8
87
  6
BYLAYER
 62
  256
 10
34.93817827220021
 20
10.07600699163108
 30
0
  0
VERTEX
  8
87
  6
BYLAYER
 62
  256
 10
10.1625
 20
10.05420000000001
 30
0
  0
VERTEX
  8
87
  6
BYLAYER
 62
  256
 10
10.18203125
 20
40.99169999999999
 30
0
  0
VERTEX
  8
87
  6
BYLAYER
 62
  256
 10
10.40908203125
 20
42.85937578124999
 30
0
  0
VERTEX
  8
87
  6
BYLAYER
 62
  256
 10
11.11953125
 20
45.62060624999999
 30
0
  0
VERTEX
  8
87
  6
BYLAYER
 62
  256
 10
12.76015625
 20
49.13623124999999
 30
0
  0
VERTEX
  8
87
  6
BYLAYER
 62
  256
 10
15.0453125
 20
52.35888749999999
 30
0
  0
VERTEX
  8
87
  6
BYLAYER
 62
  256
 10
17.8578125
 20
55.1713875
 30
0
  0
VERTEX
  8
87
  6
BYLAYER
 62
  256
 10
21.08046875
 20
57.45654374999999
 30
0
  0
VERTEX
  8
87
  6
BYLAYER
 62
  256
 10
24.59609375
 20
59.09716874999999
 30
0
  0
VERTEX
  8
87
  6
BYLAYER
 62
  256
 10
27.35732421875
 20
59.80761796874999
 30
0
  0
VERTEX
  8
87
  6
BYLAYER
 62
  256
 10
29.225
 20
60.03466874999999
 30
0
  0
VERTEX
  8
87
  6
BYLAYER
 62
  256
 10
34.9306883888313
 20
60.07571934443087
 30
0
  0
SEQEND
  8
87
  6
BYLAYER
 62
  256
  0
LINE
  8
7
  6
BYLAYER
 62
  256
 10
225.1625
 20
25.0542
 11
221.3276797151136
 21
74.90692463349042
  0
TEXT
  8
1
  6
BYLAYER
 62
  256
 10
84.74795784837578
 20
49.39564200576004
 40
2.116666666666666
  1
A
 50
-0
 41
1
 51
0
  7
YU GOTHIC UI_BOLD
 71
    0
210
0
220
0
230
1
  0
TEXT
  8
1
  6
BYLAYER
 62
  256
 10
75.54182165547522
 20
47.00718434256448
 40
1.322916666666667
  1
back_closing_collar
 50
-0
 41
1
 51
0
  7
YU GOTHIC UI_BOLD
 71
    0
210
0
220
0
230
1
  0
TEXT
  8
1
  6
BYLAYER
 62
  256
 10
77.43574610304212
 20
44.03024187223848
 40
1.058333333333333
  1
Fabric, Cut 2 on fold
 50
-0
 41
1
 51
0
  7
YU GOTHIC UI
 71
    0
210
0
220
0
230
1
  0
TEXT
  8
15
  6
BYLAYER
 62
  256
 10
113.159056806787
 20
44.97046469022986
 40
2.5
  1
back_closing_collar
 50
0
 41
1
 51
0
  7
STANDARD
 71
    0
210
0
220
0
230
1
  0
ENDBLK
  8
0
  0
ENDSEC
  0
SECTION
  2
ENTITIES
  0
TEXT
  8
1
  6
BYLAYER
 62
  256
 10
0
 20
5.000000000000005
 40
2.5
  1
EoV
 50
0
 41
1
 51
0
  7
STANDARD
 71
    0
210
0
220
0
230
1
  0
TEXT
  8
1
  6
BYLAYER
 62
  256
 10
0
 20
2.500000000000003
 40
2.5
  1
Collars
 50
0
 41
1
 51
0
  7
STANDARD
 71
    0
210
0
220
0
230
1
  0
TEXT
  8
1
  6
BYLAYER
 62
  256
 10
0
 20
0
 40
2.5
  1
2026-07-23
 50
0
 41
1
 51
0
  7
STANDARD
 71
    0
210
0
220
0
230
1
  0
INSERT
  8
1
  6
BYLAYER
 62
  256
  2
BACK_CLOSING_COLLAR
 10
0
 20
0
  0
ENDSEC
  0
EOF
